<svg width="92" height="60" viewBox="0 0 92 60" fill="none" xmlns="http://www.w3.org/2000/svg">
<g clip-path="url(#clip0_3_1660)">
<path d="M12.51 30.94L29.67 20.99C30.04 20.78 30.17 20.31 29.98 19.94L26.98 14.14C26.77 13.74 26.27 13.59 25.87 13.82L2.28 27.49C2.03 27.63 1.88 27.89 1.88 28.18V35.5H1.9L1.88 35.54L25.87 49.44C26.26 49.67 26.77 49.52 26.98 49.12L29.98 43.32C30.17 42.94 30.04 42.48 29.67 42.27L12.51 32.32C11.98 32.01 11.98 31.25 12.51 30.94Z" fill="url(#paint0_linear_3_1660)"/>
<path d="M51.58 4.17999L33.2 58.59C33.02 59.11 33.41 59.64 33.96 59.64L42.02 59.58C42.36 59.58 42.66 59.36 42.77 59.04L61.15 4.62999C61.33 4.10999 60.94 3.57999 60.39 3.57999L52.33 3.63999C51.99 3.63999 51.69 3.85999 51.58 4.17999Z" fill="url(#paint1_linear_3_1660)"/>
<path d="M91.6099 27.49L68.0199 13.82C67.6299 13.59 67.12 13.74 66.91 14.14L63.9099 19.94C63.7199 20.32 63.8499 20.78 64.2199 20.99L81.3799 30.94C81.9099 31.25 81.9099 32.01 81.3799 32.32L64.2199 42.27C63.8499 42.48 63.7199 42.95 63.9099 43.32L66.91 49.12C67.12 49.52 67.6199 49.67 68.0199 49.44L92.01 35.54L91.9899 35.5H92.01V28.18C92.01 27.9 91.8599 27.63 91.6099 27.49Z" fill="url(#paint2_linear_3_1660)"/>
<path d="M12.47 30.87L29.63 20.92C30 20.71 30.13 20.24 29.94 19.87L26.94 14.07C26.73 13.67 26.23 13.52 25.83 13.75L2.24003 27.42C1.99003 27.56 1.84003 27.82 1.84003 28.11V35.43H1.86003L1.84003 35.47L25.83 49.37C26.22 49.6 26.73 49.45 26.94 49.05L29.94 43.25C30.13 42.87 30 42.41 29.63 42.2L12.47 32.25C11.94 31.94 11.94 31.18 12.47 30.87Z" fill="url(#paint3_linear_3_1660)"/>
<path d="M51.54 4.11001L33.16 58.52C32.98 59.04 33.37 59.57 33.92 59.57L41.98 59.51C42.32 59.51 42.62 59.29 42.73 58.97L61.11 4.56001C61.29 4.04001 60.9 3.51001 60.35 3.51001L52.29 3.57001C51.95 3.57001 51.65 3.79001 51.54 4.11001Z" fill="url(#paint4_linear_3_1660)"/>
<path d="M91.57 27.42L67.98 13.75C67.59 13.52 67.08 13.67 66.87 14.07L63.87 19.87C63.68 20.25 63.81 20.71 64.18 20.92L81.34 30.87C81.87 31.18 81.87 31.94 81.34 32.25L64.18 42.2C63.81 42.41 63.68 42.88 63.87 43.25L66.87 49.05C67.08 49.45 67.58 49.6 67.98 49.37L91.97 35.47L91.95 35.43H91.97V28.11C91.97 27.83 91.82 27.56 91.57 27.42Z" fill="url(#paint5_linear_3_1660)"/>
<path d="M12.43 30.8L29.59 20.85C29.96 20.64 30.09 20.17 29.9 19.8L26.9 14C26.69 13.6 26.19 13.45 25.79 13.68L2.21 27.35C1.96 27.49 1.81 27.75 1.81 28.04V35.36H1.83L1.81 35.4L25.8 49.3C26.19 49.53 26.7 49.38 26.91 48.98L29.91 43.18C30.1 42.8 29.97 42.34 29.6 42.13L12.44 32.18C11.91 31.87 11.91 31.11 12.44 30.8H12.43Z" fill="url(#paint6_linear_3_1660)"/>
<path d="M51.51 4.04L33.13 58.45C32.95 58.97 33.34 59.5 33.89 59.5L41.95 59.44C42.29 59.44 42.59 59.22 42.7 58.9L61.08 4.49C61.26 3.97 60.87 3.44 60.32 3.44L52.26 3.5C51.92 3.5 51.62 3.72 51.51 4.04Z" fill="url(#paint7_linear_3_1660)"/>
<path d="M91.53 27.35L67.94 13.68C67.55 13.45 67.04 13.6 66.83 14L63.83 19.8C63.64 20.18 63.77 20.64 64.14 20.85L81.3 30.8C81.83 31.11 81.83 31.87 81.3 32.18L64.14 42.13C63.77 42.34 63.64 42.81 63.83 43.18L66.83 48.98C67.04 49.38 67.54 49.53 67.94 49.3L91.93 35.4L91.91 35.36H91.93V28.04C91.93 27.76 91.78 27.49 91.53 27.35Z" fill="url(#paint8_linear_3_1660)"/>
<path d="M12.4 30.73L29.56 20.78C29.93 20.57 30.06 20.1 29.87 19.73L26.87 13.93C26.66 13.53 26.16 13.38 25.76 13.61L2.17002 27.28C1.92002 27.42 1.77002 27.68 1.77002 27.97V35.29H1.79002L1.77002 35.33L25.76 49.23C26.15 49.46 26.66 49.31 26.87 48.91L29.87 43.11C30.06 42.73 29.93 42.27 29.56 42.06L12.4 32.11C11.87 31.8 11.87 31.04 12.4 30.73Z" fill="url(#paint9_linear_3_1660)"/>
<path d="M51.47 3.97L33.09 58.38C32.91 58.9 33.3 59.43 33.85 59.43L41.91 59.37C42.25 59.37 42.55 59.15 42.66 58.83L61.04 4.42C61.22 3.9 60.83 3.37 60.28 3.37L52.22 3.43C51.88 3.43 51.58 3.65 51.47 3.97Z" fill="url(#paint10_linear_3_1660)"/>
<path d="M91.4901 27.28L67.9001 13.61C67.5101 13.38 67.0001 13.53 66.7901 13.93L63.7901 19.73C63.6001 20.11 63.7301 20.57 64.1001 20.78L81.2601 30.73C81.7901 31.04 81.7901 31.8 81.2601 32.11L64.1001 42.06C63.7301 42.27 63.6001 42.74 63.7901 43.11L66.7901 48.91C67.0001 49.31 67.5001 49.46 67.9001 49.23L91.8901 35.33L91.8701 35.29H91.8901V27.97C91.8901 27.69 91.7401 27.42 91.4901 27.28Z" fill="url(#paint11_linear_3_1660)"/>
<path d="M12.36 30.66L29.52 20.71C29.89 20.5 30.02 20.03 29.83 19.66L26.83 13.86C26.62 13.46 26.12 13.31 25.72 13.54L2.12998 27.21C1.87998 27.35 1.72998 27.61 1.72998 27.9V35.22H1.74998L1.72998 35.26L25.72 49.16C26.11 49.39 26.62 49.24 26.83 48.84L29.83 43.04C30.02 42.66 29.89 42.2 29.52 41.99L12.36 32.04C11.83 31.73 11.83 30.97 12.36 30.66Z" fill="url(#paint12_linear_3_1660)"/>
<path d="M51.43 3.88999L33.05 58.3C32.87 58.82 33.26 59.35 33.81 59.35L41.87 59.29C42.21 59.29 42.51 59.07 42.62 58.75L61 4.34999C61.18 3.82999 60.79 3.29999 60.24 3.29999L52.18 3.35999C51.84 3.35999 51.54 3.57999 51.43 3.89999V3.88999Z" fill="url(#paint13_linear_3_1660)"/>
<path d="M91.4599 27.21L67.8699 13.54C67.4799 13.31 66.9699 13.46 66.7599 13.86L63.7599 19.66C63.5699 20.04 63.6999 20.5 64.0699 20.71L81.2299 30.66C81.7599 30.97 81.7599 31.73 81.2299 32.04L64.0699 41.99C63.6999 42.2 63.5699 42.67 63.7599 43.04L66.7599 48.84C66.9699 49.24 67.4699 49.39 67.8699 49.16L91.8599 35.26L91.8399 35.22H91.8599V27.9C91.8599 27.62 91.7099 27.35 91.4599 27.21Z" fill="url(#paint14_linear_3_1660)"/>
<path d="M12.32 30.59L29.48 20.64C29.85 20.43 29.98 19.96 29.79 19.59L26.79 13.79C26.58 13.39 26.08 13.24 25.68 13.47L2.09 27.14C1.84 27.28 1.69 27.54 1.69 27.83V35.15H1.71L1.69 35.19L25.68 49.09C26.07 49.32 26.58 49.17 26.79 48.77L29.79 42.97C29.98 42.59 29.85 42.13 29.48 41.92L12.32 31.97C11.79 31.66 11.79 30.9 12.32 30.59Z" fill="url(#paint15_linear_3_1660)"/>
<path d="M51.4 3.82001L33.02 58.23C32.84 58.75 33.23 59.28 33.78 59.28L41.84 59.22C42.18 59.22 42.48 59 42.59 58.68L60.97 4.28001C61.15 3.76001 60.76 3.23001 60.21 3.23001L52.15 3.29001C51.81 3.29001 51.51 3.51001 51.4 3.83001V3.82001Z" fill="url(#paint16_linear_3_1660)"/>
<path d="M91.42 27.14L67.83 13.47C67.44 13.24 66.93 13.39 66.72 13.79L63.72 19.59C63.53 19.97 63.66 20.43 64.03 20.64L81.19 30.59C81.72 30.9 81.72 31.66 81.19 31.97L64.03 41.92C63.66 42.13 63.53 42.6 63.72 42.97L66.72 48.77C66.93 49.17 67.43 49.32 67.83 49.09L91.82 35.19L91.8 35.15H91.82V27.83C91.82 27.55 91.67 27.28 91.42 27.14Z" fill="url(#paint17_linear_3_1660)"/>
<path d="M12.29 30.52L29.45 20.57C29.82 20.36 29.95 19.89 29.76 19.52L26.76 13.72C26.55 13.32 26.05 13.17 25.65 13.4L2.05997 27.07C1.80997 27.21 1.65997 27.47 1.65997 27.76V35.08H1.67997L1.65997 35.12L25.65 49.02C26.04 49.25 26.55 49.1 26.76 48.7L29.76 42.9C29.95 42.52 29.82 42.06 29.45 41.85L12.29 31.9C11.76 31.59 11.76 30.83 12.29 30.52Z" fill="url(#paint18_linear_3_1660)"/>
<path d="M51.3599 3.75L32.9799 58.16C32.7999 58.68 33.1899 59.21 33.7399 59.21L41.7999 59.15C42.1399 59.15 42.4399 58.93 42.5499 58.61L60.9299 4.21C61.1099 3.69 60.7199 3.16 60.1699 3.16L52.1099 3.22C51.7699 3.22 51.4699 3.44 51.3599 3.76V3.75Z" fill="url(#paint19_linear_3_1660)"/>
<path d="M91.38 27.07L67.79 13.4C67.4 13.17 66.89 13.32 66.68 13.72L63.68 19.52C63.49 19.9 63.62 20.36 63.99 20.57L81.15 30.52C81.68 30.83 81.68 31.59 81.15 31.9L63.99 41.85C63.62 42.06 63.49 42.53 63.68 42.9L66.68 48.7C66.89 49.1 67.39 49.25 67.79 49.02L91.78 35.12L91.76 35.08H91.78V27.76C91.78 27.48 91.63 27.21 91.38 27.07Z" fill="url(#paint20_linear_3_1660)"/>
<path d="M12.25 30.45L29.41 20.5C29.78 20.29 29.91 19.82 29.72 19.45L26.72 13.65C26.51 13.25 26.01 13.1 25.61 13.33L2.02 27C1.77 27.14 1.62 27.4 1.62 27.69V35.01H1.64L1.62 35.05L25.61 48.95C26 49.18 26.51 49.03 26.72 48.63L29.72 42.83C29.91 42.45 29.78 41.99 29.41 41.78L12.25 31.83C11.72 31.52 11.72 30.76 12.25 30.45Z" fill="url(#paint21_linear_3_1660)"/>
<path d="M51.32 3.68L32.94 58.09C32.76 58.61 33.15 59.14 33.7 59.14L41.76 59.08C42.1 59.08 42.4 58.86 42.51 58.54L60.89 4.14C61.07 3.62 60.68 3.09 60.13 3.09L52.07 3.15C51.73 3.15 51.43 3.37 51.32 3.69V3.68Z" fill="url(#paint22_linear_3_1660)"/>
<path d="M91.3499 27L67.7599 13.33C67.3699 13.1 66.8599 13.25 66.6499 13.65L63.6499 19.45C63.4599 19.83 63.5899 20.29 63.9599 20.5L81.1199 30.45C81.6499 30.76 81.6499 31.52 81.1199 31.83L63.9599 41.78C63.5899 41.99 63.4599 42.46 63.6499 42.83L66.6499 48.63C66.8599 49.03 67.3599 49.18 67.7599 48.95L91.7499 35.05L91.7299 35.01H91.7499V27.69C91.7499 27.41 91.5999 27.14 91.3499 27Z" fill="url(#paint23_linear_3_1660)"/>
<path d="M12.21 30.38L29.37 20.43C29.74 20.22 29.87 19.75 29.68 19.38L26.68 13.58C26.47 13.18 25.97 13.03 25.57 13.26L1.98002 26.93C1.73002 27.07 1.58002 27.33 1.58002 27.62V34.94H1.60002L1.58002 34.98L25.57 48.88C25.96 49.11 26.47 48.96 26.68 48.56L29.68 42.76C29.87 42.38 29.74 41.92 29.37 41.71L12.21 31.76C11.68 31.45 11.68 30.69 12.21 30.38Z" fill="url(#paint24_linear_3_1660)"/>
<path d="M51.28 3.60999L32.9 58.02C32.72 58.54 33.11 59.07 33.66 59.07L41.72 59.01C42.06 59.01 42.36 58.79 42.47 58.47L60.86 4.06999C61.04 3.54999 60.65 3.01999 60.1 3.01999L52.04 3.07999C51.7 3.07999 51.4 3.29999 51.29 3.61999L51.28 3.60999Z" fill="url(#paint25_linear_3_1660)"/>
<path d="M91.31 26.93L67.72 13.26C67.33 13.03 66.82 13.18 66.61 13.58L63.61 19.38C63.42 19.76 63.55 20.22 63.92 20.43L81.08 30.38C81.61 30.69 81.61 31.45 81.08 31.76L63.92 41.71C63.55 41.92 63.42 42.39 63.61 42.76L66.61 48.56C66.82 48.96 67.32 49.11 67.72 48.88L91.71 34.98L91.69 34.94H91.71V27.62C91.71 27.34 91.56 27.07 91.31 26.93Z" fill="url(#paint26_linear_3_1660)"/>
<path d="M12.18 30.31L29.34 20.36C29.71 20.15 29.84 19.68 29.65 19.31L26.65 13.51C26.44 13.11 25.94 12.96 25.54 13.19L1.94999 26.86C1.69999 27 1.54999 27.26 1.54999 27.55V34.87H1.56999L1.54999 34.91L25.54 48.81C25.93 49.04 26.44 48.89 26.65 48.49L29.65 42.69C29.84 42.31 29.71 41.85 29.34 41.64L12.18 31.69C11.65 31.38 11.65 30.62 12.18 30.31Z" fill="url(#paint27_linear_3_1660)"/>
<path d="M51.25 3.54001L32.87 57.95C32.69 58.47 33.08 59 33.63 59L41.69 58.94C42.03 58.94 42.33 58.72 42.44 58.4L60.82 4.00001C61 3.48001 60.61 2.95001 60.06 2.95001L52 3.01001C51.66 3.01001 51.36 3.23001 51.25 3.55001V3.54001Z" fill="url(#paint28_linear_3_1660)"/>
<path d="M91.27 26.86L67.68 13.19C67.29 12.96 66.78 13.11 66.57 13.51L63.57 19.31C63.38 19.69 63.51 20.15 63.88 20.36L81.04 30.31C81.57 30.62 81.57 31.38 81.04 31.69L63.88 41.64C63.51 41.85 63.38 42.32 63.57 42.69L66.57 48.49C66.78 48.89 67.28 49.04 67.68 48.81L91.67 34.91L91.65 34.87H91.67V27.55C91.67 27.27 91.52 27 91.27 26.86Z" fill="url(#paint29_linear_3_1660)"/>
<path d="M12.14 30.24L29.3 20.29C29.67 20.08 29.8 19.61 29.61 19.24L26.61 13.44C26.4 13.04 25.9 12.89 25.5 13.12L1.91001 26.79C1.66001 26.93 1.51001 27.19 1.51001 27.48V34.8H1.53001L1.51001 34.84L25.5 48.74C25.89 48.97 26.4 48.82 26.61 48.42L29.61 42.62C29.8 42.24 29.67 41.78 29.3 41.57L12.14 31.62C11.61 31.31 11.61 30.55 12.14 30.24Z" fill="url(#paint30_linear_3_1660)"/>
<path d="M51.21 3.47L32.83 57.88C32.65 58.4 33.04 58.93 33.59 58.93L41.65 58.87C41.99 58.87 42.29 58.65 42.4 58.33L60.78 3.93C60.96 3.41 60.57 2.88 60.02 2.88L51.96 2.94C51.62 2.94 51.32 3.16 51.21 3.48V3.47Z" fill="url(#paint31_linear_3_1660)"/>
<path d="M91.24 26.79L67.65 13.12C67.26 12.89 66.75 13.04 66.54 13.44L63.54 19.24C63.35 19.62 63.48 20.08 63.85 20.29L81.01 30.24C81.54 30.55 81.54 31.31 81.01 31.62L63.85 41.57C63.48 41.78 63.35 42.25 63.54 42.62L66.54 48.42C66.75 48.82 67.25 48.97 67.65 48.74L91.64 34.84L91.62 34.8H91.64V27.48C91.64 27.2 91.49 26.93 91.24 26.79Z" fill="url(#paint32_linear_3_1660)"/>
<path d="M12.1 30.17L29.26 20.22C29.63 20.01 29.76 19.54 29.57 19.17L26.57 13.37C26.36 12.97 25.86 12.82 25.46 13.05L1.86997 26.72C1.61997 26.86 1.46997 27.12 1.46997 27.41V34.73H1.48997L1.46997 34.77L25.46 48.67C25.85 48.9 26.36 48.75 26.57 48.35L29.57 42.55C29.76 42.17 29.63 41.71 29.26 41.5L12.1 31.55C11.57 31.24 11.57 30.48 12.1 30.17Z" fill="url(#paint33_linear_3_1660)"/>
<path d="M51.1699 3.4L32.7899 57.81C32.6099 58.33 32.9999 58.86 33.5499 58.86L41.6099 58.8C41.9499 58.8 42.2499 58.58 42.3599 58.26L60.7499 3.86C60.9299 3.34 60.5399 2.81 59.9899 2.81L51.9299 2.87C51.5899 2.87 51.2899 3.09 51.1799 3.41L51.1699 3.4Z" fill="url(#paint34_linear_3_1660)"/>
<path d="M91.1999 26.72L67.6099 13.05C67.2199 12.82 66.7099 12.97 66.4999 13.37L63.4999 19.17C63.3099 19.55 63.4399 20.01 63.8099 20.22L80.9699 30.17C81.4999 30.48 81.4999 31.24 80.9699 31.55L63.8099 41.5C63.4399 41.71 63.3099 42.18 63.4999 42.55L66.4999 48.35C66.7099 48.75 67.2099 48.9 67.6099 48.67L91.5999 34.77L91.5799 34.73H91.5999V27.41C91.5999 27.13 91.4499 26.86 91.1999 26.72Z" fill="url(#paint35_linear_3_1660)"/>
<path d="M12.06 30.1L29.22 20.15C29.59 19.94 29.72 19.47 29.53 19.1L26.53 13.3C26.32 12.9 25.82 12.75 25.42 12.98L1.84 26.65C1.59 26.79 1.44 27.05 1.44 27.34V34.66H1.46L1.44 34.7L25.43 48.6C25.82 48.83 26.33 48.68 26.54 48.28L29.54 42.48C29.73 42.1 29.6 41.64 29.23 41.43L12.06 31.48C11.53 31.17 11.53 30.41 12.06 30.1Z" fill="url(#paint36_linear_3_1660)"/>
<path d="M51.14 3.32999L32.76 57.74C32.58 58.26 32.97 58.79 33.52 58.79L41.58 58.73C41.92 58.73 42.22 58.51 42.33 58.19L60.71 3.78999C60.89 3.26999 60.5 2.73999 59.95 2.73999L51.89 2.79999C51.55 2.79999 51.25 3.01999 51.14 3.33999V3.32999Z" fill="url(#paint37_linear_3_1660)"/>
<path d="M91.16 26.65L67.57 12.98C67.18 12.75 66.67 12.9 66.46 13.3L63.46 19.1C63.27 19.48 63.4 19.94 63.77 20.15L80.93 30.1C81.46 30.41 81.46 31.17 80.93 31.48L63.77 41.43C63.4 41.64 63.27 42.11 63.46 42.48L66.46 48.28C66.67 48.68 67.17 48.83 67.57 48.6L91.56 34.7L91.54 34.66H91.56V27.34C91.56 27.06 91.41 26.79 91.16 26.65Z" fill="url(#paint38_linear_3_1660)"/>
<path d="M12.03 30.03L29.19 20.08C29.56 19.87 29.69 19.4 29.5 19.03L26.5 13.23C26.29 12.83 25.79 12.68 25.39 12.91L1.80002 26.58C1.55002 26.72 1.40002 26.98 1.40002 27.27V34.59H1.42002L1.40002 34.63L25.39 48.53C25.78 48.76 26.29 48.61 26.5 48.21L29.5 42.41C29.69 42.03 29.56 41.57 29.19 41.36L12.03 31.41C11.5 31.1 11.5 30.34 12.03 30.03Z" fill="url(#paint39_linear_3_1660)"/>
<path d="M51.1 3.26001L32.72 57.67C32.54 58.19 32.93 58.72 33.48 58.72L41.54 58.66C41.88 58.66 42.18 58.44 42.29 58.12L60.67 3.72001C60.85 3.20001 60.46 2.67001 59.91 2.67001L51.85 2.73001C51.51 2.73001 51.21 2.95001 51.1 3.27001V3.26001Z" fill="url(#paint40_linear_3_1660)"/>
<path d="M91.13 26.58L67.54 12.91C67.15 12.68 66.64 12.83 66.43 13.23L63.43 19.03C63.24 19.41 63.37 19.87 63.74 20.08L80.9 30.03C81.43 30.34 81.43 31.1 80.9 31.41L63.74 41.36C63.37 41.57 63.24 42.04 63.43 42.41L66.43 48.21C66.64 48.61 67.14 48.76 67.54 48.53L91.53 34.63L91.51 34.59H91.53V27.27C91.53 26.99 91.38 26.72 91.13 26.58Z" fill="url(#paint41_linear_3_1660)"/>
<path d="M11.99 29.96L29.15 20.01C29.52 19.8 29.65 19.33 29.46 18.96L26.46 13.16C26.25 12.76 25.75 12.61 25.35 12.84L1.75999 26.51C1.50999 26.65 1.35999 26.91 1.35999 27.2V34.52H1.37999L1.35999 34.56L25.35 48.46C25.74 48.69 26.25 48.54 26.46 48.14L29.46 42.34C29.65 41.96 29.52 41.5 29.15 41.29L11.99 31.34C11.46 31.03 11.46 30.27 11.99 29.96Z" fill="url(#paint42_linear_3_1660)"/>
<path d="M51.06 3.19L32.68 57.6C32.5 58.12 32.89 58.65 33.44 58.65L41.5 58.59C41.84 58.59 42.14 58.37 42.25 58.05L60.63 3.64C60.81 3.12 60.42 2.59 59.87 2.59L51.81 2.65C51.47 2.65 51.17 2.87 51.06 3.19Z" fill="url(#paint43_linear_3_1660)"/>
<path d="M91.0899 26.51L67.4999 12.84C67.1099 12.61 66.5999 12.76 66.3899 13.16L63.3899 18.96C63.1999 19.34 63.3299 19.8 63.6999 20.01L80.8599 29.96C81.3899 30.27 81.3899 31.03 80.8599 31.34L63.6999 41.29C63.3299 41.5 63.1999 41.97 63.3899 42.34L66.3899 48.14C66.5999 48.54 67.0999 48.69 67.4999 48.46L91.4899 34.56L91.4699 34.52H91.4899V27.2C91.4899 26.92 91.3399 26.65 91.0899 26.51Z" fill="url(#paint44_linear_3_1660)"/>
<path d="M11.95 29.89L29.11 19.94C29.48 19.73 29.61 19.26 29.42 18.89L26.42 13.09C26.21 12.69 25.71 12.54 25.31 12.77L1.73002 26.44C1.48002 26.58 1.33002 26.84 1.33002 27.13V34.45H1.35002L1.33002 34.49L25.32 48.39C25.71 48.62 26.22 48.47 26.43 48.07L29.43 42.27C29.62 41.89 29.49 41.43 29.12 41.22L11.95 31.27C11.42 30.96 11.42 30.2 11.95 29.89Z" fill="url(#paint45_linear_3_1660)"/>
<path d="M51.03 3.11999L32.65 57.53C32.47 58.05 32.86 58.58 33.41 58.58L41.47 58.52C41.81 58.52 42.11 58.3 42.22 57.98L60.6 3.56999C60.78 3.04999 60.39 2.51999 59.84 2.51999L51.78 2.57999C51.44 2.57999 51.14 2.79999 51.03 3.11999Z" fill="url(#paint46_linear_3_1660)"/>
<path d="M91.05 26.44L67.46 12.77C67.07 12.54 66.56 12.69 66.35 13.09L63.35 18.89C63.16 19.27 63.29 19.73 63.66 19.94L80.82 29.89C81.35 30.2 81.35 30.96 80.82 31.27L63.66 41.22C63.29 41.43 63.16 41.9 63.35 42.27L66.35 48.07C66.56 48.47 67.06 48.62 67.46 48.39L91.45 34.49L91.43 34.45H91.45V27.13C91.45 26.85 91.3 26.58 91.05 26.44Z" fill="url(#paint47_linear_3_1660)"/>
<path d="M11.92 29.82L29.08 19.87C29.45 19.66 29.58 19.19 29.39 18.82L26.39 13.02C26.18 12.62 25.68 12.47 25.28 12.7L1.68998 26.37C1.43998 26.51 1.28998 26.77 1.28998 27.06V34.38H1.30998L1.28998 34.42L25.28 48.32C25.67 48.55 26.18 48.4 26.39 48L29.39 42.2C29.58 41.82 29.45 41.36 29.08 41.15L11.92 31.2C11.39 30.89 11.39 30.13 11.92 29.82Z" fill="url(#paint48_linear_3_1660)"/>
<path d="M50.99 3.05001L32.61 57.46C32.43 57.98 32.82 58.51 33.37 58.51L41.43 58.45C41.77 58.45 42.07 58.23 42.18 57.91L60.56 3.50001C60.74 2.98001 60.35 2.45001 59.8 2.45001L51.74 2.51001C51.4 2.51001 51.1 2.73001 50.99 3.05001Z" fill="url(#paint49_linear_3_1660)"/>
<path d="M91.01 26.37L67.42 12.7C67.03 12.47 66.52 12.62 66.31 13.02L63.31 18.82C63.12 19.2 63.25 19.66 63.62 19.87L80.78 29.82C81.31 30.13 81.31 30.89 80.78 31.2L63.62 41.15C63.25 41.36 63.12 41.83 63.31 42.2L66.31 48C66.52 48.4 67.02 48.55 67.42 48.32L91.41 34.42L91.39 34.38H91.41V27.06C91.41 26.78 91.26 26.51 91.01 26.37Z" fill="url(#paint50_linear_3_1660)"/>
<path d="M11.88 29.75L29.04 19.8C29.41 19.59 29.54 19.12 29.35 18.75L26.35 12.95C26.14 12.55 25.64 12.4 25.24 12.63L1.65 26.3C1.4 26.44 1.25 26.7 1.25 26.99V34.31H1.27L1.25 34.35L25.24 48.25C25.63 48.48 26.14 48.33 26.35 47.93L29.35 42.13C29.54 41.75 29.41 41.29 29.04 41.08L11.88 31.13C11.35 30.82 11.35 30.06 11.88 29.75Z" fill="url(#paint51_linear_3_1660)"/>
<path d="M50.95 2.98L32.57 57.39C32.39 57.91 32.78 58.44 33.33 58.44L41.39 58.38C41.73 58.38 42.03 58.16 42.14 57.84L60.52 3.43C60.7 2.91 60.31 2.38 59.76 2.38L51.7 2.44C51.36 2.44 51.06 2.66 50.95 2.98Z" fill="url(#paint52_linear_3_1660)"/>
<path d="M90.9799 26.3L67.3899 12.63C66.9999 12.4 66.4899 12.55 66.2799 12.95L63.2799 18.75C63.0899 19.13 63.2199 19.59 63.5899 19.8L80.7499 29.75C81.2799 30.06 81.2799 30.82 80.7499 31.13L63.5899 41.08C63.2199 41.29 63.0899 41.76 63.2799 42.13L66.2799 47.93C66.4899 48.33 66.9899 48.48 67.3899 48.25L91.3799 34.35L91.3599 34.31H91.3799V26.99C91.3799 26.71 91.2299 26.44 90.9799 26.3Z" fill="url(#paint53_linear_3_1660)"/>
<path d="M11.84 29.68L29 19.73C29.37 19.52 29.5 19.05 29.31 18.68L26.31 12.88C26.1 12.48 25.6 12.33 25.2 12.56L1.61002 26.23C1.36002 26.37 1.21002 26.63 1.21002 26.92V34.24H1.23002L1.21002 34.28L25.2 48.18C25.59 48.41 26.1 48.26 26.31 47.86L29.31 42.06C29.5 41.68 29.37 41.22 29 41.01L11.84 31.06C11.31 30.75 11.31 29.99 11.84 29.68Z" fill="url(#paint54_linear_3_1660)"/>
<path d="M50.92 2.91L32.54 57.32C32.36 57.84 32.75 58.37 33.3 58.37L41.36 58.31C41.7 58.31 42 58.09 42.11 57.77L60.49 3.36C60.67 2.84 60.28 2.31 59.73 2.31L51.67 2.37C51.33 2.37 51.03 2.59 50.92 2.91Z" fill="url(#paint55_linear_3_1660)"/>
<path d="M90.94 26.23L67.35 12.56C66.96 12.33 66.45 12.48 66.24 12.88L63.24 18.68C63.05 19.06 63.18 19.52 63.55 19.73L80.71 29.68C81.24 29.99 81.24 30.75 80.71 31.06L63.55 41.01C63.18 41.22 63.05 41.69 63.24 42.06L66.24 47.86C66.45 48.26 66.95 48.41 67.35 48.18L91.34 34.28L91.32 34.24H91.34V26.92C91.34 26.64 91.19 26.37 90.94 26.23Z" fill="url(#paint56_linear_3_1660)"/>
<path d="M11.81 29.61L28.97 19.66C29.34 19.45 29.47 18.98 29.28 18.61L26.28 12.81C26.07 12.41 25.57 12.26 25.17 12.49L1.57999 26.15C1.32999 26.29 1.17999 26.55 1.17999 26.84V34.16H1.19999L1.17999 34.2L25.17 48.1C25.56 48.33 26.07 48.18 26.28 47.78L29.28 41.98C29.47 41.6 29.34 41.14 28.97 40.93L11.81 30.99C11.28 30.68 11.28 29.92 11.81 29.61Z" fill="url(#paint57_linear_3_1660)"/>
<path d="M50.88 2.83999L32.5 57.25C32.32 57.77 32.71 58.3 33.26 58.3L41.32 58.24C41.66 58.24 41.96 58.02 42.07 57.7L60.45 3.28999C60.63 2.76999 60.24 2.23999 59.69 2.23999L51.63 2.29999C51.29 2.29999 50.99 2.51999 50.88 2.83999Z" fill="url(#paint58_linear_3_1660)"/>
<path d="M90.9 26.15L67.31 12.48C66.92 12.25 66.41 12.4 66.2 12.8L63.2 18.6C63.01 18.98 63.14 19.44 63.51 19.65L80.67 29.6C81.2 29.91 81.2 30.67 80.67 30.98L63.51 40.93C63.14 41.14 63.01 41.61 63.2 41.98L66.2 47.78C66.41 48.18 66.91 48.33 67.31 48.1L91.3 34.2L91.28 34.16H91.3V26.84C91.3 26.56 91.15 26.29 90.9 26.15Z" fill="url(#paint59_linear_3_1660)"/>
<path d="M11.77 29.54L28.93 19.59C29.3 19.38 29.43 18.91 29.24 18.54L26.24 12.74C26.03 12.34 25.53 12.19 25.13 12.42L1.54001 26.08C1.29001 26.22 1.14001 26.48 1.14001 26.77V34.09H1.16001L1.14001 34.13L25.13 48.03C25.52 48.26 26.03 48.11 26.24 47.71L29.24 41.91C29.43 41.53 29.3 41.07 28.93 40.86L11.77 30.92C11.24 30.61 11.24 29.85 11.77 29.54Z" fill="url(#paint60_linear_3_1660)"/>
<path d="M50.84 2.77001L32.46 57.18C32.28 57.7 32.67 58.23 33.22 58.23L41.28 58.17C41.62 58.17 41.92 57.95 42.03 57.63L60.41 3.22001C60.59 2.70001 60.2 2.17001 59.65 2.17001L51.59 2.23001C51.25 2.23001 50.95 2.45001 50.84 2.77001Z" fill="url(#paint61_linear_3_1660)"/>
<path d="M90.87 26.08L67.28 12.41C66.89 12.18 66.38 12.33 66.17 12.73L63.17 18.53C62.98 18.91 63.11 19.37 63.48 19.58L80.64 29.53C81.17 29.84 81.17 30.6 80.64 30.91L63.48 40.86C63.11 41.07 62.98 41.54 63.17 41.91L66.17 47.71C66.38 48.11 66.88 48.26 67.28 48.03L91.27 34.13L91.25 34.09H91.27V26.77C91.27 26.49 91.12 26.22 90.87 26.08Z" fill="url(#paint62_linear_3_1660)"/>
<path d="M11.73 29.47L28.89 19.52C29.26 19.31 29.39 18.84 29.2 18.47L26.2 12.67C25.99 12.27 25.49 12.12 25.09 12.35L1.49998 26.01C1.24998 26.15 1.09998 26.41 1.09998 26.7V34.02H1.11998L1.09998 34.06L25.09 47.96C25.48 48.19 25.99 48.04 26.2 47.64L29.2 41.84C29.39 41.46 29.26 41 28.89 40.79L11.73 30.85C11.2 30.54 11.2 29.78 11.73 29.47Z" fill="url(#paint63_linear_3_1660)"/>
<path d="M50.81 2.70001L32.43 57.11C32.25 57.63 32.64 58.16 33.19 58.16L41.25 58.1C41.59 58.1 41.89 57.88 42 57.56L60.38 3.15001C60.56 2.63001 60.17 2.10001 59.62 2.10001L51.56 2.16001C51.22 2.16001 50.92 2.38001 50.81 2.70001Z" fill="url(#paint64_linear_3_1660)"/>
<path d="M90.8299 26.01L67.2399 12.34C66.8499 12.11 66.3399 12.26 66.1299 12.66L63.1299 18.46C62.9399 18.84 63.0699 19.3 63.4399 19.51L80.5999 29.46C81.1299 29.77 81.1299 30.53 80.5999 30.84L63.4399 40.79C63.0699 41 62.9399 41.47 63.1299 41.84L66.1299 47.64C66.3399 48.04 66.8399 48.19 67.2399 47.96L91.2299 34.06L91.2099 34.02H91.2299V26.7C91.2299 26.42 91.0799 26.15 90.8299 26.01Z" fill="url(#paint65_linear_3_1660)"/>
<path d="M11.7 29.4L28.86 19.45C29.23 19.24 29.36 18.77 29.17 18.4L26.17 12.6C25.96 12.2 25.46 12.05 25.06 12.28L1.47001 25.94C1.22001 26.08 1.07001 26.34 1.07001 26.63V33.95H1.09001L1.07001 33.99L25.06 47.89C25.45 48.12 25.96 47.97 26.17 47.57L29.17 41.77C29.36 41.39 29.23 40.93 28.86 40.72L11.7 30.78C11.17 30.47 11.17 29.71 11.7 29.4Z" fill="url(#paint66_linear_3_1660)"/>
<path d="M50.77 2.63L32.39 57.04C32.21 57.56 32.6 58.09 33.15 58.09L41.21 58.03C41.55 58.03 41.85 57.81 41.96 57.49L60.34 3.08C60.52 2.56 60.13 2.03 59.58 2.03L51.52 2.09C51.18 2.09 50.88 2.31 50.77 2.63Z" fill="url(#paint67_linear_3_1660)"/>
<path d="M90.79 25.94L67.2 12.27C66.81 12.04 66.3 12.19 66.09 12.59L63.09 18.39C62.9 18.77 63.03 19.23 63.4 19.44L80.56 29.39C81.09 29.7 81.09 30.46 80.56 30.77L63.4 40.72C63.03 40.93 62.9 41.4 63.09 41.77L66.09 47.57C66.3 47.97 66.8 48.12 67.2 47.89L91.19 33.99L91.17 33.95H91.19V26.63C91.19 26.35 91.04 26.08 90.79 25.94Z" fill="url(#paint68_linear_3_1660)"/>
<path d="M11.66 29.33L28.82 19.38C29.19 19.17 29.32 18.7 29.13 18.33L26.13 12.53C25.92 12.13 25.42 11.98 25.02 12.21L1.43003 25.87C1.18003 26.01 1.03003 26.27 1.03003 26.56V33.88H1.05003L1.03003 33.92L25.02 47.82C25.41 48.05 25.92 47.9 26.13 47.5L29.13 41.7C29.32 41.32 29.19 40.86 28.82 40.65L11.66 30.71C11.13 30.4 11.13 29.64 11.66 29.33Z" fill="url(#paint69_linear_3_1660)"/>
<path d="M50.73 2.55999L32.35 56.97C32.17 57.49 32.56 58.02 33.11 58.02L41.17 57.96C41.51 57.96 41.81 57.74 41.92 57.42L60.3 3.00999C60.48 2.48999 60.09 1.95999 59.54 1.95999L51.48 2.01999C51.14 2.01999 50.84 2.23999 50.73 2.55999Z" fill="url(#paint70_linear_3_1660)"/>
<path d="M90.76 25.87L67.17 12.2C66.78 11.97 66.27 12.12 66.06 12.52L63.06 18.32C62.87 18.7 63 19.16 63.37 19.37L80.53 29.32C81.06 29.63 81.06 30.39 80.53 30.7L63.37 40.65C63 40.86 62.87 41.33 63.06 41.7L66.06 47.5C66.27 47.9 66.77 48.05 67.17 47.82L91.16 33.92L91.14 33.88H91.16V26.56C91.16 26.28 91.01 26.01 90.76 25.87Z" fill="url(#paint71_linear_3_1660)"/>
<path d="M11.62 29.26L28.78 19.31C29.15 19.1 29.28 18.63 29.09 18.26L26.09 12.46C25.88 12.06 25.38 11.91 24.98 12.14L1.38999 25.8C1.13999 25.94 0.98999 26.2 0.98999 26.49V33.81H1.00999L0.98999 33.85L24.98 47.75C25.37 47.98 25.88 47.83 26.09 47.43L29.09 41.63C29.28 41.25 29.15 40.79 28.78 40.58L11.62 30.64C11.09 30.33 11.09 29.57 11.62 29.26Z" fill="url(#paint72_linear_3_1660)"/>
<path d="M50.69 2.49001L32.31 56.9C32.13 57.42 32.52 57.95 33.07 57.95L41.13 57.89C41.47 57.89 41.77 57.67 41.88 57.35L60.27 2.94001C60.45 2.42001 60.06 1.89001 59.51 1.89001L51.45 1.95001C51.11 1.95001 50.81 2.17001 50.7 2.49001H50.69Z" fill="url(#paint73_linear_3_1660)"/>
<path d="M90.7199 25.8L67.1299 12.13C66.7399 11.9 66.2299 12.05 66.0199 12.45L63.0199 18.25C62.8299 18.63 62.9599 19.09 63.3299 19.3L80.4899 29.25C81.0199 29.56 81.0199 30.32 80.4899 30.63L63.3299 40.58C62.9599 40.79 62.8299 41.26 63.0199 41.63L66.0199 47.43C66.2299 47.83 66.7299 47.98 67.1299 47.75L91.1199 33.85L91.0999 33.81H91.1199V26.49C91.1199 26.21 90.9699 25.94 90.7199 25.8Z" fill="url(#paint74_linear_3_1660)"/>
<path d="M11.58 29.19L28.74 19.24C29.11 19.03 29.24 18.56 29.05 18.19L26.05 12.39C25.84 11.99 25.34 11.84 24.94 12.07L1.36002 25.73C1.11002 25.87 0.960022 26.13 0.960022 26.42V33.74H0.980022L0.960022 33.78L24.95 47.68C25.34 47.91 25.85 47.76 26.06 47.36L29.06 41.56C29.25 41.18 29.12 40.72 28.75 40.51L11.58 30.57C11.05 30.26 11.05 29.5 11.58 29.19Z" fill="url(#paint75_linear_3_1660)"/>
<path d="M50.66 2.42001L32.28 56.83C32.1 57.35 32.49 57.88 33.04 57.88L41.1 57.82C41.44 57.82 41.74 57.6 41.85 57.28L60.23 2.87001C60.41 2.35001 60.02 1.82001 59.47 1.82001L51.41 1.88001C51.07 1.88001 50.77 2.10001 50.66 2.42001Z" fill="url(#paint76_linear_3_1660)"/>
<path d="M90.68 25.73L67.09 12.06C66.7 11.83 66.19 11.98 65.98 12.38L62.98 18.18C62.79 18.56 62.92 19.02 63.29 19.23L80.45 29.18C80.98 29.49 80.98 30.25 80.45 30.56L63.29 40.51C62.92 40.72 62.79 41.19 62.98 41.56L65.98 47.36C66.19 47.76 66.69 47.91 67.09 47.68L91.08 33.78L91.06 33.74H91.08V26.42C91.08 26.14 90.93 25.87 90.68 25.73Z" fill="url(#paint77_linear_3_1660)"/>
<path d="M11.55 29.12L28.71 19.17C29.08 18.96 29.21 18.49 29.02 18.12L26.02 12.32C25.81 11.92 25.31 11.77 24.91 12L1.31998 25.66C1.06998 25.8 0.919983 26.06 0.919983 26.35V33.67H0.939983L0.919983 33.71L24.91 47.61C25.3 47.84 25.81 47.69 26.02 47.29L29.02 41.49C29.21 41.11 29.08 40.65 28.71 40.44L11.55 30.49C11.02 30.18 11.02 29.42 11.55 29.11V29.12Z" fill="url(#paint78_linear_3_1660)"/>
<path d="M50.62 2.35L32.24 56.76C32.06 57.28 32.45 57.81 33 57.81L41.06 57.75C41.4 57.75 41.7 57.53 41.81 57.21L60.19 2.8C60.37 2.28 59.98 1.75 59.43 1.75L51.37 1.81C51.03 1.81 50.73 2.03 50.62 2.35Z" fill="url(#paint79_linear_3_1660)"/>
<path d="M90.65 25.66L67.06 11.99C66.67 11.76 66.16 11.91 65.95 12.31L62.95 18.11C62.76 18.49 62.89 18.95 63.26 19.16L80.42 29.11C80.95 29.42 80.95 30.18 80.42 30.49L63.26 40.44C62.89 40.65 62.76 41.12 62.95 41.49L65.95 47.29C66.16 47.69 66.66 47.84 67.06 47.61L91.05 33.71L91.03 33.67H91.05V26.35C91.05 26.07 90.9 25.8 90.65 25.66Z" fill="url(#paint80_linear_3_1660)"/>
<path d="M11.51 29.05L28.67 19.1C29.04 18.89 29.17 18.42 28.98 18.05L25.98 12.25C25.77 11.85 25.27 11.7 24.87 11.93L1.28 25.59C1.03 25.73 0.880005 25.99 0.880005 26.28V33.6H0.900005L0.880005 33.64L24.87 47.54C25.26 47.77 25.77 47.62 25.98 47.22L28.98 41.42C29.17 41.04 29.04 40.58 28.67 40.37L11.51 30.42C10.98 30.11 10.98 29.35 11.51 29.04V29.05Z" fill="url(#paint81_linear_3_1660)"/>
<path d="M50.58 2.27999L32.2 56.69C32.02 57.21 32.41 57.74 32.96 57.74L41.02 57.68C41.36 57.68 41.66 57.46 41.77 57.14L60.16 2.72999C60.34 2.20999 59.95 1.67999 59.4 1.67999L51.34 1.73999C51 1.73999 50.7 1.95999 50.59 2.27999H50.58Z" fill="url(#paint82_linear_3_1660)"/>
<path d="M90.6099 25.59L67.0199 11.92C66.6299 11.69 66.12 11.84 65.91 12.24L62.9099 18.04C62.7199 18.42 62.8499 18.88 63.2199 19.09L80.3799 29.04C80.9099 29.35 80.9099 30.11 80.3799 30.42L63.2199 40.37C62.8499 40.58 62.7199 41.05 62.9099 41.42L65.91 47.22C66.12 47.62 66.6199 47.77 67.0199 47.54L91.01 33.64L90.9899 33.6H91.01V26.28C91.01 26 90.8599 25.73 90.6099 25.59Z" fill="url(#paint83_linear_3_1660)"/>
<path d="M11.47 28.98L28.63 19.03C29 18.82 29.13 18.35 28.94 17.98L25.94 12.18C25.73 11.78 25.23 11.63 24.83 11.86L1.24998 25.52C0.999976 25.66 0.849976 25.92 0.849976 26.21V33.53H0.869976L0.849976 33.57L24.84 47.47C25.23 47.7 25.74 47.55 25.95 47.15L28.95 41.35C29.14 40.97 29.01 40.51 28.64 40.3L11.47 30.35C10.94 30.04 10.94 29.28 11.47 28.97V28.98Z" fill="url(#paint84_linear_3_1660)"/>
<path d="M50.55 2.20999L32.17 56.62C31.99 57.14 32.38 57.67 32.93 57.67L40.99 57.61C41.33 57.61 41.63 57.39 41.74 57.07L60.12 2.65999C60.3 2.13999 59.91 1.60999 59.36 1.60999L51.3 1.66999C50.96 1.66999 50.66 1.88999 50.55 2.20999Z" fill="url(#paint85_linear_3_1660)"/>
<path d="M90.57 25.52L66.98 11.85C66.59 11.62 66.08 11.77 65.87 12.17L62.87 17.97C62.68 18.35 62.81 18.81 63.18 19.02L80.34 28.97C80.87 29.28 80.87 30.04 80.34 30.35L63.18 40.3C62.81 40.51 62.68 40.98 62.87 41.35L65.87 47.15C66.08 47.55 66.58 47.7 66.98 47.47L90.97 33.57L90.95 33.53H90.97V26.21C90.97 25.93 90.82 25.66 90.57 25.52Z" fill="url(#paint86_linear_3_1660)"/>
<path d="M11.44 28.91L28.6 18.96C28.97 18.75 29.1 18.28 28.91 17.91L25.91 12.11C25.7 11.71 25.2 11.56 24.8 11.79L1.21 25.45C0.959998 25.59 0.809998 25.85 0.809998 26.14V33.46H0.829998L0.809998 33.5L24.8 47.4C25.19 47.63 25.7 47.48 25.91 47.08L28.91 41.28C29.1 40.9 28.97 40.44 28.6 40.23L11.44 30.28C10.91 29.97 10.91 29.21 11.44 28.9V28.91Z" fill="url(#paint87_linear_3_1660)"/>
<path d="M50.51 2.14001L32.13 56.55C31.95 57.07 32.34 57.6 32.89 57.6L40.95 57.54C41.29 57.54 41.59 57.32 41.7 57L60.08 2.59001C60.26 2.07001 59.87 1.54001 59.32 1.54001L51.26 1.60001C50.92 1.60001 50.62 1.82001 50.51 2.14001Z" fill="url(#paint88_linear_3_1660)"/>
<path d="M90.54 25.45L66.95 11.78C66.56 11.55 66.05 11.7 65.84 12.1L62.84 17.9C62.65 18.28 62.78 18.74 63.15 18.95L80.31 28.9C80.84 29.21 80.84 29.97 80.31 30.28L63.15 40.23C62.78 40.44 62.65 40.91 62.84 41.28L65.84 47.08C66.05 47.48 66.55 47.63 66.95 47.4L90.94 33.5L90.92 33.46H90.94V26.14C90.94 25.86 90.79 25.59 90.54 25.45Z" fill="url(#paint89_linear_3_1660)"/>
<path d="M11.4 28.84L28.56 18.89C28.93 18.68 29.06 18.21 28.87 17.84L25.87 12.04C25.66 11.64 25.16 11.49 24.76 11.72L1.17002 25.38C0.92002 25.52 0.77002 25.78 0.77002 26.07V33.39H0.79002L0.77002 33.43L24.76 47.33C25.15 47.56 25.66 47.41 25.87 47.01L28.87 41.21C29.06 40.83 28.93 40.37 28.56 40.16L11.4 30.21C10.87 29.9 10.87 29.14 11.4 28.83V28.84Z" fill="url(#paint90_linear_3_1660)"/>
<path d="M50.47 2.07L32.09 56.48C31.91 57 32.3 57.53 32.85 57.53L40.91 57.47C41.25 57.47 41.55 57.25 41.66 56.93L60.04 2.52C60.22 2 59.83 1.47 59.28 1.47L51.22 1.53C50.88 1.53 50.58 1.75 50.47 2.07Z" fill="url(#paint91_linear_3_1660)"/>
<path d="M90.5 25.38L66.91 11.71C66.52 11.48 66.01 11.63 65.8 12.03L62.8 17.83C62.61 18.21 62.74 18.67 63.11 18.88L80.27 28.83C80.8 29.14 80.8 29.9 80.27 30.21L63.11 40.16C62.74 40.37 62.61 40.84 62.8 41.21L65.8 47.01C66.01 47.41 66.51 47.56 66.91 47.33L90.9 33.43L90.88 33.39H90.9V26.07C90.9 25.79 90.75 25.52 90.5 25.38Z" fill="url(#paint92_linear_3_1660)"/>
<path d="M11.36 28.77L28.52 18.82C28.89 18.61 29.02 18.14 28.83 17.77L25.83 11.97C25.62 11.57 25.12 11.42 24.72 11.65L1.12998 25.31C0.87998 25.45 0.72998 25.71 0.72998 26V33.32H0.74998L0.72998 33.36L24.72 47.26C25.11 47.49 25.62 47.34 25.83 46.94L28.83 41.14C29.02 40.76 28.89 40.3 28.52 40.09L11.36 30.14C10.83 29.83 10.83 29.07 11.36 28.76V28.77Z" fill="url(#paint93_linear_3_1660)"/>
<path d="M50.44 1.99999L32.06 56.41C31.88 56.93 32.27 57.46 32.82 57.46L40.88 57.4C41.22 57.4 41.52 57.18 41.63 56.86L60.01 2.44999C60.19 1.92999 59.8 1.39999 59.25 1.39999L51.19 1.45999C50.85 1.45999 50.55 1.67999 50.44 1.99999Z" fill="url(#paint94_linear_3_1660)"/>
<path d="M90.4599 25.31L66.8699 11.64C66.4799 11.41 65.9699 11.56 65.7599 11.96L62.7599 17.76C62.5699 18.14 62.6999 18.6 63.0699 18.81L80.2299 28.76C80.7599 29.07 80.7599 29.83 80.2299 30.14L63.0699 40.09C62.6999 40.3 62.5699 40.77 62.7599 41.14L65.7599 46.94C65.9699 47.34 66.4699 47.49 66.8699 47.26L90.8599 33.36L90.8399 33.32H90.8599V26C90.8599 25.72 90.7099 25.45 90.4599 25.31Z" fill="url(#paint95_linear_3_1660)"/>
<path d="M11.33 28.7L28.49 18.75C28.86 18.54 28.99 18.07 28.8 17.7L25.8 11.9C25.59 11.5 25.09 11.35 24.69 11.58L1.10001 25.24C0.850012 25.38 0.700012 25.64 0.700012 25.93V33.25H0.720012L0.700012 33.29L24.69 47.19C25.08 47.42 25.59 47.27 25.8 46.87L28.8 41.07C28.99 40.69 28.86 40.23 28.49 40.02L11.33 30.07C10.8 29.76 10.8 29 11.33 28.69V28.7Z" fill="url(#paint96_linear_3_1660)"/>
<path d="M50.4 1.92999L32.02 56.34C31.84 56.86 32.23 57.39 32.78 57.39L40.84 57.33C41.18 57.33 41.48 57.11 41.59 56.79L59.97 2.37999C60.15 1.85999 59.76 1.32999 59.21 1.32999L51.15 1.38999C50.81 1.38999 50.51 1.60999 50.4 1.92999Z" fill="url(#paint97_linear_3_1660)"/>
<path d="M90.42 25.24L66.83 11.57C66.44 11.34 65.93 11.49 65.72 11.89L62.72 17.69C62.53 18.07 62.66 18.53 63.03 18.74L80.19 28.69C80.72 29 80.72 29.76 80.19 30.07L63.03 40.02C62.66 40.23 62.53 40.7 62.72 41.07L65.72 46.87C65.93 47.27 66.43 47.42 66.83 47.19L90.82 33.29L90.8 33.25H90.82V25.93C90.82 25.65 90.67 25.38 90.42 25.24Z" fill="url(#paint98_linear_3_1660)"/>
<path d="M11.29 28.63L28.45 18.68C28.82 18.47 28.95 18 28.76 17.63L25.76 11.83C25.55 11.43 25.05 11.28 24.65 11.51L1.05997 25.17C0.809973 25.31 0.659973 25.57 0.659973 25.86V33.18H0.679973L0.659973 33.22L24.65 47.12C25.04 47.35 25.55 47.2 25.76 46.8L28.76 41C28.95 40.62 28.82 40.16 28.45 39.95L11.29 30C10.76 29.69 10.76 28.93 11.29 28.62V28.63Z" fill="url(#paint99_linear_3_1660)"/>
<path d="M50.3599 1.86001L31.9799 56.27C31.7999 56.79 32.1899 57.32 32.7399 57.32L40.7999 57.26C41.1399 57.26 41.4399 57.04 41.5499 56.72L59.9299 2.31001C60.1099 1.79001 59.7199 1.26001 59.1699 1.26001L51.1099 1.32001C50.7699 1.32001 50.4699 1.54001 50.3599 1.86001Z" fill="url(#paint100_linear_3_1660)"/>
<path d="M90.39 25.17L66.8 11.5C66.41 11.27 65.9 11.42 65.69 11.82L62.69 17.62C62.5 18 62.63 18.46 63 18.67L80.16 28.62C80.69 28.93 80.69 29.69 80.16 30L63 39.95C62.63 40.16 62.5 40.63 62.69 41L65.69 46.8C65.9 47.2 66.4 47.35 66.8 47.12L90.79 33.22L90.77 33.18H90.79V25.86C90.79 25.58 90.64 25.31 90.39 25.17Z" fill="url(#paint101_linear_3_1660)"/>
<path d="M11.25 28.56L28.41 18.61C28.78 18.4 28.91 17.93 28.72 17.56L25.72 11.76C25.51 11.36 25.01 11.21 24.61 11.44L1.02 25.1C0.769995 25.24 0.619995 25.5 0.619995 25.79V33.11H0.639995L0.619995 33.15L24.61 47.05C25 47.28 25.51 47.13 25.72 46.73L28.72 40.93C28.91 40.55 28.78 40.09 28.41 39.88L11.25 29.93C10.72 29.62 10.72 28.86 11.25 28.55V28.56Z" fill="url(#paint102_linear_3_1660)"/>
<path d="M50.33 1.79L31.94 56.2C31.76 56.72 32.15 57.25 32.7 57.25L40.76 57.19C41.1 57.19 41.4 56.97 41.51 56.65L59.9 2.24C60.08 1.72 59.69 1.19 59.14 1.19L51.08 1.25C50.74 1.25 50.44 1.47 50.33 1.79Z" fill="url(#paint103_linear_3_1660)"/>
<path d="M90.3499 25.1L66.7599 11.43C66.3699 11.2 65.8599 11.35 65.6499 11.75L62.6499 17.55C62.4599 17.93 62.5899 18.39 62.9599 18.6L80.1199 28.55C80.6499 28.86 80.6499 29.62 80.1199 29.93L62.9599 39.88C62.5899 40.09 62.4599 40.56 62.6499 40.93L65.6499 46.73C65.8599 47.13 66.3599 47.28 66.7599 47.05L90.7499 33.15L90.7299 33.11H90.7499V25.79C90.7499 25.51 90.5999 25.24 90.3499 25.1Z" fill="url(#paint104_linear_3_1660)"/>
<path d="M11.22 28.49L28.38 18.54C28.75 18.33 28.88 17.86 28.69 17.49L25.69 11.69C25.48 11.29 24.98 11.14 24.58 11.37L0.990027 25.03C0.740027 25.17 0.590027 25.43 0.590027 25.72V33.04H0.610027L0.590027 33.08L24.58 46.98C24.97 47.21 25.48 47.06 25.69 46.66L28.69 40.86C28.88 40.48 28.75 40.02 28.38 39.81L11.22 29.86C10.69 29.55 10.69 28.79 11.22 28.48V28.49Z" fill="url(#paint105_linear_3_1660)"/>
<path d="M50.2901 1.72L31.9001 56.13C31.7201 56.65 32.1101 57.18 32.6601 57.18L40.7201 57.12C41.0601 57.12 41.3601 56.9 41.4701 56.58L59.8601 2.17C60.0401 1.65 59.6501 1.12 59.1001 1.12L51.0401 1.18C50.7001 1.18 50.4001 1.4 50.2901 1.72Z" fill="url(#paint106_linear_3_1660)"/>
<path d="M90.31 25.03L66.72 11.36C66.33 11.13 65.82 11.28 65.61 11.68L62.61 17.48C62.42 17.86 62.55 18.32 62.92 18.53L80.08 28.48C80.61 28.79 80.61 29.55 80.08 29.86L62.92 39.81C62.55 40.02 62.42 40.49 62.61 40.86L65.61 46.66C65.82 47.06 66.32 47.21 66.72 46.98L90.71 33.08L90.69 33.04H90.71V25.72C90.71 25.44 90.56 25.17 90.31 25.03Z" fill="url(#paint107_linear_3_1660)"/>
<path d="M11.18 28.42L28.34 18.47C28.71 18.26 28.84 17.79 28.65 17.42L25.65 11.62C25.44 11.22 24.94 11.07 24.54 11.3L0.949988 24.96C0.699988 25.1 0.549988 25.36 0.549988 25.65V32.97H0.569988L0.549988 33.01L24.54 46.91C24.93 47.14 25.44 46.99 25.65 46.59L28.65 40.79C28.84 40.41 28.71 39.95 28.34 39.74L11.18 29.79C10.65 29.48 10.65 28.72 11.18 28.41V28.42Z" fill="url(#paint108_linear_3_1660)"/>
<path d="M50.25 1.64999L31.87 56.06C31.69 56.58 32.08 57.11 32.63 57.11L40.69 57.05C41.03 57.05 41.33 56.83 41.44 56.51L59.82 2.09999C60 1.57999 59.61 1.04999 59.06 1.04999L51 1.10999C50.66 1.10999 50.36 1.32999 50.25 1.64999Z" fill="url(#paint109_linear_3_1660)"/>
<path d="M90.28 24.96L66.69 11.29C66.3 11.06 65.79 11.21 65.58 11.61L62.58 17.41C62.39 17.79 62.52 18.25 62.89 18.46L80.05 28.41C80.58 28.72 80.58 29.48 80.05 29.79L62.89 39.74C62.52 39.95 62.39 40.42 62.58 40.79L65.58 46.59C65.79 46.99 66.29 47.14 66.69 46.91L90.68 33.01L90.66 32.97H90.68V25.65C90.68 25.37 90.53 25.1 90.28 24.96Z" fill="url(#paint110_linear_3_1660)"/>
<path d="M11.14 28.35L28.3 18.4C28.67 18.19 28.8 17.72 28.61 17.35L25.61 11.55C25.4 11.15 24.9 11 24.5 11.23L0.91001 24.89C0.66001 25.03 0.51001 25.29 0.51001 25.58V32.9H0.53001L0.51001 32.94L24.5 46.84C24.89 47.07 25.4 46.92 25.61 46.52L28.61 40.72C28.8 40.34 28.67 39.88 28.3 39.67L11.14 29.72C10.61 29.41 10.61 28.65 11.14 28.34V28.35Z" fill="url(#paint111_linear_3_1660)"/>
<path d="M50.21 1.58001L31.83 55.99C31.65 56.51 32.04 57.04 32.59 57.04L40.65 56.98C40.99 56.98 41.29 56.76 41.4 56.44L59.79 2.03001C59.97 1.51001 59.58 0.980011 59.03 0.980011L50.97 1.04001C50.63 1.04001 50.33 1.26001 50.22 1.58001H50.21Z" fill="url(#paint112_linear_3_1660)"/>
<path d="M90.24 24.89L66.65 11.22C66.26 10.99 65.75 11.14 65.54 11.54L62.54 17.34C62.35 17.72 62.48 18.18 62.85 18.39L80.01 28.34C80.54 28.65 80.54 29.41 80.01 29.72L62.85 39.67C62.48 39.88 62.35 40.35 62.54 40.72L65.54 46.52C65.75 46.92 66.25 47.07 66.65 46.84L90.64 32.94L90.62 32.9H90.64V25.58C90.64 25.3 90.49 25.03 90.24 24.89Z" fill="url(#paint113_linear_3_1660)"/>
<path d="M11.11 28.28L28.27 18.33C28.64 18.12 28.77 17.65 28.58 17.28L25.58 11.48C25.37 11.08 24.87 10.93 24.47 11.16L0.87998 24.82C0.62998 24.96 0.47998 25.22 0.47998 25.51V32.83H0.49998L0.47998 32.87L24.47 46.77C24.86 47 25.37 46.85 25.58 46.45L28.58 40.65C28.77 40.27 28.64 39.81 28.27 39.6L11.11 29.65C10.58 29.34 10.58 28.58 11.11 28.27V28.28Z" fill="url(#paint114_linear_3_1660)"/>
<path d="M50.18 1.51L31.79 55.92C31.61 56.44 32 56.97 32.55 56.97L40.61 56.91C40.95 56.91 41.25 56.69 41.36 56.37L59.75 1.96C59.93 1.44 59.54 0.910004 58.99 0.910004L50.93 0.970004C50.59 0.970004 50.29 1.19 50.18 1.51Z" fill="url(#paint115_linear_3_1660)"/>
<path d="M90.2 24.82L66.61 11.15C66.22 10.92 65.71 11.07 65.5 11.47L62.5 17.27C62.31 17.65 62.44 18.11 62.81 18.32L79.97 28.27C80.5 28.58 80.5 29.34 79.97 29.65L62.81 39.6C62.44 39.81 62.31 40.28 62.5 40.65L65.5 46.45C65.71 46.85 66.21 47 66.61 46.77L90.6 32.87L90.58 32.83H90.6V25.51C90.6 25.23 90.45 24.96 90.2 24.82Z" fill="url(#paint116_linear_3_1660)"/>
<path d="M11.07 28.21L28.23 18.26C28.6 18.05 28.73 17.58 28.54 17.21L25.54 11.41C25.33 11.01 24.83 10.86 24.43 11.09L0.840002 24.75C0.590002 24.89 0.440002 25.15 0.440002 25.44V32.76H0.460002L0.440002 32.8L24.43 46.7C24.82 46.93 25.33 46.78 25.54 46.38L28.54 40.58C28.73 40.2 28.6 39.74 28.23 39.53L11.07 29.58C10.54 29.27 10.54 28.51 11.07 28.2V28.21Z" fill="url(#paint117_linear_3_1660)"/>
<path d="M50.14 1.44L31.76 55.85C31.58 56.37 31.97 56.9 32.52 56.9L40.58 56.84C40.92 56.84 41.22 56.62 41.33 56.3L59.71 1.89C59.89 1.37 59.5 0.839996 58.95 0.839996L50.89 0.899996C50.55 0.899996 50.25 1.12 50.14 1.44Z" fill="url(#paint118_linear_3_1660)"/>
<path d="M90.17 24.75L66.58 11.08C66.19 10.85 65.68 11 65.47 11.4L62.47 17.2C62.28 17.58 62.41 18.04 62.78 18.25L79.94 28.2C80.47 28.51 80.47 29.27 79.94 29.58L62.78 39.53C62.41 39.74 62.28 40.21 62.47 40.58L65.47 46.38C65.68 46.78 66.18 46.93 66.58 46.7L90.57 32.8L90.55 32.76H90.57V25.44C90.57 25.16 90.42 24.89 90.17 24.75Z" fill="url(#paint119_linear_3_1660)"/>
<path d="M11.03 28.14L28.19 18.19C28.56 17.98 28.69 17.51 28.5 17.14L25.5 11.34C25.29 10.94 24.79 10.79 24.39 11.02L0.800024 24.68C0.550024 24.82 0.400024 25.08 0.400024 25.37V32.69H0.420024L0.400024 32.73L24.39 46.63C24.78 46.86 25.29 46.71 25.5 46.31L28.5 40.51C28.69 40.13 28.56 39.67 28.19 39.46L11.03 29.51C10.5 29.2 10.5 28.44 11.03 28.13V28.14Z" fill="url(#paint120_linear_3_1660)"/>
<path d="M50.1 1.36999L31.72 55.78C31.54 56.3 31.93 56.83 32.48 56.83L40.54 56.77C40.88 56.77 41.18 56.55 41.29 56.23L59.68 1.81999C59.86 1.29999 59.47 0.769989 58.92 0.769989L50.86 0.829989C50.52 0.829989 50.22 1.04999 50.11 1.36999H50.1Z" fill="url(#paint121_linear_3_1660)"/>
<path d="M90.13 24.68L66.54 11.01C66.15 10.78 65.64 10.93 65.43 11.33L62.43 17.13C62.24 17.51 62.37 17.97 62.74 18.18L79.9 28.13C80.43 28.44 80.43 29.2 79.9 29.51L62.74 39.46C62.37 39.67 62.24 40.14 62.43 40.51L65.43 46.31C65.64 46.71 66.14 46.86 66.54 46.63L90.53 32.73L90.51 32.69H90.53V25.37C90.53 25.09 90.38 24.82 90.13 24.68Z" fill="url(#paint122_linear_3_1660)"/>
<path d="M10.99 28.07L28.15 18.12C28.52 17.91 28.65 17.44 28.46 17.07L25.46 11.27C25.25 10.87 24.75 10.72 24.35 10.95L0.769995 24.61C0.519995 24.75 0.369995 25.01 0.369995 25.3V32.62H0.389995L0.369995 32.66L24.36 46.56C24.75 46.79 25.26 46.64 25.47 46.24L28.47 40.44C28.66 40.06 28.53 39.6 28.16 39.39L10.99 29.44C10.46 29.13 10.46 28.37 10.99 28.06V28.07Z" fill="url(#paint123_linear_3_1660)"/>
<path d="M50.07 1.30001L31.68 55.71C31.5 56.23 31.89 56.76 32.44 56.76L40.5 56.7C40.84 56.7 41.14 56.48 41.25 56.16L59.64 1.75001C59.82 1.23001 59.43 0.700012 58.88 0.700012L50.82 0.760012C50.48 0.760012 50.18 0.980012 50.07 1.30001Z" fill="url(#paint124_linear_3_1660)"/>
<path d="M90.09 24.61L66.5001 10.94C66.1101 10.71 65.6001 10.86 65.3901 11.26L62.3901 17.06C62.2001 17.44 62.3301 17.9 62.7001 18.11L79.8601 28.06C80.3901 28.37 80.3901 29.13 79.8601 29.44L62.7001 39.39C62.3301 39.6 62.2001 40.07 62.3901 40.44L65.3901 46.24C65.6001 46.64 66.1001 46.79 66.5001 46.56L90.49 32.66L90.4701 32.62H90.49V25.3C90.49 25.02 90.34 24.75 90.09 24.61Z" fill="url(#paint125_linear_3_1660)"/>
<path d="M10.96 28L28.12 18.05C28.49 17.84 28.62 17.37 28.43 17L25.43 11.2C25.22 10.8 24.72 10.65 24.32 10.88L0.730017 24.54C0.480017 24.68 0.330017 24.94 0.330017 25.23V32.55H0.350017L0.330017 32.59L24.32 46.49C24.71 46.72 25.22 46.57 25.43 46.17L28.43 40.37C28.62 39.99 28.49 39.53 28.12 39.32L10.96 29.37C10.43 29.06 10.43 28.3 10.96 27.99V28Z" fill="url(#paint126_linear_3_1660)"/>
<path d="M50.03 1.23L31.65 55.64C31.47 56.16 31.86 56.69 32.41 56.69L40.47 56.63C40.81 56.63 41.11 56.41 41.22 56.09L59.6 1.68C59.78 1.16 59.39 0.630005 58.84 0.630005L50.78 0.690005C50.44 0.690005 50.14 0.910005 50.03 1.23Z" fill="url(#paint127_linear_3_1660)"/>
<path d="M90.06 24.54L66.47 10.87C66.08 10.64 65.57 10.79 65.36 11.19L62.36 16.99C62.17 17.37 62.3 17.83 62.67 18.04L79.83 27.99C80.36 28.3 80.36 29.06 79.83 29.37L62.67 39.32C62.3 39.53 62.17 40 62.36 40.37L65.36 46.17C65.57 46.57 66.07 46.72 66.47 46.49L90.46 32.59L90.44 32.55H90.46V25.23C90.46 24.95 90.31 24.68 90.06 24.54Z" fill="url(#paint128_linear_3_1660)"/>
<path d="M10.92 27.93L28.08 17.98C28.45 17.77 28.58 17.3 28.39 16.93L25.39 11.13C25.18 10.73 24.68 10.58 24.28 10.81L0.689978 24.47C0.439978 24.61 0.289978 24.87 0.289978 25.16V32.48H0.309978L0.289978 32.52L24.28 46.42C24.67 46.65 25.18 46.5 25.39 46.1L28.39 40.3C28.58 39.92 28.45 39.46 28.08 39.25L10.92 29.3C10.39 28.99 10.39 28.23 10.92 27.92V27.93Z" fill="url(#paint129_linear_3_1660)"/>
<path d="M49.99 1.16L31.61 55.57C31.43 56.09 31.82 56.62 32.37 56.62L40.43 56.56C40.77 56.56 41.07 56.34 41.18 56.02L59.56 1.61C59.74 1.09 59.35 0.559998 58.8 0.559998L50.74 0.619998C50.4 0.619998 50.1 0.839998 49.99 1.16Z" fill="url(#paint130_linear_3_1660)"/>
<path d="M90.02 24.47L66.43 10.8C66.04 10.57 65.53 10.72 65.32 11.12L62.32 16.92C62.13 17.3 62.26 17.76 62.63 17.97L79.79 27.92C80.32 28.23 80.32 28.99 79.79 29.3L62.63 39.25C62.26 39.46 62.13 39.93 62.32 40.3L65.32 46.1C65.53 46.5 66.03 46.65 66.43 46.42L90.42 32.52L90.4 32.48H90.42V25.16C90.42 24.88 90.27 24.61 90.02 24.47Z" fill="url(#paint131_linear_3_1660)"/>
<path d="M10.88 27.86L28.04 17.91C28.41 17.7 28.54 17.23 28.35 16.86L25.35 11.06C25.14 10.66 24.64 10.51 24.24 10.74L0.66001 24.4C0.41001 24.54 0.26001 24.8 0.26001 25.09V32.41H0.28001L0.26001 32.45L24.25 46.35C24.64 46.58 25.15 46.43 25.36 46.03L28.36 40.23C28.55 39.85 28.42 39.39 28.05 39.18L10.88 29.23C10.35 28.92 10.35 28.16 10.88 27.85V27.86Z" fill="url(#paint132_linear_3_1660)"/>
<path d="M49.96 1.08999L31.57 55.5C31.39 56.02 31.78 56.55 32.33 56.55L40.39 56.49C40.73 56.49 41.03 56.27 41.14 55.95L59.53 1.53999C59.71 1.01999 59.32 0.48999 58.77 0.48999L50.71 0.54999C50.37 0.54999 50.07 0.76999 49.96 1.08999Z" fill="url(#paint133_linear_3_1660)"/>
<path d="M89.9801 24.4L66.3901 10.73C66.0001 10.5 65.4901 10.65 65.2801 11.05L62.2801 16.85C62.0901 17.23 62.2201 17.69 62.5901 17.9L79.7501 27.85C80.2801 28.16 80.2801 28.92 79.7501 29.23L62.5901 39.18C62.2201 39.39 62.0901 39.86 62.2801 40.23L65.2801 46.03C65.4901 46.43 65.9901 46.58 66.3901 46.35L90.3801 32.45L90.3601 32.41H90.3801V25.09C90.3801 24.81 90.2301 24.54 89.9801 24.4Z" fill="url(#paint134_linear_3_1660)"/>
<path d="M10.85 27.79L28.01 17.84C28.38 17.63 28.51 17.16 28.32 16.79L25.32 10.99C25.11 10.59 24.61 10.44 24.21 10.67L0.619971 24.33C0.369971 24.47 0.219971 24.73 0.219971 25.02V32.34H0.239971L0.219971 32.38L24.21 46.28C24.6 46.51 25.11 46.36 25.32 45.96L28.32 40.16C28.51 39.78 28.38 39.32 28.01 39.11L10.85 29.16C10.32 28.85 10.32 28.09 10.85 27.78V27.79Z" fill="url(#paint135_linear_3_1660)"/>
<path d="M49.9199 1.02001L31.5399 55.43C31.3599 55.95 31.7499 56.48 32.2999 56.48L40.3599 56.42C40.6999 56.42 40.9999 56.2 41.1099 55.88L59.4899 1.47001C59.6699 0.950014 59.2799 0.420013 58.7299 0.420013L50.6699 0.480013C50.3299 0.480013 50.0299 0.700013 49.9199 1.02001Z" fill="url(#paint136_linear_3_1660)"/>
<path d="M89.94 24.33L66.35 10.66C65.96 10.43 65.45 10.58 65.24 10.98L62.24 16.78C62.05 17.16 62.18 17.62 62.55 17.83L79.71 27.78C80.24 28.09 80.24 28.85 79.71 29.16L62.55 39.11C62.18 39.32 62.05 39.79 62.24 40.16L65.24 45.96C65.45 46.36 65.95 46.51 66.35 46.28L90.34 32.38L90.32 32.34H90.34V25.02C90.34 24.74 90.19 24.47 89.94 24.33Z" fill="url(#paint137_linear_3_1660)"/>
<path d="M10.81 27.72L27.97 17.77C28.34 17.56 28.47 17.09 28.28 16.72L25.28 10.92C25.07 10.52 24.57 10.37 24.17 10.6L0.579993 24.26C0.329993 24.4 0.179993 24.66 0.179993 24.95V32.27H0.199993L0.179993 32.31L24.17 46.21C24.56 46.44 25.07 46.29 25.28 45.89L28.28 40.09C28.47 39.71 28.34 39.25 27.97 39.04L10.81 29.09C10.28 28.78 10.28 28.02 10.81 27.71V27.72Z" fill="url(#paint138_linear_3_1660)"/>
<path d="M49.88 0.950006L31.5 55.36C31.32 55.88 31.71 56.41 32.26 56.41L40.32 56.35C40.66 56.35 40.96 56.13 41.07 55.81L59.45 1.40001C59.63 0.880006 59.24 0.350006 58.69 0.350006L50.63 0.410006C50.29 0.410006 49.99 0.630006 49.88 0.950006Z" fill="url(#paint139_linear_3_1660)"/>
<path d="M89.91 24.26L66.32 10.59C65.93 10.36 65.42 10.51 65.21 10.91L62.21 16.71C62.02 17.09 62.15 17.55 62.52 17.76L79.68 27.71C80.21 28.02 80.21 28.78 79.68 29.09L62.52 39.04C62.15 39.25 62.02 39.72 62.21 40.09L65.21 45.89C65.42 46.29 65.92 46.44 66.32 46.21L90.31 32.31L90.29 32.27H90.31V24.95C90.31 24.67 90.16 24.4 89.91 24.26Z" fill="url(#paint140_linear_3_1660)"/>
<path d="M10.77 27.65L27.93 17.7C28.3 17.49 28.43 17.02 28.24 16.65L25.24 10.85C25.03 10.45 24.53 10.3 24.13 10.53L0.540015 24.19C0.290015 24.33 0.140015 24.59 0.140015 24.88V32.2H0.160015L0.140015 32.24L24.13 46.14C24.52 46.37 25.03 46.22 25.24 45.82L28.24 40.02C28.43 39.64 28.3 39.18 27.93 38.97L10.77 29.02C10.24 28.71 10.24 27.95 10.77 27.64V27.65Z" fill="url(#paint141_linear_3_1660)"/>
<path d="M49.85 0.879999L31.46 55.29C31.28 55.81 31.67 56.34 32.22 56.34L40.28 56.28C40.62 56.28 40.92 56.06 41.03 55.74L59.42 1.33C59.6 0.809999 59.21 0.279999 58.66 0.279999L50.6 0.339999C50.26 0.339999 49.96 0.559999 49.85 0.879999Z" fill="url(#paint142_linear_3_1660)"/>
<path d="M89.87 24.19L66.28 10.52C65.89 10.29 65.38 10.44 65.17 10.84L62.17 16.64C61.98 17.02 62.11 17.48 62.48 17.69L79.64 27.64C80.17 27.95 80.17 28.71 79.64 29.02L62.48 38.97C62.11 39.18 61.98 39.65 62.17 40.02L65.17 45.82C65.38 46.22 65.88 46.37 66.28 46.14L90.27 32.24L90.25 32.2H90.27V24.88C90.27 24.6 90.12 24.33 89.87 24.19Z" fill="url(#paint143_linear_3_1660)"/>
<path d="M10.74 27.58L27.9 17.63C28.27 17.42 28.4 16.95 28.21 16.58L25.21 10.78C25 10.38 24.5 10.23 24.1 10.46L0.509985 24.12C0.259985 24.26 0.109985 24.52 0.109985 24.81V32.13H0.129985L0.109985 32.17L24.1 46.07C24.49 46.3 25 46.15 25.21 45.75L28.21 39.95C28.4 39.57 28.27 39.11 27.9 38.9L10.74 28.95C10.21 28.64 10.21 27.88 10.74 27.57V27.58Z" fill="url(#paint144_linear_3_1660)"/>
<path d="M49.81 0.809991L31.42 55.22C31.24 55.74 31.63 56.27 32.18 56.27L40.24 56.21C40.58 56.21 40.88 55.99 40.99 55.67L59.38 1.25999C59.56 0.739991 59.17 0.209991 58.62 0.209991L50.56 0.269991C50.22 0.269991 49.92 0.489991 49.81 0.809991Z" fill="url(#paint145_linear_3_1660)"/>
<path d="M89.83 24.12L66.24 10.45C65.85 10.22 65.34 10.37 65.13 10.77L62.13 16.57C61.94 16.95 62.07 17.41 62.44 17.62L79.6 27.57C80.13 27.88 80.13 28.64 79.6 28.95L62.44 38.9C62.07 39.11 61.94 39.58 62.13 39.95L65.13 45.75C65.34 46.15 65.84 46.3 66.24 46.07L90.23 32.17L90.21 32.13H90.23V24.81C90.23 24.53 90.08 24.26 89.83 24.12Z" fill="url(#paint146_linear_3_1660)"/>
<path d="M10.7 27.51L27.86 17.56C28.23 17.35 28.36 16.88 28.17 16.51L25.17 10.71C24.96 10.31 24.46 10.16 24.06 10.39L0.470007 24.05C0.220007 24.19 0.0700073 24.45 0.0700073 24.74V32.06H0.0900073L0.0700073 32.1L24.06 46C24.45 46.23 24.96 46.08 25.17 45.68L28.17 39.88C28.36 39.5 28.23 39.04 27.86 38.83L10.7 28.88C10.17 28.57 10.17 27.81 10.7 27.5V27.51Z" fill="url(#paint147_linear_3_1660)"/>
<path d="M49.77 0.740015L31.39 55.15C31.21 55.67 31.6 56.2 32.15 56.2L40.21 56.14C40.55 56.14 40.85 55.92 40.96 55.6L59.34 1.19001C59.52 0.670015 59.13 0.140015 58.58 0.140015L50.52 0.200015C50.18 0.200015 49.88 0.420015 49.77 0.740015Z" fill="url(#paint148_linear_3_1660)"/>
<path d="M89.8 24.05L66.21 10.38C65.82 10.15 65.31 10.3 65.1 10.7L62.1 16.5C61.91 16.88 62.04 17.34 62.41 17.55L79.57 27.5C80.1 27.81 80.1 28.57 79.57 28.88L62.41 38.83C62.04 39.04 61.91 39.51 62.1 39.88L65.1 45.68C65.31 46.08 65.81 46.23 66.21 46L90.2 32.1L90.18 32.06H90.2V24.74C90.2 24.46 90.05 24.19 89.8 24.05Z" fill="url(#paint149_linear_3_1660)"/>
<path d="M10.66 27.44L27.82 17.49C28.19 17.28 28.32 16.81 28.13 16.44L25.13 10.64C24.92 10.24 24.42 10.09 24.02 10.32L0.430029 23.98C0.180029 24.12 0.0300293 24.38 0.0300293 24.67V31.99H0.0500293L0.0300293 32.03L24.02 45.93C24.41 46.16 24.92 46.01 25.13 45.61L28.13 39.81C28.32 39.43 28.19 38.97 27.82 38.76L10.66 28.81C10.13 28.5 10.13 27.74 10.66 27.43V27.44Z" fill="url(#paint150_linear_3_1660)"/>
<path d="M49.73 0.670007L31.35 55.08C31.17 55.6 31.56 56.13 32.11 56.13L40.17 56.07C40.51 56.07 40.81 55.85 40.92 55.53L59.31 1.12001C59.49 0.600007 59.1 0.0700073 58.55 0.0700073L50.49 0.130007C50.15 0.130007 49.85 0.350007 49.74 0.670007H49.73Z" fill="url(#paint151_linear_3_1660)"/>
<path d="M89.76 23.98L66.17 10.31C65.78 10.08 65.27 10.23 65.06 10.63L62.06 16.43C61.87 16.81 62 17.27 62.37 17.48L79.53 27.43C80.06 27.74 80.06 28.5 79.53 28.81L62.37 38.76C62 38.97 61.87 39.44 62.06 39.81L65.06 45.61C65.27 46.01 65.77 46.16 66.17 45.93L90.16 32.03L90.14 31.99H90.16V24.67C90.16 24.39 90.01 24.12 89.76 23.98Z" fill="url(#paint152_linear_3_1660)"/>
<path d="M10.63 27.37L27.79 17.42C28.16 17.21 28.29 16.74 28.1 16.37L25.1 10.57C24.89 10.17 24.39 10.02 23.99 10.25L0.4 23.91C0.15 24.05 0 24.31 0 24.6V31.92H0.02L0 31.96L23.99 45.86C24.38 46.09 24.89 45.94 25.1 45.54L28.1 39.74C28.29 39.36 28.16 38.9 27.79 38.69L10.63 28.74C10.1 28.43 10.1 27.67 10.63 27.36V27.37Z" fill="url(#paint153_linear_3_1660)"/>
<path d="M49.7 0.6L31.31 55.01C31.13 55.53 31.52 56.06 32.07 56.06L40.13 56C40.47 56 40.77 55.78 40.88 55.46L59.27 1.05C59.44 0.53 59.06 0 58.51 0L50.45 0.06C50.11 0.06 49.81 0.28 49.7 0.6Z" fill="url(#paint154_linear_3_1660)"/>
<path d="M89.7201 23.91L66.1301 10.24C65.7401 10.01 65.2301 10.16 65.0201 10.56L62.0201 16.36C61.8301 16.74 61.9601 17.2 62.3301 17.41L79.4901 27.36C80.0201 27.67 80.0201 28.43 79.4901 28.74L62.3301 38.69C61.9601 38.9 61.8301 39.37 62.0201 39.74L65.0201 45.54C65.2301 45.94 65.7301 46.09 66.1301 45.86L90.1201 31.96L90.1001 31.92H90.1201V24.6C90.1201 24.32 89.9701 24.05 89.7201 23.91Z" fill="url(#paint155_linear_3_1660)"/>
<g style="mix-blend-mode:multiply">
<path style="mix-blend-mode:multiply" d="M11.94 29.93L29.1 19.98C29.47 19.77 29.6 19.3 29.41 18.93L26.41 13.13C26.2 12.73 25.7 12.58 25.3 12.81L1.71 26.47C1.46 26.61 1.31 26.87 1.31 27.16V34.48H1.33L1.31 34.52L25.3 48.42C25.69 48.65 26.2 48.5 26.41 48.1L29.41 42.3C29.6 41.92 29.47 41.46 29.1 41.25L11.94 31.3C11.41 30.99 11.41 30.23 11.94 29.92V29.93Z" fill="url(#paint156_linear_3_1660)"/>
<path style="mix-blend-mode:multiply" d="M51.02 3.16L32.64 57.57C32.46 58.09 32.85 58.62 33.4 58.62L41.46 58.56C41.8 58.56 42.1 58.34 42.21 58.02L60.59 3.61C60.77 3.09 60.38 2.56 59.83 2.56L51.77 2.62C51.43 2.62 51.13 2.84 51.02 3.16Z" fill="url(#paint157_linear_3_1660)"/>
<path style="mix-blend-mode:multiply" d="M91.04 26.47L67.45 12.8C67.06 12.57 66.55 12.72 66.34 13.12L63.34 18.92C63.15 19.3 63.28 19.76 63.65 19.97L80.81 29.92C81.34 30.23 81.34 30.99 80.81 31.3L63.65 41.25C63.28 41.46 63.15 41.93 63.34 42.3L66.34 48.1C66.55 48.5 67.05 48.65 67.45 48.42L91.44 34.52L91.42 34.48H91.44V27.16C91.44 26.88 91.29 26.61 91.04 26.47Z" fill="url(#paint158_linear_3_1660)"/>
</g>
<path d="M40.89 55.46C42.14 51.47 43.41 47.49 44.72 43.52L48.68 31.63L52.75 19.77C54.12 15.82 55.52 11.89 56.94 7.95999C55.69 11.95 54.42 15.93 53.11 19.9L49.15 31.79L45.08 43.65C43.71 47.6 42.31 51.53 40.89 55.46Z" fill="url(#paint159_linear_3_1660)"/>
<path d="M4.52002 34.2C7.83002 35.88 11.04 37.72 14.26 39.55C17.45 41.43 20.65 43.3 23.74 45.34C20.43 43.66 17.22 41.82 14 39.99C10.81 38.11 7.61002 36.24 4.52002 34.2Z" fill="url(#paint160_linear_3_1660)"/>
</g>
<defs>
<linearGradient id="paint0_linear_3_1660" x1="13.24" y1="16.85" x2="23.12" y2="56.66" gradientUnits="userSpaceOnUse">
<stop stop-color="#B6B6B6"/>
<stop offset="1" stop-color="#AAAAAA"/>
</linearGradient>
<linearGradient id="paint1_linear_3_1660" x1="42.02" y1="10.83" x2="51.9" y2="50.64" gradientUnits="userSpaceOnUse">
<stop stop-color="#B6B6B6"/>
<stop offset="1" stop-color="#AAAAAA"/>
</linearGradient>
<linearGradient id="paint2_linear_3_1660" x1="70.2799" y1="4.81999" x2="80.1599" y2="44.63" gradientUnits="userSpaceOnUse">
<stop stop-color="#B6B6B6"/>
<stop offset="1" stop-color="#AAAAAA"/>
</linearGradient>
<linearGradient id="paint3_linear_3_1660" x1="13.2" y1="16.78" x2="23.08" y2="56.59" gradientUnits="userSpaceOnUse">
<stop stop-color="#B7B7B7"/>
<stop offset="1" stop-color="#AAAAAA"/>
</linearGradient>
<linearGradient id="paint4_linear_3_1660" x1="41.98" y1="10.76" x2="51.86" y2="50.57" gradientUnits="userSpaceOnUse">
<stop stop-color="#B7B7B7"/>
<stop offset="1" stop-color="#AAAAAA"/>
</linearGradient>
<linearGradient id="paint5_linear_3_1660" x1="70.24" y1="4.75002" x2="80.12" y2="44.56" gradientUnits="userSpaceOnUse">
<stop stop-color="#B7B7B7"/>
<stop offset="1" stop-color="#AAAAAA"/>
</linearGradient>
<linearGradient id="paint6_linear_3_1660" x1="13.16" y1="16.71" x2="23.04" y2="56.52" gradientUnits="userSpaceOnUse">
<stop stop-color="#B9B9B9"/>
<stop offset="1" stop-color="#ABABAB"/>
</linearGradient>
<linearGradient id="paint7_linear_3_1660" x1="41.94" y1="10.68" x2="51.82" y2="50.5" gradientUnits="userSpaceOnUse">
<stop stop-color="#B9B9B9"/>
<stop offset="1" stop-color="#ABABAB"/>
</linearGradient>
<linearGradient id="paint8_linear_3_1660" x1="70.2" y1="4.68001" x2="80.09" y2="44.49" gradientUnits="userSpaceOnUse">
<stop stop-color="#B9B9B9"/>
<stop offset="1" stop-color="#ABABAB"/>
</linearGradient>
<linearGradient id="paint9_linear_3_1660" x1="13.13" y1="16.64" x2="23.01" y2="56.45" gradientUnits="userSpaceOnUse">
<stop stop-color="#BABABA"/>
<stop offset="1" stop-color="#ABABAB"/>
</linearGradient>
<linearGradient id="paint10_linear_3_1660" x1="41.9" y1="10.61" x2="51.79" y2="50.43" gradientUnits="userSpaceOnUse">
<stop stop-color="#BABABA"/>
<stop offset="1" stop-color="#ABABAB"/>
</linearGradient>
<linearGradient id="paint11_linear_3_1660" x1="70.1701" y1="4.61" x2="80.0501" y2="44.42" gradientUnits="userSpaceOnUse">
<stop stop-color="#BABABA"/>
<stop offset="1" stop-color="#ABABAB"/>
</linearGradient>
<linearGradient id="paint12_linear_3_1660" x1="13.09" y1="16.57" x2="22.97" y2="56.38" gradientUnits="userSpaceOnUse">
<stop stop-color="#BCBCBC"/>
<stop offset="1" stop-color="#ABABAB"/>
</linearGradient>
<linearGradient id="paint13_linear_3_1660" x1="41.87" y1="10.54" x2="51.75" y2="50.36" gradientUnits="userSpaceOnUse">
<stop stop-color="#BCBCBC"/>
<stop offset="1" stop-color="#ABABAB"/>
</linearGradient>
<linearGradient id="paint14_linear_3_1660" x1="70.1299" y1="4.54" x2="80.0099" y2="44.35" gradientUnits="userSpaceOnUse">
<stop stop-color="#BCBCBC"/>
<stop offset="1" stop-color="#ABABAB"/>
</linearGradient>
<linearGradient id="paint15_linear_3_1660" x1="13.05" y1="16.5" x2="22.93" y2="56.31" gradientUnits="userSpaceOnUse">
<stop stop-color="#BDBDBD"/>
<stop offset="1" stop-color="#ABABAB"/>
</linearGradient>
<linearGradient id="paint16_linear_3_1660" x1="41.83" y1="10.47" x2="51.71" y2="50.29" gradientUnits="userSpaceOnUse">
<stop stop-color="#BDBDBD"/>
<stop offset="1" stop-color="#ABABAB"/>
</linearGradient>
<linearGradient id="paint17_linear_3_1660" x1="70.09" y1="4.47002" x2="79.98" y2="44.28" gradientUnits="userSpaceOnUse">
<stop stop-color="#BDBDBD"/>
<stop offset="1" stop-color="#ABABAB"/>
</linearGradient>
<linearGradient id="paint18_linear_3_1660" x1="13.01" y1="16.43" x2="22.9" y2="56.24" gradientUnits="userSpaceOnUse">
<stop stop-color="#BFBFBF"/>
<stop offset="1" stop-color="#ACACAC"/>
</linearGradient>
<linearGradient id="paint19_linear_3_1660" x1="41.7899" y1="10.4" x2="51.6799" y2="50.22" gradientUnits="userSpaceOnUse">
<stop stop-color="#BFBFBF"/>
<stop offset="1" stop-color="#ACACAC"/>
</linearGradient>
<linearGradient id="paint20_linear_3_1660" x1="70.06" y1="4.40001" x2="79.94" y2="44.21" gradientUnits="userSpaceOnUse">
<stop stop-color="#BFBFBF"/>
<stop offset="1" stop-color="#ACACAC"/>
</linearGradient>
<linearGradient id="paint21_linear_3_1660" x1="12.98" y1="16.36" x2="22.86" y2="56.17" gradientUnits="userSpaceOnUse">
<stop stop-color="#C0C0C0"/>
<stop offset="1" stop-color="#ACACAC"/>
</linearGradient>
<linearGradient id="paint22_linear_3_1660" x1="41.76" y1="10.33" x2="51.64" y2="50.15" gradientUnits="userSpaceOnUse">
<stop stop-color="#C0C0C0"/>
<stop offset="1" stop-color="#ACACAC"/>
</linearGradient>
<linearGradient id="paint23_linear_3_1660" x1="70.0199" y1="4.32" x2="79.8999" y2="44.14" gradientUnits="userSpaceOnUse">
<stop stop-color="#C0C0C0"/>
<stop offset="1" stop-color="#ACACAC"/>
</linearGradient>
<linearGradient id="paint24_linear_3_1660" x1="12.94" y1="16.29" x2="22.82" y2="56.1" gradientUnits="userSpaceOnUse">
<stop stop-color="#C1C1C1"/>
<stop offset="1" stop-color="#ACACAC"/>
</linearGradient>
<linearGradient id="paint25_linear_3_1660" x1="41.72" y1="10.26" x2="51.6" y2="50.08" gradientUnits="userSpaceOnUse">
<stop stop-color="#C1C1C1"/>
<stop offset="1" stop-color="#ACACAC"/>
</linearGradient>
<linearGradient id="paint26_linear_3_1660" x1="69.98" y1="4.25" x2="79.87" y2="44.07" gradientUnits="userSpaceOnUse">
<stop stop-color="#C1C1C1"/>
<stop offset="1" stop-color="#ACACAC"/>
</linearGradient>
<linearGradient id="paint27_linear_3_1660" x1="12.9" y1="16.22" x2="22.79" y2="56.03" gradientUnits="userSpaceOnUse">
<stop stop-color="#C3C3C3"/>
<stop offset="1" stop-color="#ACACAC"/>
</linearGradient>
<linearGradient id="paint28_linear_3_1660" x1="41.68" y1="10.19" x2="51.57" y2="50.01" gradientUnits="userSpaceOnUse">
<stop stop-color="#C3C3C3"/>
<stop offset="1" stop-color="#ACACAC"/>
</linearGradient>
<linearGradient id="paint29_linear_3_1660" x1="69.95" y1="4.18002" x2="79.83" y2="44" gradientUnits="userSpaceOnUse">
<stop stop-color="#C3C3C3"/>
<stop offset="1" stop-color="#ACACAC"/>
</linearGradient>
<linearGradient id="paint30_linear_3_1660" x1="12.87" y1="16.15" x2="22.75" y2="55.96" gradientUnits="userSpaceOnUse">
<stop stop-color="#C4C4C4"/>
<stop offset="1" stop-color="#ADADAD"/>
</linearGradient>
<linearGradient id="paint31_linear_3_1660" x1="41.65" y1="10.12" x2="51.53" y2="49.94" gradientUnits="userSpaceOnUse">
<stop stop-color="#C4C4C4"/>
<stop offset="1" stop-color="#ADADAD"/>
</linearGradient>
<linearGradient id="paint32_linear_3_1660" x1="69.91" y1="4.11001" x2="79.79" y2="43.93" gradientUnits="userSpaceOnUse">
<stop stop-color="#C4C4C4"/>
<stop offset="1" stop-color="#ADADAD"/>
</linearGradient>
<linearGradient id="paint33_linear_3_1660" x1="12.83" y1="16.08" x2="22.71" y2="55.89" gradientUnits="userSpaceOnUse">
<stop stop-color="#C6C6C6"/>
<stop offset="1" stop-color="#ADADAD"/>
</linearGradient>
<linearGradient id="paint34_linear_3_1660" x1="41.6099" y1="10.05" x2="51.4899" y2="49.87" gradientUnits="userSpaceOnUse">
<stop stop-color="#C6C6C6"/>
<stop offset="1" stop-color="#ADADAD"/>
</linearGradient>
<linearGradient id="paint35_linear_3_1660" x1="69.8699" y1="4.04001" x2="79.7499" y2="43.86" gradientUnits="userSpaceOnUse">
<stop stop-color="#C6C6C6"/>
<stop offset="1" stop-color="#ADADAD"/>
</linearGradient>
<linearGradient id="paint36_linear_3_1660" x1="12.79" y1="16.01" x2="22.68" y2="55.82" gradientUnits="userSpaceOnUse">
<stop stop-color="#C7C7C7"/>
<stop offset="1" stop-color="#ADADAD"/>
</linearGradient>
<linearGradient id="paint37_linear_3_1660" x1="41.57" y1="9.97999" x2="51.45" y2="49.8" gradientUnits="userSpaceOnUse">
<stop stop-color="#C7C7C7"/>
<stop offset="1" stop-color="#ADADAD"/>
</linearGradient>
<linearGradient id="paint38_linear_3_1660" x1="69.84" y1="3.97" x2="79.72" y2="43.79" gradientUnits="userSpaceOnUse">
<stop stop-color="#C7C7C7"/>
<stop offset="1" stop-color="#ADADAD"/>
</linearGradient>
<linearGradient id="paint39_linear_3_1660" x1="12.76" y1="15.94" x2="22.64" y2="55.75" gradientUnits="userSpaceOnUse">
<stop stop-color="#C9C9C9"/>
<stop offset="1" stop-color="#ADADAD"/>
</linearGradient>
<linearGradient id="paint40_linear_3_1660" x1="41.54" y1="9.91001" x2="51.42" y2="49.73" gradientUnits="userSpaceOnUse">
<stop stop-color="#C9C9C9"/>
<stop offset="1" stop-color="#ADADAD"/>
</linearGradient>
<linearGradient id="paint41_linear_3_1660" x1="69.8" y1="3.90002" x2="79.68" y2="43.72" gradientUnits="userSpaceOnUse">
<stop stop-color="#C9C9C9"/>
<stop offset="1" stop-color="#ADADAD"/>
</linearGradient>
<linearGradient id="paint42_linear_3_1660" x1="12.72" y1="15.87" x2="22.6" y2="55.68" gradientUnits="userSpaceOnUse">
<stop stop-color="#CACACA"/>
<stop offset="1" stop-color="#AEAEAE"/>
</linearGradient>
<linearGradient id="paint43_linear_3_1660" x1="41.5" y1="9.84" x2="51.38" y2="49.66" gradientUnits="userSpaceOnUse">
<stop stop-color="#CACACA"/>
<stop offset="1" stop-color="#AEAEAE"/>
</linearGradient>
<linearGradient id="paint44_linear_3_1660" x1="69.7599" y1="3.82998" x2="79.6399" y2="43.65" gradientUnits="userSpaceOnUse">
<stop stop-color="#CACACA"/>
<stop offset="1" stop-color="#AEAEAE"/>
</linearGradient>
<linearGradient id="paint45_linear_3_1660" x1="12.68" y1="15.8" x2="22.56" y2="55.61" gradientUnits="userSpaceOnUse">
<stop stop-color="#CBCBCB"/>
<stop offset="1" stop-color="#AEAEAE"/>
</linearGradient>
<linearGradient id="paint46_linear_3_1660" x1="41.46" y1="9.76999" x2="51.34" y2="49.58" gradientUnits="userSpaceOnUse">
<stop stop-color="#CBCBCB"/>
<stop offset="1" stop-color="#AEAEAE"/>
</linearGradient>
<linearGradient id="paint47_linear_3_1660" x1="69.72" y1="3.75998" x2="79.61" y2="43.58" gradientUnits="userSpaceOnUse">
<stop stop-color="#CBCBCB"/>
<stop offset="1" stop-color="#AEAEAE"/>
</linearGradient>
<linearGradient id="paint48_linear_3_1660" x1="12.65" y1="15.73" x2="22.53" y2="55.54" gradientUnits="userSpaceOnUse">
<stop stop-color="#CDCDCD"/>
<stop offset="1" stop-color="#AEAEAE"/>
</linearGradient>
<linearGradient id="paint49_linear_3_1660" x1="41.42" y1="9.70001" x2="51.31" y2="49.51" gradientUnits="userSpaceOnUse">
<stop stop-color="#CDCDCD"/>
<stop offset="1" stop-color="#AEAEAE"/>
</linearGradient>
<linearGradient id="paint50_linear_3_1660" x1="69.69" y1="3.69" x2="79.57" y2="43.51" gradientUnits="userSpaceOnUse">
<stop stop-color="#CDCDCD"/>
<stop offset="1" stop-color="#AEAEAE"/>
</linearGradient>
<linearGradient id="paint51_linear_3_1660" x1="12.61" y1="15.66" x2="22.49" y2="55.47" gradientUnits="userSpaceOnUse">
<stop stop-color="#CECECE"/>
<stop offset="1" stop-color="#AEAEAE"/>
</linearGradient>
<linearGradient id="paint52_linear_3_1660" x1="41.39" y1="9.63" x2="51.27" y2="49.44" gradientUnits="userSpaceOnUse">
<stop stop-color="#CECECE"/>
<stop offset="1" stop-color="#AEAEAE"/>
</linearGradient>
<linearGradient id="paint53_linear_3_1660" x1="69.6499" y1="3.61999" x2="79.5299" y2="43.44" gradientUnits="userSpaceOnUse">
<stop stop-color="#CECECE"/>
<stop offset="1" stop-color="#AEAEAE"/>
</linearGradient>
<linearGradient id="paint54_linear_3_1660" x1="12.57" y1="15.59" x2="22.45" y2="55.4" gradientUnits="userSpaceOnUse">
<stop stop-color="#D0D0D0"/>
<stop offset="1" stop-color="#AFAFAF"/>
</linearGradient>
<linearGradient id="paint55_linear_3_1660" x1="41.35" y1="9.56" x2="51.23" y2="49.37" gradientUnits="userSpaceOnUse">
<stop stop-color="#D0D0D0"/>
<stop offset="1" stop-color="#AFAFAF"/>
</linearGradient>
<linearGradient id="paint56_linear_3_1660" x1="69.61" y1="3.54998" x2="79.5" y2="43.37" gradientUnits="userSpaceOnUse">
<stop stop-color="#D0D0D0"/>
<stop offset="1" stop-color="#AFAFAF"/>
</linearGradient>
<linearGradient id="paint57_linear_3_1660" x1="12.53" y1="15.52" x2="22.42" y2="55.33" gradientUnits="userSpaceOnUse">
<stop stop-color="#D1D1D1"/>
<stop offset="1" stop-color="#AFAFAF"/>
</linearGradient>
<linearGradient id="paint58_linear_3_1660" x1="41.31" y1="9.48999" x2="51.2" y2="49.3" gradientUnits="userSpaceOnUse">
<stop stop-color="#D1D1D1"/>
<stop offset="1" stop-color="#AFAFAF"/>
</linearGradient>
<linearGradient id="paint59_linear_3_1660" x1="69.58" y1="3.48" x2="79.46" y2="43.3" gradientUnits="userSpaceOnUse">
<stop stop-color="#D1D1D1"/>
<stop offset="1" stop-color="#AFAFAF"/>
</linearGradient>
<linearGradient id="paint60_linear_3_1660" x1="12.5" y1="15.45" x2="22.38" y2="55.26" gradientUnits="userSpaceOnUse">
<stop stop-color="#D3D3D3"/>
<stop offset="1" stop-color="#AFAFAF"/>
</linearGradient>
<linearGradient id="paint61_linear_3_1660" x1="41.28" y1="9.42001" x2="51.16" y2="49.23" gradientUnits="userSpaceOnUse">
<stop stop-color="#D3D3D3"/>
<stop offset="1" stop-color="#AFAFAF"/>
</linearGradient>
<linearGradient id="paint62_linear_3_1660" x1="69.54" y1="3.41002" x2="79.42" y2="43.23" gradientUnits="userSpaceOnUse">
<stop stop-color="#D3D3D3"/>
<stop offset="1" stop-color="#AFAFAF"/>
</linearGradient>
<linearGradient id="paint63_linear_3_1660" x1="12.46" y1="15.37" x2="22.34" y2="55.19" gradientUnits="userSpaceOnUse">
<stop stop-color="#D4D4D4"/>
<stop offset="1" stop-color="#AFAFAF"/>
</linearGradient>
<linearGradient id="paint64_linear_3_1660" x1="41.24" y1="9.35001" x2="51.12" y2="49.16" gradientUnits="userSpaceOnUse">
<stop stop-color="#D4D4D4"/>
<stop offset="1" stop-color="#AFAFAF"/>
</linearGradient>
<linearGradient id="paint65_linear_3_1660" x1="69.4999" y1="3.34001" x2="79.3899" y2="43.15" gradientUnits="userSpaceOnUse">
<stop stop-color="#D4D4D4"/>
<stop offset="1" stop-color="#AFAFAF"/>
</linearGradient>
<linearGradient id="paint66_linear_3_1660" x1="12.42" y1="15.3" x2="22.31" y2="55.12" gradientUnits="userSpaceOnUse">
<stop stop-color="#D5D5D5"/>
<stop offset="1" stop-color="#B0B0B0"/>
</linearGradient>
<linearGradient id="paint67_linear_3_1660" x1="41.2" y1="9.28" x2="51.09" y2="49.09" gradientUnits="userSpaceOnUse">
<stop stop-color="#D5D5D5"/>
<stop offset="1" stop-color="#B0B0B0"/>
</linearGradient>
<linearGradient id="paint68_linear_3_1660" x1="69.47" y1="3.27001" x2="79.35" y2="43.08" gradientUnits="userSpaceOnUse">
<stop stop-color="#D5D5D5"/>
<stop offset="1" stop-color="#B0B0B0"/>
</linearGradient>
<linearGradient id="paint69_linear_3_1660" x1="12.39" y1="15.23" x2="22.27" y2="55.05" gradientUnits="userSpaceOnUse">
<stop stop-color="#D7D7D7"/>
<stop offset="1" stop-color="#B0B0B0"/>
</linearGradient>
<linearGradient id="paint70_linear_3_1660" x1="41.17" y1="9.20999" x2="51.05" y2="49.02" gradientUnits="userSpaceOnUse">
<stop stop-color="#D7D7D7"/>
<stop offset="1" stop-color="#B0B0B0"/>
</linearGradient>
<linearGradient id="paint71_linear_3_1660" x1="69.43" y1="3.2" x2="79.31" y2="43.01" gradientUnits="userSpaceOnUse">
<stop stop-color="#D7D7D7"/>
<stop offset="1" stop-color="#B0B0B0"/>
</linearGradient>
<linearGradient id="paint72_linear_3_1660" x1="12.35" y1="15.16" x2="22.23" y2="54.98" gradientUnits="userSpaceOnUse">
<stop stop-color="#D8D8D8"/>
<stop offset="1" stop-color="#B0B0B0"/>
</linearGradient>
<linearGradient id="paint73_linear_3_1660" x1="41.13" y1="9.14001" x2="51.01" y2="48.95" gradientUnits="userSpaceOnUse">
<stop stop-color="#D8D8D8"/>
<stop offset="1" stop-color="#B0B0B0"/>
</linearGradient>
<linearGradient id="paint74_linear_3_1660" x1="69.3899" y1="3.13002" x2="79.2799" y2="42.94" gradientUnits="userSpaceOnUse">
<stop stop-color="#D8D8D8"/>
<stop offset="1" stop-color="#B0B0B0"/>
</linearGradient>
<linearGradient id="paint75_linear_3_1660" x1="12.31" y1="15.09" x2="22.2" y2="54.91" gradientUnits="userSpaceOnUse">
<stop stop-color="#DADADA"/>
<stop offset="1" stop-color="#B0B0B0"/>
</linearGradient>
<linearGradient id="paint76_linear_3_1660" x1="41.09" y1="9.07001" x2="50.97" y2="48.88" gradientUnits="userSpaceOnUse">
<stop stop-color="#DADADA"/>
<stop offset="1" stop-color="#B0B0B0"/>
</linearGradient>
<linearGradient id="paint77_linear_3_1660" x1="69.36" y1="3.06001" x2="79.24" y2="42.87" gradientUnits="userSpaceOnUse">
<stop stop-color="#DADADA"/>
<stop offset="1" stop-color="#B0B0B0"/>
</linearGradient>
<linearGradient id="paint78_linear_3_1660" x1="12.28" y1="15.02" x2="22.16" y2="54.84" gradientUnits="userSpaceOnUse">
<stop stop-color="#DBDBDB"/>
<stop offset="1" stop-color="#B1B1B1"/>
</linearGradient>
<linearGradient id="paint79_linear_3_1660" x1="41.06" y1="9" x2="50.94" y2="48.81" gradientUnits="userSpaceOnUse">
<stop stop-color="#DBDBDB"/>
<stop offset="1" stop-color="#B1B1B1"/>
</linearGradient>
<linearGradient id="paint80_linear_3_1660" x1="69.32" y1="2.99001" x2="79.2" y2="42.8" gradientUnits="userSpaceOnUse">
<stop stop-color="#DBDBDB"/>
<stop offset="1" stop-color="#B1B1B1"/>
</linearGradient>
<linearGradient id="paint81_linear_3_1660" x1="12.24" y1="14.95" x2="22.12" y2="54.77" gradientUnits="userSpaceOnUse">
<stop stop-color="#DDDDDD"/>
<stop offset="1" stop-color="#B1B1B1"/>
</linearGradient>
<linearGradient id="paint82_linear_3_1660" x1="41.02" y1="8.92999" x2="50.9" y2="48.74" gradientUnits="userSpaceOnUse">
<stop stop-color="#DDDDDD"/>
<stop offset="1" stop-color="#B1B1B1"/>
</linearGradient>
<linearGradient id="paint83_linear_3_1660" x1="69.2799" y1="2.92" x2="79.1599" y2="42.73" gradientUnits="userSpaceOnUse">
<stop stop-color="#DDDDDD"/>
<stop offset="1" stop-color="#B1B1B1"/>
</linearGradient>
<linearGradient id="paint84_linear_3_1660" x1="12.2" y1="14.88" x2="22.08" y2="54.7" gradientUnits="userSpaceOnUse">
<stop stop-color="#DEDEDE"/>
<stop offset="1" stop-color="#B1B1B1"/>
</linearGradient>
<linearGradient id="paint85_linear_3_1660" x1="40.98" y1="8.85998" x2="50.8599" y2="48.67" gradientUnits="userSpaceOnUse">
<stop stop-color="#DEDEDE"/>
<stop offset="1" stop-color="#B1B1B1"/>
</linearGradient>
<linearGradient id="paint86_linear_3_1660" x1="69.25" y1="2.84999" x2="79.13" y2="42.66" gradientUnits="userSpaceOnUse">
<stop stop-color="#DEDEDE"/>
<stop offset="1" stop-color="#B1B1B1"/>
</linearGradient>
<linearGradient id="paint87_linear_3_1660" x1="12.17" y1="14.81" x2="22.05" y2="54.63" gradientUnits="userSpaceOnUse">
<stop stop-color="#E0E0E0"/>
<stop offset="1" stop-color="#B1B1B1"/>
</linearGradient>
<linearGradient id="paint88_linear_3_1660" x1="40.94" y1="8.79001" x2="50.83" y2="48.6" gradientUnits="userSpaceOnUse">
<stop stop-color="#E0E0E0"/>
<stop offset="1" stop-color="#B1B1B1"/>
</linearGradient>
<linearGradient id="paint89_linear_3_1660" x1="69.21" y1="2.78002" x2="79.09" y2="42.59" gradientUnits="userSpaceOnUse">
<stop stop-color="#E0E0E0"/>
<stop offset="1" stop-color="#B1B1B1"/>
</linearGradient>
<linearGradient id="paint90_linear_3_1660" x1="12.13" y1="14.74" x2="22.01" y2="54.56" gradientUnits="userSpaceOnUse">
<stop stop-color="#E1E1E1"/>
<stop offset="1" stop-color="#B2B2B2"/>
</linearGradient>
<linearGradient id="paint91_linear_3_1660" x1="40.91" y1="8.72" x2="50.79" y2="48.53" gradientUnits="userSpaceOnUse">
<stop stop-color="#E1E1E1"/>
<stop offset="1" stop-color="#B2B2B2"/>
</linearGradient>
<linearGradient id="paint92_linear_3_1660" x1="69.17" y1="2.71001" x2="79.05" y2="42.52" gradientUnits="userSpaceOnUse">
<stop stop-color="#E1E1E1"/>
<stop offset="1" stop-color="#B2B2B2"/>
</linearGradient>
<linearGradient id="paint93_linear_3_1660" x1="12.09" y1="14.67" x2="21.97" y2="54.49" gradientUnits="userSpaceOnUse">
<stop stop-color="#E2E2E2"/>
<stop offset="1" stop-color="#B2B2B2"/>
</linearGradient>
<linearGradient id="paint94_linear_3_1660" x1="40.87" y1="8.64999" x2="50.75" y2="48.46" gradientUnits="userSpaceOnUse">
<stop stop-color="#E2E2E2"/>
<stop offset="1" stop-color="#B2B2B2"/>
</linearGradient>
<linearGradient id="paint95_linear_3_1660" x1="69.1299" y1="2.64" x2="79.0199" y2="42.45" gradientUnits="userSpaceOnUse">
<stop stop-color="#E2E2E2"/>
<stop offset="1" stop-color="#B2B2B2"/>
</linearGradient>
<linearGradient id="paint96_linear_3_1660" x1="12.05" y1="14.6" x2="21.94" y2="54.42" gradientUnits="userSpaceOnUse">
<stop stop-color="#E4E4E4"/>
<stop offset="1" stop-color="#B2B2B2"/>
</linearGradient>
<linearGradient id="paint97_linear_3_1660" x1="40.83" y1="8.57999" x2="50.72" y2="48.39" gradientUnits="userSpaceOnUse">
<stop stop-color="#E4E4E4"/>
<stop offset="1" stop-color="#B2B2B2"/>
</linearGradient>
<linearGradient id="paint98_linear_3_1660" x1="69.1" y1="2.56999" x2="78.98" y2="42.38" gradientUnits="userSpaceOnUse">
<stop stop-color="#E4E4E4"/>
<stop offset="1" stop-color="#B2B2B2"/>
</linearGradient>
<linearGradient id="paint99_linear_3_1660" x1="12.02" y1="14.53" x2="21.9" y2="54.35" gradientUnits="userSpaceOnUse">
<stop stop-color="#E5E5E5"/>
<stop offset="1" stop-color="#B2B2B2"/>
</linearGradient>
<linearGradient id="paint100_linear_3_1660" x1="40.7999" y1="8.51001" x2="50.6799" y2="48.32" gradientUnits="userSpaceOnUse">
<stop stop-color="#E5E5E5"/>
<stop offset="1" stop-color="#B2B2B2"/>
</linearGradient>
<linearGradient id="paint101_linear_3_1660" x1="69.06" y1="2.50002" x2="78.94" y2="42.31" gradientUnits="userSpaceOnUse">
<stop stop-color="#E5E5E5"/>
<stop offset="1" stop-color="#B2B2B2"/>
</linearGradient>
<linearGradient id="paint102_linear_3_1660" x1="11.98" y1="14.46" x2="21.86" y2="54.27" gradientUnits="userSpaceOnUse">
<stop stop-color="#E7E7E7"/>
<stop offset="1" stop-color="#B3B3B3"/>
</linearGradient>
<linearGradient id="paint103_linear_3_1660" x1="40.76" y1="8.44" x2="50.64" y2="48.25" gradientUnits="userSpaceOnUse">
<stop stop-color="#E7E7E7"/>
<stop offset="1" stop-color="#B3B3B3"/>
</linearGradient>
<linearGradient id="paint104_linear_3_1660" x1="69.0199" y1="2.43001" x2="78.9099" y2="42.24" gradientUnits="userSpaceOnUse">
<stop stop-color="#E7E7E7"/>
<stop offset="1" stop-color="#B3B3B3"/>
</linearGradient>
<linearGradient id="paint105_linear_3_1660" x1="11.94" y1="14.39" x2="21.83" y2="54.2" gradientUnits="userSpaceOnUse">
<stop stop-color="#E8E8E8"/>
<stop offset="1" stop-color="#B3B3B3"/>
</linearGradient>
<linearGradient id="paint106_linear_3_1660" x1="40.7201" y1="8.37" x2="50.6101" y2="48.18" gradientUnits="userSpaceOnUse">
<stop stop-color="#E8E8E8"/>
<stop offset="1" stop-color="#B3B3B3"/>
</linearGradient>
<linearGradient id="paint107_linear_3_1660" x1="68.99" y1="2.36" x2="78.87" y2="42.17" gradientUnits="userSpaceOnUse">
<stop stop-color="#E8E8E8"/>
<stop offset="1" stop-color="#B3B3B3"/>
</linearGradient>
<linearGradient id="paint108_linear_3_1660" x1="11.91" y1="14.32" x2="21.79" y2="54.13" gradientUnits="userSpaceOnUse">
<stop stop-color="#EAEAEA"/>
<stop offset="1" stop-color="#B3B3B3"/>
</linearGradient>
<linearGradient id="paint109_linear_3_1660" x1="40.69" y1="8.29999" x2="50.57" y2="48.11" gradientUnits="userSpaceOnUse">
<stop stop-color="#EAEAEA"/>
<stop offset="1" stop-color="#B3B3B3"/>
</linearGradient>
<linearGradient id="paint110_linear_3_1660" x1="68.95" y1="2.29" x2="78.83" y2="42.1" gradientUnits="userSpaceOnUse">
<stop stop-color="#EAEAEA"/>
<stop offset="1" stop-color="#B3B3B3"/>
</linearGradient>
<linearGradient id="paint111_linear_3_1660" x1="11.87" y1="14.25" x2="21.75" y2="54.06" gradientUnits="userSpaceOnUse">
<stop stop-color="#EBEBEB"/>
<stop offset="1" stop-color="#B3B3B3"/>
</linearGradient>
<linearGradient id="paint112_linear_3_1660" x1="40.65" y1="8.23001" x2="50.53" y2="48.04" gradientUnits="userSpaceOnUse">
<stop stop-color="#EBEBEB"/>
<stop offset="1" stop-color="#B3B3B3"/>
</linearGradient>
<linearGradient id="paint113_linear_3_1660" x1="68.91" y1="2.22002" x2="78.8" y2="42.03" gradientUnits="userSpaceOnUse">
<stop stop-color="#EBEBEB"/>
<stop offset="1" stop-color="#B3B3B3"/>
</linearGradient>
<linearGradient id="paint114_linear_3_1660" x1="11.83" y1="14.18" x2="21.72" y2="53.99" gradientUnits="userSpaceOnUse">
<stop stop-color="#ECECEC"/>
<stop offset="1" stop-color="#B4B4B4"/>
</linearGradient>
<linearGradient id="paint115_linear_3_1660" x1="40.61" y1="8.16" x2="50.49" y2="47.97" gradientUnits="userSpaceOnUse">
<stop stop-color="#ECECEC"/>
<stop offset="1" stop-color="#B4B4B4"/>
</linearGradient>
<linearGradient id="paint116_linear_3_1660" x1="68.88" y1="2.15001" x2="78.76" y2="41.96" gradientUnits="userSpaceOnUse">
<stop stop-color="#ECECEC"/>
<stop offset="1" stop-color="#B4B4B4"/>
</linearGradient>
<linearGradient id="paint117_linear_3_1660" x1="11.8" y1="14.11" x2="21.68" y2="53.92" gradientUnits="userSpaceOnUse">
<stop stop-color="#EEEEEE"/>
<stop offset="1" stop-color="#B4B4B4"/>
</linearGradient>
<linearGradient id="paint118_linear_3_1660" x1="40.58" y1="8.09" x2="50.46" y2="47.9" gradientUnits="userSpaceOnUse">
<stop stop-color="#EEEEEE"/>
<stop offset="1" stop-color="#B4B4B4"/>
</linearGradient>
<linearGradient id="paint119_linear_3_1660" x1="68.84" y1="2.08" x2="78.72" y2="41.89" gradientUnits="userSpaceOnUse">
<stop stop-color="#EEEEEE"/>
<stop offset="1" stop-color="#B4B4B4"/>
</linearGradient>
<linearGradient id="paint120_linear_3_1660" x1="11.76" y1="14.04" x2="21.64" y2="53.85" gradientUnits="userSpaceOnUse">
<stop stop-color="#EFEFEF"/>
<stop offset="1" stop-color="#B4B4B4"/>
</linearGradient>
<linearGradient id="paint121_linear_3_1660" x1="40.54" y1="8.01999" x2="50.42" y2="47.83" gradientUnits="userSpaceOnUse">
<stop stop-color="#EFEFEF"/>
<stop offset="1" stop-color="#B4B4B4"/>
</linearGradient>
<linearGradient id="paint122_linear_3_1660" x1="68.8" y1="2.01" x2="78.68" y2="41.82" gradientUnits="userSpaceOnUse">
<stop stop-color="#EFEFEF"/>
<stop offset="1" stop-color="#B4B4B4"/>
</linearGradient>
<linearGradient id="paint123_linear_3_1660" x1="11.72" y1="13.97" x2="21.6" y2="53.78" gradientUnits="userSpaceOnUse">
<stop stop-color="#F1F1F1"/>
<stop offset="1" stop-color="#B4B4B4"/>
</linearGradient>
<linearGradient id="paint124_linear_3_1660" x1="40.5" y1="7.95001" x2="50.38" y2="47.76" gradientUnits="userSpaceOnUse">
<stop stop-color="#F1F1F1"/>
<stop offset="1" stop-color="#B4B4B4"/>
</linearGradient>
<linearGradient id="paint125_linear_3_1660" x1="68.7701" y1="1.94002" x2="78.6501" y2="41.75" gradientUnits="userSpaceOnUse">
<stop stop-color="#F1F1F1"/>
<stop offset="1" stop-color="#B4B4B4"/>
</linearGradient>
<linearGradient id="paint126_linear_3_1660" x1="11.69" y1="13.9" x2="21.57" y2="53.71" gradientUnits="userSpaceOnUse">
<stop stop-color="#F2F2F2"/>
<stop offset="1" stop-color="#B5B5B5"/>
</linearGradient>
<linearGradient id="paint127_linear_3_1660" x1="40.46" y1="7.88" x2="50.35" y2="47.69" gradientUnits="userSpaceOnUse">
<stop stop-color="#F2F2F2"/>
<stop offset="1" stop-color="#B5B5B5"/>
</linearGradient>
<linearGradient id="paint128_linear_3_1660" x1="68.73" y1="1.87001" x2="78.61" y2="41.68" gradientUnits="userSpaceOnUse">
<stop stop-color="#F2F2F2"/>
<stop offset="1" stop-color="#B5B5B5"/>
</linearGradient>
<linearGradient id="paint129_linear_3_1660" x1="11.65" y1="13.83" x2="21.53" y2="53.64" gradientUnits="userSpaceOnUse">
<stop stop-color="#F4F4F4"/>
<stop offset="1" stop-color="#B5B5B5"/>
</linearGradient>
<linearGradient id="paint130_linear_3_1660" x1="40.43" y1="7.81" x2="50.31" y2="47.62" gradientUnits="userSpaceOnUse">
<stop stop-color="#F4F4F4"/>
<stop offset="1" stop-color="#B5B5B5"/>
</linearGradient>
<linearGradient id="paint131_linear_3_1660" x1="68.69" y1="1.80001" x2="78.57" y2="41.61" gradientUnits="userSpaceOnUse">
<stop stop-color="#F4F4F4"/>
<stop offset="1" stop-color="#B5B5B5"/>
</linearGradient>
<linearGradient id="paint132_linear_3_1660" x1="11.61" y1="13.76" x2="21.49" y2="53.57" gradientUnits="userSpaceOnUse">
<stop stop-color="#F5F5F5"/>
<stop offset="1" stop-color="#B5B5B5"/>
</linearGradient>
<linearGradient id="paint133_linear_3_1660" x1="40.39" y1="7.73999" x2="50.27" y2="47.55" gradientUnits="userSpaceOnUse">
<stop stop-color="#F5F5F5"/>
<stop offset="1" stop-color="#B5B5B5"/>
</linearGradient>
<linearGradient id="paint134_linear_3_1660" x1="68.6501" y1="1.73" x2="78.5401" y2="41.54" gradientUnits="userSpaceOnUse">
<stop stop-color="#F5F5F5"/>
<stop offset="1" stop-color="#B5B5B5"/>
</linearGradient>
<linearGradient id="paint135_linear_3_1660" x1="11.57" y1="13.69" x2="21.46" y2="53.5" gradientUnits="userSpaceOnUse">
<stop stop-color="#F6F6F6"/>
<stop offset="1" stop-color="#B5B5B5"/>
</linearGradient>
<linearGradient id="paint136_linear_3_1660" x1="40.3499" y1="7.67001" x2="50.2399" y2="47.48" gradientUnits="userSpaceOnUse">
<stop stop-color="#F6F6F6"/>
<stop offset="1" stop-color="#B5B5B5"/>
</linearGradient>
<linearGradient id="paint137_linear_3_1660" x1="68.62" y1="1.66002" x2="78.5" y2="41.47" gradientUnits="userSpaceOnUse">
<stop stop-color="#F6F6F6"/>
<stop offset="1" stop-color="#B5B5B5"/>
</linearGradient>
<linearGradient id="paint138_linear_3_1660" x1="11.54" y1="13.62" x2="21.42" y2="53.43" gradientUnits="userSpaceOnUse">
<stop stop-color="#F8F8F8"/>
<stop offset="1" stop-color="#B6B6B6"/>
</linearGradient>
<linearGradient id="paint139_linear_3_1660" x1="40.32" y1="7.60001" x2="50.2" y2="47.41" gradientUnits="userSpaceOnUse">
<stop stop-color="#F8F8F8"/>
<stop offset="1" stop-color="#B6B6B6"/>
</linearGradient>
<linearGradient id="paint140_linear_3_1660" x1="68.58" y1="1.59001" x2="78.46" y2="41.4" gradientUnits="userSpaceOnUse">
<stop stop-color="#F8F8F8"/>
<stop offset="1" stop-color="#B6B6B6"/>
</linearGradient>
<linearGradient id="paint141_linear_3_1660" x1="11.5" y1="13.55" x2="21.38" y2="53.36" gradientUnits="userSpaceOnUse">
<stop stop-color="#F9F9F9"/>
<stop offset="1" stop-color="#B6B6B6"/>
</linearGradient>
<linearGradient id="paint142_linear_3_1660" x1="40.28" y1="7.53" x2="50.16" y2="47.34" gradientUnits="userSpaceOnUse">
<stop stop-color="#F9F9F9"/>
<stop offset="1" stop-color="#B6B6B6"/>
</linearGradient>
<linearGradient id="paint143_linear_3_1660" x1="68.54" y1="1.52001" x2="78.43" y2="41.33" gradientUnits="userSpaceOnUse">
<stop stop-color="#F9F9F9"/>
<stop offset="1" stop-color="#B6B6B6"/>
</linearGradient>
<linearGradient id="paint144_linear_3_1660" x1="11.46" y1="13.48" x2="21.35" y2="53.29" gradientUnits="userSpaceOnUse">
<stop stop-color="#FBFBFB"/>
<stop offset="1" stop-color="#B6B6B6"/>
</linearGradient>
<linearGradient id="paint145_linear_3_1660" x1="40.24" y1="7.45999" x2="50.13" y2="47.27" gradientUnits="userSpaceOnUse">
<stop stop-color="#FBFBFB"/>
<stop offset="1" stop-color="#B6B6B6"/>
</linearGradient>
<linearGradient id="paint146_linear_3_1660" x1="68.51" y1="1.45" x2="78.39" y2="41.26" gradientUnits="userSpaceOnUse">
<stop stop-color="#FBFBFB"/>
<stop offset="1" stop-color="#B6B6B6"/>
</linearGradient>
<linearGradient id="paint147_linear_3_1660" x1="11.43" y1="13.41" x2="21.31" y2="53.22" gradientUnits="userSpaceOnUse">
<stop stop-color="#FCFCFC"/>
<stop offset="1" stop-color="#B6B6B6"/>
</linearGradient>
<linearGradient id="paint148_linear_3_1660" x1="40.21" y1="7.39001" x2="50.09" y2="47.2" gradientUnits="userSpaceOnUse">
<stop stop-color="#FCFCFC"/>
<stop offset="1" stop-color="#B6B6B6"/>
</linearGradient>
<linearGradient id="paint149_linear_3_1660" x1="68.47" y1="1.38002" x2="78.35" y2="41.19" gradientUnits="userSpaceOnUse">
<stop stop-color="#FCFCFC"/>
<stop offset="1" stop-color="#B6B6B6"/>
</linearGradient>
<linearGradient id="paint150_linear_3_1660" x1="11.39" y1="13.34" x2="21.27" y2="53.15" gradientUnits="userSpaceOnUse">
<stop stop-color="#FEFEFE"/>
<stop offset="1" stop-color="#B7B7B7"/>
</linearGradient>
<linearGradient id="paint151_linear_3_1660" x1="40.17" y1="7.32001" x2="50.05" y2="47.13" gradientUnits="userSpaceOnUse">
<stop stop-color="#FEFEFE"/>
<stop offset="1" stop-color="#B7B7B7"/>
</linearGradient>
<linearGradient id="paint152_linear_3_1660" x1="68.43" y1="1.31002" x2="78.32" y2="41.12" gradientUnits="userSpaceOnUse">
<stop stop-color="#FEFEFE"/>
<stop offset="1" stop-color="#B7B7B7"/>
</linearGradient>
<linearGradient id="paint153_linear_3_1660" x1="11.35" y1="13.27" x2="21.24" y2="53.08" gradientUnits="userSpaceOnUse">
<stop stop-color="white"/>
<stop offset="1" stop-color="#B7B7B7"/>
</linearGradient>
<linearGradient id="paint154_linear_3_1660" x1="40.13" y1="7.25" x2="50.02" y2="47.06" gradientUnits="userSpaceOnUse">
<stop stop-color="white"/>
<stop offset="1" stop-color="#B7B7B7"/>
</linearGradient>
<linearGradient id="paint155_linear_3_1660" x1="68.4001" y1="1.24001" x2="78.2801" y2="41.05" gradientUnits="userSpaceOnUse">
<stop stop-color="white"/>
<stop offset="1" stop-color="#B7B7B7"/>
</linearGradient>
<linearGradient id="paint156_linear_3_1660" x1="12.67" y1="15.83" x2="22.55" y2="55.65" gradientUnits="userSpaceOnUse">
<stop offset="0.05" stop-color="#C9C9C9"/>
<stop offset="0.2" stop-color="#CDCDCD" stop-opacity="0.96"/>
<stop offset="0.4" stop-color="#D8D8D8" stop-opacity="0.85"/>
<stop offset="0.62" stop-color="#EBEBEB" stop-opacity="0.68"/>
<stop offset="0.79" stop-color="white" stop-opacity="0.5"/>
</linearGradient>
<linearGradient id="paint157_linear_3_1660" x1="41.45" y1="9.81" x2="51.33" y2="49.62" gradientUnits="userSpaceOnUse">
<stop offset="0.05" stop-color="#C9C9C9"/>
<stop offset="0.2" stop-color="#CDCDCD" stop-opacity="0.96"/>
<stop offset="0.4" stop-color="#D8D8D8" stop-opacity="0.85"/>
<stop offset="0.62" stop-color="#EBEBEB" stop-opacity="0.68"/>
<stop offset="0.79" stop-color="white" stop-opacity="0.5"/>
</linearGradient>
<linearGradient id="paint158_linear_3_1660" x1="69.71" y1="3.80001" x2="79.6" y2="43.61" gradientUnits="userSpaceOnUse">
<stop offset="0.05" stop-color="#C9C9C9"/>
<stop offset="0.2" stop-color="#CDCDCD" stop-opacity="0.96"/>
<stop offset="0.4" stop-color="#D8D8D8" stop-opacity="0.85"/>
<stop offset="0.62" stop-color="#EBEBEB" stop-opacity="0.68"/>
<stop offset="0.79" stop-color="white" stop-opacity="0.5"/>
</linearGradient>
<linearGradient id="paint159_linear_3_1660" x1="41.09" y1="24.27" x2="56.73" y2="39.16" gradientUnits="userSpaceOnUse">
<stop stop-color="white"/>
<stop offset="0.1" stop-color="#FEFFFE" stop-opacity="0.98"/>
<stop offset="0.23" stop-color="#FDFFFE" stop-opacity="0.92"/>
<stop offset="0.36" stop-color="#FCFFFC" stop-opacity="0.82"/>
<stop offset="0.5" stop-color="#F9FFFB" stop-opacity="0.69"/>
<stop offset="0.65" stop-color="#F6FFF9" stop-opacity="0.51"/>
<stop offset="0.81" stop-color="#F3FFF6" stop-opacity="0.3"/>
<stop offset="0.97" stop-color="#EEFFF3" stop-opacity="0.05"/>
<stop offset="1" stop-color="#EEFFF3" stop-opacity="0"/>
</linearGradient>
<linearGradient id="paint160_linear_3_1660" x1="6.27002" y1="32.29" x2="22" y2="47.26" gradientUnits="userSpaceOnUse">
<stop stop-color="white"/>
<stop offset="0.1" stop-color="#FEFFFE" stop-opacity="0.98"/>
<stop offset="0.23" stop-color="#FDFFFE" stop-opacity="0.92"/>
<stop offset="0.36" stop-color="#FCFFFC" stop-opacity="0.82"/>
<stop offset="0.5" stop-color="#F9FFFB" stop-opacity="0.69"/>
<stop offset="0.65" stop-color="#F6FFF9" stop-opacity="0.51"/>
<stop offset="0.81" stop-color="#F3FFF6" stop-opacity="0.3"/>
<stop offset="0.97" stop-color="#EEFFF3" stop-opacity="0.05"/>
<stop offset="1" stop-color="#EEFFF3" stop-opacity="0"/>
</linearGradient>
<clipPath id="clip0_3_1660">
<rect width="92" height="59.64" fill="white"/>
</clipPath>
</defs>
</svg>
