<svg width="82" height="79" viewBox="0 0 82 79" fill="none" xmlns="http://www.w3.org/2000/svg">
<path d="M69.66 2.75H14.91C8.2 2.75 2.75 8.2 2.75 14.91V53.84C2.75 60.56 8.19 66 14.91 66H15.42V75.89C15.42 78.31 18.21 79.67 20.11 78.17L35.65 65.99H69.66C76.38 65.99 81.82 60.55 81.82 53.83V14.91C81.82 8.19 76.38 2.75 69.66 2.75Z" fill="url(#paint0_linear_3_1521)"/>
<path d="M69.57 2.66H14.83C8.10997 2.66 2.65997 8.11 2.65997 14.83V53.75C2.65997 60.47 8.09997 65.91 14.82 65.91H15.33V75.8C15.33 78.22 18.12 79.58 20.02 78.08L35.56 65.9H69.57C76.29 65.9 81.73 60.46 81.73 53.74V14.83C81.73 8.11 76.29 2.67 69.57 2.67V2.66Z" fill="url(#paint1_linear_3_1521)"/>
<path d="M69.48 2.57999H14.74C8.02002 2.57999 2.58002 8.01999 2.58002 14.74V53.67C2.58002 60.39 8.02002 65.83 14.74 65.83H15.25V75.72C15.25 78.14 18.04 79.5 19.94 78L35.48 65.82H69.49C76.21 65.82 81.65 60.38 81.65 53.66V14.74C81.65 8.01999 76.21 2.57999 69.49 2.57999H69.48Z" fill="url(#paint2_linear_3_1521)"/>
<path d="M69.39 2.48999H14.65C7.92999 2.48999 2.48999 7.92999 2.48999 14.65V53.58C2.48999 60.3 7.92999 65.74 14.65 65.74H15.16V75.63C15.16 78.05 17.95 79.41 19.85 77.91L35.39 65.73H69.4C76.12 65.73 81.56 60.29 81.56 53.57V14.65C81.56 7.92999 76.12 2.48999 69.4 2.48999H69.39Z" fill="url(#paint3_linear_3_1521)"/>
<path d="M69.31 2.39999H14.56C7.84002 2.39999 2.40002 7.83999 2.40002 14.56V53.49C2.40002 60.21 7.84002 65.65 14.56 65.65H15.07V75.54C15.07 77.96 17.86 79.32 19.76 77.82L35.3 65.64H69.31C76.03 65.64 81.47 60.2 81.47 53.48V14.56C81.47 7.83999 76.03 2.39999 69.31 2.39999Z" fill="url(#paint4_linear_3_1521)"/>
<path d="M69.22 2.31H14.47C7.75 2.31 2.31 7.75 2.31 14.47V53.4C2.31 60.12 7.75 65.56 14.47 65.56H14.98V75.45C14.98 77.87 17.77 79.23 19.67 77.73L35.21 65.55H69.22C75.94 65.55 81.38 60.11 81.38 53.39V14.47C81.38 7.75 75.94 2.31 69.22 2.31Z" fill="url(#paint5_linear_3_1521)"/>
<path d="M69.13 2.22H14.38C7.65997 2.22 2.21997 7.67 2.21997 14.38V53.31C2.21997 60.03 7.65997 65.47 14.38 65.47H14.89V75.36C14.89 77.78 17.68 79.14 19.58 77.64L35.12 65.46H69.13C75.85 65.46 81.29 60.02 81.29 53.3V14.38C81.29 7.66 75.85 2.22 69.13 2.22Z" fill="url(#paint6_linear_3_1521)"/>
<path d="M69.04 2.13H14.29C7.58 2.13 2.13 7.58 2.13 14.29V53.22C2.13 59.94 7.57 65.38 14.29 65.38H14.8V75.27C14.8 77.69 17.59 79.05 19.49 77.55L35.03 65.37H69.04C75.76 65.37 81.2 59.93 81.2 53.21V14.29C81.2 7.57 75.76 2.13 69.04 2.13Z" fill="url(#paint7_linear_3_1521)"/>
<path d="M68.95 2.04001H14.2C7.48998 2.04001 2.03998 7.49001 2.03998 14.2V53.13C2.03998 59.85 7.47998 65.29 14.2 65.29H14.71V75.18C14.71 77.6 17.5 78.96 19.4 77.46L34.94 65.28H68.95C75.67 65.28 81.11 59.84 81.11 53.12V14.2C81.11 7.48001 75.67 2.04001 68.95 2.04001Z" fill="url(#paint8_linear_3_1521)"/>
<path d="M68.86 1.95001H14.11C7.40001 1.95001 1.95001 7.40001 1.95001 14.11V53.04C1.95001 59.76 7.39001 65.2 14.11 65.2H14.62V75.09C14.62 77.51 17.41 78.87 19.31 77.37L34.85 65.19H68.86C75.58 65.19 81.02 59.75 81.02 53.03V14.11C81.02 7.39001 75.58 1.95001 68.86 1.95001Z" fill="url(#paint9_linear_3_1521)"/>
<path d="M68.77 1.87H14.03C7.31 1.87 1.87 7.31 1.87 14.03V52.95C1.87 59.67 7.31 65.11 14.03 65.11H14.54V75C14.54 77.42 17.33 78.78 19.23 77.28L34.77 65.1H68.78C75.5 65.1 80.94 59.66 80.94 52.94V14.03C80.94 7.31 75.5 1.87 68.78 1.87H68.77Z" fill="url(#paint10_linear_3_1521)"/>
<path d="M68.68 1.78H13.94C7.22003 1.78 1.78003 7.22 1.78003 13.94V52.87C1.78003 59.59 7.22003 65.03 13.94 65.03H14.45V74.92C14.45 77.34 17.24 78.7 19.14 77.2L34.68 65.02H68.69C75.41 65.02 80.85 59.58 80.85 52.86V13.94C80.85 7.22 75.41 1.78 68.69 1.78H68.68Z" fill="url(#paint11_linear_3_1521)"/>
<path d="M68.59 1.69H13.85C7.13 1.69 1.69 7.13 1.69 13.85V52.78C1.69 59.5 7.13 64.94 13.85 64.94H14.36V74.83C14.36 77.25 17.15 78.61 19.05 77.11L34.59 64.93H68.6C75.32 64.93 80.76 59.49 80.76 52.77V13.85C80.76 7.13 75.32 1.69 68.6 1.69H68.59Z" fill="url(#paint12_linear_3_1521)"/>
<path d="M68.51 1.60001H13.76C7.03998 1.60001 1.59998 7.04001 1.59998 13.76V52.69C1.59998 59.41 7.03998 64.85 13.76 64.85H14.27V74.74C14.27 77.16 17.06 78.52 18.96 77.02L34.5 64.84H68.51C75.23 64.84 80.67 59.4 80.67 52.68V13.76C80.67 7.04001 75.23 1.60001 68.51 1.60001Z" fill="url(#paint13_linear_3_1521)"/>
<path d="M68.42 1.51001H13.67C6.95001 1.51001 1.51001 6.95001 1.51001 13.67V52.6C1.51001 59.32 6.95001 64.76 13.67 64.76H14.18V74.65C14.18 77.07 16.97 78.43 18.87 76.93L34.41 64.75H68.42C75.14 64.75 80.58 59.31 80.58 52.59V13.67C80.58 6.95001 75.14 1.51001 68.42 1.51001Z" fill="url(#paint14_linear_3_1521)"/>
<path d="M68.33 1.42001H13.58C6.86998 1.42001 1.41998 6.87001 1.41998 13.58V52.51C1.41998 59.23 6.85998 64.67 13.58 64.67H14.09V74.56C14.09 76.98 16.88 78.34 18.78 76.84L34.32 64.66H68.33C75.05 64.66 80.49 59.22 80.49 52.5V13.58C80.49 6.86001 75.05 1.42001 68.33 1.42001Z" fill="url(#paint15_linear_3_1521)"/>
<path d="M68.24 1.32999H13.49C6.78002 1.32999 1.33002 6.77999 1.33002 13.49V52.42C1.33002 59.14 6.77002 64.58 13.49 64.58H14V74.47C14 76.89 16.79 78.25 18.69 76.75L34.23 64.57H68.24C74.96 64.57 80.4 59.13 80.4 52.41V13.49C80.4 6.76999 74.96 1.32999 68.24 1.32999Z" fill="url(#paint16_linear_3_1521)"/>
<path d="M68.15 1.23999H13.4C6.68999 1.23999 1.23999 6.68999 1.23999 13.4V52.33C1.23999 59.05 6.67999 64.49 13.4 64.49H13.91V74.38C13.91 76.8 16.7 78.16 18.6 76.66L34.14 64.48H68.15C74.87 64.48 80.31 59.04 80.31 52.32V13.4C80.31 6.67999 74.87 1.23999 68.15 1.23999Z" fill="url(#paint17_linear_3_1521)"/>
<path d="M68.06 1.14999H13.32C6.60002 1.14999 1.15002 6.59999 1.15002 13.32V52.24C1.15002 58.96 6.59003 64.4 13.31 64.4H13.82V74.29C13.82 76.71 16.61 78.07 18.51 76.57L34.05 64.39H68.06C74.78 64.39 80.22 58.95 80.22 52.23V13.32C80.22 6.59999 74.78 1.15999 68.06 1.15999V1.14999Z" fill="url(#paint18_linear_3_1521)"/>
<path d="M67.97 1.07001H13.23C6.51001 1.07001 1.07001 6.51001 1.07001 13.23V52.16C1.07001 58.88 6.51001 64.32 13.23 64.32H13.74V74.21C13.74 76.63 16.53 77.99 18.43 76.49L33.97 64.31H67.98C74.7 64.31 80.14 58.87 80.14 52.15V13.23C80.14 6.51001 74.7 1.07001 67.98 1.07001H67.97Z" fill="url(#paint19_linear_3_1521)"/>
<path d="M67.88 0.980011H13.14C6.41998 0.980011 0.97998 6.42001 0.97998 13.14V52.07C0.97998 58.79 6.41998 64.23 13.14 64.23H13.65V74.12C13.65 76.54 16.44 77.9 18.34 76.4L33.88 64.22H67.89C74.61 64.22 80.05 58.78 80.05 52.06V13.14C80.05 6.42001 74.61 0.980011 67.89 0.980011H67.88Z" fill="url(#paint20_linear_3_1521)"/>
<path d="M67.8 0.890015H13.05C6.33001 0.890015 0.890015 6.33001 0.890015 13.05V51.98C0.890015 58.7 6.33001 64.14 13.05 64.14H13.56V74.03C13.56 76.45 16.35 77.81 18.25 76.31L33.79 64.13H67.8C74.52 64.13 79.96 58.69 79.96 51.97V13.05C79.96 6.33001 74.52 0.890015 67.8 0.890015Z" fill="url(#paint21_linear_3_1521)"/>
<path d="M67.71 0.799988H12.96C6.23999 0.799988 0.799988 6.23999 0.799988 12.96V51.89C0.799988 58.61 6.23999 64.05 12.96 64.05H13.47V73.94C13.47 76.36 16.26 77.72 18.16 76.22L33.7 64.04H67.71C74.43 64.04 79.87 58.6 79.87 51.88V12.96C79.87 6.23999 74.43 0.799988 67.71 0.799988Z" fill="url(#paint22_linear_3_1521)"/>
<path d="M67.62 0.709991H12.87C6.16002 0.709991 0.710022 6.15999 0.710022 12.87V51.8C0.710022 58.52 6.15002 63.96 12.87 63.96H13.38V73.85C13.38 76.27 16.17 77.63 18.07 76.13L33.61 63.95H67.62C74.34 63.95 79.78 58.51 79.78 51.79V12.87C79.78 6.14999 74.34 0.709991 67.62 0.709991Z" fill="url(#paint23_linear_3_1521)"/>
<path d="M67.53 0.619995H12.78C6.06999 0.619995 0.619995 6.06999 0.619995 12.78V51.71C0.619995 58.43 6.06 63.87 12.78 63.87H13.29V73.76C13.29 76.18 16.08 77.54 17.98 76.04L33.52 63.86H67.53C74.25 63.86 79.69 58.42 79.69 51.7V12.78C79.69 6.06 74.25 0.619995 67.53 0.619995Z" fill="url(#paint24_linear_3_1521)"/>
<path d="M67.44 0.529999H12.69C5.98003 0.529999 0.530029 5.98 0.530029 12.69V51.62C0.530029 58.34 5.97003 63.78 12.69 63.78H13.2V73.67C13.2 76.09 15.99 77.45 17.89 75.95L33.43 63.77H67.44C74.16 63.77 79.6 58.33 79.6 51.61V12.69C79.6 5.97 74.16 0.529999 67.44 0.529999Z" fill="url(#paint25_linear_3_1521)"/>
<path d="M67.35 0.440002H12.6C5.89 0.440002 0.440002 5.89 0.440002 12.61V51.53C0.440002 58.25 5.88 63.69 12.6 63.69H13.11V73.58C13.11 76 15.9 77.36 17.8 75.86L33.34 63.68H67.35C74.07 63.68 79.51 58.24 79.51 51.52V12.61C79.51 5.89 74.07 0.450002 67.35 0.450002V0.440002Z" fill="url(#paint26_linear_3_1521)"/>
<path d="M67.26 0.359985H12.52C5.79999 0.359985 0.359985 5.79999 0.359985 12.52V51.45C0.359985 58.17 5.79999 63.61 12.52 63.61H13.03V73.5C13.03 75.92 15.82 77.28 17.72 75.78L33.26 63.6H67.27C73.99 63.6 79.43 58.16 79.43 51.44V12.52C79.43 5.79999 73.99 0.359985 67.27 0.359985H67.26Z" fill="url(#paint27_linear_3_1521)"/>
<path d="M67.17 0.269989H12.43C5.71002 0.269989 0.27002 5.70999 0.27002 12.43V51.36C0.27002 58.08 5.71002 63.52 12.43 63.52H12.94V73.41C12.94 75.83 15.73 77.19 17.63 75.69L33.17 63.51H67.18C73.9 63.51 79.34 58.07 79.34 51.35V12.43C79.34 5.70999 73.9 0.269989 67.18 0.269989H67.17Z" fill="url(#paint28_linear_3_1521)"/>
<path d="M67.08 0.179993H12.34C5.61999 0.179993 0.179993 5.61999 0.179993 12.34V51.27C0.179993 57.99 5.61999 63.43 12.34 63.43H12.85V73.32C12.85 75.74 15.64 77.1 17.54 75.6L33.08 63.42H67.09C73.81 63.42 79.25 57.98 79.25 51.26V12.34C79.25 5.61999 73.81 0.179993 67.09 0.179993H67.08Z" fill="url(#paint29_linear_3_1521)"/>
<path d="M67 0.0899963H12.25C5.53003 0.0899963 0.0900269 5.53 0.0900269 12.25V51.18C0.0900269 57.9 5.53003 63.34 12.25 63.34H12.76V73.23C12.76 75.65 15.55 77.01 17.45 75.51L32.99 63.33H67C73.72 63.33 79.16 57.89 79.16 51.17V12.25C79.16 5.53 73.71 0.0899963 67 0.0899963Z" fill="url(#paint30_linear_3_1521)"/>
<path d="M66.91 0H12.16C5.44 0 0 5.44 0 12.16V51.09C0 57.81 5.44 63.25 12.16 63.25H12.67V73.14C12.67 75.56 15.46 76.92 17.36 75.42L32.9 63.24H66.91C73.63 63.24 79.07 57.8 79.07 51.08V12.16C79.07 5.44 73.63 0 66.91 0Z" fill="url(#paint31_linear_3_1521)"/>
<path d="M68.31 2.75H14.67C8.09 2.75 2.75 8.09 2.75 14.67V52.81C2.75 59.39 8.08 64.73 14.67 64.73H15.17V74.42C15.17 76.79 17.9 78.12 19.77 76.66L35 64.73H68.32C74.9 64.73 80.24 59.4 80.24 52.81V14.67C80.24 8.09 74.91 2.75 68.32 2.75H68.31Z" fill="url(#paint32_linear_3_1521)"/>
<path d="M61.37 41.33C65.1421 41.33 68.2 38.3348 68.2 34.64C68.2 30.9452 65.1421 27.95 61.37 27.95C57.5979 27.95 54.54 30.9452 54.54 34.64C54.54 38.3348 57.5979 41.33 61.37 41.33Z" fill="url(#paint33_linear_3_1521)"/>
<path d="M61.33 41.29C65.1021 41.29 68.16 38.2948 68.16 34.6C68.16 30.9052 65.1021 27.91 61.33 27.91C57.5579 27.91 54.5 30.9052 54.5 34.6C54.5 38.2948 57.5579 41.29 61.33 41.29Z" fill="url(#paint34_linear_3_1521)"/>
<path d="M61.29 41.26C65.0621 41.26 68.12 38.2648 68.12 34.57C68.12 30.8752 65.0621 27.88 61.29 27.88C57.5179 27.88 54.46 30.8752 54.46 34.57C54.46 38.2648 57.5179 41.26 61.29 41.26Z" fill="url(#paint35_linear_3_1521)"/>
<path d="M61.25 41.22C65.0222 41.22 68.08 38.2248 68.08 34.53C68.08 30.8352 65.0222 27.84 61.25 27.84C57.4779 27.84 54.42 30.8352 54.42 34.53C54.42 38.2248 57.4779 41.22 61.25 41.22Z" fill="url(#paint36_linear_3_1521)"/>
<path d="M61.21 41.18C64.9821 41.18 68.04 38.1848 68.04 34.49C68.04 30.7952 64.9821 27.8 61.21 27.8C57.4379 27.8 54.38 30.7952 54.38 34.49C54.38 38.1848 57.4379 41.18 61.21 41.18Z" fill="url(#paint37_linear_3_1521)"/>
<path d="M61.18 41.14C64.9521 41.14 68.01 38.1448 68.01 34.45C68.01 30.7552 64.9521 27.76 61.18 27.76C57.4079 27.76 54.35 30.7552 54.35 34.45C54.35 38.1448 57.4079 41.14 61.18 41.14Z" fill="url(#paint38_linear_3_1521)"/>
<path d="M61.1401 41.1C64.9122 41.1 67.9701 38.1048 67.9701 34.41C67.9701 30.7152 64.9122 27.72 61.1401 27.72C57.368 27.72 54.3101 30.7152 54.3101 34.41C54.3101 38.1048 57.368 41.1 61.1401 41.1Z" fill="url(#paint39_linear_3_1521)"/>
<path d="M61.1 41.07C64.8721 41.07 67.93 38.0748 67.93 34.38C67.93 30.6852 64.8721 27.69 61.1 27.69C57.3279 27.69 54.27 30.6852 54.27 34.38C54.27 38.0748 57.3279 41.07 61.1 41.07Z" fill="url(#paint40_linear_3_1521)"/>
<path d="M61.06 41.03C64.8321 41.03 67.89 38.0348 67.89 34.34C67.89 30.6452 64.8321 27.65 61.06 27.65C57.2879 27.65 54.23 30.6452 54.23 34.34C54.23 38.0348 57.2879 41.03 61.06 41.03Z" fill="url(#paint41_linear_3_1521)"/>
<path d="M61.02 40.99C64.7921 40.99 67.85 37.9948 67.85 34.3C67.85 30.6052 64.7921 27.61 61.02 27.61C57.2479 27.61 54.19 30.6052 54.19 34.3C54.19 37.9948 57.2479 40.99 61.02 40.99Z" fill="url(#paint42_linear_3_1521)"/>
<path d="M60.98 40.95C64.7521 40.95 67.81 37.9548 67.81 34.26C67.81 30.5652 64.7521 27.57 60.98 27.57C57.2079 27.57 54.15 30.5652 54.15 34.26C54.15 37.9548 57.2079 40.95 60.98 40.95Z" fill="url(#paint43_linear_3_1521)"/>
<path d="M60.94 40.91C64.7121 40.91 67.77 37.9148 67.77 34.22C67.77 30.5252 64.7121 27.53 60.94 27.53C57.1679 27.53 54.11 30.5252 54.11 34.22C54.11 37.9148 57.1679 40.91 60.94 40.91Z" fill="url(#paint44_linear_3_1521)"/>
<path d="M60.9 40.88C64.6721 40.88 67.73 37.8848 67.73 34.19C67.73 30.4952 64.6721 27.5 60.9 27.5C57.1279 27.5 54.07 30.4952 54.07 34.19C54.07 37.8848 57.1279 40.88 60.9 40.88Z" fill="url(#paint45_linear_3_1521)"/>
<path d="M60.86 40.84C64.6321 40.84 67.69 37.8448 67.69 34.15C67.69 30.4552 64.6321 27.46 60.86 27.46C57.0879 27.46 54.03 30.4552 54.03 34.15C54.03 37.8448 57.0879 40.84 60.86 40.84Z" fill="url(#paint46_linear_3_1521)"/>
<path d="M60.83 40.8C64.6021 40.8 67.66 37.8048 67.66 34.11C67.66 30.4152 64.6021 27.42 60.83 27.42C57.0579 27.42 54 30.4152 54 34.11C54 37.8048 57.0579 40.8 60.83 40.8Z" fill="url(#paint47_linear_3_1521)"/>
<path d="M60.79 40.76C64.5621 40.76 67.62 37.7648 67.62 34.07C67.62 30.3752 64.5621 27.38 60.79 27.38C57.0179 27.38 53.96 30.3752 53.96 34.07C53.96 37.7648 57.0179 40.76 60.79 40.76Z" fill="url(#paint48_linear_3_1521)"/>
<path d="M60.75 40.72C64.5222 40.72 67.58 37.7248 67.58 34.03C67.58 30.3352 64.5222 27.34 60.75 27.34C56.9779 27.34 53.92 30.3352 53.92 34.03C53.92 37.7248 56.9779 40.72 60.75 40.72Z" fill="url(#paint49_linear_3_1521)"/>
<path d="M60.71 40.69C64.4821 40.69 67.54 37.6948 67.54 34C67.54 30.3052 64.4821 27.31 60.71 27.31C56.9379 27.31 53.88 30.3052 53.88 34C53.88 37.6948 56.9379 40.69 60.71 40.69Z" fill="url(#paint50_linear_3_1521)"/>
<path d="M60.67 40.65C64.4421 40.65 67.5 37.6548 67.5 33.96C67.5 30.2652 64.4421 27.27 60.67 27.27C56.8979 27.27 53.84 30.2652 53.84 33.96C53.84 37.6548 56.8979 40.65 60.67 40.65Z" fill="url(#paint51_linear_3_1521)"/>
<path d="M60.6301 40.61C64.4022 40.61 67.46 37.6148 67.46 33.92C67.46 30.2252 64.4022 27.23 60.6301 27.23C56.8579 27.23 53.8 30.2252 53.8 33.92C53.8 37.6148 56.8579 40.61 60.6301 40.61Z" fill="url(#paint52_linear_3_1521)"/>
<path d="M60.59 40.57C64.3621 40.57 67.42 37.5748 67.42 33.88C67.42 30.1852 64.3621 27.19 60.59 27.19C56.8179 27.19 53.76 30.1852 53.76 33.88C53.76 37.5748 56.8179 40.57 60.59 40.57Z" fill="url(#paint53_linear_3_1521)"/>
<path d="M60.55 40.53C64.3221 40.53 67.38 37.5348 67.38 33.84C67.38 30.1452 64.3221 27.15 60.55 27.15C56.7779 27.15 53.72 30.1452 53.72 33.84C53.72 37.5348 56.7779 40.53 60.55 40.53Z" fill="url(#paint54_linear_3_1521)"/>
<path d="M60.5101 40.49C64.2822 40.49 67.34 37.4948 67.34 33.8C67.34 30.1052 64.2822 27.11 60.5101 27.11C56.7379 27.11 53.6801 30.1052 53.6801 33.8C53.6801 37.4948 56.7379 40.49 60.5101 40.49Z" fill="url(#paint55_linear_3_1521)"/>
<path d="M60.48 40.46C64.2521 40.46 67.31 37.4648 67.31 33.77C67.31 30.0752 64.2521 27.08 60.48 27.08C56.7079 27.08 53.65 30.0752 53.65 33.77C53.65 37.4648 56.7079 40.46 60.48 40.46Z" fill="url(#paint56_linear_3_1521)"/>
<path d="M60.44 40.42C64.2121 40.42 67.27 37.4248 67.27 33.73C67.27 30.0352 64.2121 27.04 60.44 27.04C56.6679 27.04 53.61 30.0352 53.61 33.73C53.61 37.4248 56.6679 40.42 60.44 40.42Z" fill="url(#paint57_linear_3_1521)"/>
<path d="M60.4 40.38C64.1721 40.38 67.23 37.3848 67.23 33.69C67.23 29.9952 64.1721 27 60.4 27C56.6279 27 53.57 29.9952 53.57 33.69C53.57 37.3848 56.6279 40.38 60.4 40.38Z" fill="url(#paint58_linear_3_1521)"/>
<path d="M60.36 40.34C64.1321 40.34 67.19 37.3448 67.19 33.65C67.19 29.9552 64.1321 26.96 60.36 26.96C56.5879 26.96 53.53 29.9552 53.53 33.65C53.53 37.3448 56.5879 40.34 60.36 40.34Z" fill="url(#paint59_linear_3_1521)"/>
<path d="M60.32 40.3C64.0922 40.3 67.1501 37.3048 67.1501 33.61C67.1501 29.9152 64.0922 26.92 60.32 26.92C56.5479 26.92 53.4901 29.9152 53.4901 33.61C53.4901 37.3048 56.5479 40.3 60.32 40.3Z" fill="url(#paint60_linear_3_1521)"/>
<path d="M60.28 40.27C64.0521 40.27 67.11 37.2748 67.11 33.58C67.11 29.8852 64.0521 26.89 60.28 26.89C56.5079 26.89 53.45 29.8852 53.45 33.58C53.45 37.2748 56.5079 40.27 60.28 40.27Z" fill="url(#paint61_linear_3_1521)"/>
<path d="M60.24 40.23C64.0121 40.23 67.07 37.2348 67.07 33.54C67.07 29.8452 64.0121 26.85 60.24 26.85C56.4679 26.85 53.41 29.8452 53.41 33.54C53.41 37.2348 56.4679 40.23 60.24 40.23Z" fill="url(#paint62_linear_3_1521)"/>
<path d="M60.2 40.19C63.9721 40.19 67.03 37.1948 67.03 33.5C67.03 29.8052 63.9721 26.81 60.2 26.81C56.4279 26.81 53.37 29.8052 53.37 33.5C53.37 37.1948 56.4279 40.19 60.2 40.19Z" fill="url(#paint63_linear_3_1521)"/>
<path d="M60.17 40.15C63.9421 40.15 67 37.1548 67 33.46C67 29.7652 63.9421 26.77 60.17 26.77C56.3979 26.77 53.34 29.7652 53.34 33.46C53.34 37.1548 56.3979 40.15 60.17 40.15Z" fill="url(#paint64_linear_3_1521)"/>
<path d="M42.06 41.63C45.8321 41.63 48.89 38.5721 48.89 34.8C48.89 31.0279 45.8321 27.97 42.06 27.97C38.2879 27.97 35.23 31.0279 35.23 34.8C35.23 38.5721 38.2879 41.63 42.06 41.63Z" fill="url(#paint65_linear_3_1521)"/>
<path d="M42.02 41.59C45.7921 41.59 48.85 38.5321 48.85 34.76C48.85 30.9879 45.7921 27.93 42.02 27.93C38.2479 27.93 35.19 30.9879 35.19 34.76C35.19 38.5321 38.2479 41.59 42.02 41.59Z" fill="url(#paint66_linear_3_1521)"/>
<path d="M41.98 41.56C45.7521 41.56 48.81 38.5021 48.81 34.73C48.81 30.9579 45.7521 27.9 41.98 27.9C38.2079 27.9 35.15 30.9579 35.15 34.73C35.15 38.5021 38.2079 41.56 41.98 41.56Z" fill="url(#paint67_linear_3_1521)"/>
<path d="M41.94 41.52C45.7121 41.52 48.77 38.4621 48.77 34.69C48.77 30.9179 45.7121 27.86 41.94 27.86C38.1679 27.86 35.11 30.9179 35.11 34.69C35.11 38.4621 38.1679 41.52 41.94 41.52Z" fill="url(#paint68_linear_3_1521)"/>
<path d="M41.9 41.48C45.6721 41.48 48.73 38.4221 48.73 34.65C48.73 30.8779 45.6721 27.82 41.9 27.82C38.1279 27.82 35.07 30.8779 35.07 34.65C35.07 38.4221 38.1279 41.48 41.9 41.48Z" fill="url(#paint69_linear_3_1521)"/>
<path d="M41.87 41.44C45.6421 41.44 48.7 38.3821 48.7 34.61C48.7 30.8379 45.6421 27.78 41.87 27.78C38.0979 27.78 35.04 30.8379 35.04 34.61C35.04 38.3821 38.0979 41.44 41.87 41.44Z" fill="url(#paint70_linear_3_1521)"/>
<path d="M41.83 41.4C45.6021 41.4 48.66 38.3421 48.66 34.57C48.66 30.7979 45.6021 27.74 41.83 27.74C38.0579 27.74 35 30.7979 35 34.57C35 38.3421 38.0579 41.4 41.83 41.4Z" fill="url(#paint71_linear_3_1521)"/>
<path d="M41.79 41.36C45.5621 41.36 48.62 38.3021 48.62 34.53C48.62 30.7579 45.5621 27.7 41.79 27.7C38.0179 27.7 34.96 30.7579 34.96 34.53C34.96 38.3021 38.0179 41.36 41.79 41.36Z" fill="url(#paint72_linear_3_1521)"/>
<path d="M41.75 41.32C45.5222 41.32 48.58 38.2621 48.58 34.49C48.58 30.7179 45.5222 27.66 41.75 27.66C37.9779 27.66 34.92 30.7179 34.92 34.49C34.92 38.2621 37.9779 41.32 41.75 41.32Z" fill="url(#paint73_linear_3_1521)"/>
<path d="M41.71 41.28C45.4821 41.28 48.54 38.2221 48.54 34.45C48.54 30.6779 45.4821 27.62 41.71 27.62C37.9379 27.62 34.88 30.6779 34.88 34.45C34.88 38.2221 37.9379 41.28 41.71 41.28Z" fill="url(#paint74_linear_3_1521)"/>
<path d="M41.67 41.24C45.4421 41.24 48.5 38.1821 48.5 34.41C48.5 30.6379 45.4421 27.58 41.67 27.58C37.8979 27.58 34.84 30.6379 34.84 34.41C34.84 38.1821 37.8979 41.24 41.67 41.24Z" fill="url(#paint75_linear_3_1521)"/>
<path d="M41.6301 41.21C45.4022 41.21 48.46 38.1521 48.46 34.38C48.46 30.6079 45.4022 27.55 41.6301 27.55C37.8579 27.55 34.8 30.6079 34.8 34.38C34.8 38.1521 37.8579 41.21 41.6301 41.21Z" fill="url(#paint76_linear_3_1521)"/>
<path d="M41.59 41.17C45.3621 41.17 48.42 38.1121 48.42 34.34C48.42 30.5679 45.3621 27.51 41.59 27.51C37.8179 27.51 34.76 30.5679 34.76 34.34C34.76 38.1121 37.8179 41.17 41.59 41.17Z" fill="url(#paint77_linear_3_1521)"/>
<path d="M41.55 41.13C45.3221 41.13 48.38 38.0721 48.38 34.3C48.38 30.5279 45.3221 27.47 41.55 27.47C37.7779 27.47 34.72 30.5279 34.72 34.3C34.72 38.0721 37.7779 41.13 41.55 41.13Z" fill="url(#paint78_linear_3_1521)"/>
<path d="M41.52 41.09C45.2921 41.09 48.35 38.0321 48.35 34.26C48.35 30.4879 45.2921 27.43 41.52 27.43C37.7479 27.43 34.69 30.4879 34.69 34.26C34.69 38.0321 37.7479 41.09 41.52 41.09Z" fill="url(#paint79_linear_3_1521)"/>
<path d="M41.48 41.05C45.2521 41.05 48.31 37.9921 48.31 34.22C48.31 30.4479 45.2521 27.39 41.48 27.39C37.7079 27.39 34.65 30.4479 34.65 34.22C34.65 37.9921 37.7079 41.05 41.48 41.05Z" fill="url(#paint80_linear_3_1521)"/>
<path d="M41.44 41.01C45.2121 41.01 48.27 37.9521 48.27 34.18C48.27 30.4079 45.2121 27.35 41.44 27.35C37.6679 27.35 34.61 30.4079 34.61 34.18C34.61 37.9521 37.6679 41.01 41.44 41.01Z" fill="url(#paint81_linear_3_1521)"/>
<path d="M41.4 40.97C45.1721 40.97 48.23 37.9121 48.23 34.14C48.23 30.3679 45.1721 27.31 41.4 27.31C37.6279 27.31 34.57 30.3679 34.57 34.14C34.57 37.9121 37.6279 40.97 41.4 40.97Z" fill="url(#paint82_linear_3_1521)"/>
<path d="M41.36 40.93C45.1321 40.93 48.19 37.8721 48.19 34.1C48.19 30.3279 45.1321 27.27 41.36 27.27C37.5879 27.27 34.53 30.3279 34.53 34.1C34.53 37.8721 37.5879 40.93 41.36 40.93Z" fill="url(#paint83_linear_3_1521)"/>
<path d="M41.32 40.89C45.0922 40.89 48.1501 37.8321 48.1501 34.06C48.1501 30.2879 45.0922 27.23 41.32 27.23C37.5479 27.23 34.4901 30.2879 34.4901 34.06C34.4901 37.8321 37.5479 40.89 41.32 40.89Z" fill="url(#paint84_linear_3_1521)"/>
<path d="M41.28 40.86C45.0521 40.86 48.11 37.8021 48.11 34.03C48.11 30.2579 45.0521 27.2 41.28 27.2C37.5079 27.2 34.45 30.2579 34.45 34.03C34.45 37.8021 37.5079 40.86 41.28 40.86Z" fill="url(#paint85_linear_3_1521)"/>
<path d="M41.24 40.82C45.0121 40.82 48.07 37.7621 48.07 33.99C48.07 30.2179 45.0121 27.16 41.24 27.16C37.4679 27.16 34.41 30.2179 34.41 33.99C34.41 37.7621 37.4679 40.82 41.24 40.82Z" fill="url(#paint86_linear_3_1521)"/>
<path d="M41.2001 40.78C44.9722 40.78 48.0301 37.7221 48.0301 33.95C48.0301 30.1779 44.9722 27.12 41.2001 27.12C37.428 27.12 34.3701 30.1779 34.3701 33.95C34.3701 37.7221 37.428 40.78 41.2001 40.78Z" fill="url(#paint87_linear_3_1521)"/>
<path d="M41.17 40.74C44.9421 40.74 48 37.6821 48 33.91C48 30.1379 44.9421 27.08 41.17 27.08C37.3979 27.08 34.34 30.1379 34.34 33.91C34.34 37.6821 37.3979 40.74 41.17 40.74Z" fill="url(#paint88_linear_3_1521)"/>
<path d="M41.1301 40.7C44.9022 40.7 47.96 37.6421 47.96 33.87C47.96 30.0979 44.9022 27.04 41.1301 27.04C37.3579 27.04 34.3 30.0979 34.3 33.87C34.3 37.6421 37.3579 40.7 41.1301 40.7Z" fill="url(#paint89_linear_3_1521)"/>
<path d="M41.09 40.66C44.8621 40.66 47.92 37.6021 47.92 33.83C47.92 30.0579 44.8621 27 41.09 27C37.3179 27 34.26 30.0579 34.26 33.83C34.26 37.6021 37.3179 40.66 41.09 40.66Z" fill="url(#paint90_linear_3_1521)"/>
<path d="M41.05 40.62C44.8221 40.62 47.88 37.5621 47.88 33.79C47.88 30.0179 44.8221 26.96 41.05 26.96C37.2779 26.96 34.22 30.0179 34.22 33.79C34.22 37.5621 37.2779 40.62 41.05 40.62Z" fill="url(#paint91_linear_3_1521)"/>
<path d="M41.0101 40.58C44.7822 40.58 47.8401 37.5221 47.8401 33.75C47.8401 29.9779 44.7822 26.92 41.0101 26.92C37.2379 26.92 34.1801 29.9779 34.1801 33.75C34.1801 37.5221 37.2379 40.58 41.0101 40.58Z" fill="url(#paint92_linear_3_1521)"/>
<path d="M40.97 40.55C44.7421 40.55 47.8 37.4921 47.8 33.72C47.8 29.9479 44.7421 26.89 40.97 26.89C37.1979 26.89 34.14 29.9479 34.14 33.72C34.14 37.4921 37.1979 40.55 40.97 40.55Z" fill="url(#paint93_linear_3_1521)"/>
<path d="M40.93 40.51C44.7021 40.51 47.76 37.4521 47.76 33.68C47.76 29.9079 44.7021 26.85 40.93 26.85C37.1579 26.85 34.1 29.9079 34.1 33.68C34.1 37.4521 37.1579 40.51 40.93 40.51Z" fill="url(#paint94_linear_3_1521)"/>
<path d="M40.8901 40.47C44.6622 40.47 47.7201 37.4121 47.7201 33.64C47.7201 29.8679 44.6622 26.81 40.8901 26.81C37.118 26.81 34.0601 29.8679 34.0601 33.64C34.0601 37.4121 37.118 40.47 40.8901 40.47Z" fill="url(#paint95_linear_3_1521)"/>
<path d="M40.86 40.43C44.6321 40.43 47.69 37.3721 47.69 33.6C47.69 29.8279 44.6321 26.77 40.86 26.77C37.0879 26.77 34.03 29.8279 34.03 33.6C34.03 37.3721 37.0879 40.43 40.86 40.43Z" fill="url(#paint96_linear_3_1521)"/>
<path d="M22.75 41.63C26.5221 41.63 29.58 38.5721 29.58 34.8C29.58 31.0279 26.5221 27.97 22.75 27.97C18.9779 27.97 15.92 31.0279 15.92 34.8C15.92 38.5721 18.9779 41.63 22.75 41.63Z" fill="url(#paint97_linear_3_1521)"/>
<path d="M22.7099 41.59C26.482 41.59 29.5399 38.5321 29.5399 34.76C29.5399 30.9879 26.482 27.93 22.7099 27.93C18.9378 27.93 15.8799 30.9879 15.8799 34.76C15.8799 38.5321 18.9378 41.59 22.7099 41.59Z" fill="url(#paint98_linear_3_1521)"/>
<path d="M22.67 41.56C26.4421 41.56 29.5 38.5021 29.5 34.73C29.5 30.9579 26.4421 27.9 22.67 27.9C18.8979 27.9 15.84 30.9579 15.84 34.73C15.84 38.5021 18.8979 41.56 22.67 41.56Z" fill="url(#paint99_linear_3_1521)"/>
<path d="M22.63 41.52C26.4021 41.52 29.46 38.4621 29.46 34.69C29.46 30.9179 26.4021 27.86 22.63 27.86C18.8579 27.86 15.8 30.9179 15.8 34.69C15.8 38.4621 18.8579 41.52 22.63 41.52Z" fill="url(#paint100_linear_3_1521)"/>
<path d="M22.5899 41.48C26.3621 41.48 29.4199 38.4221 29.4199 34.65C29.4199 30.8779 26.3621 27.82 22.5899 27.82C18.8178 27.82 15.7599 30.8779 15.7599 34.65C15.7599 38.4221 18.8178 41.48 22.5899 41.48Z" fill="url(#paint101_linear_3_1521)"/>
<path d="M22.56 41.44C26.3321 41.44 29.39 38.3821 29.39 34.61C29.39 30.8379 26.3321 27.78 22.56 27.78C18.7879 27.78 15.73 30.8379 15.73 34.61C15.73 38.3821 18.7879 41.44 22.56 41.44Z" fill="url(#paint102_linear_3_1521)"/>
<path d="M22.5199 41.4C26.292 41.4 29.3499 38.3421 29.3499 34.57C29.3499 30.7979 26.292 27.74 22.5199 27.74C18.7478 27.74 15.6899 30.7979 15.6899 34.57C15.6899 38.3421 18.7478 41.4 22.5199 41.4Z" fill="url(#paint103_linear_3_1521)"/>
<path d="M22.48 41.36C26.2521 41.36 29.31 38.3021 29.31 34.53C29.31 30.7579 26.2521 27.7 22.48 27.7C18.7079 27.7 15.65 30.7579 15.65 34.53C15.65 38.3021 18.7079 41.36 22.48 41.36Z" fill="url(#paint104_linear_3_1521)"/>
<path d="M22.44 41.32C26.2121 41.32 29.27 38.2621 29.27 34.49C29.27 30.7179 26.2121 27.66 22.44 27.66C18.6679 27.66 15.61 30.7179 15.61 34.49C15.61 38.2621 18.6679 41.32 22.44 41.32Z" fill="url(#paint105_linear_3_1521)"/>
<path d="M22.3999 41.28C26.1721 41.28 29.2299 38.2221 29.2299 34.45C29.2299 30.6779 26.1721 27.62 22.3999 27.62C18.6278 27.62 15.5699 30.6779 15.5699 34.45C15.5699 38.2221 18.6278 41.28 22.3999 41.28Z" fill="url(#paint106_linear_3_1521)"/>
<path d="M22.36 41.24C26.1321 41.24 29.19 38.1821 29.19 34.41C29.19 30.6379 26.1321 27.58 22.36 27.58C18.5879 27.58 15.53 30.6379 15.53 34.41C15.53 38.1821 18.5879 41.24 22.36 41.24Z" fill="url(#paint107_linear_3_1521)"/>
<path d="M22.32 41.21C26.0921 41.21 29.15 38.1521 29.15 34.38C29.15 30.6079 26.0921 27.55 22.32 27.55C18.5479 27.55 15.49 30.6079 15.49 34.38C15.49 38.1521 18.5479 41.21 22.32 41.21Z" fill="url(#paint108_linear_3_1521)"/>
<path d="M22.28 41.17C26.0521 41.17 29.11 38.1121 29.11 34.34C29.11 30.5679 26.0521 27.51 22.28 27.51C18.5078 27.51 15.45 30.5679 15.45 34.34C15.45 38.1121 18.5078 41.17 22.28 41.17Z" fill="url(#paint109_linear_3_1521)"/>
<path d="M22.24 41.13C26.0121 41.13 29.07 38.0721 29.07 34.3C29.07 30.5279 26.0121 27.47 22.24 27.47C18.4679 27.47 15.41 30.5279 15.41 34.3C15.41 38.0721 18.4679 41.13 22.24 41.13Z" fill="url(#paint110_linear_3_1521)"/>
<path d="M22.2099 41.09C25.982 41.09 29.0399 38.0321 29.0399 34.26C29.0399 30.4879 25.982 27.43 22.2099 27.43C18.4378 27.43 15.3799 30.4879 15.3799 34.26C15.3799 38.0321 18.4378 41.09 22.2099 41.09Z" fill="url(#paint111_linear_3_1521)"/>
<path d="M22.17 41.05C25.9421 41.05 29 37.9921 29 34.22C29 30.4479 25.9421 27.39 22.17 27.39C18.3979 27.39 15.34 30.4479 15.34 34.22C15.34 37.9921 18.3979 41.05 22.17 41.05Z" fill="url(#paint112_linear_3_1521)"/>
<path d="M22.13 41.01C25.9021 41.01 28.96 37.9521 28.96 34.18C28.96 30.4079 25.9021 27.35 22.13 27.35C18.3579 27.35 15.3 30.4079 15.3 34.18C15.3 37.9521 18.3579 41.01 22.13 41.01Z" fill="url(#paint113_linear_3_1521)"/>
<path d="M22.0899 40.97C25.8621 40.97 28.9199 37.9121 28.9199 34.14C28.9199 30.3679 25.8621 27.31 22.0899 27.31C18.3178 27.31 15.2599 30.3679 15.2599 34.14C15.2599 37.9121 18.3178 40.97 22.0899 40.97Z" fill="url(#paint114_linear_3_1521)"/>
<path d="M22.05 40.93C25.8221 40.93 28.88 37.8721 28.88 34.1C28.88 30.3279 25.8221 27.27 22.05 27.27C18.2779 27.27 15.22 30.3279 15.22 34.1C15.22 37.8721 18.2779 40.93 22.05 40.93Z" fill="url(#paint115_linear_3_1521)"/>
<path d="M22.01 40.89C25.7821 40.89 28.84 37.8321 28.84 34.06C28.84 30.2879 25.7821 27.23 22.01 27.23C18.2379 27.23 15.18 30.2879 15.18 34.06C15.18 37.8321 18.2379 40.89 22.01 40.89Z" fill="url(#paint116_linear_3_1521)"/>
<path d="M21.97 40.86C25.7421 40.86 28.8 37.8021 28.8 34.03C28.8 30.2579 25.7421 27.2 21.97 27.2C18.1978 27.2 15.14 30.2579 15.14 34.03C15.14 37.8021 18.1978 40.86 21.97 40.86Z" fill="url(#paint117_linear_3_1521)"/>
<path d="M21.93 40.82C25.7021 40.82 28.76 37.7621 28.76 33.99C28.76 30.2179 25.7021 27.16 21.93 27.16C18.1579 27.16 15.1 30.2179 15.1 33.99C15.1 37.7621 18.1579 40.82 21.93 40.82Z" fill="url(#paint118_linear_3_1521)"/>
<path d="M21.89 40.78C25.6621 40.78 28.72 37.7221 28.72 33.95C28.72 30.1779 25.6621 27.12 21.89 27.12C18.1179 27.12 15.06 30.1779 15.06 33.95C15.06 37.7221 18.1179 40.78 21.89 40.78Z" fill="url(#paint119_linear_3_1521)"/>
<path d="M21.86 40.74C25.6321 40.74 28.69 37.6821 28.69 33.91C28.69 30.1379 25.6321 27.08 21.86 27.08C18.0879 27.08 15.03 30.1379 15.03 33.91C15.03 37.6821 18.0879 40.74 21.86 40.74Z" fill="url(#paint120_linear_3_1521)"/>
<path d="M21.82 40.7C25.5921 40.7 28.65 37.6421 28.65 33.87C28.65 30.0979 25.5921 27.04 21.82 27.04C18.0479 27.04 14.99 30.0979 14.99 33.87C14.99 37.6421 18.0479 40.7 21.82 40.7Z" fill="url(#paint121_linear_3_1521)"/>
<path d="M21.78 40.66C25.5521 40.66 28.61 37.6021 28.61 33.83C28.61 30.0579 25.5521 27 21.78 27C18.0078 27 14.95 30.0579 14.95 33.83C14.95 37.6021 18.0078 40.66 21.78 40.66Z" fill="url(#paint122_linear_3_1521)"/>
<path d="M21.74 40.62C25.5121 40.62 28.57 37.5621 28.57 33.79C28.57 30.0179 25.5121 26.96 21.74 26.96C17.9679 26.96 14.91 30.0179 14.91 33.79C14.91 37.5621 17.9679 40.62 21.74 40.62Z" fill="url(#paint123_linear_3_1521)"/>
<path d="M21.7 40.58C25.4721 40.58 28.53 37.5221 28.53 33.75C28.53 29.9779 25.4721 26.92 21.7 26.92C17.9279 26.92 14.87 29.9779 14.87 33.75C14.87 37.5221 17.9279 40.58 21.7 40.58Z" fill="url(#paint124_linear_3_1521)"/>
<path d="M21.66 40.55C25.4321 40.55 28.49 37.4921 28.49 33.72C28.49 29.9479 25.4321 26.89 21.66 26.89C17.8879 26.89 14.83 29.9479 14.83 33.72C14.83 37.4921 17.8879 40.55 21.66 40.55Z" fill="url(#paint125_linear_3_1521)"/>
<path d="M21.62 40.51C25.3921 40.51 28.45 37.4521 28.45 33.68C28.45 29.9079 25.3921 26.85 21.62 26.85C17.8479 26.85 14.79 29.9079 14.79 33.68C14.79 37.4521 17.8479 40.51 21.62 40.51Z" fill="url(#paint126_linear_3_1521)"/>
<path d="M21.58 40.47C25.3521 40.47 28.41 37.4121 28.41 33.64C28.41 29.8679 25.3521 26.81 21.58 26.81C17.8079 26.81 14.75 29.8679 14.75 33.64C14.75 37.4121 17.8079 40.47 21.58 40.47Z" fill="url(#paint127_linear_3_1521)"/>
<path d="M21.55 40.43C25.3221 40.43 28.38 37.3721 28.38 33.6C28.38 29.8279 25.3221 26.77 21.55 26.77C17.7779 26.77 14.72 29.8279 14.72 33.6C14.72 37.3721 17.7779 40.43 21.55 40.43Z" fill="url(#paint128_linear_3_1521)"/>
<path style="mix-blend-mode:multiply" d="M60.8 41.04C64.5721 41.04 67.63 38.0448 67.63 34.35C67.63 30.6552 64.5721 27.66 60.8 27.66C57.0279 27.66 53.97 30.6552 53.97 34.35C53.97 38.0448 57.0279 41.04 60.8 41.04Z" fill="url(#paint129_linear_3_1521)"/>
<path style="mix-blend-mode:multiply" d="M41.49 41.34C45.2621 41.34 48.32 38.2821 48.32 34.51C48.32 30.7379 45.2621 27.68 41.49 27.68C37.7179 27.68 34.66 30.7379 34.66 34.51C34.66 38.2821 37.7179 41.34 41.49 41.34Z" fill="url(#paint130_linear_3_1521)"/>
<path style="mix-blend-mode:multiply" d="M22.18 41.34C25.9521 41.34 29.01 38.2821 29.01 34.51C29.01 30.7379 25.9521 27.68 22.18 27.68C18.4079 27.68 15.35 30.7379 15.35 34.51C15.35 38.2821 18.4079 41.34 22.18 41.34Z" fill="url(#paint131_linear_3_1521)"/>
<path d="M66.91 63.25L58.41 63.39L49.91 63.46C44.24 63.49 38.57 63.5 32.91 63.46L33.05 63.41C30.63 65.3 28.2 67.16 25.76 69.03C23.33 70.91 20.87 72.73 18.42 74.59C20.8 72.66 23.17 70.7 25.57 68.8C27.96 66.88 30.36 64.96 32.77 63.07L32.83 63.02H32.91C38.58 62.99 44.25 63 49.91 63.02L58.41 63.09L66.91 63.23V63.25Z" fill="url(#paint132_linear_3_1521)"/>
<defs>
<linearGradient id="paint0_linear_3_1521" x1="33.84" y1="8.25" x2="51.91" y2="64.16" gradientUnits="userSpaceOnUse">
<stop stop-color="#C3C3C3"/>
<stop offset="1" stop-color="#ACACAC"/>
</linearGradient>
<linearGradient id="paint1_linear_3_1521" x1="33.75" y1="8.16" x2="51.82" y2="64.07" gradientUnits="userSpaceOnUse">
<stop stop-color="#C5C5C5"/>
<stop offset="1" stop-color="#ACACAC"/>
</linearGradient>
<linearGradient id="paint2_linear_3_1521" x1="33.66" y1="8.06999" x2="51.73" y2="63.98" gradientUnits="userSpaceOnUse">
<stop stop-color="#C7C7C7"/>
<stop offset="1" stop-color="#ADADAD"/>
</linearGradient>
<linearGradient id="paint3_linear_3_1521" x1="33.58" y1="7.97999" x2="51.65" y2="63.89" gradientUnits="userSpaceOnUse">
<stop stop-color="#C9C9C9"/>
<stop offset="1" stop-color="#ADADAD"/>
</linearGradient>
<linearGradient id="paint4_linear_3_1521" x1="33.49" y1="7.89999" x2="51.56" y2="63.8" gradientUnits="userSpaceOnUse">
<stop stop-color="#CBCBCB"/>
<stop offset="1" stop-color="#ADADAD"/>
</linearGradient>
<linearGradient id="paint5_linear_3_1521" x1="33.4" y1="7.81" x2="51.47" y2="63.71" gradientUnits="userSpaceOnUse">
<stop stop-color="#CDCDCD"/>
<stop offset="1" stop-color="#AEAEAE"/>
</linearGradient>
<linearGradient id="paint6_linear_3_1521" x1="33.31" y1="7.72" x2="51.38" y2="63.62" gradientUnits="userSpaceOnUse">
<stop stop-color="#CFCFCF"/>
<stop offset="1" stop-color="#AEAEAE"/>
</linearGradient>
<linearGradient id="paint7_linear_3_1521" x1="33.22" y1="7.63001" x2="51.29" y2="63.54" gradientUnits="userSpaceOnUse">
<stop stop-color="#D1D1D1"/>
<stop offset="1" stop-color="#AEAEAE"/>
</linearGradient>
<linearGradient id="paint8_linear_3_1521" x1="33.13" y1="7.54001" x2="51.2" y2="63.45" gradientUnits="userSpaceOnUse">
<stop stop-color="#D2D2D2"/>
<stop offset="1" stop-color="#AFAFAF"/>
</linearGradient>
<linearGradient id="paint9_linear_3_1521" x1="33.04" y1="7.45001" x2="51.11" y2="63.36" gradientUnits="userSpaceOnUse">
<stop stop-color="#D4D4D4"/>
<stop offset="1" stop-color="#AFAFAF"/>
</linearGradient>
<linearGradient id="paint10_linear_3_1521" x1="32.95" y1="7.36" x2="51.02" y2="63.27" gradientUnits="userSpaceOnUse">
<stop stop-color="#D6D6D6"/>
<stop offset="1" stop-color="#B0B0B0"/>
</linearGradient>
<linearGradient id="paint11_linear_3_1521" x1="32.86" y1="7.27" x2="50.94" y2="63.18" gradientUnits="userSpaceOnUse">
<stop stop-color="#D8D8D8"/>
<stop offset="1" stop-color="#B0B0B0"/>
</linearGradient>
<linearGradient id="paint12_linear_3_1521" x1="32.78" y1="7.19" x2="50.85" y2="63.09" gradientUnits="userSpaceOnUse">
<stop stop-color="#DADADA"/>
<stop offset="1" stop-color="#B0B0B0"/>
</linearGradient>
<linearGradient id="paint13_linear_3_1521" x1="32.69" y1="7.10001" x2="50.76" y2="63" gradientUnits="userSpaceOnUse">
<stop stop-color="#DCDCDC"/>
<stop offset="1" stop-color="#B1B1B1"/>
</linearGradient>
<linearGradient id="paint14_linear_3_1521" x1="32.6" y1="7.01001" x2="50.67" y2="62.91" gradientUnits="userSpaceOnUse">
<stop stop-color="#DEDEDE"/>
<stop offset="1" stop-color="#B1B1B1"/>
</linearGradient>
<linearGradient id="paint15_linear_3_1521" x1="32.51" y1="6.92001" x2="50.58" y2="62.82" gradientUnits="userSpaceOnUse">
<stop stop-color="#E0E0E0"/>
<stop offset="1" stop-color="#B1B1B1"/>
</linearGradient>
<linearGradient id="paint16_linear_3_1521" x1="32.42" y1="6.82999" x2="50.49" y2="62.74" gradientUnits="userSpaceOnUse">
<stop stop-color="#E2E2E2"/>
<stop offset="1" stop-color="#B2B2B2"/>
</linearGradient>
<linearGradient id="paint17_linear_3_1521" x1="32.33" y1="6.73999" x2="50.4" y2="62.65" gradientUnits="userSpaceOnUse">
<stop stop-color="#E4E4E4"/>
<stop offset="1" stop-color="#B2B2B2"/>
</linearGradient>
<linearGradient id="paint18_linear_3_1521" x1="32.24" y1="6.64999" x2="50.31" y2="62.56" gradientUnits="userSpaceOnUse">
<stop stop-color="#E6E6E6"/>
<stop offset="1" stop-color="#B2B2B2"/>
</linearGradient>
<linearGradient id="paint19_linear_3_1521" x1="32.15" y1="6.56001" x2="50.22" y2="62.47" gradientUnits="userSpaceOnUse">
<stop stop-color="#E8E8E8"/>
<stop offset="1" stop-color="#B3B3B3"/>
</linearGradient>
<linearGradient id="paint20_linear_3_1521" x1="32.07" y1="6.47001" x2="50.14" y2="62.38" gradientUnits="userSpaceOnUse">
<stop stop-color="#EAEAEA"/>
<stop offset="1" stop-color="#B3B3B3"/>
</linearGradient>
<linearGradient id="paint21_linear_3_1521" x1="31.98" y1="6.39001" x2="50.05" y2="62.29" gradientUnits="userSpaceOnUse">
<stop stop-color="#ECECEC"/>
<stop offset="1" stop-color="#B3B3B3"/>
</linearGradient>
<linearGradient id="paint22_linear_3_1521" x1="31.89" y1="6.29999" x2="49.96" y2="62.2" gradientUnits="userSpaceOnUse">
<stop stop-color="#EEEEEE"/>
<stop offset="1" stop-color="#B4B4B4"/>
</linearGradient>
<linearGradient id="paint23_linear_3_1521" x1="31.8" y1="6.20999" x2="49.87" y2="62.11" gradientUnits="userSpaceOnUse">
<stop stop-color="#F0F0F0"/>
<stop offset="1" stop-color="#B4B4B4"/>
</linearGradient>
<linearGradient id="paint24_linear_3_1521" x1="31.71" y1="6.12" x2="49.78" y2="62.03" gradientUnits="userSpaceOnUse">
<stop stop-color="#F1F1F1"/>
<stop offset="1" stop-color="#B5B5B5"/>
</linearGradient>
<linearGradient id="paint25_linear_3_1521" x1="31.62" y1="6.03" x2="49.69" y2="61.94" gradientUnits="userSpaceOnUse">
<stop stop-color="#F3F3F3"/>
<stop offset="1" stop-color="#B5B5B5"/>
</linearGradient>
<linearGradient id="paint26_linear_3_1521" x1="31.53" y1="5.94" x2="49.6" y2="61.85" gradientUnits="userSpaceOnUse">
<stop stop-color="#F5F5F5"/>
<stop offset="1" stop-color="#B5B5B5"/>
</linearGradient>
<linearGradient id="paint27_linear_3_1521" x1="31.44" y1="5.84999" x2="49.51" y2="61.76" gradientUnits="userSpaceOnUse">
<stop stop-color="#F7F7F7"/>
<stop offset="1" stop-color="#B6B6B6"/>
</linearGradient>
<linearGradient id="paint28_linear_3_1521" x1="31.36" y1="5.75999" x2="49.43" y2="61.67" gradientUnits="userSpaceOnUse">
<stop stop-color="#F9F9F9"/>
<stop offset="1" stop-color="#B6B6B6"/>
</linearGradient>
<linearGradient id="paint29_linear_3_1521" x1="31.27" y1="5.67999" x2="49.34" y2="61.58" gradientUnits="userSpaceOnUse">
<stop stop-color="#FBFBFB"/>
<stop offset="1" stop-color="#B6B6B6"/>
</linearGradient>
<linearGradient id="paint30_linear_3_1521" x1="31.18" y1="5.59" x2="49.25" y2="61.49" gradientUnits="userSpaceOnUse">
<stop stop-color="#FDFDFD"/>
<stop offset="1" stop-color="#B7B7B7"/>
</linearGradient>
<linearGradient id="paint31_linear_3_1521" x1="31.09" y1="5.5" x2="49.16" y2="61.4" gradientUnits="userSpaceOnUse">
<stop stop-color="white"/>
<stop offset="1" stop-color="#B7B7B7"/>
</linearGradient>
<linearGradient id="paint32_linear_3_1521" x1="30.8" y1="0.970001" x2="51.83" y2="65.43" gradientUnits="userSpaceOnUse">
<stop offset="0.05" stop-color="#C9C9C9"/>
<stop offset="0.16" stop-color="#CACACA" stop-opacity="0.97"/>
<stop offset="0.29" stop-color="#CECECE" stop-opacity="0.89"/>
<stop offset="0.45" stop-color="#D5D5D5" stop-opacity="0.76"/>
<stop offset="0.61" stop-color="#DFDFDF" stop-opacity="0.58"/>
<stop offset="0.78" stop-color="#ECECEC" stop-opacity="0.35"/>
<stop offset="0.96" stop-color="#FBFBFB" stop-opacity="0.07"/>
<stop offset="1" stop-color="white" stop-opacity="0"/>
</linearGradient>
<linearGradient id="paint33_linear_3_1521" x1="59.5" y1="28.92" x2="63.18" y2="40.18" gradientUnits="userSpaceOnUse">
<stop stop-color="#C7C7C7"/>
<stop offset="1" stop-color="#8F8F8F"/>
</linearGradient>
<linearGradient id="paint34_linear_3_1521" x1="59.46" y1="28.88" x2="63.14" y2="40.14" gradientUnits="userSpaceOnUse">
<stop stop-color="#C9C9C9"/>
<stop offset="1" stop-color="#909090"/>
</linearGradient>
<linearGradient id="paint35_linear_3_1521" x1="59.42" y1="28.84" x2="63.1" y2="40.11" gradientUnits="userSpaceOnUse">
<stop stop-color="#CBCBCB"/>
<stop offset="1" stop-color="#929292"/>
</linearGradient>
<linearGradient id="paint36_linear_3_1521" x1="59.38" y1="28.8" x2="63.06" y2="40.07" gradientUnits="userSpaceOnUse">
<stop stop-color="#CCCCCC"/>
<stop offset="1" stop-color="#939393"/>
</linearGradient>
<linearGradient id="paint37_linear_3_1521" x1="59.35" y1="28.76" x2="63.02" y2="40.03" gradientUnits="userSpaceOnUse">
<stop stop-color="#CECECE"/>
<stop offset="1" stop-color="#949494"/>
</linearGradient>
<linearGradient id="paint38_linear_3_1521" x1="59.31" y1="28.72" x2="62.98" y2="39.99" gradientUnits="userSpaceOnUse">
<stop stop-color="#D0D0D0"/>
<stop offset="1" stop-color="#959595"/>
</linearGradient>
<linearGradient id="paint39_linear_3_1521" x1="59.2701" y1="28.69" x2="62.9401" y2="39.95" gradientUnits="userSpaceOnUse">
<stop stop-color="#D2D2D2"/>
<stop offset="1" stop-color="#979797"/>
</linearGradient>
<linearGradient id="paint40_linear_3_1521" x1="59.23" y1="28.65" x2="62.9" y2="39.91" gradientUnits="userSpaceOnUse">
<stop stop-color="#D4D4D4"/>
<stop offset="1" stop-color="#989898"/>
</linearGradient>
<linearGradient id="paint41_linear_3_1521" x1="59.19" y1="28.61" x2="62.87" y2="39.88" gradientUnits="userSpaceOnUse">
<stop stop-color="#D5D5D5"/>
<stop offset="1" stop-color="#999999"/>
</linearGradient>
<linearGradient id="paint42_linear_3_1521" x1="59.15" y1="28.57" x2="62.83" y2="39.84" gradientUnits="userSpaceOnUse">
<stop stop-color="#D7D7D7"/>
<stop offset="1" stop-color="#9B9B9B"/>
</linearGradient>
<linearGradient id="paint43_linear_3_1521" x1="59.11" y1="28.53" x2="62.79" y2="39.8" gradientUnits="userSpaceOnUse">
<stop stop-color="#D9D9D9"/>
<stop offset="1" stop-color="#9C9C9C"/>
</linearGradient>
<linearGradient id="paint44_linear_3_1521" x1="59.07" y1="28.5" x2="62.75" y2="39.76" gradientUnits="userSpaceOnUse">
<stop stop-color="#DBDBDB"/>
<stop offset="1" stop-color="#9D9D9D"/>
</linearGradient>
<linearGradient id="paint45_linear_3_1521" x1="59.04" y1="28.46" x2="62.71" y2="39.72" gradientUnits="userSpaceOnUse">
<stop stop-color="#DDDDDD"/>
<stop offset="1" stop-color="#9E9E9E"/>
</linearGradient>
<linearGradient id="paint46_linear_3_1521" x1="59" y1="28.42" x2="62.67" y2="39.69" gradientUnits="userSpaceOnUse">
<stop stop-color="#DEDEDE"/>
<stop offset="1" stop-color="#A0A0A0"/>
</linearGradient>
<linearGradient id="paint47_linear_3_1521" x1="58.96" y1="28.38" x2="62.63" y2="39.65" gradientUnits="userSpaceOnUse">
<stop stop-color="#E0E0E0"/>
<stop offset="1" stop-color="#A1A1A1"/>
</linearGradient>
<linearGradient id="paint48_linear_3_1521" x1="58.92" y1="28.34" x2="62.59" y2="39.61" gradientUnits="userSpaceOnUse">
<stop stop-color="#E2E2E2"/>
<stop offset="1" stop-color="#A2A2A2"/>
</linearGradient>
<linearGradient id="paint49_linear_3_1521" x1="58.88" y1="28.31" x2="62.55" y2="39.57" gradientUnits="userSpaceOnUse">
<stop stop-color="#E4E4E4"/>
<stop offset="1" stop-color="#A4A4A4"/>
</linearGradient>
<linearGradient id="paint50_linear_3_1521" x1="58.84" y1="28.27" x2="62.52" y2="39.53" gradientUnits="userSpaceOnUse">
<stop stop-color="#E6E6E6"/>
<stop offset="1" stop-color="#A5A5A5"/>
</linearGradient>
<linearGradient id="paint51_linear_3_1521" x1="58.8" y1="28.23" x2="62.48" y2="39.5" gradientUnits="userSpaceOnUse">
<stop stop-color="#E8E8E8"/>
<stop offset="1" stop-color="#A6A6A6"/>
</linearGradient>
<linearGradient id="paint52_linear_3_1521" x1="58.76" y1="28.19" x2="62.44" y2="39.46" gradientUnits="userSpaceOnUse">
<stop stop-color="#E9E9E9"/>
<stop offset="1" stop-color="#A8A8A8"/>
</linearGradient>
<linearGradient id="paint53_linear_3_1521" x1="58.72" y1="28.15" x2="62.4" y2="39.42" gradientUnits="userSpaceOnUse">
<stop stop-color="#EBEBEB"/>
<stop offset="1" stop-color="#A9A9A9"/>
</linearGradient>
<linearGradient id="paint54_linear_3_1521" x1="58.69" y1="28.12" x2="62.36" y2="39.38" gradientUnits="userSpaceOnUse">
<stop stop-color="#EDEDED"/>
<stop offset="1" stop-color="#AAAAAA"/>
</linearGradient>
<linearGradient id="paint55_linear_3_1521" x1="58.6501" y1="28.08" x2="62.3201" y2="39.34" gradientUnits="userSpaceOnUse">
<stop stop-color="#EFEFEF"/>
<stop offset="1" stop-color="#ABABAB"/>
</linearGradient>
<linearGradient id="paint56_linear_3_1521" x1="58.61" y1="28.04" x2="62.28" y2="39.31" gradientUnits="userSpaceOnUse">
<stop stop-color="#F1F1F1"/>
<stop offset="1" stop-color="#ADADAD"/>
</linearGradient>
<linearGradient id="paint57_linear_3_1521" x1="58.57" y1="28" x2="62.24" y2="39.27" gradientUnits="userSpaceOnUse">
<stop stop-color="#F2F2F2"/>
<stop offset="1" stop-color="#AEAEAE"/>
</linearGradient>
<linearGradient id="paint58_linear_3_1521" x1="58.53" y1="27.96" x2="62.21" y2="39.23" gradientUnits="userSpaceOnUse">
<stop stop-color="#F4F4F4"/>
<stop offset="1" stop-color="#AFAFAF"/>
</linearGradient>
<linearGradient id="paint59_linear_3_1521" x1="58.49" y1="27.93" x2="62.17" y2="39.19" gradientUnits="userSpaceOnUse">
<stop stop-color="#F6F6F6"/>
<stop offset="1" stop-color="#B1B1B1"/>
</linearGradient>
<linearGradient id="paint60_linear_3_1521" x1="58.4501" y1="27.89" x2="62.1301" y2="39.15" gradientUnits="userSpaceOnUse">
<stop stop-color="#F8F8F8"/>
<stop offset="1" stop-color="#B2B2B2"/>
</linearGradient>
<linearGradient id="paint61_linear_3_1521" x1="58.41" y1="27.85" x2="62.09" y2="39.12" gradientUnits="userSpaceOnUse">
<stop stop-color="#FAFAFA"/>
<stop offset="1" stop-color="#B3B3B3"/>
</linearGradient>
<linearGradient id="paint62_linear_3_1521" x1="58.37" y1="27.81" x2="62.05" y2="39.08" gradientUnits="userSpaceOnUse">
<stop stop-color="#FBFBFB"/>
<stop offset="1" stop-color="#B4B4B4"/>
</linearGradient>
<linearGradient id="paint63_linear_3_1521" x1="58.34" y1="27.77" x2="62.01" y2="39.04" gradientUnits="userSpaceOnUse">
<stop stop-color="#FDFDFD"/>
<stop offset="1" stop-color="#B6B6B6"/>
</linearGradient>
<linearGradient id="paint64_linear_3_1521" x1="58.3" y1="27.74" x2="61.97" y2="39" gradientUnits="userSpaceOnUse">
<stop stop-color="white"/>
<stop offset="1" stop-color="#B7B7B7"/>
</linearGradient>
<linearGradient id="paint65_linear_3_1521" x1="40.16" y1="28.97" x2="43.9" y2="40.44" gradientUnits="userSpaceOnUse">
<stop stop-color="#C7C7C7"/>
<stop offset="1" stop-color="#8F8F8F"/>
</linearGradient>
<linearGradient id="paint66_linear_3_1521" x1="40.12" y1="28.93" x2="43.86" y2="40.41" gradientUnits="userSpaceOnUse">
<stop stop-color="#C9C9C9"/>
<stop offset="1" stop-color="#909090"/>
</linearGradient>
<linearGradient id="paint67_linear_3_1521" x1="40.08" y1="28.89" x2="43.82" y2="40.37" gradientUnits="userSpaceOnUse">
<stop stop-color="#CBCBCB"/>
<stop offset="1" stop-color="#929292"/>
</linearGradient>
<linearGradient id="paint68_linear_3_1521" x1="40.04" y1="28.85" x2="43.78" y2="40.33" gradientUnits="userSpaceOnUse">
<stop stop-color="#CCCCCC"/>
<stop offset="1" stop-color="#939393"/>
</linearGradient>
<linearGradient id="paint69_linear_3_1521" x1="40" y1="28.82" x2="43.74" y2="40.29" gradientUnits="userSpaceOnUse">
<stop stop-color="#CECECE"/>
<stop offset="1" stop-color="#949494"/>
</linearGradient>
<linearGradient id="paint70_linear_3_1521" x1="39.96" y1="28.78" x2="43.71" y2="40.25" gradientUnits="userSpaceOnUse">
<stop stop-color="#D0D0D0"/>
<stop offset="1" stop-color="#959595"/>
</linearGradient>
<linearGradient id="paint71_linear_3_1521" x1="39.92" y1="28.74" x2="43.67" y2="40.21" gradientUnits="userSpaceOnUse">
<stop stop-color="#D2D2D2"/>
<stop offset="1" stop-color="#979797"/>
</linearGradient>
<linearGradient id="paint72_linear_3_1521" x1="39.89" y1="28.7" x2="43.63" y2="40.17" gradientUnits="userSpaceOnUse">
<stop stop-color="#D4D4D4"/>
<stop offset="1" stop-color="#989898"/>
</linearGradient>
<linearGradient id="paint73_linear_3_1521" x1="39.85" y1="28.66" x2="43.59" y2="40.13" gradientUnits="userSpaceOnUse">
<stop stop-color="#D5D5D5"/>
<stop offset="1" stop-color="#999999"/>
</linearGradient>
<linearGradient id="paint74_linear_3_1521" x1="39.81" y1="28.62" x2="43.55" y2="40.09" gradientUnits="userSpaceOnUse">
<stop stop-color="#D7D7D7"/>
<stop offset="1" stop-color="#9B9B9B"/>
</linearGradient>
<linearGradient id="paint75_linear_3_1521" x1="39.77" y1="28.58" x2="43.51" y2="40.06" gradientUnits="userSpaceOnUse">
<stop stop-color="#D9D9D9"/>
<stop offset="1" stop-color="#9C9C9C"/>
</linearGradient>
<linearGradient id="paint76_linear_3_1521" x1="39.73" y1="28.54" x2="43.47" y2="40.02" gradientUnits="userSpaceOnUse">
<stop stop-color="#DBDBDB"/>
<stop offset="1" stop-color="#9D9D9D"/>
</linearGradient>
<linearGradient id="paint77_linear_3_1521" x1="39.69" y1="28.5" x2="43.43" y2="39.98" gradientUnits="userSpaceOnUse">
<stop stop-color="#DDDDDD"/>
<stop offset="1" stop-color="#9E9E9E"/>
</linearGradient>
<linearGradient id="paint78_linear_3_1521" x1="39.65" y1="28.47" x2="43.39" y2="39.94" gradientUnits="userSpaceOnUse">
<stop stop-color="#DEDEDE"/>
<stop offset="1" stop-color="#A0A0A0"/>
</linearGradient>
<linearGradient id="paint79_linear_3_1521" x1="39.61" y1="28.43" x2="43.36" y2="39.9" gradientUnits="userSpaceOnUse">
<stop stop-color="#E0E0E0"/>
<stop offset="1" stop-color="#A1A1A1"/>
</linearGradient>
<linearGradient id="paint80_linear_3_1521" x1="39.57" y1="28.39" x2="43.32" y2="39.86" gradientUnits="userSpaceOnUse">
<stop stop-color="#E2E2E2"/>
<stop offset="1" stop-color="#A2A2A2"/>
</linearGradient>
<linearGradient id="paint81_linear_3_1521" x1="39.54" y1="28.35" x2="43.28" y2="39.82" gradientUnits="userSpaceOnUse">
<stop stop-color="#E4E4E4"/>
<stop offset="1" stop-color="#A4A4A4"/>
</linearGradient>
<linearGradient id="paint82_linear_3_1521" x1="39.5" y1="28.31" x2="43.24" y2="39.78" gradientUnits="userSpaceOnUse">
<stop stop-color="#E6E6E6"/>
<stop offset="1" stop-color="#A5A5A5"/>
</linearGradient>
<linearGradient id="paint83_linear_3_1521" x1="39.46" y1="28.27" x2="43.2" y2="39.75" gradientUnits="userSpaceOnUse">
<stop stop-color="#E8E8E8"/>
<stop offset="1" stop-color="#A6A6A6"/>
</linearGradient>
<linearGradient id="paint84_linear_3_1521" x1="39.4201" y1="28.23" x2="43.1601" y2="39.71" gradientUnits="userSpaceOnUse">
<stop stop-color="#E9E9E9"/>
<stop offset="1" stop-color="#A8A8A8"/>
</linearGradient>
<linearGradient id="paint85_linear_3_1521" x1="39.38" y1="28.19" x2="43.12" y2="39.67" gradientUnits="userSpaceOnUse">
<stop stop-color="#EBEBEB"/>
<stop offset="1" stop-color="#A9A9A9"/>
</linearGradient>
<linearGradient id="paint86_linear_3_1521" x1="39.34" y1="28.15" x2="43.08" y2="39.63" gradientUnits="userSpaceOnUse">
<stop stop-color="#EDEDED"/>
<stop offset="1" stop-color="#AAAAAA"/>
</linearGradient>
<linearGradient id="paint87_linear_3_1521" x1="39.3001" y1="28.12" x2="43.0401" y2="39.59" gradientUnits="userSpaceOnUse">
<stop stop-color="#EFEFEF"/>
<stop offset="1" stop-color="#ABABAB"/>
</linearGradient>
<linearGradient id="paint88_linear_3_1521" x1="39.26" y1="28.08" x2="43.01" y2="39.55" gradientUnits="userSpaceOnUse">
<stop stop-color="#F1F1F1"/>
<stop offset="1" stop-color="#ADADAD"/>
</linearGradient>
<linearGradient id="paint89_linear_3_1521" x1="39.22" y1="28.04" x2="42.97" y2="39.51" gradientUnits="userSpaceOnUse">
<stop stop-color="#F2F2F2"/>
<stop offset="1" stop-color="#AEAEAE"/>
</linearGradient>
<linearGradient id="paint90_linear_3_1521" x1="39.19" y1="28" x2="42.93" y2="39.47" gradientUnits="userSpaceOnUse">
<stop stop-color="#F4F4F4"/>
<stop offset="1" stop-color="#AFAFAF"/>
</linearGradient>
<linearGradient id="paint91_linear_3_1521" x1="39.15" y1="27.96" x2="42.89" y2="39.43" gradientUnits="userSpaceOnUse">
<stop stop-color="#F6F6F6"/>
<stop offset="1" stop-color="#B1B1B1"/>
</linearGradient>
<linearGradient id="paint92_linear_3_1521" x1="39.1101" y1="27.92" x2="42.8501" y2="39.4" gradientUnits="userSpaceOnUse">
<stop stop-color="#F8F8F8"/>
<stop offset="1" stop-color="#B2B2B2"/>
</linearGradient>
<linearGradient id="paint93_linear_3_1521" x1="39.07" y1="27.88" x2="42.81" y2="39.36" gradientUnits="userSpaceOnUse">
<stop stop-color="#FAFAFA"/>
<stop offset="1" stop-color="#B3B3B3"/>
</linearGradient>
<linearGradient id="paint94_linear_3_1521" x1="39.03" y1="27.84" x2="42.77" y2="39.32" gradientUnits="userSpaceOnUse">
<stop stop-color="#FBFBFB"/>
<stop offset="1" stop-color="#B4B4B4"/>
</linearGradient>
<linearGradient id="paint95_linear_3_1521" x1="38.9901" y1="27.81" x2="42.7301" y2="39.28" gradientUnits="userSpaceOnUse">
<stop stop-color="#FDFDFD"/>
<stop offset="1" stop-color="#B6B6B6"/>
</linearGradient>
<linearGradient id="paint96_linear_3_1521" x1="38.95" y1="27.77" x2="42.7" y2="39.24" gradientUnits="userSpaceOnUse">
<stop stop-color="white"/>
<stop offset="1" stop-color="#B7B7B7"/>
</linearGradient>
<linearGradient id="paint97_linear_3_1521" x1="20.85" y1="28.97" x2="24.59" y2="40.44" gradientUnits="userSpaceOnUse">
<stop stop-color="#C7C7C7"/>
<stop offset="1" stop-color="#8F8F8F"/>
</linearGradient>
<linearGradient id="paint98_linear_3_1521" x1="20.8099" y1="28.93" x2="24.5499" y2="40.41" gradientUnits="userSpaceOnUse">
<stop stop-color="#C9C9C9"/>
<stop offset="1" stop-color="#909090"/>
</linearGradient>
<linearGradient id="paint99_linear_3_1521" x1="20.77" y1="28.89" x2="24.51" y2="40.37" gradientUnits="userSpaceOnUse">
<stop stop-color="#CBCBCB"/>
<stop offset="1" stop-color="#929292"/>
</linearGradient>
<linearGradient id="paint100_linear_3_1521" x1="20.73" y1="28.85" x2="24.47" y2="40.33" gradientUnits="userSpaceOnUse">
<stop stop-color="#CCCCCC"/>
<stop offset="1" stop-color="#939393"/>
</linearGradient>
<linearGradient id="paint101_linear_3_1521" x1="20.6899" y1="28.82" x2="24.4299" y2="40.29" gradientUnits="userSpaceOnUse">
<stop stop-color="#CECECE"/>
<stop offset="1" stop-color="#949494"/>
</linearGradient>
<linearGradient id="paint102_linear_3_1521" x1="20.65" y1="28.78" x2="24.4" y2="40.25" gradientUnits="userSpaceOnUse">
<stop stop-color="#D0D0D0"/>
<stop offset="1" stop-color="#959595"/>
</linearGradient>
<linearGradient id="paint103_linear_3_1521" x1="20.6099" y1="28.74" x2="24.3599" y2="40.21" gradientUnits="userSpaceOnUse">
<stop stop-color="#D2D2D2"/>
<stop offset="1" stop-color="#979797"/>
</linearGradient>
<linearGradient id="paint104_linear_3_1521" x1="20.58" y1="28.7" x2="24.32" y2="40.17" gradientUnits="userSpaceOnUse">
<stop stop-color="#D4D4D4"/>
<stop offset="1" stop-color="#989898"/>
</linearGradient>
<linearGradient id="paint105_linear_3_1521" x1="20.54" y1="28.66" x2="24.28" y2="40.13" gradientUnits="userSpaceOnUse">
<stop stop-color="#D5D5D5"/>
<stop offset="1" stop-color="#999999"/>
</linearGradient>
<linearGradient id="paint106_linear_3_1521" x1="20.4999" y1="28.62" x2="24.2399" y2="40.09" gradientUnits="userSpaceOnUse">
<stop stop-color="#D7D7D7"/>
<stop offset="1" stop-color="#9B9B9B"/>
</linearGradient>
<linearGradient id="paint107_linear_3_1521" x1="20.46" y1="28.58" x2="24.2" y2="40.06" gradientUnits="userSpaceOnUse">
<stop stop-color="#D9D9D9"/>
<stop offset="1" stop-color="#9C9C9C"/>
</linearGradient>
<linearGradient id="paint108_linear_3_1521" x1="20.42" y1="28.54" x2="24.16" y2="40.02" gradientUnits="userSpaceOnUse">
<stop stop-color="#DBDBDB"/>
<stop offset="1" stop-color="#9D9D9D"/>
</linearGradient>
<linearGradient id="paint109_linear_3_1521" x1="20.38" y1="28.5" x2="24.1199" y2="39.98" gradientUnits="userSpaceOnUse">
<stop stop-color="#DDDDDD"/>
<stop offset="1" stop-color="#9E9E9E"/>
</linearGradient>
<linearGradient id="paint110_linear_3_1521" x1="20.34" y1="28.47" x2="24.08" y2="39.94" gradientUnits="userSpaceOnUse">
<stop stop-color="#DEDEDE"/>
<stop offset="1" stop-color="#A0A0A0"/>
</linearGradient>
<linearGradient id="paint111_linear_3_1521" x1="20.2999" y1="28.43" x2="24.0499" y2="39.9" gradientUnits="userSpaceOnUse">
<stop stop-color="#E0E0E0"/>
<stop offset="1" stop-color="#A1A1A1"/>
</linearGradient>
<linearGradient id="paint112_linear_3_1521" x1="20.26" y1="28.39" x2="24.01" y2="39.86" gradientUnits="userSpaceOnUse">
<stop stop-color="#E2E2E2"/>
<stop offset="1" stop-color="#A2A2A2"/>
</linearGradient>
<linearGradient id="paint113_linear_3_1521" x1="20.23" y1="28.35" x2="23.97" y2="39.82" gradientUnits="userSpaceOnUse">
<stop stop-color="#E4E4E4"/>
<stop offset="1" stop-color="#A4A4A4"/>
</linearGradient>
<linearGradient id="paint114_linear_3_1521" x1="20.1899" y1="28.31" x2="23.93" y2="39.78" gradientUnits="userSpaceOnUse">
<stop stop-color="#E6E6E6"/>
<stop offset="1" stop-color="#A5A5A5"/>
</linearGradient>
<linearGradient id="paint115_linear_3_1521" x1="20.15" y1="28.27" x2="23.89" y2="39.75" gradientUnits="userSpaceOnUse">
<stop stop-color="#E8E8E8"/>
<stop offset="1" stop-color="#A6A6A6"/>
</linearGradient>
<linearGradient id="paint116_linear_3_1521" x1="20.11" y1="28.23" x2="23.85" y2="39.71" gradientUnits="userSpaceOnUse">
<stop stop-color="#E9E9E9"/>
<stop offset="1" stop-color="#A8A8A8"/>
</linearGradient>
<linearGradient id="paint117_linear_3_1521" x1="20.07" y1="28.19" x2="23.81" y2="39.67" gradientUnits="userSpaceOnUse">
<stop stop-color="#EBEBEB"/>
<stop offset="1" stop-color="#A9A9A9"/>
</linearGradient>
<linearGradient id="paint118_linear_3_1521" x1="20.03" y1="28.15" x2="23.77" y2="39.63" gradientUnits="userSpaceOnUse">
<stop stop-color="#EDEDED"/>
<stop offset="1" stop-color="#AAAAAA"/>
</linearGradient>
<linearGradient id="paint119_linear_3_1521" x1="19.99" y1="28.12" x2="23.74" y2="39.59" gradientUnits="userSpaceOnUse">
<stop stop-color="#EFEFEF"/>
<stop offset="1" stop-color="#ABABAB"/>
</linearGradient>
<linearGradient id="paint120_linear_3_1521" x1="19.95" y1="28.08" x2="23.7" y2="39.55" gradientUnits="userSpaceOnUse">
<stop stop-color="#F1F1F1"/>
<stop offset="1" stop-color="#ADADAD"/>
</linearGradient>
<linearGradient id="paint121_linear_3_1521" x1="19.91" y1="28.04" x2="23.66" y2="39.51" gradientUnits="userSpaceOnUse">
<stop stop-color="#F2F2F2"/>
<stop offset="1" stop-color="#AEAEAE"/>
</linearGradient>
<linearGradient id="paint122_linear_3_1521" x1="19.88" y1="28" x2="23.62" y2="39.47" gradientUnits="userSpaceOnUse">
<stop stop-color="#F4F4F4"/>
<stop offset="1" stop-color="#AFAFAF"/>
</linearGradient>
<linearGradient id="paint123_linear_3_1521" x1="19.84" y1="27.96" x2="23.58" y2="39.43" gradientUnits="userSpaceOnUse">
<stop stop-color="#F6F6F6"/>
<stop offset="1" stop-color="#B1B1B1"/>
</linearGradient>
<linearGradient id="paint124_linear_3_1521" x1="19.8" y1="27.92" x2="23.54" y2="39.4" gradientUnits="userSpaceOnUse">
<stop stop-color="#F8F8F8"/>
<stop offset="1" stop-color="#B2B2B2"/>
</linearGradient>
<linearGradient id="paint125_linear_3_1521" x1="19.76" y1="27.88" x2="23.5" y2="39.36" gradientUnits="userSpaceOnUse">
<stop stop-color="#FAFAFA"/>
<stop offset="1" stop-color="#B3B3B3"/>
</linearGradient>
<linearGradient id="paint126_linear_3_1521" x1="19.72" y1="27.84" x2="23.46" y2="39.32" gradientUnits="userSpaceOnUse">
<stop stop-color="#FBFBFB"/>
<stop offset="1" stop-color="#B4B4B4"/>
</linearGradient>
<linearGradient id="paint127_linear_3_1521" x1="19.68" y1="27.81" x2="23.42" y2="39.28" gradientUnits="userSpaceOnUse">
<stop stop-color="#FDFDFD"/>
<stop offset="1" stop-color="#B6B6B6"/>
</linearGradient>
<linearGradient id="paint128_linear_3_1521" x1="19.64" y1="27.77" x2="23.39" y2="39.24" gradientUnits="userSpaceOnUse">
<stop stop-color="white"/>
<stop offset="1" stop-color="#B7B7B7"/>
</linearGradient>
<linearGradient id="paint129_linear_3_1521" x1="58.93" y1="28.62" x2="62.61" y2="39.89" gradientUnits="userSpaceOnUse">
<stop offset="0.05" stop-color="#C9C9C9"/>
<stop offset="0.25" stop-color="#CDCDCD" stop-opacity="0.96"/>
<stop offset="0.5" stop-color="#D8D8D8" stop-opacity="0.85"/>
<stop offset="0.78" stop-color="#EBEBEB" stop-opacity="0.68"/>
<stop offset="1" stop-color="white" stop-opacity="0.5"/>
</linearGradient>
<linearGradient id="paint130_linear_3_1521" x1="39.59" y1="28.67" x2="43.33" y2="40.15" gradientUnits="userSpaceOnUse">
<stop offset="0.05" stop-color="#C9C9C9"/>
<stop offset="0.25" stop-color="#CDCDCD" stop-opacity="0.96"/>
<stop offset="0.5" stop-color="#D8D8D8" stop-opacity="0.85"/>
<stop offset="0.78" stop-color="#EBEBEB" stop-opacity="0.68"/>
<stop offset="1" stop-color="white" stop-opacity="0.5"/>
</linearGradient>
<linearGradient id="paint131_linear_3_1521" x1="20.28" y1="28.67" x2="24.02" y2="40.15" gradientUnits="userSpaceOnUse">
<stop offset="0.05" stop-color="#C9C9C9"/>
<stop offset="0.25" stop-color="#CDCDCD" stop-opacity="0.96"/>
<stop offset="0.5" stop-color="#D8D8D8" stop-opacity="0.85"/>
<stop offset="0.78" stop-color="#EBEBEB" stop-opacity="0.68"/>
<stop offset="1" stop-color="white" stop-opacity="0.5"/>
</linearGradient>
<linearGradient id="paint132_linear_3_1521" x1="32.6" y1="59.35" x2="52.66" y2="78.46" gradientUnits="userSpaceOnUse">
<stop stop-color="white"/>
<stop offset="0.1" stop-color="#FEFFFE" stop-opacity="0.98"/>
<stop offset="0.23" stop-color="#FDFFFE" stop-opacity="0.92"/>
<stop offset="0.36" stop-color="#FCFFFC" stop-opacity="0.82"/>
<stop offset="0.5" stop-color="#F9FFFB" stop-opacity="0.69"/>
<stop offset="0.65" stop-color="#F6FFF9" stop-opacity="0.51"/>
<stop offset="0.81" stop-color="#F3FFF6" stop-opacity="0.3"/>
<stop offset="0.97" stop-color="#EEFFF3" stop-opacity="0.05"/>
<stop offset="1" stop-color="#EEFFF3" stop-opacity="0"/>
</linearGradient>
</defs>
</svg>
