<svg width="73" height="80" viewBox="0 0 73 80" fill="none" xmlns="http://www.w3.org/2000/svg">
<g clip-path="url(#clip0_3_880)">
<path d="M33.65 79.53C27.46 78.81 21.55 76.39 16.62 72.57C0.320039 59.93 -1.29996 36.66 11.77 21.91C12.53 21.05 13.87 21.01 14.69 21.82L20.36 27.49C21.1 28.23 21.13 29.41 20.46 30.2C12.85 39.15 13.27 52.63 21.72 61.08C30.61 69.97 45.07 69.97 53.96 61.08C62.41 52.63 62.83 39.14 55.22 30.2C54.54 29.4 54.58 28.23 55.32 27.49L60.99 21.82C61.81 21 63.15 21.05 63.92 21.91C76 35.56 75.52 56.51 62.45 69.57C54.9 77.12 44.49 80.78 33.66 79.52L33.65 79.53Z" fill="url(#paint0_linear_3_880)"/>
<path d="M41.84 3.13H33.84C32.7355 3.13 31.84 4.02544 31.84 5.13V44.84C31.84 45.9446 32.7355 46.84 33.84 46.84H41.84C42.9446 46.84 43.84 45.9446 43.84 44.84V5.13C43.84 4.02544 42.9446 3.13 41.84 3.13Z" fill="url(#paint1_linear_3_880)"/>
<path d="M33.58 79.48C27.39 78.76 21.47 76.34 16.54 72.52C0.22001 59.88 -1.39999 36.59 11.68 21.83C12.45 20.97 13.79 20.93 14.6 21.74L20.27 27.41C21.01 28.15 21.05 29.33 20.37 30.13C12.75 39.09 13.17 52.58 21.63 61.04C30.53 69.94 45 69.94 53.9 61.04C62.36 52.58 62.77 39.09 55.16 30.13C54.48 29.33 54.52 28.15 55.26 27.41L60.93 21.74C61.75 20.92 63.09 20.97 63.86 21.83C75.95 35.49 75.46 56.45 62.39 69.52C54.83 77.08 44.42 80.73 33.58 79.48V79.48Z" fill="url(#paint2_linear_3_880)"/>
<path d="M41.77 3.03003H33.76C32.6554 3.03003 31.76 3.92546 31.76 5.03003V44.78C31.76 45.8846 32.6554 46.78 33.76 46.78H41.77C42.8746 46.78 43.77 45.8846 43.77 44.78V5.03003C43.77 3.92546 42.8746 3.03003 41.77 3.03003Z" fill="url(#paint3_linear_3_880)"/>
<path d="M33.5 79.44C27.3 78.72 21.38 76.29 16.45 72.47C0.120007 59.82 -1.49999 36.51 11.59 21.74C12.36 20.88 13.7 20.84 14.51 21.65L20.19 27.33C20.93 28.07 20.97 29.25 20.29 30.05C12.67 39.01 13.09 52.52 21.55 60.98C30.45 69.88 44.94 69.88 53.84 60.98C62.3 52.52 62.72 39.01 55.1 30.05C54.42 29.25 54.46 28.07 55.2 27.33L60.88 21.65C61.7 20.83 63.04 20.88 63.81 21.75C75.91 35.42 75.42 56.4 62.34 69.48C54.78 77.04 44.35 80.7 33.51 79.45L33.5 79.44Z" fill="url(#paint4_linear_3_880)"/>
<path d="M41.7 2.92999H33.68C32.5754 2.92999 31.68 3.82542 31.68 4.92999V44.71C31.68 45.8146 32.5754 46.71 33.68 46.71H41.7C42.8046 46.71 43.7 45.8146 43.7 44.71V4.92999C43.7 3.82542 42.8046 2.92999 41.7 2.92999Z" fill="url(#paint5_linear_3_880)"/>
<path d="M33.43 79.39C27.23 78.67 21.3 76.24 16.37 72.42C0.0200396 59.76 -1.59996 36.43 11.49 21.65C12.26 20.78 13.6 20.75 14.42 21.56L20.1 27.24C20.84 27.98 20.88 29.16 20.2 29.96C12.57 38.93 12.99 52.44 21.46 60.91C30.37 69.82 44.87 69.82 53.78 60.91C62.25 52.44 62.67 38.93 55.04 29.96C54.36 29.16 54.4 27.98 55.14 27.24L60.82 21.56C61.64 20.74 62.99 20.79 63.75 21.66C75.86 35.34 75.37 56.33 62.28 69.42C54.71 76.99 44.28 80.65 33.43 79.39Z" fill="url(#paint6_linear_3_880)"/>
<path d="M41.63 2.83002H33.6C32.4955 2.83002 31.6 3.72545 31.6 4.83002V44.64C31.6 45.7446 32.4955 46.64 33.6 46.64H41.63C42.7346 46.64 43.63 45.7446 43.63 44.64V4.83002C43.63 3.72545 42.7346 2.83002 41.63 2.83002Z" fill="url(#paint7_linear_3_880)"/>
<path d="M33.35 79.35C27.14 78.63 21.21 76.2 16.27 72.37C-0.079999 59.7 -1.7 36.36 11.4 21.56C12.17 20.69 13.51 20.65 14.33 21.47L20.02 27.16C20.76 27.9 20.8 29.08 20.12 29.88C12.49 38.86 12.9 52.38 21.38 60.86C30.3 69.77 44.8 69.77 53.72 60.86C62.19 52.38 62.61 38.86 54.98 29.88C54.3 29.08 54.34 27.9 55.08 27.16L60.77 21.47C61.59 20.65 62.94 20.7 63.71 21.57C75.83 35.26 75.34 56.27 62.24 69.37C54.67 76.94 44.23 80.61 33.37 79.35H33.35Z" fill="url(#paint8_linear_3_880)"/>
<path d="M41.56 2.72998H33.54C32.4299 2.72998 31.53 3.62989 31.53 4.73998V44.56C31.53 45.6701 32.4299 46.57 33.54 46.57H41.56C42.6701 46.57 43.57 45.6701 43.57 44.56V4.73998C43.57 3.62989 42.6701 2.72998 41.56 2.72998Z" fill="url(#paint9_linear_3_880)"/>
<path d="M33.2701 79.3C27.0601 78.58 21.1201 76.15 16.1801 72.32C-0.179942 59.64 -1.79994 36.28 11.3101 21.48C12.0801 20.61 13.4201 20.57 14.2401 21.39L19.9301 27.08C20.6701 27.82 20.7101 29 20.0301 29.8C12.3901 38.78 12.8101 52.32 21.2901 60.8C30.2101 69.72 44.7301 69.72 53.6501 60.8C62.1301 52.32 62.5501 38.78 54.9101 29.8C54.2301 29 54.2701 27.82 55.0101 27.08L60.7001 21.39C61.5201 20.57 62.8701 20.62 63.6401 21.49C75.7701 35.19 75.2801 56.21 62.1701 69.32C54.5901 76.9 44.1401 80.57 33.2801 79.31L33.2701 79.3Z" fill="url(#paint10_linear_3_880)"/>
<path d="M41.4801 2.63H33.4601C32.35 2.63 31.4501 3.52991 31.4501 4.64V44.5C31.4501 45.6101 32.35 46.51 33.4601 46.51H41.4801C42.5902 46.51 43.4901 45.6101 43.4901 44.5V4.64C43.4901 3.52991 42.5902 2.63 41.4801 2.63Z" fill="url(#paint11_linear_3_880)"/>
<path d="M33.2001 79.26C26.9801 78.54 21.0401 76.11 16.1001 72.27C-0.279946 59.58 -1.90995 36.2 11.2201 21.39C11.9901 20.52 13.3301 20.48 14.1501 21.3L19.8501 26.99C20.5901 27.73 20.6301 28.92 19.9501 29.72C12.3001 38.71 12.7201 52.25 21.2101 60.74C30.1401 69.67 44.6701 69.67 53.6001 60.74C62.0901 52.25 62.5101 38.71 54.8601 29.72C54.1801 28.92 54.2201 27.74 54.9601 26.99L60.6601 21.3C61.4801 20.48 62.8301 20.52 63.6001 21.4C75.7401 35.11 75.2501 56.15 62.1301 69.27C54.5501 76.85 44.0901 80.52 33.2101 79.26H33.2001Z" fill="url(#paint12_linear_3_880)"/>
<path d="M41.4101 2.53003H33.3801C32.27 2.53003 31.3701 3.42994 31.3701 4.54003V44.43C31.3701 45.5401 32.27 46.44 33.3801 46.44H41.4101C42.5201 46.44 43.4201 45.5401 43.4201 44.43V4.54003C43.4201 3.42994 42.5201 2.53003 41.4101 2.53003Z" fill="url(#paint13_linear_3_880)"/>
<path d="M33.12 79.21C26.9 78.49 20.95 76.05 16.01 72.22C-0.37995 59.52 -2.00995 36.13 11.13 21.3C11.9 20.43 13.25 20.39 14.07 21.21L19.7701 26.91C20.5101 27.65 20.5501 28.84 19.8701 29.64C12.2201 38.64 12.64 52.19 21.13 60.68C30.07 69.61 44.6001 69.61 53.5401 60.68C62.0301 52.19 62.45 38.63 54.8 29.64C54.12 28.84 54.1501 27.66 54.9001 26.91L60.6 21.21C61.42 20.39 62.7701 20.43 63.5401 21.31C75.6901 35.03 75.2 56.08 62.07 69.21C54.48 76.8 44.0201 80.47 33.1301 79.21H33.12Z" fill="url(#paint14_linear_3_880)"/>
<path d="M41.34 2.41998H33.3C32.1899 2.41998 31.29 3.31989 31.29 4.42998V44.35C31.29 45.4601 32.1899 46.36 33.3 46.36H41.34C42.4501 46.36 43.35 45.4601 43.35 44.35V4.42998C43.35 3.31989 42.4501 2.41998 41.34 2.41998Z" fill="url(#paint15_linear_3_880)"/>
<path d="M33.05 79.17C26.83 78.45 20.88 76.01 15.92 72.17C-0.479952 59.46 -2.10995 36.05 11.03 21.21C11.8 20.34 13.15 20.3 13.97 21.12L19.67 26.82C20.41 27.56 20.45 28.75 19.77 29.55C12.11 38.55 12.53 52.12 21.03 60.62C29.97 69.56 44.52 69.56 53.46 60.62C61.96 52.12 62.3801 38.56 54.7201 29.55C54.0401 28.75 54.07 27.56 54.82 26.82L60.5201 21.12C61.3401 20.3 62.6901 20.34 63.4701 21.22C75.6301 34.95 75.13 56.02 62 69.16C54.4 76.76 43.93 80.43 33.04 79.17H33.05Z" fill="url(#paint16_linear_3_880)"/>
<path d="M41.28 2.32001H33.23C32.1199 2.32001 31.22 3.21991 31.22 4.33001V44.28C31.22 45.3901 32.1199 46.29 33.23 46.29H41.28C42.3901 46.29 43.29 45.3901 43.29 44.28V4.33001C43.29 3.21991 42.3901 2.32001 41.28 2.32001Z" fill="url(#paint17_linear_3_880)"/>
<path d="M32.97 79.1199C26.74 78.3999 20.79 75.9599 15.83 72.1199C-0.579955 59.3999 -2.20996 35.9699 10.94 21.1299C11.71 20.2599 13.06 20.2199 13.88 21.0399L19.59 26.7499C20.33 27.4899 20.37 28.6799 19.69 29.4799C12.03 38.4899 12.45 52.0599 20.95 60.5699C29.9 69.5199 44.46 69.5199 53.41 60.5699C61.92 52.0599 62.34 38.4899 54.67 29.4799C53.99 28.6799 54.02 27.4899 54.77 26.7499L60.48 21.0399C61.3 20.2199 62.65 20.2599 63.43 21.1399C75.59 34.8799 75.1 55.9599 61.95 69.1099C54.35 76.7099 43.87 80.3899 32.97 79.1299V79.1199Z" fill="url(#paint18_linear_3_880)"/>
<path d="M41.21 2.21997H33.15C32.0399 2.21997 31.14 3.11988 31.14 4.22997V44.21C31.14 45.3201 32.0399 46.22 33.15 46.22H41.21C42.3201 46.22 43.22 45.3201 43.22 44.21V4.22997C43.22 3.11988 42.3201 2.21997 41.21 2.21997Z" fill="url(#paint19_linear_3_880)"/>
<path d="M32.89 79.08C26.66 78.36 20.7 75.92 15.74 72.07C-0.679959 59.34 -2.30996 35.9 10.85 21.04C11.62 20.17 12.97 20.13 13.79 20.95L19.5 26.66C20.24 27.4 20.28 28.59 19.6 29.39C11.93 38.4 12.35 51.99 20.86 60.5C29.81 69.45 44.39 69.45 53.34 60.5C61.85 51.99 62.27 38.4 54.6 29.39C53.92 28.59 53.95 27.4 54.7 26.66L60.41 20.95C61.23 20.13 62.59 20.17 63.36 21.05C75.53 34.8 75.04 55.9 61.88 69.06C54.27 76.67 43.79 80.35 32.88 79.08H32.89Z" fill="url(#paint20_linear_3_880)"/>
<path d="M41.1401 2.12H33.0701C31.96 2.12 31.0601 3.0199 31.0601 4.13V44.15C31.0601 45.2601 31.96 46.16 33.0701 46.16H41.1401C42.2502 46.16 43.1501 45.2601 43.1501 44.15V4.13C43.1501 3.0199 42.2502 2.12 41.1401 2.12Z" fill="url(#paint21_linear_3_880)"/>
<path d="M32.82 79.03C26.58 78.31 20.62 75.86 15.66 72.02C-0.779988 59.28 -2.40999 35.82 10.76 20.95C11.53 20.08 12.88 20.04 13.7 20.86L19.42 26.58C20.17 27.33 20.2 28.51 19.52 29.32C11.85 38.34 12.27 51.94 20.79 60.45C29.75 69.41 44.33 69.41 53.29 60.45C61.81 51.93 62.23 38.34 54.56 29.32C53.88 28.52 53.91 27.33 54.66 26.58L60.38 20.86C61.21 20.03 62.56 20.08 63.33 20.96C75.51 34.72 75.02 55.84 61.85 69C54.24 76.61 43.74 80.3 32.83 79.03H32.82Z" fill="url(#paint22_linear_3_880)"/>
<path d="M41.07 2.02002H33.01C31.8944 2.02002 30.99 2.9244 30.99 4.04002V44.07C30.99 45.1856 31.8944 46.09 33.01 46.09H41.07C42.1856 46.09 43.09 45.1856 43.09 44.07V4.04002C43.09 2.9244 42.1856 2.02002 41.07 2.02002Z" fill="url(#paint23_linear_3_880)"/>
<path d="M32.74 78.99C26.5 78.27 20.53 75.82 15.56 71.97C-0.879965 59.22 -2.50996 35.75 10.67 20.87C11.44 20 12.79 19.96 13.62 20.78L19.34 26.5C20.09 27.25 20.12 28.43 19.44 29.24C11.76 38.27 12.18 51.87 20.71 60.4C29.68 69.37 44.27 69.37 53.24 60.4C61.76 51.88 62.19 38.27 54.51 29.24C53.83 28.44 53.86 27.25 54.61 26.5L60.33 20.78C61.16 19.95 62.51 20 63.28 20.88C75.47 34.65 74.98 55.78 61.8 68.96C54.18 76.58 43.68 80.26 32.76 79L32.74 78.99Z" fill="url(#paint24_linear_3_880)"/>
<path d="M41 1.91998H32.93C31.8144 1.91998 30.91 2.82437 30.91 3.93998V44C30.91 45.1156 31.8144 46.02 32.93 46.02H41C42.1156 46.02 43.02 45.1156 43.02 44V3.93998C43.02 2.82437 42.1156 1.91998 41 1.91998Z" fill="url(#paint25_linear_3_880)"/>
<path d="M32.67 78.94C26.42 78.22 20.45 75.77 15.48 71.92C-0.979968 59.16 -2.61997 35.67 10.57 20.78C11.34 19.91 12.69 19.87 13.52 20.69L19.24 26.41C19.99 27.16 20.02 28.35 19.34 29.15C11.65 38.18 12.08 51.8 20.61 60.33C29.58 69.3 44.19 69.3 53.16 60.33C61.69 51.8 62.11 38.18 54.43 29.15C53.75 28.35 53.78 27.16 54.53 26.41L60.25 20.69C61.08 19.86 62.43 19.91 63.21 20.79C75.41 34.57 74.92 55.72 61.73 68.9C54.11 76.52 43.6 80.21 32.67 78.95V78.94Z" fill="url(#paint26_linear_3_880)"/>
<path d="M40.92 1.82001H32.85C31.7344 1.82001 30.83 2.72439 30.83 3.84001V43.93C30.83 45.0456 31.7344 45.95 32.85 45.95H40.92C42.0356 45.95 42.94 45.0456 42.94 43.93V3.84001C42.94 2.72439 42.0356 1.82001 40.92 1.82001Z" fill="url(#paint27_linear_3_880)"/>
<path d="M32.59 78.9C26.34 78.18 20.36 75.73 15.39 71.87C-1.07997 59.1 -2.71997 35.59 10.48 20.69C11.25 19.82 12.61 19.78 13.43 20.6L19.16 26.33C19.91 27.08 19.94 28.27 19.26 29.07C11.57 38.11 11.99 51.74 20.53 60.27C29.51 69.25 44.12 69.25 53.11 60.27C61.65 51.73 62.07 38.11 54.38 29.07C53.7 28.27 53.73 27.08 54.48 26.33L60.21 20.6C61.04 19.77 62.39 19.82 63.17 20.7C75.38 34.49 74.88 55.65 61.69 68.85C54.06 76.48 43.54 80.17 32.61 78.9H32.59Z" fill="url(#paint28_linear_3_880)"/>
<path d="M40.85 1.71997H32.77C31.6544 1.71997 30.75 2.62436 30.75 3.73997V43.86C30.75 44.9756 31.6544 45.88 32.77 45.88H40.85C41.9656 45.88 42.87 44.9756 42.87 43.86V3.73997C42.87 2.62436 41.9656 1.71997 40.85 1.71997Z" fill="url(#paint29_linear_3_880)"/>
<path d="M32.5201 78.85C26.2601 78.13 20.2801 75.67 15.3101 71.82C-1.17994 59.05 -2.81994 35.52 10.3901 20.6C11.1601 19.73 12.5201 19.69 13.3401 20.51L19.0701 26.24C19.8201 26.99 19.8501 28.18 19.1701 28.98C11.4701 38.03 11.9001 51.66 20.4401 60.21C29.4301 69.2 44.0501 69.2 53.0401 60.21C61.5801 51.67 62.0101 38.03 54.3101 28.98C53.6301 28.17 53.6601 26.98 54.4101 26.24L60.1401 20.51C60.9701 19.68 62.3201 19.73 63.1001 20.61C75.3201 34.41 74.8201 55.59 61.6201 68.79C53.9901 76.42 43.4601 80.12 32.5101 78.85H32.5201Z" fill="url(#paint30_linear_3_880)"/>
<path d="M40.7901 1.62H32.7001C31.5844 1.62 30.6801 2.52438 30.6801 3.64V43.8C30.6801 44.9156 31.5844 45.82 32.7001 45.82H40.7901C41.9057 45.82 42.8101 44.9156 42.8101 43.8V3.64C42.8101 2.52438 41.9057 1.62 40.7901 1.62Z" fill="url(#paint31_linear_3_880)"/>
<path d="M32.44 78.81C26.18 78.08 20.19 75.63 15.21 71.77C-1.27998 58.99 -2.91998 35.44 10.3 20.52C11.07 19.65 12.43 19.61 13.25 20.43L18.99 26.17C19.74 26.92 19.77 28.11 19.09 28.92C11.39 37.97 11.81 51.62 20.36 60.17C29.35 69.16 43.99 69.16 52.98 60.17C61.53 51.62 61.95 37.98 54.25 28.92C53.56 28.11 53.6 26.92 54.35 26.17L60.09 20.43C60.92 19.6 62.28 19.65 63.05 20.53C75.28 34.34 74.78 55.53 61.57 68.75C53.93 76.39 43.4 80.09 32.44 78.82V78.81Z" fill="url(#paint32_linear_3_880)"/>
<path d="M40.72 1.52002H32.62C31.5044 1.52002 30.6 2.4244 30.6 3.54002V43.73C30.6 44.8456 31.5044 45.75 32.62 45.75H40.72C41.8357 45.75 42.74 44.8456 42.74 43.73V3.54002C42.74 2.4244 41.8357 1.52002 40.72 1.52002Z" fill="url(#paint33_linear_3_880)"/>
<path d="M32.36 78.77C26.09 78.04 20.11 75.59 15.12 71.73C-1.37998 58.93 -3.01998 35.36 10.2 20.43C10.97 19.56 12.33 19.52 13.16 20.34L18.9 26.08C19.65 26.83 19.68 28.02 19 28.83C11.29 37.89 11.72 51.54 20.27 60.1C29.27 69.1 43.92 69.1 52.92 60.1C61.47 51.54 61.9 37.89 54.19 28.83C53.5 28.02 53.54 26.83 54.29 26.08L60.03 20.34C60.86 19.51 62.22 19.56 62.99 20.44C75.22 34.26 74.73 55.47 61.51 68.69C53.86 76.34 43.32 80.04 32.36 78.77V78.77Z" fill="url(#paint34_linear_3_880)"/>
<path d="M40.65 1.40997H32.54C31.4244 1.40997 30.52 2.31436 30.52 3.42997V43.65C30.52 44.7656 31.4244 45.67 32.54 45.67H40.65C41.7656 45.67 42.67 44.7656 42.67 43.65V3.42997C42.67 2.31436 41.7656 1.40997 40.65 1.40997Z" fill="url(#paint35_linear_3_880)"/>
<path d="M32.2901 78.72C26.0201 77.99 20.0301 75.54 15.0401 71.67C-1.47995 58.87 -3.11995 35.29 10.1101 20.34C10.8901 19.47 12.2401 19.43 13.0701 20.25L18.8201 25.99C19.5701 26.74 19.6001 27.93 18.9201 28.74C11.2101 37.81 11.6301 51.47 20.1901 60.03C29.2001 69.04 43.8501 69.04 52.8601 60.03C61.4201 51.47 61.8501 37.8 54.1301 28.74C53.4401 27.93 53.4801 26.74 54.2301 25.99L59.9801 20.25C60.8101 19.42 62.1701 19.47 62.9501 20.35C75.1901 34.18 74.7001 55.4 61.4701 68.64C53.8201 76.29 43.2701 79.99 32.3001 78.72H32.2901Z" fill="url(#paint36_linear_3_880)"/>
<path d="M40.5701 1.31H32.4701C31.3489 1.31 30.4401 2.21886 30.4401 3.34V43.57C30.4401 44.6911 31.3489 45.6 32.4701 45.6H40.5701C41.6912 45.6 42.6001 44.6911 42.6001 43.57V3.34C42.6001 2.21886 41.6912 1.31 40.5701 1.31Z" fill="url(#paint37_linear_3_880)"/>
<path d="M32.21 78.6801C25.94 77.9501 19.94 75.5001 14.95 71.6301C-1.57999 58.8101 -3.22999 35.2101 10.02 20.2601C10.8 19.3801 12.15 19.3401 12.98 20.1701L18.73 25.9201C19.48 26.6701 19.52 27.8601 18.83 28.6701C11.11 37.7401 11.54 51.4201 20.1 59.9901C29.11 69.0001 43.78 69.0001 52.79 59.9901C61.36 51.4201 61.78 37.7501 54.06 28.6701C53.37 27.8601 53.41 26.6701 54.16 25.9201L59.91 20.1701C60.74 19.3401 62.1 19.3901 62.88 20.2701C75.13 34.1101 74.64 55.35 61.39 68.59C53.73 76.25 43.18 79.9501 32.2 78.6801H32.21Z" fill="url(#paint38_linear_3_880)"/>
<path d="M40.51 1.21002H32.4C31.2789 1.21002 30.37 2.11888 30.37 3.24002V43.51C30.37 44.6312 31.2789 45.54 32.4 45.54H40.51C41.6311 45.54 42.54 44.6312 42.54 43.51V3.24002C42.54 2.11888 41.6311 1.21002 40.51 1.21002Z" fill="url(#paint39_linear_3_880)"/>
<path d="M32.14 78.63C25.86 77.9 19.86 75.44 14.86 71.57C-1.67999 58.75 -3.32999 35.13 9.93001 20.17C10.71 19.29 12.07 19.25 12.89 20.08L18.64 25.83C19.39 26.58 19.43 27.77 18.74 28.58C11.02 37.66 11.44 51.34 20.01 59.92C29.03 68.94 43.71 68.94 52.73 59.92C61.3 51.35 61.73 37.66 54 28.58C53.31 27.77 53.35 26.58 54.1 25.83L59.85 20.08C60.68 19.25 62.04 19.3 62.82 20.18C75.08 34.03 74.59 55.28 61.33 68.54C53.67 76.2 43.11 79.91 32.12 78.64L32.14 78.63Z" fill="url(#paint40_linear_3_880)"/>
<path d="M40.44 1.10999H32.32C31.1989 1.10999 30.29 2.01885 30.29 3.13999V43.44C30.29 44.5611 31.1989 45.47 32.32 45.47H40.44C41.5612 45.47 42.47 44.5611 42.47 43.44V3.13999C42.47 2.01885 41.5612 1.10999 40.44 1.10999Z" fill="url(#paint41_linear_3_880)"/>
<path d="M32.06 78.59C25.78 77.86 19.77 75.4 14.77 71.53C-1.79 58.69 -3.43 35.06 9.84 20.08C10.62 19.2 11.98 19.16 12.81 19.99L18.57 25.75C19.32 26.5 19.36 27.7 18.67 28.51C10.94 37.6 11.37 51.29 19.94 59.87C28.97 68.9 43.65 68.9 52.68 59.87C61.26 51.29 61.68 37.6 53.95 28.51C53.26 27.7 53.3 26.51 54.05 25.75L59.81 19.99C60.64 19.16 62 19.21 62.78 20.09C75.05 33.95 74.55 55.22 61.29 68.48C53.62 76.15 43.05 79.86 32.06 78.58V78.59Z" fill="url(#paint42_linear_3_880)"/>
<path d="M40.37 1.01001H32.24C31.1189 1.01001 30.21 1.91887 30.21 3.04001V43.37C30.21 44.4911 31.1189 45.4 32.24 45.4H40.37C41.4912 45.4 42.4 44.4911 42.4 43.37V3.04001C42.4 1.91887 41.4912 1.01001 40.37 1.01001Z" fill="url(#paint43_linear_3_880)"/>
<path d="M31.98 78.54C25.69 77.81 19.68 75.35 14.68 71.47C-1.89 58.63 -3.53 34.98 9.74 19.99C10.52 19.11 11.88 19.07 12.71 19.9L18.47 25.66C19.22 26.41 19.26 27.61 18.57 28.42C10.83 37.51 11.26 51.22 19.85 59.8C28.88 68.83 43.58 68.83 52.62 59.8C61.21 51.21 61.63 37.51 53.9 28.42C53.21 27.61 53.25 26.41 54 25.66L59.76 19.9C60.59 19.07 61.96 19.12 62.74 20C75.02 33.87 74.52 55.16 61.25 68.43C53.58 76.1 43 79.82 32 78.54H31.98Z" fill="url(#paint44_linear_3_880)"/>
<path d="M40.3 0.909973H32.17C31.0489 0.909973 30.14 1.81884 30.14 2.93997V43.3C30.14 44.4211 31.0489 45.33 32.17 45.33H40.3C41.4212 45.33 42.33 44.4211 42.33 43.3V2.93997C42.33 1.81884 41.4212 0.909973 40.3 0.909973Z" fill="url(#paint45_linear_3_880)"/>
<path d="M31.91 78.5C25.62 77.77 19.6 75.31 14.6 71.43C-1.98997 58.57 -3.62997 34.91 9.65003 19.91C10.43 19.03 11.79 18.99 12.62 19.82L18.39 25.59C19.14 26.34 19.18 27.54 18.49 28.35C10.75 37.45 11.17 51.16 19.77 59.76C28.81 68.8 43.52 68.8 52.56 59.76C61.15 51.17 61.58 37.45 53.84 28.35C53.15 27.54 53.19 26.34 53.94 25.59L59.71 19.82C60.54 18.99 61.91 19.03 62.69 19.92C74.98 33.8 74.48 55.1 61.2 68.38C53.52 76.06 42.94 79.77 31.93 78.5H31.91Z" fill="url(#paint46_linear_3_880)"/>
<path d="M40.2301 0.809998H32.0901C30.9689 0.809998 30.0601 1.71886 30.0601 2.84V43.23C30.0601 44.3511 30.9689 45.26 32.0901 45.26H40.2301C41.3512 45.26 42.2601 44.3511 42.2601 43.23V2.84C42.2601 1.71886 41.3512 0.809998 40.2301 0.809998Z" fill="url(#paint47_linear_3_880)"/>
<path d="M31.8301 78.45C25.5301 77.72 19.5101 75.2501 14.5001 71.3701C-2.08994 58.5101 -3.72994 34.8301 9.56006 19.82C10.3401 18.94 11.7001 18.9 12.5301 19.73L18.3001 25.5001C19.0501 26.2501 19.0901 27.4501 18.4001 28.2601C10.6501 37.3701 11.0801 51.09 19.6801 59.69C28.7301 68.74 43.4501 68.74 52.4901 59.69C61.0901 51.09 61.5101 37.3701 53.7701 28.2601C53.0801 27.4501 53.1201 26.2501 53.8701 25.5001L59.6401 19.73C60.4701 18.9 61.8401 18.9401 62.6201 19.8301C74.9201 33.7201 74.4201 55.0401 61.1301 68.3301C53.4501 76.0101 42.8501 79.73 31.8301 78.46V78.45Z" fill="url(#paint48_linear_3_880)"/>
<path d="M40.15 0.710022H32.02C30.8934 0.710022 29.98 1.62336 29.98 2.75002V43.16C29.98 44.2867 30.8934 45.2 32.02 45.2H40.15C41.2767 45.2 42.19 44.2867 42.19 43.16V2.75002C42.19 1.62336 41.2767 0.710022 40.15 0.710022Z" fill="url(#paint49_linear_3_880)"/>
<path d="M31.7601 78.41C25.4601 77.68 19.4301 75.21 14.4201 71.33C-2.18995 58.45 -3.83995 34.75 9.47005 19.73C10.2501 18.85 11.6101 18.81 12.4401 19.64L18.2101 25.41C18.9601 26.16 19.0001 27.36 18.3101 28.17C10.5601 37.28 10.9801 51.02 19.5901 59.62C28.6401 68.67 43.37 68.67 52.43 59.62C61.0301 51.01 61.46 37.28 53.71 28.17C53.02 27.36 53.0601 26.16 53.8101 25.41L59.5801 19.64C60.4101 18.81 61.7801 18.85 62.5601 19.74C74.8701 33.64 74.37 54.97 61.07 68.27C53.38 75.96 42.7801 79.68 31.7501 78.4L31.7601 78.41Z" fill="url(#paint50_linear_3_880)"/>
<path d="M40.08 0.609985H31.94C30.8134 0.609985 29.9 1.52332 29.9 2.64999V43.09C29.9 44.2166 30.8134 45.13 31.94 45.13H40.08C41.2067 45.13 42.12 44.2166 42.12 43.09V2.64999C42.12 1.52332 41.2067 0.609985 40.08 0.609985Z" fill="url(#paint51_linear_3_880)"/>
<path d="M31.68 78.36C25.37 77.63 19.35 75.16 14.33 71.27C-2.28995 58.39 -3.93995 34.68 9.38005 19.64C10.16 18.76 11.52 18.72 12.36 19.55L18.14 25.33C18.89 26.08 18.93 27.28 18.24 28.1C10.48 37.22 10.91 50.96 19.52 59.57C28.58 68.63 43.3201 68.63 52.3801 59.57C60.9901 50.96 61.42 37.22 53.66 28.1C52.97 27.29 53.01 26.09 53.76 25.33L59.5401 19.55C60.3701 18.72 61.7401 18.76 62.5201 19.65C74.8301 33.56 74.34 54.91 61.03 68.22C53.33 75.92 42.73 79.64 31.69 78.36H31.68Z" fill="url(#paint52_linear_3_880)"/>
<path d="M40.0201 0.51001H31.8701C30.7434 0.51001 29.8301 1.42335 29.8301 2.55001V43.02C29.8301 44.1467 30.7434 45.06 31.8701 45.06H40.0201C41.1467 45.06 42.0601 44.1467 42.0601 43.02V2.55001C42.0601 1.42335 41.1467 0.51001 40.0201 0.51001Z" fill="url(#paint53_linear_3_880)"/>
<path d="M31.6 78.32C25.29 77.59 19.26 75.12 14.24 71.23C-2.38995 58.33 -4.03995 34.6 9.28005 19.56C10.06 18.68 11.43 18.64 12.26 19.47L18.04 25.25C18.79 26 18.83 27.2 18.14 28.02C10.38 37.15 10.8 50.9 19.42 59.52C28.49 68.59 43.24 68.59 52.3 59.52C60.92 50.9 61.34 37.15 53.58 28.02C52.89 27.21 52.93 26.01 53.68 25.25L59.46 19.47C60.29 18.64 61.66 18.68 62.45 19.57C74.77 33.49 74.28 54.85 60.96 68.17C53.26 75.87 42.64 79.6 31.6 78.32V78.32Z" fill="url(#paint54_linear_3_880)"/>
<path d="M39.9501 0.400024H31.7901C30.6634 0.400024 29.7501 1.31336 29.7501 2.44002V42.94C29.7501 44.0667 30.6634 44.98 31.7901 44.98H39.9501C41.0767 44.98 41.9901 44.0667 41.9901 42.94V2.44002C41.9901 1.31336 41.0767 0.400024 39.9501 0.400024Z" fill="url(#paint55_linear_3_880)"/>
<path d="M31.53 78.27C25.21 77.54 19.18 75.06 14.15 71.17C-2.48996 58.28 -4.13996 34.52 9.19004 19.47C9.97004 18.59 11.34 18.55 12.17 19.38L17.96 25.17C18.71 25.92 18.75 27.13 18.06 27.94C10.29 37.07 10.72 50.84 19.34 59.46C28.41 68.53 43.18 68.53 52.25 59.46C60.87 50.84 61.3 37.07 53.53 27.94C52.84 27.13 52.87 25.93 53.63 25.17L59.42 19.38C60.26 18.54 61.62 18.59 62.41 19.48C74.74 33.41 74.24 54.79 60.91 68.12C53.2 75.83 42.58 79.56 31.53 78.28V78.27Z" fill="url(#paint56_linear_3_880)"/>
<path d="M39.88 0.299988H31.71C30.5834 0.299988 29.67 1.21333 29.67 2.33999V42.87C29.67 43.9966 30.5834 44.91 31.71 44.91H39.88C41.0067 44.91 41.92 43.9966 41.92 42.87V2.33999C41.92 1.21333 41.0067 0.299988 39.88 0.299988Z" fill="url(#paint57_linear_3_880)"/>
<path d="M31.45 78.23C25.13 77.5 19.09 75.02 14.06 71.13C-2.58996 58.22 -4.23996 34.45 9.10004 19.38C9.88004 18.5 11.25 18.46 12.08 19.29L17.87 25.08C18.63 25.84 18.66 27.04 17.97 27.85C10.2 36.99 10.62 50.76 19.25 59.39C28.33 68.47 43.1 68.47 52.18 59.39C60.81 50.76 61.24 36.99 53.46 27.85C52.77 27.04 52.8 25.83 53.56 25.08L59.35 19.29C60.19 18.45 61.56 18.5 62.34 19.39C74.68 33.33 74.18 54.72 60.84 68.06C53.13 75.77 42.5 79.5 31.44 78.22L31.45 78.23Z" fill="url(#paint58_linear_3_880)"/>
<path d="M39.81 0.200012H31.63C30.5034 0.200012 29.59 1.11335 29.59 2.24001V42.81C29.59 43.9367 30.5034 44.85 31.63 44.85H39.81C40.9367 44.85 41.85 43.9367 41.85 42.81V2.24001C41.85 1.11335 40.9367 0.200012 39.81 0.200012Z" fill="url(#paint59_linear_3_880)"/>
<path d="M31.38 78.18C25.06 77.45 19.01 74.97 13.98 71.07C-2.68999 58.16 -4.33999 34.37 9.01001 19.3C9.79001 18.42 11.16 18.38 11.99 19.21L17.79 25C18.55 25.76 18.58 26.96 17.89 27.77C10.11 36.92 10.54 50.7 19.17 59.34C28.26 68.42 43.04 68.42 52.13 59.34C60.77 50.7 61.19 36.92 53.41 27.77C52.72 26.96 52.75 25.75 53.51 25L59.31 19.21C60.15 18.37 61.52 18.42 62.3 19.31C74.65 33.26 74.15 54.67 60.8 68.02C53.08 75.74 42.44 79.47 31.38 78.19V78.18Z" fill="url(#paint60_linear_3_880)"/>
<path d="M39.74 0.0999756H31.56C30.4334 0.0999756 29.52 1.01331 29.52 2.13998V42.74C29.52 43.8666 30.4334 44.78 31.56 44.78H39.74C40.8667 44.78 41.78 43.8666 41.78 42.74V2.13998C41.78 1.01331 40.8667 0.0999756 39.74 0.0999756Z" fill="url(#paint61_linear_3_880)"/>
<path d="M31.3 78.14C24.97 77.41 18.92 74.93 13.89 71.02C-2.78997 58.1 -4.44997 34.29 8.92003 19.21C9.70003 18.33 11.07 18.29 11.91 19.12L17.71 24.92C18.47 25.68 18.5 26.88 17.81 27.7C10.02 36.85 10.45 50.65 19.09 59.29C28.18 68.38 42.98 68.38 52.07 59.29C60.71 50.65 61.14 36.85 53.35 27.7C52.66 26.89 52.69 25.68 53.45 24.92L59.25 19.12C60.09 18.28 61.46 18.33 62.24 19.22C74.6 33.18 74.1 54.6 60.74 67.96C53.02 75.68 42.37 79.42 31.3 78.14V78.14Z" fill="url(#paint62_linear_3_880)"/>
<path d="M39.66 0H31.49C30.3578 0 29.44 0.917816 29.44 2.05V42.66C29.44 43.7922 30.3578 44.71 31.49 44.71H39.66C40.7922 44.71 41.71 43.7922 41.71 42.66V2.05C41.71 0.917816 40.7922 0 39.66 0Z" fill="url(#paint63_linear_3_880)"/>
<path d="M33.01 78.98C26.82 78.26 20.89 75.84 15.97 72.02C-0.349998 59.36 -1.97 36.07 11.11 21.3C11.88 20.44 13.22 20.4 14.03 21.21L19.71 26.89C20.45 27.63 20.49 28.81 19.81 29.61C12.19 38.57 12.61 52.07 21.07 60.53C29.97 69.43 44.45 69.43 53.35 60.53C61.81 52.07 62.23 38.57 54.61 29.61C53.93 28.81 53.97 27.63 54.71 26.89L60.39 21.21C61.21 20.39 62.55 20.44 63.32 21.3C75.42 34.96 74.93 55.93 61.85 69.01C54.29 76.57 43.87 80.23 33.03 78.97L33.01 78.98Z" fill="url(#paint64_linear_3_880)"/>
<path d="M41.2 2.5H33.19C32.0854 2.5 31.19 3.39543 31.19 4.5V44.26C31.19 45.3646 32.0854 46.26 33.19 46.26H41.2C42.3046 46.26 43.2 45.3646 43.2 44.26V4.5C43.2 3.39543 42.3046 2.5 41.2 2.5Z" fill="url(#paint65_linear_3_880)"/>
<path d="M36.33 78.38C41 78.24 45.59 77.1 49.82 75.2C54.05 73.29 57.93 70.62 61.13 67.27C64.36 63.95 66.87 59.95 68.53 55.62C70.19 51.29 70.99 46.65 71.15 41.99C71.18 46.65 70.51 51.35 68.89 55.76C67.29 60.17 64.74 64.23 61.49 67.62C58.22 70.99 54.28 73.71 49.98 75.56C45.68 77.42 41.01 78.43 36.34 78.39L36.33 78.38Z" fill="url(#paint66_linear_3_880)"/>
<path d="M41.71 40.57C41.62 37.64 41.55 34.7 41.52 31.77L41.46 22.97L41.52 14.17C41.55 11.24 41.62 8.3 41.71 5.37C41.8 8.3 41.87 11.24 41.9 14.17L41.96 22.97L41.9 31.77C41.87 34.7 41.8 37.64 41.71 40.57Z" fill="url(#paint67_linear_3_880)"/>
</g>
<defs>
<linearGradient id="paint0_linear_3_880" x1="3.05004" y1="50.5" x2="72.62" y2="50.5" gradientUnits="userSpaceOnUse">
<stop stop-color="#0ADB58"/>
<stop offset="0.18" stop-color="#0ACE67"/>
<stop offset="0.51" stop-color="#0BAD91"/>
<stop offset="0.97" stop-color="#0C78D4"/>
<stop offset="1" stop-color="#0D75D9"/>
</linearGradient>
<linearGradient id="paint1_linear_3_880" x1="31.84" y1="24.99" x2="43.84" y2="24.99" gradientUnits="userSpaceOnUse">
<stop stop-color="#0ADB58"/>
<stop offset="0.18" stop-color="#0ACE67"/>
<stop offset="0.51" stop-color="#0BAD91"/>
<stop offset="0.97" stop-color="#0C78D4"/>
<stop offset="1" stop-color="#0D75D9"/>
</linearGradient>
<linearGradient id="paint2_linear_3_880" x1="2.95001" y1="50.44" x2="72.57" y2="50.44" gradientUnits="userSpaceOnUse">
<stop stop-color="#0ADB59"/>
<stop offset="0.18" stop-color="#0ACE68"/>
<stop offset="0.51" stop-color="#0BAD92"/>
<stop offset="0.97" stop-color="#0C78D5"/>
<stop offset="1" stop-color="#0D75D9"/>
</linearGradient>
<linearGradient id="paint3_linear_3_880" x1="31.76" y1="24.9" x2="43.77" y2="24.9" gradientUnits="userSpaceOnUse">
<stop stop-color="#0ADB59"/>
<stop offset="0.18" stop-color="#0ACE68"/>
<stop offset="0.51" stop-color="#0BAD92"/>
<stop offset="0.97" stop-color="#0C78D5"/>
<stop offset="1" stop-color="#0D75D9"/>
</linearGradient>
<linearGradient id="paint4_linear_3_880" x1="2.85001" y1="50.37" x2="72.52" y2="50.37" gradientUnits="userSpaceOnUse">
<stop stop-color="#0BDB5A"/>
<stop offset="0.18" stop-color="#0BCE69"/>
<stop offset="0.51" stop-color="#0CAD93"/>
<stop offset="0.97" stop-color="#0D79D6"/>
<stop offset="1" stop-color="#0E76DA"/>
</linearGradient>
<linearGradient id="paint5_linear_3_880" x1="31.68" y1="24.82" x2="43.7" y2="24.82" gradientUnits="userSpaceOnUse">
<stop stop-color="#0BDB5A"/>
<stop offset="0.18" stop-color="#0BCE69"/>
<stop offset="0.51" stop-color="#0CAD93"/>
<stop offset="0.97" stop-color="#0D79D6"/>
<stop offset="1" stop-color="#0E76DA"/>
</linearGradient>
<linearGradient id="paint6_linear_3_880" x1="2.76004" y1="50.31" x2="72.48" y2="50.31" gradientUnits="userSpaceOnUse">
<stop stop-color="#0BDB5B"/>
<stop offset="0.18" stop-color="#0BCE6A"/>
<stop offset="0.52" stop-color="#0CAD94"/>
<stop offset="0.98" stop-color="#0D78D7"/>
<stop offset="1" stop-color="#0E76DA"/>
</linearGradient>
<linearGradient id="paint7_linear_3_880" x1="31.6" y1="24.73" x2="43.63" y2="24.73" gradientUnits="userSpaceOnUse">
<stop stop-color="#0BDB5B"/>
<stop offset="0.18" stop-color="#0BCE6A"/>
<stop offset="0.52" stop-color="#0CAD94"/>
<stop offset="0.98" stop-color="#0D78D7"/>
<stop offset="1" stop-color="#0E76DA"/>
</linearGradient>
<linearGradient id="paint8_linear_3_880" x1="2.66" y1="50.24" x2="72.43" y2="50.24" gradientUnits="userSpaceOnUse">
<stop stop-color="#0CDB5C"/>
<stop offset="0.18" stop-color="#0CCE6B"/>
<stop offset="0.52" stop-color="#0DAD95"/>
<stop offset="0.98" stop-color="#0E79D8"/>
<stop offset="1" stop-color="#0F77DB"/>
</linearGradient>
<linearGradient id="paint9_linear_3_880" x1="31.53" y1="24.65" x2="43.56" y2="24.65" gradientUnits="userSpaceOnUse">
<stop stop-color="#0CDB5C"/>
<stop offset="0.18" stop-color="#0CCE6B"/>
<stop offset="0.52" stop-color="#0DAD95"/>
<stop offset="0.98" stop-color="#0E79D8"/>
<stop offset="1" stop-color="#0F77DB"/>
</linearGradient>
<linearGradient id="paint10_linear_3_880" x1="2.56006" y1="50.17" x2="72.3801" y2="50.17" gradientUnits="userSpaceOnUse">
<stop stop-color="#0CDB5D"/>
<stop offset="0.18" stop-color="#0CCE6C"/>
<stop offset="0.52" stop-color="#0DAD96"/>
<stop offset="0.99" stop-color="#0E78D9"/>
<stop offset="1" stop-color="#0F77DB"/>
</linearGradient>
<linearGradient id="paint11_linear_3_880" x1="31.4501" y1="24.56" x2="43.4901" y2="24.56" gradientUnits="userSpaceOnUse">
<stop stop-color="#0CDB5D"/>
<stop offset="0.18" stop-color="#0CCE6C"/>
<stop offset="0.52" stop-color="#0DAD96"/>
<stop offset="0.99" stop-color="#0E78D9"/>
<stop offset="1" stop-color="#0F77DB"/>
</linearGradient>
<linearGradient id="paint12_linear_3_880" x1="2.46005" y1="50.11" x2="72.34" y2="50.11" gradientUnits="userSpaceOnUse">
<stop stop-color="#0CDC5D"/>
<stop offset="0.18" stop-color="#0CCF6C"/>
<stop offset="0.52" stop-color="#0DAE96"/>
<stop offset="0.98" stop-color="#0F7AD9"/>
<stop offset="1" stop-color="#1078DC"/>
</linearGradient>
<linearGradient id="paint13_linear_3_880" x1="31.3701" y1="24.48" x2="43.4201" y2="24.48" gradientUnits="userSpaceOnUse">
<stop stop-color="#0CDC5D"/>
<stop offset="0.18" stop-color="#0CCF6C"/>
<stop offset="0.52" stop-color="#0DAE96"/>
<stop offset="0.98" stop-color="#0F7AD9"/>
<stop offset="1" stop-color="#1078DC"/>
</linearGradient>
<linearGradient id="paint14_linear_3_880" x1="2.36005" y1="50.04" x2="72.29" y2="50.04" gradientUnits="userSpaceOnUse">
<stop stop-color="#0DDC5E"/>
<stop offset="0.18" stop-color="#0DCF6D"/>
<stop offset="0.52" stop-color="#0EAE97"/>
<stop offset="0.99" stop-color="#0F79DA"/>
<stop offset="1" stop-color="#1078DC"/>
</linearGradient>
<linearGradient id="paint15_linear_3_880" x1="31.29" y1="24.39" x2="43.36" y2="24.39" gradientUnits="userSpaceOnUse">
<stop stop-color="#0DDC5E"/>
<stop offset="0.18" stop-color="#0DCF6D"/>
<stop offset="0.52" stop-color="#0EAE97"/>
<stop offset="0.99" stop-color="#0F79DA"/>
<stop offset="1" stop-color="#1078DC"/>
</linearGradient>
<linearGradient id="paint16_linear_3_880" x1="2.26005" y1="49.97" x2="72.2401" y2="49.97" gradientUnits="userSpaceOnUse">
<stop stop-color="#0DDC5F"/>
<stop offset="0.18" stop-color="#0DCF6E"/>
<stop offset="0.52" stop-color="#0EAE98"/>
<stop offset="0.99" stop-color="#1079DB"/>
<stop offset="1" stop-color="#1179DC"/>
</linearGradient>
<linearGradient id="paint17_linear_3_880" x1="31.22" y1="24.31" x2="43.29" y2="24.31" gradientUnits="userSpaceOnUse">
<stop stop-color="#0DDC5F"/>
<stop offset="0.18" stop-color="#0DCF6E"/>
<stop offset="0.52" stop-color="#0EAE98"/>
<stop offset="0.99" stop-color="#1079DB"/>
<stop offset="1" stop-color="#1179DC"/>
</linearGradient>
<linearGradient id="paint18_linear_3_880" x1="2.17004" y1="49.9099" x2="72.19" y2="49.9099" gradientUnits="userSpaceOnUse">
<stop stop-color="#0DDC60"/>
<stop offset="0.18" stop-color="#0DCF6F"/>
<stop offset="0.52" stop-color="#0EAE99"/>
<stop offset="0.99" stop-color="#1079DC"/>
<stop offset="1" stop-color="#1179DD"/>
</linearGradient>
<linearGradient id="paint19_linear_3_880" x1="31.14" y1="24.22" x2="43.22" y2="24.22" gradientUnits="userSpaceOnUse">
<stop stop-color="#0DDC60"/>
<stop offset="0.18" stop-color="#0DCF6F"/>
<stop offset="0.52" stop-color="#0EAE99"/>
<stop offset="0.99" stop-color="#1079DC"/>
<stop offset="1" stop-color="#1179DD"/>
</linearGradient>
<linearGradient id="paint20_linear_3_880" x1="2.07004" y1="49.84" x2="72.15" y2="49.84" gradientUnits="userSpaceOnUse">
<stop stop-color="#0EDC61"/>
<stop offset="0.18" stop-color="#0ECF70"/>
<stop offset="0.53" stop-color="#0FAE9A"/>
<stop offset="1" stop-color="#127ADD"/>
</linearGradient>
<linearGradient id="paint21_linear_3_880" x1="31.0601" y1="24.14" x2="43.1501" y2="24.14" gradientUnits="userSpaceOnUse">
<stop stop-color="#0EDC61"/>
<stop offset="0.18" stop-color="#0ECF70"/>
<stop offset="0.53" stop-color="#0FAE9A"/>
<stop offset="1" stop-color="#127ADD"/>
</linearGradient>
<linearGradient id="paint22_linear_3_880" x1="1.97001" y1="49.78" x2="72.1" y2="49.78" gradientUnits="userSpaceOnUse">
<stop stop-color="#0EDC62"/>
<stop offset="0.18" stop-color="#0ECF71"/>
<stop offset="0.53" stop-color="#0FAE9B"/>
<stop offset="1" stop-color="#127ADE"/>
</linearGradient>
<linearGradient id="paint23_linear_3_880" x1="30.99" y1="24.05" x2="43.08" y2="24.05" gradientUnits="userSpaceOnUse">
<stop stop-color="#0EDC62"/>
<stop offset="0.18" stop-color="#0ECF71"/>
<stop offset="0.53" stop-color="#0FAE9B"/>
<stop offset="1" stop-color="#127ADE"/>
</linearGradient>
<linearGradient id="paint24_linear_3_880" x1="1.87004" y1="49.71" x2="72.05" y2="49.71" gradientUnits="userSpaceOnUse">
<stop stop-color="#0FDC63"/>
<stop offset="0.19" stop-color="#0FCF72"/>
<stop offset="0.53" stop-color="#10AE9C"/>
<stop offset="1" stop-color="#137ADE"/>
</linearGradient>
<linearGradient id="paint25_linear_3_880" x1="30.91" y1="23.97" x2="43.01" y2="23.97" gradientUnits="userSpaceOnUse">
<stop stop-color="#0FDC63"/>
<stop offset="0.19" stop-color="#0FCF72"/>
<stop offset="0.53" stop-color="#10AE9C"/>
<stop offset="1" stop-color="#137ADE"/>
</linearGradient>
<linearGradient id="paint26_linear_3_880" x1="1.77003" y1="49.64" x2="72" y2="49.64" gradientUnits="userSpaceOnUse">
<stop stop-color="#0FDC64"/>
<stop offset="0.19" stop-color="#0FCF73"/>
<stop offset="0.53" stop-color="#10AE9D"/>
<stop offset="1" stop-color="#137BDE"/>
</linearGradient>
<linearGradient id="paint27_linear_3_880" x1="30.83" y1="23.88" x2="42.95" y2="23.88" gradientUnits="userSpaceOnUse">
<stop stop-color="#0FDC64"/>
<stop offset="0.19" stop-color="#0FCF73"/>
<stop offset="0.53" stop-color="#10AE9D"/>
<stop offset="1" stop-color="#137BDE"/>
</linearGradient>
<linearGradient id="paint28_linear_3_880" x1="1.67003" y1="49.58" x2="71.96" y2="49.58" gradientUnits="userSpaceOnUse">
<stop stop-color="#0FDC65"/>
<stop offset="0.19" stop-color="#0FCF74"/>
<stop offset="0.53" stop-color="#11AE9E"/>
<stop offset="1" stop-color="#147BDF"/>
</linearGradient>
<linearGradient id="paint29_linear_3_880" x1="30.75" y1="23.8" x2="42.88" y2="23.8" gradientUnits="userSpaceOnUse">
<stop stop-color="#0FDC65"/>
<stop offset="0.19" stop-color="#0FCF74"/>
<stop offset="0.53" stop-color="#11AE9E"/>
<stop offset="1" stop-color="#147BDF"/>
</linearGradient>
<linearGradient id="paint30_linear_3_880" x1="1.57006" y1="49.51" x2="71.9101" y2="49.51" gradientUnits="userSpaceOnUse">
<stop stop-color="#10DC66"/>
<stop offset="0.19" stop-color="#10CF75"/>
<stop offset="0.54" stop-color="#11AE9F"/>
<stop offset="1" stop-color="#147CDF"/>
</linearGradient>
<linearGradient id="paint31_linear_3_880" x1="30.6801" y1="23.71" x2="42.8101" y2="23.71" gradientUnits="userSpaceOnUse">
<stop stop-color="#10DC66"/>
<stop offset="0.19" stop-color="#10CF75"/>
<stop offset="0.54" stop-color="#11AE9F"/>
<stop offset="1" stop-color="#147CDF"/>
</linearGradient>
<linearGradient id="paint32_linear_3_880" x1="1.48002" y1="49.45" x2="71.86" y2="49.45" gradientUnits="userSpaceOnUse">
<stop stop-color="#10DD66"/>
<stop offset="0.19" stop-color="#10D075"/>
<stop offset="0.53" stop-color="#12AF9F"/>
<stop offset="1" stop-color="#157CE0"/>
</linearGradient>
<linearGradient id="paint33_linear_3_880" x1="30.6" y1="23.63" x2="42.74" y2="23.63" gradientUnits="userSpaceOnUse">
<stop stop-color="#10DD66"/>
<stop offset="0.19" stop-color="#10D075"/>
<stop offset="0.53" stop-color="#12AF9F"/>
<stop offset="1" stop-color="#157CE0"/>
</linearGradient>
<linearGradient id="paint34_linear_3_880" x1="1.38002" y1="49.38" x2="71.81" y2="49.38" gradientUnits="userSpaceOnUse">
<stop stop-color="#11DD67"/>
<stop offset="0.19" stop-color="#11D076"/>
<stop offset="0.54" stop-color="#12AFA0"/>
<stop offset="1" stop-color="#157DE0"/>
</linearGradient>
<linearGradient id="paint35_linear_3_880" x1="30.52" y1="23.54" x2="42.67" y2="23.54" gradientUnits="userSpaceOnUse">
<stop stop-color="#11DD67"/>
<stop offset="0.19" stop-color="#11D076"/>
<stop offset="0.54" stop-color="#12AFA0"/>
<stop offset="1" stop-color="#157DE0"/>
</linearGradient>
<linearGradient id="paint36_linear_3_880" x1="1.28005" y1="49.31" x2="71.7701" y2="49.31" gradientUnits="userSpaceOnUse">
<stop stop-color="#11DD68"/>
<stop offset="0.19" stop-color="#11D077"/>
<stop offset="0.54" stop-color="#13AFA1"/>
<stop offset="1" stop-color="#167DE1"/>
</linearGradient>
<linearGradient id="paint37_linear_3_880" x1="30.4401" y1="23.46" x2="42.6001" y2="23.46" gradientUnits="userSpaceOnUse">
<stop stop-color="#11DD68"/>
<stop offset="0.19" stop-color="#11D077"/>
<stop offset="0.54" stop-color="#13AFA1"/>
<stop offset="1" stop-color="#167DE1"/>
</linearGradient>
<linearGradient id="paint38_linear_3_880" x1="1.18001" y1="49.2501" x2="71.72" y2="49.2501" gradientUnits="userSpaceOnUse">
<stop stop-color="#11DD69"/>
<stop offset="0.19" stop-color="#11D078"/>
<stop offset="0.54" stop-color="#13AFA2"/>
<stop offset="1" stop-color="#167EE1"/>
</linearGradient>
<linearGradient id="paint39_linear_3_880" x1="30.37" y1="23.38" x2="42.53" y2="23.38" gradientUnits="userSpaceOnUse">
<stop stop-color="#11DD69"/>
<stop offset="0.19" stop-color="#11D078"/>
<stop offset="0.54" stop-color="#13AFA2"/>
<stop offset="1" stop-color="#167EE1"/>
</linearGradient>
<linearGradient id="paint40_linear_3_880" x1="1.08001" y1="49.18" x2="71.67" y2="49.18" gradientUnits="userSpaceOnUse">
<stop stop-color="#12DD6A"/>
<stop offset="0.19" stop-color="#12D079"/>
<stop offset="0.55" stop-color="#14AFA3"/>
<stop offset="1" stop-color="#177EE1"/>
</linearGradient>
<linearGradient id="paint41_linear_3_880" x1="30.29" y1="23.29" x2="42.47" y2="23.29" gradientUnits="userSpaceOnUse">
<stop stop-color="#12DD6A"/>
<stop offset="0.19" stop-color="#12D079"/>
<stop offset="0.55" stop-color="#14AFA3"/>
<stop offset="1" stop-color="#177EE1"/>
</linearGradient>
<linearGradient id="paint42_linear_3_880" x1="0.980004" y1="49.11" x2="71.63" y2="49.11" gradientUnits="userSpaceOnUse">
<stop stop-color="#12DD6B"/>
<stop offset="0.19" stop-color="#12D07A"/>
<stop offset="0.55" stop-color="#14AFA4"/>
<stop offset="1" stop-color="#177EE2"/>
</linearGradient>
<linearGradient id="paint43_linear_3_880" x1="30.21" y1="23.21" x2="42.4" y2="23.21" gradientUnits="userSpaceOnUse">
<stop stop-color="#12DD6B"/>
<stop offset="0.19" stop-color="#12D07A"/>
<stop offset="0.55" stop-color="#14AFA4"/>
<stop offset="1" stop-color="#177EE2"/>
</linearGradient>
<linearGradient id="paint44_linear_3_880" x1="0.890002" y1="49.05" x2="71.58" y2="49.05" gradientUnits="userSpaceOnUse">
<stop stop-color="#13DD6C"/>
<stop offset="0.19" stop-color="#13D07B"/>
<stop offset="0.55" stop-color="#15AFA5"/>
<stop offset="1" stop-color="#187FE2"/>
</linearGradient>
<linearGradient id="paint45_linear_3_880" x1="30.14" y1="23.12" x2="42.33" y2="23.12" gradientUnits="userSpaceOnUse">
<stop stop-color="#13DD6C"/>
<stop offset="0.19" stop-color="#13D07B"/>
<stop offset="0.55" stop-color="#15AFA5"/>
<stop offset="1" stop-color="#187FE2"/>
</linearGradient>
<linearGradient id="paint46_linear_3_880" x1="0.790034" y1="48.98" x2="71.53" y2="48.98" gradientUnits="userSpaceOnUse">
<stop stop-color="#13DD6D"/>
<stop offset="0.19" stop-color="#13D07C"/>
<stop offset="0.55" stop-color="#15AFA6"/>
<stop offset="1" stop-color="#187FE3"/>
</linearGradient>
<linearGradient id="paint47_linear_3_880" x1="30.0601" y1="23.04" x2="42.2601" y2="23.04" gradientUnits="userSpaceOnUse">
<stop stop-color="#13DD6D"/>
<stop offset="0.19" stop-color="#13D07C"/>
<stop offset="0.55" stop-color="#15AFA6"/>
<stop offset="1" stop-color="#187FE3"/>
</linearGradient>
<linearGradient id="paint48_linear_3_880" x1="0.690057" y1="48.92" x2="71.4801" y2="48.92" gradientUnits="userSpaceOnUse">
<stop stop-color="#13DD6E"/>
<stop offset="0.19" stop-color="#13D07D"/>
<stop offset="0.55" stop-color="#15AFA7"/>
<stop offset="1" stop-color="#1980E3"/>
</linearGradient>
<linearGradient id="paint49_linear_3_880" x1="29.98" y1="22.95" x2="42.19" y2="22.95" gradientUnits="userSpaceOnUse">
<stop stop-color="#13DD6E"/>
<stop offset="0.19" stop-color="#13D07D"/>
<stop offset="0.55" stop-color="#15AFA7"/>
<stop offset="1" stop-color="#1980E3"/>
</linearGradient>
<linearGradient id="paint50_linear_3_880" x1="0.590051" y1="48.85" x2="71.4401" y2="48.85" gradientUnits="userSpaceOnUse">
<stop stop-color="#14DD6F"/>
<stop offset="0.19" stop-color="#14D07E"/>
<stop offset="0.56" stop-color="#16AEA8"/>
<stop offset="1" stop-color="#1980E3"/>
</linearGradient>
<linearGradient id="paint51_linear_3_880" x1="29.9" y1="22.87" x2="42.12" y2="22.87" gradientUnits="userSpaceOnUse">
<stop stop-color="#14DD6F"/>
<stop offset="0.19" stop-color="#14D07E"/>
<stop offset="0.56" stop-color="#16AEA8"/>
<stop offset="1" stop-color="#1980E3"/>
</linearGradient>
<linearGradient id="paint52_linear_3_880" x1="0.490048" y1="48.78" x2="71.39" y2="48.78" gradientUnits="userSpaceOnUse">
<stop stop-color="#14DE6F"/>
<stop offset="0.19" stop-color="#14D17E"/>
<stop offset="0.55" stop-color="#16B0A8"/>
<stop offset="1" stop-color="#1A81E4"/>
</linearGradient>
<linearGradient id="paint53_linear_3_880" x1="29.8301" y1="22.78" x2="42.0601" y2="22.78" gradientUnits="userSpaceOnUse">
<stop stop-color="#14DE6F"/>
<stop offset="0.19" stop-color="#14D17E"/>
<stop offset="0.55" stop-color="#16B0A8"/>
<stop offset="1" stop-color="#1A81E4"/>
</linearGradient>
<linearGradient id="paint54_linear_3_880" x1="0.390046" y1="48.72" x2="71.34" y2="48.72" gradientUnits="userSpaceOnUse">
<stop stop-color="#14DE70"/>
<stop offset="0.19" stop-color="#14D17F"/>
<stop offset="0.56" stop-color="#16AFA9"/>
<stop offset="1" stop-color="#1A81E4"/>
</linearGradient>
<linearGradient id="paint55_linear_3_880" x1="29.7501" y1="22.7" x2="41.9901" y2="22.7" gradientUnits="userSpaceOnUse">
<stop stop-color="#14DE70"/>
<stop offset="0.19" stop-color="#14D17F"/>
<stop offset="0.56" stop-color="#16AFA9"/>
<stop offset="1" stop-color="#1A81E4"/>
</linearGradient>
<linearGradient id="paint56_linear_3_880" x1="0.300043" y1="48.65" x2="71.29" y2="48.65" gradientUnits="userSpaceOnUse">
<stop stop-color="#15DE71"/>
<stop offset="0.19" stop-color="#15D180"/>
<stop offset="0.56" stop-color="#17B0AA"/>
<stop offset="1" stop-color="#1B82E5"/>
</linearGradient>
<linearGradient id="paint57_linear_3_880" x1="29.67" y1="22.61" x2="41.92" y2="22.61" gradientUnits="userSpaceOnUse">
<stop stop-color="#15DE71"/>
<stop offset="0.19" stop-color="#15D180"/>
<stop offset="0.56" stop-color="#17B0AA"/>
<stop offset="1" stop-color="#1B82E5"/>
</linearGradient>
<linearGradient id="paint58_linear_3_880" x1="0.20004" y1="48.58" x2="71.25" y2="48.58" gradientUnits="userSpaceOnUse">
<stop stop-color="#15DE72"/>
<stop offset="0.2" stop-color="#15D181"/>
<stop offset="0.56" stop-color="#17B0AB"/>
<stop offset="1" stop-color="#1B82E5"/>
</linearGradient>
<linearGradient id="paint59_linear_3_880" x1="29.59" y1="22.53" x2="41.85" y2="22.53" gradientUnits="userSpaceOnUse">
<stop stop-color="#15DE72"/>
<stop offset="0.2" stop-color="#15D181"/>
<stop offset="0.56" stop-color="#17B0AB"/>
<stop offset="1" stop-color="#1B82E5"/>
</linearGradient>
<linearGradient id="paint60_linear_3_880" x1="0.10001" y1="48.52" x2="71.2" y2="48.52" gradientUnits="userSpaceOnUse">
<stop stop-color="#16DE73"/>
<stop offset="0.2" stop-color="#16D182"/>
<stop offset="0.56" stop-color="#18B0AC"/>
<stop offset="1" stop-color="#1C83E6"/>
</linearGradient>
<linearGradient id="paint61_linear_3_880" x1="29.52" y1="22.44" x2="41.78" y2="22.44" gradientUnits="userSpaceOnUse">
<stop stop-color="#16DE73"/>
<stop offset="0.2" stop-color="#16D182"/>
<stop offset="0.56" stop-color="#18B0AC"/>
<stop offset="1" stop-color="#1C83E6"/>
</linearGradient>
<linearGradient id="paint62_linear_3_880" x1="3.0581e-05" y1="48.45" x2="71.15" y2="48.45" gradientUnits="userSpaceOnUse">
<stop stop-color="#16DE74"/>
<stop offset="0.2" stop-color="#16D183"/>
<stop offset="0.57" stop-color="#19B0AD"/>
<stop offset="1" stop-color="#1C83E6"/>
</linearGradient>
<linearGradient id="paint63_linear_3_880" x1="29.44" y1="22.36" x2="41.71" y2="22.36" gradientUnits="userSpaceOnUse">
<stop stop-color="#16DE74"/>
<stop offset="0.2" stop-color="#16D183"/>
<stop offset="0.57" stop-color="#19B0AD"/>
<stop offset="1" stop-color="#1C83E6"/>
</linearGradient>
<linearGradient id="paint64_linear_3_880" x1="2.38" y1="49.92" x2="72.02" y2="49.92" gradientUnits="userSpaceOnUse">
<stop stop-color="#6AE8A9"/>
<stop offset="0.1" stop-color="#6DE8AB" stop-opacity="0.98"/>
<stop offset="0.23" stop-color="#77EAB0" stop-opacity="0.91"/>
<stop offset="0.38" stop-color="#88ECBA" stop-opacity="0.79"/>
<stop offset="0.54" stop-color="#A0F0C8" stop-opacity="0.64"/>
<stop offset="0.71" stop-color="#BEF5D9" stop-opacity="0.43"/>
<stop offset="0.88" stop-color="#E2FAEE" stop-opacity="0.19"/>
<stop offset="1" stop-color="white" stop-opacity="0"/>
</linearGradient>
<linearGradient id="paint65_linear_3_880" x1="31.19" y1="24.38" x2="43.21" y2="24.38" gradientUnits="userSpaceOnUse">
<stop stop-color="#6AE8A9"/>
<stop offset="0.1" stop-color="#6DE8AB" stop-opacity="0.98"/>
<stop offset="0.23" stop-color="#77EAB0" stop-opacity="0.91"/>
<stop offset="0.38" stop-color="#88ECBA" stop-opacity="0.79"/>
<stop offset="0.54" stop-color="#A0F0C8" stop-opacity="0.64"/>
<stop offset="0.71" stop-color="#BEF5D9" stop-opacity="0.43"/>
<stop offset="0.88" stop-color="#E2FAEE" stop-opacity="0.19"/>
<stop offset="1" stop-color="white" stop-opacity="0"/>
</linearGradient>
<linearGradient id="paint66_linear_3_880" x1="53.57" y1="60.02" x2="61.54" y2="67.61" gradientUnits="userSpaceOnUse">
<stop stop-color="white" stop-opacity="0"/>
<stop offset="0.04" stop-color="white" stop-opacity="0.13"/>
<stop offset="0.11" stop-color="white" stop-opacity="0.36"/>
<stop offset="0.18" stop-color="white" stop-opacity="0.55"/>
<stop offset="0.26" stop-color="white" stop-opacity="0.71"/>
<stop offset="0.33" stop-color="white" stop-opacity="0.84"/>
<stop offset="0.39" stop-color="white" stop-opacity="0.93"/>
<stop offset="0.46" stop-color="white" stop-opacity="0.98"/>
<stop offset="0.51" stop-color="white"/>
<stop offset="0.56" stop-color="#FEFFFE" stop-opacity="0.98"/>
<stop offset="0.62" stop-color="#FDFFFE" stop-opacity="0.92"/>
<stop offset="0.69" stop-color="#FCFFFC" stop-opacity="0.82"/>
<stop offset="0.76" stop-color="#F9FFFB" stop-opacity="0.69"/>
<stop offset="0.83" stop-color="#F6FFF9" stop-opacity="0.51"/>
<stop offset="0.91" stop-color="#F3FFF6" stop-opacity="0.3"/>
<stop offset="0.98" stop-color="#EEFFF3" stop-opacity="0.05"/>
<stop offset="1" stop-color="#EEFFF3" stop-opacity="0"/>
</linearGradient>
<linearGradient id="paint67_linear_3_880" x1="32.79" y1="14.48" x2="50.63" y2="31.47" gradientUnits="userSpaceOnUse">
<stop stop-color="white" stop-opacity="0"/>
<stop offset="0.04" stop-color="white" stop-opacity="0.13"/>
<stop offset="0.11" stop-color="white" stop-opacity="0.36"/>
<stop offset="0.18" stop-color="white" stop-opacity="0.55"/>
<stop offset="0.26" stop-color="white" stop-opacity="0.71"/>
<stop offset="0.33" stop-color="white" stop-opacity="0.84"/>
<stop offset="0.39" stop-color="white" stop-opacity="0.93"/>
<stop offset="0.46" stop-color="white" stop-opacity="0.98"/>
<stop offset="0.51" stop-color="white"/>
<stop offset="0.56" stop-color="#FEFFFE" stop-opacity="0.98"/>
<stop offset="0.62" stop-color="#FDFFFE" stop-opacity="0.92"/>
<stop offset="0.69" stop-color="#FCFFFC" stop-opacity="0.82"/>
<stop offset="0.76" stop-color="#F9FFFB" stop-opacity="0.69"/>
<stop offset="0.83" stop-color="#F6FFF9" stop-opacity="0.51"/>
<stop offset="0.91" stop-color="#F3FFF6" stop-opacity="0.3"/>
<stop offset="0.98" stop-color="#EEFFF3" stop-opacity="0.05"/>
<stop offset="1" stop-color="#EEFFF3" stop-opacity="0"/>
</linearGradient>
<clipPath id="clip0_3_880">
<rect width="72.62" height="79.77" fill="white"/>
</clipPath>
</defs>
</svg>
