<svg width="71" height="78" viewBox="0 0 71 78" fill="none" xmlns="http://www.w3.org/2000/svg">
<path d="M31.01 76.98C24.82 76.26 18.89 73.84 13.97 70.02C-2.35 57.36 -3.97 34.07 9.11 19.3C9.88 18.44 11.22 18.4 12.03 19.21L17.71 24.89C18.45 25.63 18.49 26.81 17.81 27.61C10.19 36.57 10.61 50.07 19.07 58.53C27.97 67.43 42.45 67.43 51.35 58.53C59.81 50.07 60.23 36.57 52.61 27.61C51.93 26.81 51.97 25.63 52.71 24.89L58.39 19.21C59.21 18.39 60.55 18.44 61.32 19.3C73.42 32.96 72.93 53.93 59.85 67.01C52.29 74.57 41.87 78.23 31.03 76.97L31.01 76.98Z" fill="url(#paint0_linear_17_749)"/>
<path d="M39.2 0.5H31.19C30.0854 0.5 29.19 1.39543 29.19 2.5V42.26C29.19 43.3646 30.0854 44.26 31.19 44.26H39.2C40.3046 44.26 41.2 43.3646 41.2 42.26V2.5C41.2 1.39543 40.3046 0.5 39.2 0.5Z" fill="url(#paint1_linear_17_749)"/>
<defs>
<linearGradient id="paint0_linear_17_749" x1="0.380001" y1="47.92" x2="70.02" y2="47.92" gradientUnits="userSpaceOnUse">
<stop offset="0.05" stop-color="#575757"/>
<stop offset="0.33" stop-color="#575757" stop-opacity="0.93"/>
<stop offset="0.67" stop-color="#585858" stop-opacity="0.75"/>
<stop offset="1" stop-color="#595959" stop-opacity="0.5"/>
</linearGradient>
<linearGradient id="paint1_linear_17_749" x1="29.19" y1="22.38" x2="41.21" y2="22.38" gradientUnits="userSpaceOnUse">
<stop offset="0.05" stop-color="#575757"/>
<stop offset="0.33" stop-color="#575757" stop-opacity="0.93"/>
<stop offset="0.67" stop-color="#585858" stop-opacity="0.75"/>
<stop offset="1" stop-color="#595959" stop-opacity="0.5"/>
</linearGradient>
</defs>
</svg>
