<svg width="98" height="71" viewBox="0 0 98 71" fill="none" xmlns="http://www.w3.org/2000/svg">
<g clip-path="url(#clip0_17_34)">
<path d="M29.72 3.42999C29.24 3.42999 28.84 3.81999 28.84 4.30999V49.34C28.84 55.13 27.38 57.95 21.16 57.95C18.32 57.95 15.38 55.26 13.63 51.97C13.4 51.53 12.84 51.38 12.41 51.64L2.56 57.5C2.14 57.75 2 58.3 2.25 58.71C6.77 66.17 12.55 70.47 21.84 70.47C33.22 70.47 42.4 66.4 42.4 48.76V4.30999C42.4 3.82999 42.01 3.42999 41.52 3.42999H29.7H29.72Z" fill="url(#paint0_linear_17_34)"/>
<path d="M29.62 3.32999C29.14 3.32999 28.74 3.71999 28.74 4.20999V49.24C28.74 55.03 27.28 57.85 21.06 57.85C18.22 57.85 15.28 55.16 13.53 51.87C13.3 51.43 12.74 51.28 12.31 51.54L2.45999 57.4C2.03999 57.65 1.89999 58.2 2.14999 58.61C6.66999 66.07 12.45 70.37 21.74 70.37C33.12 70.37 42.3 66.3 42.3 48.66V4.19999C42.3 3.71999 41.91 3.31999 41.42 3.31999H29.6L29.62 3.32999Z" fill="url(#paint1_linear_17_34)"/>
<path d="M29.52 3.23C29.04 3.23 28.64 3.62 28.64 4.11V49.14C28.64 54.93 27.18 57.75 20.96 57.75C18.12 57.75 15.18 55.06 13.43 51.77C13.2 51.33 12.64 51.18 12.21 51.44L2.35999 57.3C1.93999 57.55 1.79999 58.1 2.04999 58.51C6.56999 65.97 12.35 70.27 21.64 70.27C33.02 70.27 42.2 66.2 42.2 48.56V4.1C42.2 3.62 41.81 3.22 41.32 3.22H29.5L29.52 3.23Z" fill="url(#paint2_linear_17_34)"/>
<path d="M29.42 3.12C28.94 3.12 28.54 3.51 28.54 4V49.04C28.54 54.83 27.08 57.65 20.86 57.65C18.02 57.65 15.08 54.96 13.33 51.67C13.1 51.23 12.54 51.08 12.11 51.34L2.25998 57.2C1.83998 57.45 1.69998 58 1.94998 58.41C6.46998 65.87 12.25 70.17 21.54 70.17C32.92 70.17 42.1 66.1 42.1 48.46V4C42.1 3.52 41.71 3.12 41.22 3.12H29.4H29.42Z" fill="url(#paint3_linear_17_34)"/>
<path d="M29.31 3.02C28.83 3.02 28.43 3.41 28.43 3.9V48.93C28.43 54.72 26.97 57.54 20.75 57.54C17.91 57.54 14.97 54.85 13.22 51.56C12.99 51.12 12.43 50.97 12 51.23L2.15 57.09C1.73 57.34 1.59 57.89 1.84 58.3C6.36 65.76 12.14 70.06 21.43 70.06C32.81 70.06 41.99 65.99 41.99 48.35V3.9C41.99 3.42 41.6 3.02 41.11 3.02H29.29H29.31Z" fill="url(#paint4_linear_17_34)"/>
<path d="M29.21 2.92C28.73 2.92 28.33 3.31 28.33 3.8V48.83C28.33 54.62 26.87 57.44 20.65 57.44C17.81 57.44 14.87 54.75 13.12 51.46C12.89 51.02 12.33 50.87 11.9 51.13L2.04999 56.99C1.62999 57.24 1.48999 57.79 1.73999 58.2C6.25999 65.66 12.04 69.96 21.33 69.96C32.71 69.96 41.89 65.89 41.89 48.25V3.8C41.89 3.32 41.5 2.92 41.01 2.92H29.19H29.21Z" fill="url(#paint5_linear_17_34)"/>
<path d="M29.11 2.82C28.63 2.82 28.23 3.21 28.23 3.7V48.73C28.23 54.52 26.77 57.34 20.55 57.34C17.71 57.34 14.77 54.65 13.02 51.36C12.79 50.92 12.23 50.77 11.8 51.03L1.95999 56.89C1.53999 57.14 1.39999 57.69 1.64999 58.1C6.16999 65.56 11.95 69.86 21.24 69.86C32.62 69.86 41.8 65.79 41.8 48.15V3.69C41.8 3.21 41.41 2.81 40.92 2.81H29.1L29.11 2.82Z" fill="url(#paint6_linear_17_34)"/>
<path d="M29.01 2.70999C28.53 2.70999 28.13 3.09999 28.13 3.58999V48.63C28.13 54.42 26.67 57.24 20.45 57.24C17.61 57.24 14.67 54.55 12.92 51.26C12.69 50.82 12.13 50.67 11.7 50.93L1.85999 56.79C1.43999 57.04 1.29999 57.59 1.54999 58C6.06999 65.46 11.85 69.76 21.14 69.76C32.52 69.76 41.7 65.69 41.7 48.05V3.58999C41.7 3.10999 41.31 2.70999 40.82 2.70999H29H29.01Z" fill="url(#paint7_linear_17_34)"/>
<path d="M28.91 2.61C28.43 2.61 28.03 3 28.03 3.49V48.53C28.03 54.32 26.57 57.14 20.35 57.14C17.51 57.14 14.57 54.45 12.82 51.16C12.59 50.72 12.03 50.57 11.6 50.83L1.75998 56.69C1.33998 56.94 1.19998 57.49 1.44998 57.9C5.96998 65.36 11.75 69.66 21.04 69.66C32.42 69.66 41.6 65.59 41.6 47.95V3.49C41.6 3.01 41.21 2.61 40.72 2.61H28.9H28.91Z" fill="url(#paint8_linear_17_34)"/>
<path d="M28.8 2.50999C28.32 2.50999 27.92 2.89999 27.92 3.38999V48.42C27.92 54.21 26.46 57.03 20.24 57.03C17.4 57.03 14.46 54.34 12.71 51.05C12.48 50.61 11.92 50.46 11.49 50.72L1.66001 56.58C1.24001 56.83 1.10001 57.38 1.35001 57.79C5.87001 65.25 11.65 69.55 20.94 69.55C32.32 69.55 41.5 65.48 41.5 47.84V3.38999C41.5 2.90999 41.11 2.50999 40.62 2.50999H28.8Z" fill="url(#paint9_linear_17_34)"/>
<path d="M28.7 2.41C28.22 2.41 27.82 2.8 27.82 3.29V48.32C27.82 54.11 26.36 56.93 20.14 56.93C17.3 56.93 14.36 54.24 12.61 50.95C12.38 50.51 11.82 50.36 11.39 50.62L1.54999 56.48C1.12999 56.73 0.98999 57.28 1.23999 57.69C5.75999 65.15 11.54 69.45 20.83 69.45C32.21 69.45 41.39 65.38 41.39 47.74V3.29C41.39 2.81 41 2.41 40.51 2.41H28.69H28.7Z" fill="url(#paint10_linear_17_34)"/>
<path d="M28.6 2.31C28.12 2.31 27.72 2.7 27.72 3.19V48.22C27.72 54.01 26.26 56.83 20.04 56.83C17.2 56.83 14.26 54.14 12.51 50.85C12.28 50.41 11.72 50.26 11.29 50.52L1.44998 56.38C1.02998 56.63 0.889984 57.18 1.13998 57.59C5.65998 65.05 11.44 69.35 20.73 69.35C32.11 69.35 41.29 65.28 41.29 47.64V3.18C41.29 2.7 40.9 2.3 40.41 2.3H28.59L28.6 2.31Z" fill="url(#paint11_linear_17_34)"/>
<path d="M28.5 2.2C28.02 2.2 27.62 2.59 27.62 3.08V48.12C27.62 53.91 26.16 56.73 19.94 56.73C17.1 56.73 14.16 54.04 12.41 50.75C12.18 50.31 11.62 50.16 11.19 50.42L1.35001 56.28C0.930009 56.53 0.790009 57.08 1.04001 57.49C5.56001 64.95 11.34 69.25 20.63 69.25C32.01 69.25 41.19 65.18 41.19 47.54V3.08C41.19 2.6 40.8 2.2 40.31 2.2H28.49H28.5Z" fill="url(#paint12_linear_17_34)"/>
<path d="M28.39 2.10001C27.91 2.10001 27.51 2.49001 27.51 2.98001V48.01C27.51 53.8 26.05 56.62 19.83 56.62C16.99 56.62 14.05 53.93 12.3 50.64C12.07 50.2 11.51 50.05 11.08 50.31L1.25 56.18C0.830003 56.43 0.690003 56.98 0.940003 57.39C5.46 64.85 11.24 69.15 20.53 69.15C31.91 69.15 41.09 65.08 41.09 47.44V2.98001C41.09 2.50001 40.7 2.10001 40.21 2.10001H28.39Z" fill="url(#paint13_linear_17_34)"/>
<path d="M28.29 2C27.81 2 27.41 2.39 27.41 2.88V47.91C27.41 53.7 25.95 56.52 19.73 56.52C16.89 56.52 13.95 53.83 12.2 50.54C11.97 50.1 11.41 49.95 10.98 50.21L1.15 56.07C0.729996 56.32 0.589996 56.87 0.839996 57.28C5.36 64.74 11.14 69.04 20.43 69.04C31.81 69.04 40.99 64.97 40.99 47.33V2.88C40.99 2.4 40.6 2 40.11 2H28.29Z" fill="url(#paint14_linear_17_34)"/>
<path d="M28.19 1.89999C27.71 1.89999 27.31 2.28999 27.31 2.77999V47.81C27.31 53.6 25.85 56.42 19.63 56.42C16.79 56.42 13.85 53.73 12.1 50.44C11.87 50 11.31 49.85 10.88 50.11L1.03998 55.97C0.619981 56.22 0.479981 56.77 0.729981 57.18C5.24998 64.64 11.03 68.94 20.32 68.94C31.7 68.94 40.88 64.87 40.88 47.23V2.77999C40.88 2.29999 40.49 1.89999 40 1.89999H28.18H28.19Z" fill="url(#paint15_linear_17_34)"/>
<path d="M28.09 1.79999C27.61 1.79999 27.21 2.18999 27.21 2.67999V47.71C27.21 53.5 25.75 56.32 19.53 56.32C16.69 56.32 13.75 53.63 12 50.34C11.77 49.9 11.21 49.75 10.78 50.01L0.940005 55.87C0.520005 56.12 0.380005 56.67 0.630005 57.08C5.15 64.54 10.93 68.84 20.22 68.84C31.6 68.84 40.78 64.77 40.78 47.13V2.66999C40.78 2.18999 40.39 1.78999 39.9 1.78999H28.08L28.09 1.79999Z" fill="url(#paint16_linear_17_34)"/>
<path d="M27.99 1.69C27.51 1.69 27.11 2.08 27.11 2.57V47.61C27.11 53.4 25.65 56.22 19.43 56.22C16.59 56.22 13.65 53.53 11.9 50.24C11.67 49.8 11.11 49.65 10.68 49.91L0.839999 55.77C0.419999 56.02 0.279999 56.57 0.529999 56.98C5.05 64.44 10.83 68.74 20.12 68.74C31.5 68.74 40.68 64.67 40.68 47.03V2.57C40.68 2.09 40.29 1.69 39.8 1.69H27.98H27.99Z" fill="url(#paint17_linear_17_34)"/>
<path d="M27.88 1.59C27.4 1.59 27 1.98 27 2.47V47.5C27 53.29 25.54 56.11 19.32 56.11C16.48 56.11 13.54 53.42 11.79 50.13C11.56 49.69 11 49.54 10.57 49.8L0.739993 55.67C0.319993 55.92 0.179993 56.47 0.429993 56.88C4.94999 64.34 10.73 68.64 20.02 68.64C31.4 68.64 40.58 64.57 40.58 46.93V2.47C40.58 1.99 40.19 1.59 39.7 1.59H27.88Z" fill="url(#paint18_linear_17_34)"/>
<path d="M27.78 1.49001C27.3 1.49001 26.9 1.88001 26.9 2.37001V47.4C26.9 53.19 25.44 56.01 19.22 56.01C16.38 56.01 13.44 53.32 11.69 50.03C11.46 49.59 10.9 49.44 10.47 49.7L0.639987 55.56C0.219987 55.81 0.0799867 56.36 0.329987 56.77C4.84999 64.23 10.63 68.53 19.92 68.53C31.3 68.53 40.48 64.46 40.48 46.82V2.37001C40.48 1.89001 40.09 1.49001 39.6 1.49001H27.78Z" fill="url(#paint19_linear_17_34)"/>
<path d="M27.68 1.39C27.2 1.39 26.8 1.78 26.8 2.27V47.3C26.8 53.09 25.34 55.91 19.12 55.91C16.28 55.91 13.34 53.22 11.59 49.93C11.36 49.49 10.8 49.34 10.37 49.6L0.530001 55.46C0.110001 55.71 -0.0299987 56.26 0.220001 56.67C4.74 64.13 10.52 68.43 19.81 68.43C31.19 68.43 40.37 64.36 40.37 46.72V2.26C40.37 1.78 39.98 1.38 39.49 1.38H27.67L27.68 1.39Z" fill="url(#paint20_linear_17_34)"/>
<path d="M27.58 1.28C27.1 1.28 26.7 1.67 26.7 2.16V47.2C26.7 52.99 25.24 55.81 19.02 55.81C16.18 55.81 13.24 53.12 11.49 49.83C11.26 49.39 10.7 49.24 10.27 49.5L0.429995 55.36C0.00999522 55.61 -0.130005 56.16 0.119995 56.57C4.64 64.03 10.42 68.33 19.71 68.33C31.09 68.33 40.27 64.26 40.27 46.62V2.16C40.27 1.68 39.88 1.28 39.39 1.28H27.57H27.58Z" fill="url(#paint21_linear_17_34)"/>
<path d="M92.61 13.8L83.57 19.61C83.13 19.89 82.54 19.73 82.31 19.26C78.68 11.66 67.35 13.64 67.35 20.18C67.35 31.56 97.09 27.8 97.09 50.55C97.09 77.41 59.22 74.43 50.28 57.22C50.07 56.81 50.22 56.31 50.61 56.08L60.36 50.16C60.77 49.91 61.28 50.04 61.55 50.44C69.12 61.7 83.94 58.65 83.94 51.6C83.94 39.39 53.78 43.98 53.78 20.5C53.78 -1.72001 85.63 -3.05001 92.93 12.71C93.11 13.1 92.96 13.57 92.6 13.8H92.61Z" fill="url(#paint22_linear_17_34)"/>
<path d="M92.54 13.73L83.5 19.54C83.06 19.82 82.47 19.66 82.24 19.19C78.61 11.59 67.28 13.57 67.28 20.11C67.28 31.49 97.02 27.73 97.02 50.48C97.02 77.34 59.15 74.36 50.21 57.15C50 56.74 50.15 56.24 50.54 56.01L60.29 50.09C60.7 49.84 61.21 49.97 61.48 50.37C69.05 61.63 83.87 58.58 83.87 51.53C83.87 39.32 53.71 43.91 53.71 20.43C53.71 -1.79 85.56 -3.12 92.86 12.64C93.04 13.03 92.89 13.5 92.53 13.73H92.54Z" fill="url(#paint23_linear_17_34)"/>
<path d="M92.47 13.66L83.43 19.47C82.99 19.75 82.4 19.59 82.17 19.12C78.54 11.52 67.21 13.5 67.21 20.04C67.21 31.42 96.95 27.66 96.95 50.41C96.95 77.27 59.08 74.29 50.14 57.08C49.93 56.67 50.08 56.17 50.47 55.94L60.22 50.02C60.63 49.77 61.14 49.9 61.41 50.3C68.98 61.56 83.8 58.51 83.8 51.46C83.8 39.25 53.64 43.84 53.64 20.36C53.64 -1.86 85.49 -3.19001 92.79 12.57C92.97 12.96 92.82 13.43 92.46 13.66H92.47Z" fill="url(#paint24_linear_17_34)"/>
<path d="M92.4 13.59L83.36 19.4C82.92 19.68 82.33 19.52 82.1 19.05C78.47 11.45 67.14 13.43 67.14 19.97C67.14 31.35 96.88 27.59 96.88 50.34C96.88 77.2 59.01 74.22 50.07 57.01C49.86 56.6 50.01 56.1 50.4 55.87L60.15 49.95C60.56 49.7 61.07 49.83 61.34 50.23C68.91 61.49 83.73 58.44 83.73 51.39C83.73 39.18 53.57 43.77 53.57 20.29C53.57 -1.93 85.42 -3.26 92.72 12.5C92.9 12.89 92.75 13.36 92.39 13.59H92.4Z" fill="url(#paint25_linear_17_34)"/>
<path d="M92.33 13.52L83.29 19.33C82.85 19.61 82.26 19.45 82.03 18.98C78.4 11.38 67.07 13.36 67.07 19.9C67.07 31.28 96.81 27.52 96.81 50.27C96.81 77.13 58.94 74.15 50 56.94C49.79 56.53 49.94 56.03 50.33 55.8L60.08 49.88C60.49 49.63 61 49.76 61.27 50.16C68.84 61.42 83.66 58.37 83.66 51.32C83.66 39.11 53.5 43.7 53.5 20.22C53.5 -2 85.35 -3.33 92.65 12.43C92.83 12.82 92.68 13.29 92.32 13.52H92.33Z" fill="url(#paint26_linear_17_34)"/>
<path d="M92.26 13.45L83.22 19.26C82.78 19.54 82.19 19.38 81.96 18.91C78.33 11.31 67 13.29 67 19.83C67 31.21 96.74 27.45 96.74 50.2C96.74 77.06 58.87 74.08 49.93 56.87C49.72 56.46 49.87 55.96 50.26 55.73L60.01 49.81C60.42 49.56 60.93 49.69 61.2 50.09C68.77 61.35 83.59 58.3 83.59 51.25C83.59 39.04 53.43 43.63 53.43 20.15C53.43 -2.07 85.28 -3.4 92.58 12.36C92.76 12.75 92.61 13.22 92.25 13.45H92.26Z" fill="url(#paint27_linear_17_34)"/>
<path d="M92.19 13.38L83.15 19.19C82.71 19.47 82.12 19.31 81.89 18.84C78.26 11.24 66.93 13.22 66.93 19.76C66.93 31.14 96.67 27.38 96.67 50.13C96.67 76.99 58.8 74.01 49.86 56.8C49.65 56.39 49.8 55.89 50.19 55.66L59.94 49.74C60.35 49.49 60.86 49.62 61.13 50.02C68.7 61.28 83.52 58.23 83.52 51.18C83.52 38.97 53.36 43.56 53.36 20.08C53.36 -2.14 85.21 -3.47 92.51 12.29C92.69 12.68 92.54 13.15 92.18 13.38H92.19Z" fill="url(#paint28_linear_17_34)"/>
<path d="M92.12 13.31L83.08 19.12C82.64 19.4 82.05 19.24 81.82 18.77C78.19 11.17 66.86 13.15 66.86 19.69C66.86 31.07 96.6 27.31 96.6 50.06C96.6 76.92 58.73 73.94 49.79 56.73C49.58 56.32 49.73 55.82 50.12 55.59L59.87 49.67C60.28 49.42 60.79 49.55 61.06 49.95C68.63 61.21 83.45 58.16 83.45 51.11C83.45 38.9 53.29 43.49 53.29 20.01C53.29 -2.21 85.14 -3.54 92.44 12.22C92.62 12.61 92.47 13.08 92.11 13.31H92.12Z" fill="url(#paint29_linear_17_34)"/>
<path d="M92.05 13.25L83.01 19.06C82.57 19.34 81.98 19.18 81.75 18.71C78.12 11.11 66.79 13.09 66.79 19.63C66.79 31.01 96.53 27.25 96.53 50C96.53 76.86 58.66 73.88 49.72 56.67C49.51 56.26 49.66 55.76 50.05 55.53L59.8 49.61C60.21 49.36 60.72 49.49 60.99 49.89C68.56 61.15 83.38 58.1 83.38 51.05C83.38 38.84 53.22 43.43 53.22 19.95C53.22 -2.26999 85.07 -3.59999 92.37 12.16C92.55 12.55 92.4 13.02 92.04 13.25H92.05Z" fill="url(#paint30_linear_17_34)"/>
<path d="M91.99 13.18L82.95 18.99C82.51 19.27 81.92 19.11 81.69 18.64C78.06 11.04 66.73 13.02 66.73 19.56C66.73 30.94 96.47 27.18 96.47 49.93C96.47 76.79 58.6 73.81 49.66 56.6C49.45 56.19 49.6 55.69 49.99 55.46L59.74 49.54C60.15 49.29 60.66 49.42 60.93 49.82C68.5 61.08 83.32 58.03 83.32 50.98C83.32 38.77 53.16 43.36 53.16 19.88C53.16 -2.34 85.01 -3.67 92.31 12.09C92.49 12.48 92.34 12.95 91.98 13.18H91.99Z" fill="url(#paint31_linear_17_34)"/>
<path d="M91.92 13.11L82.88 18.92C82.44 19.2 81.85 19.04 81.62 18.57C77.99 10.97 66.66 12.95 66.66 19.49C66.66 30.87 96.4 27.11 96.4 49.86C96.4 76.72 58.53 73.74 49.59 56.53C49.38 56.12 49.53 55.62 49.92 55.39L59.67 49.47C60.08 49.22 60.59 49.35 60.86 49.75C68.43 61.01 83.25 57.96 83.25 50.91C83.25 38.7 53.09 43.29 53.09 19.81C53.09 -2.40999 84.94 -3.73999 92.24 12.02C92.42 12.41 92.27 12.88 91.91 13.11H91.92Z" fill="url(#paint32_linear_17_34)"/>
<path d="M91.85 13.04L82.81 18.85C82.37 19.13 81.78 18.97 81.55 18.5C77.92 10.9 66.59 12.88 66.59 19.42C66.59 30.8 96.33 27.04 96.33 49.79C96.33 76.65 58.46 73.67 49.52 56.46C49.31 56.05 49.46 55.55 49.85 55.32L59.6 49.4C60.01 49.15 60.52 49.28 60.79 49.68C68.36 60.94 83.18 57.89 83.18 50.84C83.18 38.63 53.02 43.22 53.02 19.74C53.02 -2.48 84.87 -3.81 92.17 11.95C92.35 12.34 92.2 12.81 91.84 13.04H91.85Z" fill="url(#paint33_linear_17_34)"/>
<path d="M91.78 12.97L82.74 18.78C82.3 19.06 81.71 18.9 81.48 18.43C77.85 10.83 66.52 12.81 66.52 19.35C66.52 30.73 96.26 26.97 96.26 49.72C96.26 76.58 58.39 73.6 49.45 56.39C49.24 55.98 49.39 55.48 49.78 55.25L59.53 49.33C59.94 49.08 60.45 49.21 60.72 49.61C68.29 60.87 83.11 57.82 83.11 50.77C83.11 38.56 52.95 43.15 52.95 19.67C52.95 -2.55001 84.8 -3.88001 92.1 11.88C92.28 12.27 92.13 12.74 91.77 12.97H91.78Z" fill="url(#paint34_linear_17_34)"/>
<path d="M91.71 12.9L82.67 18.71C82.23 18.99 81.64 18.83 81.41 18.36C77.78 10.76 66.45 12.74 66.45 19.28C66.45 30.66 96.19 26.9 96.19 49.65C96.19 76.51 58.32 73.53 49.38 56.32C49.17 55.91 49.32 55.41 49.71 55.18L59.46 49.26C59.87 49.01 60.38 49.14 60.65 49.54C68.22 60.8 83.04 57.75 83.04 50.7C83.04 38.49 52.88 43.08 52.88 19.6C52.88 -2.62 84.73 -3.95 92.03 11.81C92.21 12.2 92.06 12.67 91.7 12.9H91.71Z" fill="url(#paint35_linear_17_34)"/>
<path d="M91.64 12.83L82.6 18.64C82.16 18.92 81.57 18.76 81.34 18.29C77.71 10.69 66.38 12.67 66.38 19.21C66.38 30.59 96.12 26.83 96.12 49.58C96.12 76.44 58.25 73.46 49.31 56.25C49.1 55.84 49.25 55.34 49.64 55.11L59.39 49.19C59.8 48.94 60.31 49.07 60.58 49.47C68.15 60.73 82.97 57.68 82.97 50.63C82.97 38.42 52.81 43.01 52.81 19.53C52.81 -2.69001 84.66 -4.02001 91.96 11.74C92.14 12.13 91.99 12.6 91.63 12.83H91.64Z" fill="url(#paint36_linear_17_34)"/>
<path d="M91.57 12.76L82.53 18.57C82.09 18.85 81.5 18.69 81.27 18.22C77.64 10.62 66.31 12.6 66.31 19.14C66.31 30.52 96.05 26.76 96.05 49.51C96.05 76.37 58.18 73.39 49.24 56.18C49.03 55.77 49.18 55.27 49.57 55.04L59.32 49.12C59.73 48.87 60.24 49 60.51 49.4C68.08 60.66 82.9 57.61 82.9 50.56C82.9 38.35 52.74 42.94 52.74 19.46C52.74 -2.76 84.59 -4.09 91.89 11.67C92.07 12.06 91.92 12.53 91.56 12.76H91.57Z" fill="url(#paint37_linear_17_34)"/>
<path d="M91.5 12.69L82.46 18.5C82.02 18.78 81.43 18.62 81.2 18.15C77.57 10.55 66.24 12.53 66.24 19.07C66.24 30.45 95.98 26.69 95.98 49.44C95.98 76.3 58.11 73.32 49.17 56.11C48.96 55.7 49.11 55.2 49.5 54.97L59.25 49.05C59.66 48.8 60.17 48.93 60.44 49.33C68.01 60.59 82.83 57.54 82.83 50.49C82.83 38.28 52.67 42.87 52.67 19.39C52.67 -2.83001 84.52 -4.16001 91.82 11.6C92 11.99 91.85 12.46 91.49 12.69H91.5Z" fill="url(#paint38_linear_17_34)"/>
<path d="M91.43 12.62L82.39 18.43C81.95 18.71 81.36 18.55 81.13 18.08C77.5 10.48 66.17 12.46 66.17 19C66.17 30.38 95.91 26.62 95.91 49.37C95.91 76.23 58.04 73.25 49.1 56.04C48.89 55.63 49.04 55.13 49.43 54.9L59.18 48.98C59.59 48.73 60.1 48.86 60.37 49.26C67.94 60.52 82.76 57.47 82.76 50.42C82.76 38.21 52.6 42.8 52.6 19.32C52.6 -2.9 84.45 -4.23 91.75 11.53C91.93 11.92 91.78 12.39 91.42 12.62H91.43Z" fill="url(#paint39_linear_17_34)"/>
<path d="M91.36 12.55L82.32 18.36C81.88 18.64 81.29 18.48 81.06 18.01C77.43 10.41 66.1 12.39 66.1 18.93C66.1 30.31 95.84 26.55 95.84 49.3C95.84 76.16 57.97 73.18 49.03 55.97C48.82 55.56 48.97 55.06 49.36 54.83L59.11 48.91C59.52 48.66 60.03 48.79 60.3 49.19C67.87 60.45 82.69 57.4 82.69 50.35C82.69 38.14 52.53 42.73 52.53 19.25C52.53 -2.97001 84.38 -4.30001 91.68 11.46C91.86 11.85 91.71 12.32 91.35 12.55H91.36Z" fill="url(#paint40_linear_17_34)"/>
<path d="M91.29 12.48L82.25 18.29C81.81 18.57 81.22 18.41 80.99 17.94C77.36 10.34 66.03 12.32 66.03 18.86C66.03 30.24 95.77 26.48 95.77 49.23C95.77 76.09 57.9 73.11 48.96 55.9C48.75 55.49 48.9 54.99 49.29 54.76L59.04 48.84C59.45 48.59 59.96 48.72 60.23 49.12C67.8 60.38 82.62 57.33 82.62 50.28C82.62 38.07 52.46 42.66 52.46 19.18C52.46 -3.04 84.31 -4.37 91.61 11.39C91.79 11.78 91.64 12.25 91.28 12.48H91.29Z" fill="url(#paint41_linear_17_34)"/>
<path d="M91.22 12.41L82.18 18.22C81.74 18.5 81.15 18.34 80.92 17.87C77.29 10.27 65.96 12.25 65.96 18.79C65.96 30.17 95.7 26.41 95.7 49.16C95.7 76.02 57.83 73.04 48.89 55.83C48.68 55.42 48.83 54.92 49.22 54.69L58.97 48.77C59.38 48.52 59.89 48.65 60.16 49.05C67.73 60.31 82.55 57.26 82.55 50.21C82.55 38 52.39 42.59 52.39 19.11C52.39 -3.11 84.24 -4.44001 91.54 11.32C91.72 11.71 91.57 12.18 91.21 12.41H91.22Z" fill="url(#paint42_linear_17_34)"/>
<path d="M91.16 12.35L82.12 18.16C81.68 18.44 81.09 18.28 80.86 17.81C77.23 10.21 65.9 12.19 65.9 18.73C65.9 30.11 95.64 26.35 95.64 49.1C95.64 75.96 57.77 72.98 48.83 55.77C48.62 55.36 48.77 54.86 49.16 54.63L58.91 48.71C59.32 48.46 59.83 48.59 60.1 48.99C67.67 60.25 82.49 57.2 82.49 50.15C82.49 37.94 52.33 42.53 52.33 19.05C52.33 -3.17 84.18 -4.5 91.48 11.26C91.66 11.65 91.51 12.12 91.15 12.35H91.16Z" fill="url(#paint43_linear_17_34)"/>
<path d="M91.09 12.28L82.05 18.09C81.61 18.37 81.02 18.21 80.79 17.74C77.16 10.14 65.83 12.12 65.83 18.66C65.83 30.04 95.57 26.28 95.57 49.03C95.57 75.89 57.7 72.91 48.76 55.7C48.55 55.29 48.7 54.79 49.09 54.56L58.84 48.64C59.25 48.39 59.76 48.52 60.03 48.92C67.6 60.18 82.42 57.13 82.42 50.08C82.42 37.87 52.26 42.46 52.26 18.98C52.26 -3.23999 84.11 -4.56999 91.41 11.19C91.59 11.58 91.44 12.05 91.08 12.28H91.09Z" fill="url(#paint44_linear_17_34)"/>
<path d="M91.02 12.21L81.98 18.02C81.54 18.3 80.95 18.14 80.72 17.67C77.09 10.07 65.76 12.05 65.76 18.59C65.76 29.97 95.5 26.21 95.5 48.96C95.5 75.82 57.63 72.84 48.69 55.63C48.48 55.22 48.63 54.72 49.02 54.49L58.77 48.57C59.18 48.32 59.69 48.45 59.96 48.85C67.53 60.11 82.35 57.06 82.35 50.01C82.35 37.8 52.19 42.39 52.19 18.91C52.19 -3.31 84.04 -4.64 91.34 11.12C91.52 11.51 91.37 11.98 91.01 12.21H91.02Z" fill="url(#paint45_linear_17_34)"/>
<path d="M90.95 12.14L81.91 17.95C81.47 18.23 80.88 18.07 80.65 17.6C77.02 10 65.69 11.98 65.69 18.52C65.69 29.9 95.43 26.14 95.43 48.89C95.43 75.75 57.56 72.77 48.62 55.56C48.41 55.15 48.56 54.65 48.95 54.42L58.7 48.5C59.11 48.25 59.62 48.38 59.89 48.78C67.46 60.04 82.28 56.99 82.28 49.94C82.28 37.73 52.12 42.32 52.12 18.84C52.12 -3.37999 83.97 -4.70999 91.27 11.05C91.45 11.44 91.3 11.91 90.94 12.14H90.95Z" fill="url(#paint46_linear_17_34)"/>
<path d="M90.88 12.07L81.84 17.88C81.4 18.16 80.81 18 80.58 17.53C76.95 9.93 65.62 11.91 65.62 18.45C65.62 29.83 95.36 26.07 95.36 48.82C95.36 75.68 57.49 72.7 48.55 55.49C48.34 55.08 48.49 54.58 48.88 54.35L58.63 48.43C59.04 48.18 59.55 48.31 59.82 48.71C67.39 59.97 82.21 56.92 82.21 49.87C82.21 37.66 52.05 42.25 52.05 18.77C52.05 -3.45 83.9 -4.78 91.2 10.98C91.38 11.37 91.23 11.84 90.87 12.07H90.88Z" fill="url(#paint47_linear_17_34)"/>
<path d="M90.81 12L81.77 17.81C81.33 18.09 80.74 17.93 80.51 17.46C76.88 9.86 65.55 11.84 65.55 18.38C65.55 29.76 95.29 26 95.29 48.75C95.29 75.61 57.42 72.63 48.48 55.42C48.27 55.01 48.42 54.51 48.81 54.28L58.56 48.36C58.97 48.11 59.48 48.24 59.75 48.64C67.32 59.9 82.14 56.85 82.14 49.8C82.14 37.59 51.98 42.18 51.98 18.7C51.98 -3.51999 83.83 -4.84999 91.13 10.91C91.31 11.3 91.16 11.77 90.8 12H90.81Z" fill="url(#paint48_linear_17_34)"/>
<path d="M90.74 11.93L81.7 17.74C81.26 18.02 80.67 17.86 80.44 17.39C76.81 9.79 65.48 11.77 65.48 18.31C65.48 29.69 95.22 25.93 95.22 48.68C95.22 75.54 57.35 72.56 48.41 55.35C48.2 54.94 48.35 54.44 48.74 54.21L58.49 48.29C58.9 48.04 59.41 48.17 59.68 48.57C67.25 59.83 82.07 56.78 82.07 49.73C82.07 37.52 51.91 42.11 51.91 18.63C51.91 -3.59 83.76 -4.92 91.06 10.84C91.24 11.23 91.09 11.7 90.73 11.93H90.74Z" fill="url(#paint49_linear_17_34)"/>
<path d="M90.67 11.86L81.63 17.67C81.19 17.95 80.6 17.79 80.37 17.32C76.74 9.72001 65.41 11.7 65.41 18.24C65.41 29.62 95.15 25.86 95.15 48.61C95.15 75.47 57.28 72.49 48.34 55.28C48.13 54.87 48.28 54.37 48.67 54.14L58.42 48.22C58.83 47.97 59.34 48.1 59.61 48.5C67.18 59.76 82 56.71 82 49.66C82 37.45 51.84 42.04 51.84 18.56C51.84 -3.65999 83.69 -4.98999 90.99 10.77C91.17 11.16 91.02 11.63 90.66 11.86H90.67Z" fill="url(#paint50_linear_17_34)"/>
<path d="M90.6 11.79L81.56 17.6C81.12 17.88 80.53 17.72 80.3 17.25C76.67 9.65 65.34 11.63 65.34 18.17C65.34 29.55 95.08 25.79 95.08 48.54C95.08 75.4 57.21 72.42 48.27 55.21C48.06 54.8 48.21 54.3 48.6 54.07L58.35 48.15C58.76 47.9 59.27 48.03 59.54 48.43C67.11 59.69 81.93 56.64 81.93 49.59C81.93 37.38 51.77 41.97 51.77 18.49C51.77 -3.73 83.62 -5.06 90.92 10.7C91.1 11.09 90.95 11.56 90.59 11.79H90.6Z" fill="url(#paint51_linear_17_34)"/>
<path d="M90.53 11.72L81.49 17.53C81.05 17.81 80.46 17.65 80.23 17.18C76.6 9.57999 65.27 11.56 65.27 18.1C65.27 29.48 95.01 25.72 95.01 48.47C95.01 75.33 57.14 72.35 48.2 55.14C47.99 54.73 48.14 54.23 48.53 54L58.28 48.08C58.69 47.83 59.2 47.96 59.47 48.36C67.04 59.62 81.86 56.57 81.86 49.52C81.86 37.31 51.7 41.9 51.7 18.42C51.7 -3.80001 83.55 -5.13001 90.85 10.63C91.03 11.02 90.88 11.49 90.52 11.72H90.53Z" fill="url(#paint52_linear_17_34)"/>
<path d="M90.46 11.65L81.42 17.46C80.98 17.74 80.39 17.58 80.16 17.11C76.53 9.51 65.2 11.49 65.2 18.03C65.2 29.41 94.94 25.65 94.94 48.4C94.94 75.26 57.07 72.28 48.13 55.07C47.92 54.66 48.07 54.16 48.46 53.93L58.21 48.01C58.62 47.76 59.13 47.89 59.4 48.29C66.97 59.55 81.79 56.5 81.79 49.45C81.79 37.24 51.63 41.83 51.63 18.35C51.63 -3.87 83.48 -5.2 90.78 10.56C90.96 10.95 90.81 11.42 90.45 11.65H90.46Z" fill="url(#paint53_linear_17_34)"/>
<path d="M28.5 2.83C28.02 2.83 27.63 3.22 27.63 3.7V48.24C27.63 53.97 26.19 56.76 20.04 56.76C17.24 56.76 14.32 54.1 12.6 50.85C12.37 50.42 11.82 50.27 11.4 50.52L1.64999 56.31C1.23999 56.56 1.09999 57.1 1.34999 57.51C5.81999 64.89 11.53 69.14 20.72 69.14C31.97 69.14 41.05 65.12 41.05 47.67V3.7C41.05 3.22 40.66 2.83 40.18 2.83H28.5Z" fill="url(#paint54_linear_17_34)"/>
<path d="M91.65 12.65L82.62 18.46C82.18 18.74 81.59 18.58 81.36 18.11C77.73 10.52 66.41 12.5 66.41 19.03C66.41 30.4 96.13 26.64 96.13 49.38C96.13 76.22 58.29 73.24 49.35 56.05C49.14 55.65 49.29 55.14 49.68 54.91L59.42 48.99C59.83 48.74 60.34 48.87 60.61 49.27C68.17 60.52 82.99 57.48 82.99 50.43C82.99 38.23 52.85 42.82 52.85 19.36C52.85 -2.85 84.67 -4.17001 91.97 11.58C92.15 11.97 92 12.44 91.64 12.67L91.65 12.65Z" fill="url(#paint55_linear_17_34)"/>
<g opacity="0.5">
<path d="M40.27 5.52L40.41 16.06L40.48 26.6C40.51 33.63 40.52 40.65 40.48 47.68H40.03C40 40.65 40.01 33.63 40.03 26.6L40.1 16.06L40.24 5.52H40.27Z" fill="url(#paint56_linear_17_34)"/>
</g>
<g opacity="0.5">
<path d="M94.87 50.61C94.93 53.18 94.38 55.78 93.21 58.1C92.05 60.43 90.3 62.44 88.25 64.02C86.17 65.58 83.79 66.71 81.3 67.4C78.81 68.1 76.22 68.36 73.65 68.29C76.21 68.18 78.76 67.78 81.19 67.03C83.62 66.28 85.94 65.17 87.94 63.62C89.97 62.11 91.66 60.16 92.86 57.92C94.06 55.69 94.74 53.17 94.86 50.61H94.87Z" fill="url(#paint57_linear_17_34)"/>
</g>
<g opacity="0.5">
<path d="M65.21 18.03C65.11 16.76 65.47 15.42 66.29 14.39C67.1 13.34 68.29 12.66 69.53 12.25C70.78 11.89 72.11 11.78 73.39 11.97C74.67 12.16 75.93 12.64 76.89 13.48C75.81 12.81 74.58 12.46 73.34 12.35C72.11 12.24 70.85 12.35 69.67 12.72C68.49 13.06 67.39 13.7 66.58 14.62C65.76 15.53 65.31 16.75 65.2 18.02L65.21 18.03Z" fill="url(#paint58_linear_17_34)"/>
</g>
</g>
<defs>
<linearGradient id="paint0_linear_17_34" x1="16.35" y1="8.83999" x2="31.83" y2="67.44" gradientUnits="userSpaceOnUse">
<stop stop-color="#6E6E6E"/>
<stop offset="1" stop-color="#959595"/>
</linearGradient>
<linearGradient id="paint1_linear_17_34" x1="15.86" y1="8.92999" x2="32.71" y2="68.25" gradientUnits="userSpaceOnUse">
<stop stop-color="#727272"/>
<stop offset="1" stop-color="#939393"/>
</linearGradient>
<linearGradient id="paint2_linear_17_34" x1="15.37" y1="9.04" x2="33.61" y2="69.01" gradientUnits="userSpaceOnUse">
<stop stop-color="#757575"/>
<stop offset="1" stop-color="#919191"/>
</linearGradient>
<linearGradient id="paint3_linear_17_34" x1="14.89" y1="9.15999" x2="34.55" y2="69.74" gradientUnits="userSpaceOnUse">
<stop stop-color="#797979"/>
<stop offset="1" stop-color="#8E8E8E"/>
</linearGradient>
<linearGradient id="paint4_linear_17_34" x1="14.43" y1="9.29" x2="35.51" y2="70.42" gradientUnits="userSpaceOnUse">
<stop stop-color="#7C7C7C"/>
<stop offset="1" stop-color="#8C8C8C"/>
</linearGradient>
<linearGradient id="paint5_linear_17_34" x1="13.97" y1="9.45" x2="36.5" y2="71.05" gradientUnits="userSpaceOnUse">
<stop stop-color="#808080"/>
<stop offset="1" stop-color="#8A8A8A"/>
</linearGradient>
<linearGradient id="paint6_linear_17_34" x1="13.52" y1="9.61" x2="37.52" y2="71.64" gradientUnits="userSpaceOnUse">
<stop stop-color="#848484"/>
<stop offset="1" stop-color="#888888"/>
</linearGradient>
<linearGradient id="paint7_linear_17_34" x1="13.08" y1="9.78999" x2="38.55" y2="72.17" gradientUnits="userSpaceOnUse">
<stop stop-color="#878787"/>
<stop offset="1" stop-color="#858585"/>
</linearGradient>
<linearGradient id="paint8_linear_17_34" x1="12.66" y1="9.99" x2="39.6" y2="72.66" gradientUnits="userSpaceOnUse">
<stop stop-color="#8B8B8B"/>
<stop offset="1" stop-color="#838383"/>
</linearGradient>
<linearGradient id="paint9_linear_17_34" x1="12.24" y1="10.19" x2="40.68" y2="73.09" gradientUnits="userSpaceOnUse">
<stop stop-color="#8F8F8F"/>
<stop offset="1" stop-color="#818181"/>
</linearGradient>
<linearGradient id="paint10_linear_17_34" x1="11.84" y1="10.42" x2="41.76" y2="73.48" gradientUnits="userSpaceOnUse">
<stop stop-color="#929292"/>
<stop offset="1" stop-color="#7F7F7F"/>
</linearGradient>
<linearGradient id="paint11_linear_17_34" x1="11.45" y1="10.65" x2="42.86" y2="73.81" gradientUnits="userSpaceOnUse">
<stop stop-color="#969696"/>
<stop offset="1" stop-color="#7C7C7C"/>
</linearGradient>
<linearGradient id="paint12_linear_17_34" x1="11.08" y1="10.9" x2="43.97" y2="74.08" gradientUnits="userSpaceOnUse">
<stop stop-color="#999999"/>
<stop offset="1" stop-color="#7A7A7A"/>
</linearGradient>
<linearGradient id="paint13_linear_17_34" x1="10.72" y1="11.16" x2="45.09" y2="74.3" gradientUnits="userSpaceOnUse">
<stop stop-color="#9D9D9D"/>
<stop offset="1" stop-color="#787878"/>
</linearGradient>
<linearGradient id="paint14_linear_17_34" x1="10.37" y1="11.42" x2="46.21" y2="74.47" gradientUnits="userSpaceOnUse">
<stop stop-color="#A1A1A1"/>
<stop offset="1" stop-color="#767676"/>
</linearGradient>
<linearGradient id="paint15_linear_17_34" x1="10.04" y1="11.71" x2="47.33" y2="74.58" gradientUnits="userSpaceOnUse">
<stop stop-color="#A4A4A4"/>
<stop offset="1" stop-color="#737373"/>
</linearGradient>
<linearGradient id="paint16_linear_17_34" x1="9.73001" y1="12" x2="48.46" y2="74.63" gradientUnits="userSpaceOnUse">
<stop stop-color="#A8A8A8"/>
<stop offset="1" stop-color="#717171"/>
</linearGradient>
<linearGradient id="paint17_linear_17_34" x1="9.42" y1="12.3" x2="49.57" y2="74.63" gradientUnits="userSpaceOnUse">
<stop stop-color="#ACACAC"/>
<stop offset="1" stop-color="#6F6F6F"/>
</linearGradient>
<linearGradient id="paint18_linear_17_34" x1="9.12999" y1="12.62" x2="50.68" y2="74.57" gradientUnits="userSpaceOnUse">
<stop stop-color="#AFAFAF"/>
<stop offset="1" stop-color="#6D6D6D"/>
</linearGradient>
<linearGradient id="paint19_linear_17_34" x1="8.84999" y1="12.95" x2="51.77" y2="74.47" gradientUnits="userSpaceOnUse">
<stop stop-color="#B3B3B3"/>
<stop offset="1" stop-color="#6A6A6A"/>
</linearGradient>
<linearGradient id="paint20_linear_17_34" x1="8.58" y1="13.29" x2="52.86" y2="74.31" gradientUnits="userSpaceOnUse">
<stop stop-color="#B6B6B6"/>
<stop offset="1" stop-color="#686868"/>
</linearGradient>
<linearGradient id="paint21_linear_17_34" x1="8.33" y1="13.64" x2="53.92" y2="74.1" gradientUnits="userSpaceOnUse">
<stop stop-color="#BABABA"/>
<stop offset="1" stop-color="#666666"/>
</linearGradient>
<linearGradient id="paint22_linear_17_34" x1="62.59" y1="7.28999" x2="83.03" y2="69.98" gradientUnits="userSpaceOnUse">
<stop stop-color="#6E6E6E"/>
<stop offset="1" stop-color="#959595"/>
</linearGradient>
<linearGradient id="paint23_linear_17_34" x1="61.97" y1="6.57" x2="83.2" y2="69.39" gradientUnits="userSpaceOnUse">
<stop stop-color="#707070"/>
<stop offset="1" stop-color="#939393"/>
</linearGradient>
<linearGradient id="paint24_linear_17_34" x1="61.34" y1="5.86" x2="83.36" y2="68.8" gradientUnits="userSpaceOnUse">
<stop stop-color="#737373"/>
<stop offset="1" stop-color="#929292"/>
</linearGradient>
<linearGradient id="paint25_linear_17_34" x1="60.69" y1="5.16" x2="83.51" y2="68.21" gradientUnits="userSpaceOnUse">
<stop stop-color="#757575"/>
<stop offset="1" stop-color="#909090"/>
</linearGradient>
<linearGradient id="paint26_linear_17_34" x1="60.04" y1="4.48" x2="83.65" y2="67.62" gradientUnits="userSpaceOnUse">
<stop stop-color="#787878"/>
<stop offset="1" stop-color="#8F8F8F"/>
</linearGradient>
<linearGradient id="paint27_linear_17_34" x1="59.36" y1="3.8" x2="83.78" y2="67.02" gradientUnits="userSpaceOnUse">
<stop stop-color="#7A7A7A"/>
<stop offset="1" stop-color="#8D8D8D"/>
</linearGradient>
<linearGradient id="paint28_linear_17_34" x1="58.68" y1="3.14" x2="83.9" y2="66.43" gradientUnits="userSpaceOnUse">
<stop stop-color="#7D7D7D"/>
<stop offset="1" stop-color="#8C8C8C"/>
</linearGradient>
<linearGradient id="paint29_linear_17_34" x1="57.98" y1="2.49" x2="84.01" y2="65.83" gradientUnits="userSpaceOnUse">
<stop stop-color="#7F7F7F"/>
<stop offset="1" stop-color="#8A8A8A"/>
</linearGradient>
<linearGradient id="paint30_linear_17_34" x1="57.27" y1="1.85001" x2="84.11" y2="65.23" gradientUnits="userSpaceOnUse">
<stop stop-color="#828282"/>
<stop offset="1" stop-color="#898989"/>
</linearGradient>
<linearGradient id="paint31_linear_17_34" x1="56.54" y1="1.22" x2="84.2" y2="64.63" gradientUnits="userSpaceOnUse">
<stop stop-color="#848484"/>
<stop offset="1" stop-color="#878787"/>
</linearGradient>
<linearGradient id="paint32_linear_17_34" x1="55.81" y1="0.610008" x2="84.28" y2="64.03" gradientUnits="userSpaceOnUse">
<stop stop-color="#878787"/>
<stop offset="1" stop-color="#868686"/>
</linearGradient>
<linearGradient id="paint33_linear_17_34" x1="55.06" y1="-1.06722e-09" x2="84.35" y2="63.43" gradientUnits="userSpaceOnUse">
<stop stop-color="#898989"/>
<stop offset="1" stop-color="#848484"/>
</linearGradient>
<linearGradient id="paint34_linear_17_34" x1="54.3" y1="-0.580007" x2="84.41" y2="62.83" gradientUnits="userSpaceOnUse">
<stop stop-color="#8B8B8B"/>
<stop offset="1" stop-color="#838383"/>
</linearGradient>
<linearGradient id="paint35_linear_17_34" x1="53.53" y1="-1.15" x2="84.46" y2="62.23" gradientUnits="userSpaceOnUse">
<stop stop-color="#8E8E8E"/>
<stop offset="1" stop-color="#818181"/>
</linearGradient>
<linearGradient id="paint36_linear_17_34" x1="52.75" y1="-1.71001" x2="84.5" y2="61.63" gradientUnits="userSpaceOnUse">
<stop stop-color="#909090"/>
<stop offset="1" stop-color="#808080"/>
</linearGradient>
<linearGradient id="paint37_linear_17_34" x1="51.96" y1="-2.26" x2="84.54" y2="61.03" gradientUnits="userSpaceOnUse">
<stop stop-color="#939393"/>
<stop offset="1" stop-color="#7E7E7E"/>
</linearGradient>
<linearGradient id="paint38_linear_17_34" x1="51.16" y1="-2.79001" x2="84.56" y2="60.43" gradientUnits="userSpaceOnUse">
<stop stop-color="#959595"/>
<stop offset="1" stop-color="#7D7D7D"/>
</linearGradient>
<linearGradient id="paint39_linear_17_34" x1="50.35" y1="-3.31" x2="84.57" y2="59.83" gradientUnits="userSpaceOnUse">
<stop stop-color="#989898"/>
<stop offset="1" stop-color="#7B7B7B"/>
</linearGradient>
<linearGradient id="paint40_linear_17_34" x1="49.53" y1="-3.81001" x2="84.57" y2="59.23" gradientUnits="userSpaceOnUse">
<stop stop-color="#9A9A9A"/>
<stop offset="1" stop-color="#7A7A7A"/>
</linearGradient>
<linearGradient id="paint41_linear_17_34" x1="48.7" y1="-4.29" x2="84.56" y2="58.64" gradientUnits="userSpaceOnUse">
<stop stop-color="#9D9D9D"/>
<stop offset="1" stop-color="#787878"/>
</linearGradient>
<linearGradient id="paint42_linear_17_34" x1="47.86" y1="-4.76001" x2="84.55" y2="58.04" gradientUnits="userSpaceOnUse">
<stop stop-color="#9F9F9F"/>
<stop offset="1" stop-color="#777777"/>
</linearGradient>
<linearGradient id="paint43_linear_17_34" x1="47.01" y1="-5.22" x2="84.52" y2="57.45" gradientUnits="userSpaceOnUse">
<stop stop-color="#A1A1A1"/>
<stop offset="1" stop-color="#757575"/>
</linearGradient>
<linearGradient id="paint44_linear_17_34" x1="46.15" y1="-5.66" x2="84.48" y2="56.85" gradientUnits="userSpaceOnUse">
<stop stop-color="#A4A4A4"/>
<stop offset="1" stop-color="#747474"/>
</linearGradient>
<linearGradient id="paint45_linear_17_34" x1="45.29" y1="-6.08" x2="84.44" y2="56.26" gradientUnits="userSpaceOnUse">
<stop stop-color="#A6A6A6"/>
<stop offset="1" stop-color="#727272"/>
</linearGradient>
<linearGradient id="paint46_linear_17_34" x1="44.42" y1="-6.47999" x2="84.38" y2="55.67" gradientUnits="userSpaceOnUse">
<stop stop-color="#A9A9A9"/>
<stop offset="1" stop-color="#717171"/>
</linearGradient>
<linearGradient id="paint47_linear_17_34" x1="43.54" y1="-6.87" x2="84.31" y2="55.09" gradientUnits="userSpaceOnUse">
<stop stop-color="#ABABAB"/>
<stop offset="1" stop-color="#6F6F6F"/>
</linearGradient>
<linearGradient id="paint48_linear_17_34" x1="42.65" y1="-7.23999" x2="84.24" y2="54.5" gradientUnits="userSpaceOnUse">
<stop stop-color="#AEAEAE"/>
<stop offset="1" stop-color="#6E6E6E"/>
</linearGradient>
<linearGradient id="paint49_linear_17_34" x1="41.76" y1="-7.59" x2="84.15" y2="53.92" gradientUnits="userSpaceOnUse">
<stop stop-color="#B0B0B0"/>
<stop offset="1" stop-color="#6C6C6C"/>
</linearGradient>
<linearGradient id="paint50_linear_17_34" x1="40.86" y1="-7.92999" x2="84.05" y2="53.34" gradientUnits="userSpaceOnUse">
<stop stop-color="#B3B3B3"/>
<stop offset="1" stop-color="#6B6B6B"/>
</linearGradient>
<linearGradient id="paint51_linear_17_34" x1="39.95" y1="-8.25" x2="83.95" y2="52.77" gradientUnits="userSpaceOnUse">
<stop stop-color="#B5B5B5"/>
<stop offset="1" stop-color="#696969"/>
</linearGradient>
<linearGradient id="paint52_linear_17_34" x1="39.04" y1="-8.55001" x2="83.84" y2="52.2" gradientUnits="userSpaceOnUse">
<stop stop-color="#B8B8B8"/>
<stop offset="1" stop-color="#686868"/>
</linearGradient>
<linearGradient id="paint53_linear_17_34" x1="38.12" y1="-8.83" x2="83.71" y2="51.63" gradientUnits="userSpaceOnUse">
<stop stop-color="#BABABA"/>
<stop offset="1" stop-color="#666666"/>
</linearGradient>
<linearGradient id="paint54_linear_17_34" x1="15.27" y1="8.19" x2="30.59" y2="66.13" gradientUnits="userSpaceOnUse">
<stop offset="0.05" stop-color="#575757"/>
<stop offset="0.33" stop-color="#575757" stop-opacity="0.93"/>
<stop offset="0.67" stop-color="#585858" stop-opacity="0.75"/>
<stop offset="1" stop-color="#595959" stop-opacity="0.5"/>
</linearGradient>
<linearGradient id="paint55_linear_17_34" x1="61.65" y1="6.14999" x2="82.08" y2="68.78" gradientUnits="userSpaceOnUse">
<stop offset="0.05" stop-color="#575757"/>
<stop offset="0.33" stop-color="#575757" stop-opacity="0.93"/>
<stop offset="0.67" stop-color="#585858" stop-opacity="0.75"/>
<stop offset="1" stop-color="#595959" stop-opacity="0.5"/>
</linearGradient>
<linearGradient id="paint56_linear_17_34" x1="29.56" y1="16.5" x2="50.87" y2="36.8" gradientUnits="userSpaceOnUse">
<stop stop-color="white"/>
<stop offset="0.1" stop-color="#FEFFFE" stop-opacity="0.98"/>
<stop offset="0.23" stop-color="#FDFFFE" stop-opacity="0.92"/>
<stop offset="0.36" stop-color="#FCFFFC" stop-opacity="0.82"/>
<stop offset="0.5" stop-color="#F9FFFB" stop-opacity="0.69"/>
<stop offset="0.65" stop-color="#F6FFF9" stop-opacity="0.51"/>
<stop offset="0.81" stop-color="#F3FFF6" stop-opacity="0.3"/>
<stop offset="0.97" stop-color="#EEFFF3" stop-opacity="0.05"/>
<stop offset="1" stop-color="#EEFFF3" stop-opacity="0"/>
</linearGradient>
<linearGradient id="paint57_linear_17_34" x1="82.98" y1="58.24" x2="88.82" y2="63.8" gradientUnits="userSpaceOnUse">
<stop stop-color="white"/>
<stop offset="0.1" stop-color="#FEFFFE" stop-opacity="0.98"/>
<stop offset="0.23" stop-color="#FDFFFE" stop-opacity="0.92"/>
<stop offset="0.36" stop-color="#FCFFFC" stop-opacity="0.82"/>
<stop offset="0.5" stop-color="#F9FFFB" stop-opacity="0.69"/>
<stop offset="0.65" stop-color="#F6FFF9" stop-opacity="0.51"/>
<stop offset="0.81" stop-color="#F3FFF6" stop-opacity="0.3"/>
<stop offset="0.97" stop-color="#EEFFF3" stop-opacity="0.05"/>
<stop offset="1" stop-color="#EEFFF3" stop-opacity="0"/>
</linearGradient>
<linearGradient id="paint58_linear_17_34" x1="67.82" y1="12.68" x2="73" y2="17.62" gradientUnits="userSpaceOnUse">
<stop stop-color="white"/>
<stop offset="0.1" stop-color="#FEFFFE" stop-opacity="0.98"/>
<stop offset="0.23" stop-color="#FDFFFE" stop-opacity="0.92"/>
<stop offset="0.36" stop-color="#FCFFFC" stop-opacity="0.82"/>
<stop offset="0.5" stop-color="#F9FFFB" stop-opacity="0.69"/>
<stop offset="0.65" stop-color="#F6FFF9" stop-opacity="0.51"/>
<stop offset="0.81" stop-color="#F3FFF6" stop-opacity="0.3"/>
<stop offset="0.97" stop-color="#EEFFF3" stop-opacity="0.05"/>
<stop offset="1" stop-color="#EEFFF3" stop-opacity="0"/>
</linearGradient>
<clipPath id="clip0_17_34">
<rect width="97.1" height="70.48" fill="white"/>
</clipPath>
</defs>
</svg>
