<svg width="69" height="74" viewBox="0 0 69 74" fill="none" xmlns="http://www.w3.org/2000/svg">
<g clip-path="url(#clip0_17_969)">
<path d="M64.13 3.14999H7.68002C5.17817 3.14999 3.15002 5.17814 3.15002 7.67999V18.15C3.15002 20.6518 5.17817 22.68 7.68002 22.68H64.13C66.6319 22.68 68.66 20.6518 68.66 18.15V7.67999C68.66 5.17814 66.6319 3.14999 64.13 3.14999Z" fill="url(#paint0_linear_17_969)"/>
<path d="M64.03 3.05H7.57999C5.07814 3.05 3.04999 5.07815 3.04999 7.58V18.05C3.04999 20.5519 5.07814 22.58 7.57999 22.58H64.03C66.5318 22.58 68.56 20.5519 68.56 18.05V7.58C68.56 5.07815 66.5318 3.05 64.03 3.05Z" fill="url(#paint1_linear_17_969)"/>
<path d="M63.93 2.95H7.48001C4.97816 2.95 2.95001 4.97815 2.95001 7.48V17.95C2.95001 20.4518 4.97816 22.48 7.48001 22.48H63.93C66.4319 22.48 68.46 20.4518 68.46 17.95V7.48C68.46 4.97815 66.4319 2.95 63.93 2.95Z" fill="url(#paint2_linear_17_969)"/>
<path d="M63.83 2.85001H7.37998C4.87813 2.85001 2.84998 4.87816 2.84998 7.38001V17.85C2.84998 20.3519 4.87813 22.38 7.37998 22.38H63.83C66.3318 22.38 68.36 20.3519 68.36 17.85V7.38001C68.36 4.87816 66.3318 2.85001 63.83 2.85001Z" fill="url(#paint3_linear_17_969)"/>
<path d="M63.73 2.75H7.28C4.77815 2.75 2.75 4.77815 2.75 7.28V17.75C2.75 20.2519 4.77815 22.28 7.28 22.28H63.73C66.2318 22.28 68.26 20.2519 68.26 17.75V7.28C68.26 4.77815 66.2318 2.75 63.73 2.75Z" fill="url(#paint4_linear_17_969)"/>
<path d="M63.63 2.64999H7.18002C4.67817 2.64999 2.65002 4.67814 2.65002 7.17999V17.65C2.65002 20.1518 4.67817 22.18 7.18002 22.18H63.63C66.1319 22.18 68.16 20.1518 68.16 17.65V7.17999C68.16 4.67814 66.1319 2.64999 63.63 2.64999Z" fill="url(#paint5_linear_17_969)"/>
<path d="M63.52 2.53999H7.06998C4.56813 2.53999 2.53998 4.56814 2.53998 7.06999V17.54C2.53998 20.0418 4.56813 22.07 7.06998 22.07H63.52C66.0218 22.07 68.05 20.0418 68.05 17.54V7.06999C68.05 4.56814 66.0218 2.53999 63.52 2.53999Z" fill="url(#paint6_linear_17_969)"/>
<path d="M63.42 2.44H6.97C4.46815 2.44 2.44 4.46815 2.44 6.97V17.44C2.44 19.9419 4.46815 21.97 6.97 21.97H63.42C65.9219 21.97 67.95 19.9419 67.95 17.44V6.97C67.95 4.46815 65.9219 2.44 63.42 2.44Z" fill="url(#paint7_linear_17_969)"/>
<path d="M63.32 2.34H6.87003C4.36818 2.34 2.34003 4.36815 2.34003 6.87V17.34C2.34003 19.8418 4.36818 21.87 6.87003 21.87H63.32C65.8219 21.87 67.85 19.8418 67.85 17.34V6.87C67.85 4.36815 65.8219 2.34 63.32 2.34Z" fill="url(#paint8_linear_17_969)"/>
<path d="M63.22 2.24001H6.76999C4.26814 2.24001 2.23999 4.26816 2.23999 6.77001V17.24C2.23999 19.7419 4.26814 21.77 6.76999 21.77H63.22C65.7218 21.77 67.75 19.7419 67.75 17.24V6.77001C67.75 4.26816 65.7218 2.24001 63.22 2.24001Z" fill="url(#paint9_linear_17_969)"/>
<path d="M63.12 2.14H6.67001C4.16816 2.14 2.14001 4.16815 2.14001 6.67V17.14C2.14001 19.6418 4.16816 21.67 6.67001 21.67H63.12C65.6219 21.67 67.65 19.6418 67.65 17.14V6.67C67.65 4.16815 65.6219 2.14 63.12 2.14Z" fill="url(#paint10_linear_17_969)"/>
<path d="M63.02 2.03999H6.56998C4.06813 2.03999 2.03998 4.06814 2.03998 6.56999V17.04C2.03998 19.5418 4.06813 21.57 6.56998 21.57H63.02C65.5218 21.57 67.55 19.5418 67.55 17.04V6.56999C67.55 4.06814 65.5218 2.03999 63.02 2.03999Z" fill="url(#paint11_linear_17_969)"/>
<path d="M62.91 1.92999H6.45999C3.95814 1.92999 1.92999 3.95814 1.92999 6.45999V16.93C1.92999 19.4318 3.95814 21.46 6.45999 21.46H62.91C65.4118 21.46 67.44 19.4318 67.44 16.93V6.45999C67.44 3.95814 65.4118 1.92999 62.91 1.92999Z" fill="url(#paint12_linear_17_969)"/>
<path d="M62.81 1.83H6.36002C3.85817 1.83 1.83002 3.85815 1.83002 6.36V16.83C1.83002 19.3319 3.85817 21.36 6.36002 21.36H62.81C65.3119 21.36 67.34 19.3319 67.34 16.83V6.36C67.34 3.85815 65.3119 1.83 62.81 1.83Z" fill="url(#paint13_linear_17_969)"/>
<path d="M62.71 1.73H6.25998C3.75813 1.73 1.72998 3.75815 1.72998 6.26V16.73C1.72998 19.2318 3.75813 21.26 6.25998 21.26H62.71C65.2118 21.26 67.24 19.2318 67.24 16.73V6.26C67.24 3.75815 65.2118 1.73 62.71 1.73Z" fill="url(#paint14_linear_17_969)"/>
<path d="M62.61 1.63H6.16C3.65815 1.63 1.63 3.65815 1.63 6.16V16.63C1.63 19.1319 3.65815 21.16 6.16 21.16H62.61C65.1119 21.16 67.14 19.1319 67.14 16.63V6.16C67.14 3.65815 65.1119 1.63 62.61 1.63Z" fill="url(#paint15_linear_17_969)"/>
<path d="M62.51 1.53H6.06003C3.55818 1.53 1.53003 3.55815 1.53003 6.06V16.53C1.53003 19.0318 3.55818 21.06 6.06003 21.06H62.51C65.0119 21.06 67.04 19.0318 67.04 16.53V6.06C67.04 3.55815 65.0119 1.53 62.51 1.53Z" fill="url(#paint16_linear_17_969)"/>
<path d="M62.4 1.42H5.94998C3.44813 1.42 1.41998 3.44815 1.41998 5.95V16.42C1.41998 18.9218 3.44813 20.95 5.94998 20.95H62.4C64.9018 20.95 66.93 18.9218 66.93 16.42V5.95C66.93 3.44815 64.9018 1.42 62.4 1.42Z" fill="url(#paint17_linear_17_969)"/>
<path d="M62.3 1.32001H5.85001C3.34816 1.32001 1.32001 3.34816 1.32001 5.85001V16.32C1.32001 18.8219 3.34816 20.85 5.85001 20.85H62.3C64.8019 20.85 66.83 18.8219 66.83 16.32V5.85001C66.83 3.34816 64.8019 1.32001 62.3 1.32001Z" fill="url(#paint18_linear_17_969)"/>
<path d="M62.2 1.22H5.74997C3.24812 1.22 1.21997 3.24815 1.21997 5.75V16.22C1.21997 18.7218 3.24812 20.75 5.74997 20.75H62.2C64.7018 20.75 66.73 18.7218 66.73 16.22V5.75C66.73 3.24815 64.7018 1.22 62.2 1.22Z" fill="url(#paint19_linear_17_969)"/>
<path d="M62.1 1.12H5.65C3.14815 1.12 1.12 3.14815 1.12 5.65V16.12C1.12 18.6218 3.14815 20.65 5.65 20.65H62.1C64.6018 20.65 66.63 18.6218 66.63 16.12V5.65C66.63 3.14815 64.6018 1.12 62.1 1.12Z" fill="url(#paint20_linear_17_969)"/>
<path d="M62 1.02H5.55002C3.04817 1.02 1.02002 3.04815 1.02002 5.55V16.02C1.02002 18.5219 3.04817 20.55 5.55002 20.55H62C64.5019 20.55 66.53 18.5219 66.53 16.02V5.55C66.53 3.04815 64.5019 1.02 62 1.02Z" fill="url(#paint21_linear_17_969)"/>
<path d="M61.9 0.919998H5.44998C2.94813 0.919998 0.919983 2.94815 0.919983 5.45V15.92C0.919983 18.4218 2.94813 20.45 5.44998 20.45H61.9C64.4018 20.45 66.43 18.4218 66.43 15.92V5.45C66.43 2.94815 64.4018 0.919998 61.9 0.919998Z" fill="url(#paint22_linear_17_969)"/>
<path d="M61.79 0.809998H5.34C2.83815 0.809998 0.809998 2.83815 0.809998 5.34V15.81C0.809998 18.3118 2.83815 20.34 5.34 20.34H61.79C64.2918 20.34 66.32 18.3118 66.32 15.81V5.34C66.32 2.83815 64.2918 0.809998 61.79 0.809998Z" fill="url(#paint23_linear_17_969)"/>
<path d="M61.69 0.710007H5.24002C2.73817 0.710007 0.710022 2.73816 0.710022 5.24001V15.71C0.710022 18.2119 2.73817 20.24 5.24002 20.24H61.69C64.1919 20.24 66.22 18.2119 66.22 15.71V5.24001C66.22 2.73816 64.1919 0.710007 61.69 0.710007Z" fill="url(#paint24_linear_17_969)"/>
<path d="M61.59 0.610001H5.13999C2.63814 0.610001 0.609985 2.63815 0.609985 5.14V15.61C0.609985 18.1119 2.63814 20.14 5.13999 20.14H61.59C64.0918 20.14 66.12 18.1119 66.12 15.61V5.14C66.12 2.63815 64.0918 0.610001 61.59 0.610001Z" fill="url(#paint25_linear_17_969)"/>
<path d="M61.49 0.509995H5.04001C2.53816 0.509995 0.51001 2.53814 0.51001 5.03999V15.51C0.51001 18.0118 2.53816 20.04 5.04001 20.04H61.49C63.9919 20.04 66.02 18.0118 66.02 15.51V5.03999C66.02 2.53814 63.9919 0.509995 61.49 0.509995Z" fill="url(#paint26_linear_17_969)"/>
<path d="M61.39 0.410004H4.93997C2.43812 0.410004 0.409973 2.43815 0.409973 4.94V15.41C0.409973 17.9119 2.43812 19.94 4.93997 19.94H61.39C63.8918 19.94 65.92 17.9119 65.92 15.41V4.94C65.92 2.43815 63.8918 0.410004 61.39 0.410004Z" fill="url(#paint27_linear_17_969)"/>
<path d="M61.29 0.309998H4.84C2.33815 0.309998 0.309998 2.33815 0.309998 4.84V15.31C0.309998 17.8118 2.33815 19.84 4.84 19.84H61.29C63.7918 19.84 65.82 17.8118 65.82 15.31V4.84C65.82 2.33815 63.7918 0.309998 61.29 0.309998Z" fill="url(#paint28_linear_17_969)"/>
<path d="M61.18 0.199997H4.73001C2.22816 0.199997 0.200012 2.22815 0.200012 4.73V15.2C0.200012 17.7018 2.22816 19.73 4.73001 19.73H61.18C63.6819 19.73 65.71 17.7018 65.71 15.2V4.73C65.71 2.22815 63.6819 0.199997 61.18 0.199997Z" fill="url(#paint29_linear_17_969)"/>
<path d="M61.08 0.100006H4.62998C2.12813 0.100006 0.0999756 2.12816 0.0999756 4.63001V15.1C0.0999756 17.6019 2.12813 19.63 4.62998 19.63H61.08C63.5818 19.63 65.61 17.6019 65.61 15.1V4.63001C65.61 2.12816 63.5818 0.100006 61.08 0.100006Z" fill="url(#paint30_linear_17_969)"/>
<path d="M60.98 0H4.53C2.02815 0 0 2.02815 0 4.53V15C0 17.5019 2.02815 19.53 4.53 19.53H60.98C63.4818 19.53 65.51 17.5019 65.51 15V4.53C65.51 2.02815 63.4818 0 60.98 0Z" fill="url(#paint31_linear_17_969)"/>
<path d="M61.65 1.48H6.56003C4.05818 1.48 2.03003 3.50815 2.03003 6.01V16.07C2.03003 18.5718 4.05818 20.6 6.56003 20.6H61.65C64.1519 20.6 66.18 18.5718 66.18 16.07V6.01C66.18 3.50815 64.1519 1.48 61.65 1.48Z" fill="url(#paint32_linear_17_969)"/>
<path d="M64.13 28.42H7.68002C5.17817 28.42 3.15002 30.4481 3.15002 32.95V43.42C3.15002 45.9218 5.17817 47.95 7.68002 47.95H64.13C66.6319 47.95 68.66 45.9218 68.66 43.42V32.95C68.66 30.4481 66.6319 28.42 64.13 28.42Z" fill="url(#paint33_linear_17_969)"/>
<path d="M64.03 28.32H7.57999C5.07814 28.32 3.04999 30.3482 3.04999 32.85V43.32C3.04999 45.8219 5.07814 47.85 7.57999 47.85H64.03C66.5318 47.85 68.56 45.8219 68.56 43.32V32.85C68.56 30.3482 66.5318 28.32 64.03 28.32Z" fill="url(#paint34_linear_17_969)"/>
<path d="M63.93 28.22H7.48001C4.97816 28.22 2.95001 30.2482 2.95001 32.75V43.22C2.95001 45.7219 4.97816 47.75 7.48001 47.75H63.93C66.4319 47.75 68.46 45.7219 68.46 43.22V32.75C68.46 30.2482 66.4319 28.22 63.93 28.22Z" fill="url(#paint35_linear_17_969)"/>
<path d="M63.83 28.12H7.37998C4.87813 28.12 2.84998 30.1482 2.84998 32.65V43.12C2.84998 45.6219 4.87813 47.65 7.37998 47.65H63.83C66.3318 47.65 68.36 45.6219 68.36 43.12V32.65C68.36 30.1482 66.3318 28.12 63.83 28.12Z" fill="url(#paint36_linear_17_969)"/>
<path d="M63.73 28.02H7.28C4.77815 28.02 2.75 30.0482 2.75 32.55V43.02C2.75 45.5219 4.77815 47.55 7.28 47.55H63.73C66.2318 47.55 68.26 45.5219 68.26 43.02V32.55C68.26 30.0482 66.2318 28.02 63.73 28.02Z" fill="url(#paint37_linear_17_969)"/>
<path d="M63.63 27.91H7.18002C4.67817 27.91 2.65002 29.9382 2.65002 32.44V42.91C2.65002 45.4119 4.67817 47.44 7.18002 47.44H63.63C66.1319 47.44 68.16 45.4119 68.16 42.91V32.44C68.16 29.9382 66.1319 27.91 63.63 27.91Z" fill="url(#paint38_linear_17_969)"/>
<path d="M63.52 27.81H7.06998C4.56813 27.81 2.53998 29.8381 2.53998 32.34V42.81C2.53998 45.3118 4.56813 47.34 7.06998 47.34H63.52C66.0218 47.34 68.05 45.3118 68.05 42.81V32.34C68.05 29.8381 66.0218 27.81 63.52 27.81Z" fill="url(#paint39_linear_17_969)"/>
<path d="M63.42 27.71H6.97C4.46815 27.71 2.44 29.7382 2.44 32.24V42.71C2.44 45.2119 4.46815 47.24 6.97 47.24H63.42C65.9219 47.24 67.95 45.2119 67.95 42.71V32.24C67.95 29.7382 65.9219 27.71 63.42 27.71Z" fill="url(#paint40_linear_17_969)"/>
<path d="M63.32 27.61H6.87003C4.36818 27.61 2.34003 29.6381 2.34003 32.14V42.61C2.34003 45.1119 4.36818 47.14 6.87003 47.14H63.32C65.8219 47.14 67.85 45.1119 67.85 42.61V32.14C67.85 29.6381 65.8219 27.61 63.32 27.61Z" fill="url(#paint41_linear_17_969)"/>
<path d="M63.22 27.51H6.76999C4.26814 27.51 2.23999 29.5382 2.23999 32.04V42.51C2.23999 45.0119 4.26814 47.04 6.76999 47.04H63.22C65.7218 47.04 67.75 45.0119 67.75 42.51V32.04C67.75 29.5382 65.7218 27.51 63.22 27.51Z" fill="url(#paint42_linear_17_969)"/>
<path d="M63.12 27.41H6.67001C4.16816 27.41 2.14001 29.4382 2.14001 31.94V42.41C2.14001 44.9119 4.16816 46.94 6.67001 46.94H63.12C65.6219 46.94 67.65 44.9119 67.65 42.41V31.94C67.65 29.4382 65.6219 27.41 63.12 27.41Z" fill="url(#paint43_linear_17_969)"/>
<path d="M63.02 27.3H6.56998C4.06813 27.3 2.03998 29.3282 2.03998 31.83V42.3C2.03998 44.8019 4.06813 46.83 6.56998 46.83H63.02C65.5218 46.83 67.55 44.8019 67.55 42.3V31.83C67.55 29.3282 65.5218 27.3 63.02 27.3Z" fill="url(#paint44_linear_17_969)"/>
<path d="M62.91 27.2H6.45999C3.95814 27.2 1.92999 29.2282 1.92999 31.73V42.2C1.92999 44.7019 3.95814 46.73 6.45999 46.73H62.91C65.4118 46.73 67.44 44.7019 67.44 42.2V31.73C67.44 29.2282 65.4118 27.2 62.91 27.2Z" fill="url(#paint45_linear_17_969)"/>
<path d="M62.81 27.1H6.36002C3.85817 27.1 1.83002 29.1282 1.83002 31.63V42.1C1.83002 44.6019 3.85817 46.63 6.36002 46.63H62.81C65.3119 46.63 67.34 44.6019 67.34 42.1V31.63C67.34 29.1282 65.3119 27.1 62.81 27.1Z" fill="url(#paint46_linear_17_969)"/>
<path d="M62.71 27H6.25998C3.75813 27 1.72998 29.0282 1.72998 31.53V42C1.72998 44.5019 3.75813 46.53 6.25998 46.53H62.71C65.2118 46.53 67.24 44.5019 67.24 42V31.53C67.24 29.0282 65.2118 27 62.71 27Z" fill="url(#paint47_linear_17_969)"/>
<path d="M62.61 26.9H6.16C3.65815 26.9 1.63 28.9282 1.63 31.43V41.9C1.63 44.4019 3.65815 46.43 6.16 46.43H62.61C65.1119 46.43 67.14 44.4019 67.14 41.9V31.43C67.14 28.9282 65.1119 26.9 62.61 26.9Z" fill="url(#paint48_linear_17_969)"/>
<path d="M62.51 26.8H6.06003C3.55818 26.8 1.53003 28.8282 1.53003 31.33V41.8C1.53003 44.3019 3.55818 46.33 6.06003 46.33H62.51C65.0119 46.33 67.04 44.3019 67.04 41.8V31.33C67.04 28.8282 65.0119 26.8 62.51 26.8Z" fill="url(#paint49_linear_17_969)"/>
<path d="M62.4 26.69H5.94998C3.44813 26.69 1.41998 28.7182 1.41998 31.22V41.69C1.41998 44.1919 3.44813 46.22 5.94998 46.22H62.4C64.9018 46.22 66.93 44.1919 66.93 41.69V31.22C66.93 28.7182 64.9018 26.69 62.4 26.69Z" fill="url(#paint50_linear_17_969)"/>
<path d="M62.3 26.59H5.85001C3.34816 26.59 1.32001 28.6181 1.32001 31.12V41.59C1.32001 44.0918 3.34816 46.12 5.85001 46.12H62.3C64.8019 46.12 66.83 44.0918 66.83 41.59V31.12C66.83 28.6181 64.8019 26.59 62.3 26.59Z" fill="url(#paint51_linear_17_969)"/>
<path d="M62.2 26.49H5.74997C3.24812 26.49 1.21997 28.5182 1.21997 31.02V41.49C1.21997 43.9919 3.24812 46.02 5.74997 46.02H62.2C64.7018 46.02 66.73 43.9919 66.73 41.49V31.02C66.73 28.5182 64.7018 26.49 62.2 26.49Z" fill="url(#paint52_linear_17_969)"/>
<path d="M62.1 26.39H5.65C3.14815 26.39 1.12 28.4182 1.12 30.92V41.39C1.12 43.8918 3.14815 45.92 5.65 45.92H62.1C64.6018 45.92 66.63 43.8918 66.63 41.39V30.92C66.63 28.4182 64.6018 26.39 62.1 26.39Z" fill="url(#paint53_linear_17_969)"/>
<path d="M62 26.29H5.55002C3.04817 26.29 1.02002 28.3182 1.02002 30.82V41.29C1.02002 43.7919 3.04817 45.82 5.55002 45.82H62C64.5019 45.82 66.53 43.7919 66.53 41.29V30.82C66.53 28.3182 64.5019 26.29 62 26.29Z" fill="url(#paint54_linear_17_969)"/>
<path d="M61.9 26.18H5.44998C2.94813 26.18 0.919983 28.2082 0.919983 30.71V41.18C0.919983 43.6819 2.94813 45.71 5.44998 45.71H61.9C64.4018 45.71 66.43 43.6819 66.43 41.18V30.71C66.43 28.2082 64.4018 26.18 61.9 26.18Z" fill="url(#paint55_linear_17_969)"/>
<path d="M61.79 26.08H5.34C2.83815 26.08 0.809998 28.1082 0.809998 30.61V41.08C0.809998 43.5819 2.83815 45.61 5.34 45.61H61.79C64.2918 45.61 66.32 43.5819 66.32 41.08V30.61C66.32 28.1082 64.2918 26.08 61.79 26.08Z" fill="url(#paint56_linear_17_969)"/>
<path d="M61.69 25.98H5.24002C2.73817 25.98 0.710022 28.0082 0.710022 30.51V40.98C0.710022 43.4819 2.73817 45.51 5.24002 45.51H61.69C64.1919 45.51 66.22 43.4819 66.22 40.98V30.51C66.22 28.0082 64.1919 25.98 61.69 25.98Z" fill="url(#paint57_linear_17_969)"/>
<path d="M61.59 25.88H5.13999C2.63814 25.88 0.609985 27.9082 0.609985 30.41V40.88C0.609985 43.3819 2.63814 45.41 5.13999 45.41H61.59C64.0918 45.41 66.12 43.3819 66.12 40.88V30.41C66.12 27.9082 64.0918 25.88 61.59 25.88Z" fill="url(#paint58_linear_17_969)"/>
<path d="M61.49 25.78H5.04001C2.53816 25.78 0.51001 27.8081 0.51001 30.31V40.78C0.51001 43.2818 2.53816 45.31 5.04001 45.31H61.49C63.9919 45.31 66.02 43.2818 66.02 40.78V30.31C66.02 27.8081 63.9919 25.78 61.49 25.78Z" fill="url(#paint59_linear_17_969)"/>
<path d="M61.39 25.68H4.93997C2.43812 25.68 0.409973 27.7082 0.409973 30.21V40.68C0.409973 43.1819 2.43812 45.21 4.93997 45.21H61.39C63.8918 45.21 65.92 43.1819 65.92 40.68V30.21C65.92 27.7082 63.8918 25.68 61.39 25.68Z" fill="url(#paint60_linear_17_969)"/>
<path d="M61.29 25.57H4.84C2.33815 25.57 0.309998 27.5982 0.309998 30.1V40.57C0.309998 43.0719 2.33815 45.1 4.84 45.1H61.29C63.7918 45.1 65.82 43.0719 65.82 40.57V30.1C65.82 27.5982 63.7918 25.57 61.29 25.57Z" fill="url(#paint61_linear_17_969)"/>
<path d="M61.18 25.47H4.73001C2.22816 25.47 0.200012 27.4982 0.200012 30V40.47C0.200012 42.9719 2.22816 45 4.73001 45H61.18C63.6819 45 65.71 42.9719 65.71 40.47V30C65.71 27.4982 63.6819 25.47 61.18 25.47Z" fill="url(#paint62_linear_17_969)"/>
<path d="M61.08 25.37H4.62998C2.12813 25.37 0.0999756 27.3982 0.0999756 29.9V40.37C0.0999756 42.8719 2.12813 44.9 4.62998 44.9H61.08C63.5818 44.9 65.61 42.8719 65.61 40.37V29.9C65.61 27.3982 63.5818 25.37 61.08 25.37Z" fill="url(#paint63_linear_17_969)"/>
<path d="M60.98 25.27H4.53C2.02815 25.27 0 27.2982 0 29.8V40.27C0 42.7719 2.02815 44.8 4.53 44.8H60.98C63.4818 44.8 65.51 42.7719 65.51 40.27V29.8C65.51 27.2982 63.4818 25.27 60.98 25.27Z" fill="url(#paint64_linear_17_969)"/>
<path d="M64.13 53.69H7.68002C5.17817 53.69 3.15002 55.7182 3.15002 58.22V68.69C3.15002 71.1919 5.17817 73.22 7.68002 73.22H64.13C66.6319 73.22 68.66 71.1919 68.66 68.69V58.22C68.66 55.7182 66.6319 53.69 64.13 53.69Z" fill="url(#paint65_linear_17_969)"/>
<path d="M64.03 53.59H7.57999C5.07814 53.59 3.04999 55.6182 3.04999 58.12V68.59C3.04999 71.0919 5.07814 73.12 7.57999 73.12H64.03C66.5318 73.12 68.56 71.0919 68.56 68.59V58.12C68.56 55.6182 66.5318 53.59 64.03 53.59Z" fill="url(#paint66_linear_17_969)"/>
<path d="M63.93 53.49H7.48001C4.97816 53.49 2.95001 55.5182 2.95001 58.02V68.49C2.95001 70.9919 4.97816 73.02 7.48001 73.02H63.93C66.4319 73.02 68.46 70.9919 68.46 68.49V58.02C68.46 55.5182 66.4319 53.49 63.93 53.49Z" fill="url(#paint67_linear_17_969)"/>
<path d="M63.83 53.39H7.37998C4.87813 53.39 2.84998 55.4182 2.84998 57.92V68.39C2.84998 70.8919 4.87813 72.92 7.37998 72.92H63.83C66.3318 72.92 68.36 70.8919 68.36 68.39V57.92C68.36 55.4182 66.3318 53.39 63.83 53.39Z" fill="url(#paint68_linear_17_969)"/>
<path d="M63.73 53.29H7.28C4.77815 53.29 2.75 55.3182 2.75 57.82V68.29C2.75 70.7919 4.77815 72.82 7.28 72.82H63.73C66.2318 72.82 68.26 70.7919 68.26 68.29V57.82C68.26 55.3182 66.2318 53.29 63.73 53.29Z" fill="url(#paint69_linear_17_969)"/>
<path d="M63.63 53.18H7.18002C4.67817 53.18 2.65002 55.2082 2.65002 57.71V68.18C2.65002 70.6819 4.67817 72.71 7.18002 72.71H63.63C66.1319 72.71 68.16 70.6819 68.16 68.18V57.71C68.16 55.2082 66.1319 53.18 63.63 53.18Z" fill="url(#paint70_linear_17_969)"/>
<path d="M63.52 53.08H7.06998C4.56813 53.08 2.53998 55.1082 2.53998 57.61V68.08C2.53998 70.5819 4.56813 72.61 7.06998 72.61H63.52C66.0218 72.61 68.05 70.5819 68.05 68.08V57.61C68.05 55.1082 66.0218 53.08 63.52 53.08Z" fill="url(#paint71_linear_17_969)"/>
<path d="M63.42 52.98H6.97C4.46815 52.98 2.44 55.0082 2.44 57.51V67.98C2.44 70.4819 4.46815 72.51 6.97 72.51H63.42C65.9219 72.51 67.95 70.4819 67.95 67.98V57.51C67.95 55.0082 65.9219 52.98 63.42 52.98Z" fill="url(#paint72_linear_17_969)"/>
<path d="M63.32 52.88H6.87003C4.36818 52.88 2.34003 54.9082 2.34003 57.41V67.88C2.34003 70.3819 4.36818 72.41 6.87003 72.41H63.32C65.8219 72.41 67.85 70.3819 67.85 67.88V57.41C67.85 54.9082 65.8219 52.88 63.32 52.88Z" fill="url(#paint73_linear_17_969)"/>
<path d="M63.22 52.78H6.76999C4.26814 52.78 2.23999 54.8082 2.23999 57.31V67.78C2.23999 70.2818 4.26814 72.31 6.76999 72.31H63.22C65.7218 72.31 67.75 70.2818 67.75 67.78V57.31C67.75 54.8082 65.7218 52.78 63.22 52.78Z" fill="url(#paint74_linear_17_969)"/>
<path d="M63.12 52.67H6.67001C4.16816 52.67 2.14001 54.6982 2.14001 57.2V67.67C2.14001 70.1719 4.16816 72.2 6.67001 72.2H63.12C65.6219 72.2 67.65 70.1719 67.65 67.67V57.2C67.65 54.6982 65.6219 52.67 63.12 52.67Z" fill="url(#paint75_linear_17_969)"/>
<path d="M63.02 52.57H6.56998C4.06813 52.57 2.03998 54.5982 2.03998 57.1V67.57C2.03998 70.0719 4.06813 72.1 6.56998 72.1H63.02C65.5218 72.1 67.55 70.0719 67.55 67.57V57.1C67.55 54.5982 65.5218 52.57 63.02 52.57Z" fill="url(#paint76_linear_17_969)"/>
<path d="M62.91 52.47H6.45999C3.95814 52.47 1.92999 54.4982 1.92999 57V67.47C1.92999 69.9719 3.95814 72 6.45999 72H62.91C65.4118 72 67.44 69.9719 67.44 67.47V57C67.44 54.4982 65.4118 52.47 62.91 52.47Z" fill="url(#paint77_linear_17_969)"/>
<path d="M62.81 52.37H6.36002C3.85817 52.37 1.83002 54.3982 1.83002 56.9V67.37C1.83002 69.8719 3.85817 71.9 6.36002 71.9H62.81C65.3119 71.9 67.34 69.8719 67.34 67.37V56.9C67.34 54.3982 65.3119 52.37 62.81 52.37Z" fill="url(#paint78_linear_17_969)"/>
<path d="M62.71 52.27H6.25998C3.75813 52.27 1.72998 54.2982 1.72998 56.8V67.27C1.72998 69.7719 3.75813 71.8 6.25998 71.8H62.71C65.2118 71.8 67.24 69.7719 67.24 67.27V56.8C67.24 54.2982 65.2118 52.27 62.71 52.27Z" fill="url(#paint79_linear_17_969)"/>
<path d="M62.61 52.17H6.16C3.65815 52.17 1.63 54.1982 1.63 56.7V67.17C1.63 69.6719 3.65815 71.7 6.16 71.7H62.61C65.1119 71.7 67.14 69.6719 67.14 67.17V56.7C67.14 54.1982 65.1119 52.17 62.61 52.17Z" fill="url(#paint80_linear_17_969)"/>
<path d="M62.51 52.06H6.06003C3.55818 52.06 1.53003 54.0882 1.53003 56.59V67.06C1.53003 69.5619 3.55818 71.59 6.06003 71.59H62.51C65.0119 71.59 67.04 69.5619 67.04 67.06V56.59C67.04 54.0882 65.0119 52.06 62.51 52.06Z" fill="url(#paint81_linear_17_969)"/>
<path d="M62.4 51.96H5.94998C3.44813 51.96 1.41998 53.9882 1.41998 56.49V66.96C1.41998 69.4619 3.44813 71.49 5.94998 71.49H62.4C64.9018 71.49 66.93 69.4619 66.93 66.96V56.49C66.93 53.9882 64.9018 51.96 62.4 51.96Z" fill="url(#paint82_linear_17_969)"/>
<path d="M62.3 51.86H5.85001C3.34816 51.86 1.32001 53.8882 1.32001 56.39V66.86C1.32001 69.3619 3.34816 71.39 5.85001 71.39H62.3C64.8019 71.39 66.83 69.3619 66.83 66.86V56.39C66.83 53.8882 64.8019 51.86 62.3 51.86Z" fill="url(#paint83_linear_17_969)"/>
<path d="M62.2 51.76H5.74997C3.24812 51.76 1.21997 53.7882 1.21997 56.29V66.76C1.21997 69.2619 3.24812 71.29 5.74997 71.29H62.2C64.7018 71.29 66.73 69.2619 66.73 66.76V56.29C66.73 53.7882 64.7018 51.76 62.2 51.76Z" fill="url(#paint84_linear_17_969)"/>
<path d="M62.1 51.66H5.65C3.14815 51.66 1.12 53.6882 1.12 56.19V66.66C1.12 69.1619 3.14815 71.19 5.65 71.19H62.1C64.6018 71.19 66.63 69.1619 66.63 66.66V56.19C66.63 53.6882 64.6018 51.66 62.1 51.66Z" fill="url(#paint85_linear_17_969)"/>
<path d="M62 51.56H5.55002C3.04817 51.56 1.02002 53.5882 1.02002 56.09V66.56C1.02002 69.0619 3.04817 71.09 5.55002 71.09H62C64.5019 71.09 66.53 69.0619 66.53 66.56V56.09C66.53 53.5882 64.5019 51.56 62 51.56Z" fill="url(#paint86_linear_17_969)"/>
<path d="M61.9 51.45H5.44998C2.94813 51.45 0.919983 53.4782 0.919983 55.98V66.45C0.919983 68.9519 2.94813 70.98 5.44998 70.98H61.9C64.4018 70.98 66.43 68.9519 66.43 66.45V55.98C66.43 53.4782 64.4018 51.45 61.9 51.45Z" fill="url(#paint87_linear_17_969)"/>
<path d="M61.79 51.35H5.34C2.83815 51.35 0.809998 53.3782 0.809998 55.88V66.35C0.809998 68.8519 2.83815 70.88 5.34 70.88H61.79C64.2918 70.88 66.32 68.8519 66.32 66.35V55.88C66.32 53.3782 64.2918 51.35 61.79 51.35Z" fill="url(#paint88_linear_17_969)"/>
<path d="M61.69 51.25H5.24002C2.73817 51.25 0.710022 53.2781 0.710022 55.78V66.25C0.710022 68.7519 2.73817 70.78 5.24002 70.78H61.69C64.1919 70.78 66.22 68.7519 66.22 66.25V55.78C66.22 53.2781 64.1919 51.25 61.69 51.25Z" fill="url(#paint89_linear_17_969)"/>
<path d="M61.59 51.15H5.13999C2.63814 51.15 0.609985 53.1782 0.609985 55.68V66.15C0.609985 68.6519 2.63814 70.68 5.13999 70.68H61.59C64.0918 70.68 66.12 68.6519 66.12 66.15V55.68C66.12 53.1782 64.0918 51.15 61.59 51.15Z" fill="url(#paint90_linear_17_969)"/>
<path d="M61.49 51.05H5.04001C2.53816 51.05 0.51001 53.0782 0.51001 55.58V66.05C0.51001 68.5519 2.53816 70.58 5.04001 70.58H61.49C63.9919 70.58 66.02 68.5519 66.02 66.05V55.58C66.02 53.0782 63.9919 51.05 61.49 51.05Z" fill="url(#paint91_linear_17_969)"/>
<path d="M61.39 50.94H4.93997C2.43812 50.94 0.409973 52.9682 0.409973 55.47V65.94C0.409973 68.4419 2.43812 70.47 4.93997 70.47H61.39C63.8918 70.47 65.92 68.4419 65.92 65.94V55.47C65.92 52.9682 63.8918 50.94 61.39 50.94Z" fill="url(#paint92_linear_17_969)"/>
<path d="M61.29 50.84H4.84C2.33815 50.84 0.309998 52.8682 0.309998 55.37V65.84C0.309998 68.3419 2.33815 70.37 4.84 70.37H61.29C63.7918 70.37 65.82 68.3419 65.82 65.84V55.37C65.82 52.8682 63.7918 50.84 61.29 50.84Z" fill="url(#paint93_linear_17_969)"/>
<path d="M61.18 50.74H4.73001C2.22816 50.74 0.200012 52.7682 0.200012 55.27V65.74C0.200012 68.2419 2.22816 70.27 4.73001 70.27H61.18C63.6819 70.27 65.71 68.2419 65.71 65.74V55.27C65.71 52.7682 63.6819 50.74 61.18 50.74Z" fill="url(#paint94_linear_17_969)"/>
<path d="M61.08 50.64H4.62998C2.12813 50.64 0.0999756 52.6682 0.0999756 55.17V65.64C0.0999756 68.1419 2.12813 70.17 4.62998 70.17H61.08C63.5818 70.17 65.61 68.1419 65.61 65.64V55.17C65.61 52.6682 63.5818 50.64 61.08 50.64Z" fill="url(#paint95_linear_17_969)"/>
<path d="M60.98 50.54H4.53C2.02815 50.54 0 52.5682 0 55.07V65.54C0 68.0419 2.02815 70.07 4.53 70.07H60.98C63.4818 70.07 65.51 68.0419 65.51 65.54V55.07C65.51 52.5682 63.4818 50.54 60.98 50.54Z" fill="url(#paint96_linear_17_969)"/>
<path d="M11.17 13.7C13.208 13.7 14.86 12.0793 14.86 10.08C14.86 8.08074 13.208 6.46001 11.17 6.46001C9.13211 6.46001 7.48004 8.08074 7.48004 10.08C7.48004 12.0793 9.13211 13.7 11.17 13.7Z" fill="url(#paint97_linear_17_969)"/>
<path d="M11.15 13.68C13.188 13.68 14.84 12.0593 14.84 10.06C14.84 8.06073 13.188 6.44 11.15 6.44C9.11209 6.44 7.46002 8.06073 7.46002 10.06C7.46002 12.0593 9.11209 13.68 11.15 13.68Z" fill="url(#paint98_linear_17_969)"/>
<path d="M11.13 13.66C13.1679 13.66 14.82 12.0393 14.82 10.04C14.82 8.04074 13.1679 6.42001 11.13 6.42001C9.09207 6.42001 7.44 8.04074 7.44 10.04C7.44 12.0393 9.09207 13.66 11.13 13.66Z" fill="url(#paint99_linear_17_969)"/>
<path d="M11.11 13.64C13.148 13.64 14.8 12.0193 14.8 10.02C14.8 8.02074 13.148 6.40001 11.11 6.40001C9.07211 6.40001 7.42004 8.02074 7.42004 10.02C7.42004 12.0193 9.07211 13.64 11.11 13.64Z" fill="url(#paint100_linear_17_969)"/>
<path d="M11.08 13.62C13.1179 13.62 14.77 11.9993 14.77 10C14.77 8.00073 13.1179 6.38 11.08 6.38C9.04208 6.38 7.39001 8.00073 7.39001 10C7.39001 11.9993 9.04208 13.62 11.08 13.62Z" fill="url(#paint101_linear_17_969)"/>
<path d="M11.06 13.6C13.0979 13.6 14.75 11.9793 14.75 9.98C14.75 7.98073 13.0979 6.36 11.06 6.36C9.02206 6.36 7.37 7.98073 7.37 9.98C7.37 11.9793 9.02206 13.6 11.06 13.6Z" fill="url(#paint102_linear_17_969)"/>
<path d="M11.04 13.58C13.078 13.58 14.73 11.9593 14.73 9.96001C14.73 7.96074 13.078 6.34001 11.04 6.34001C9.00211 6.34001 7.35004 7.96074 7.35004 9.96001C7.35004 11.9593 9.00211 13.58 11.04 13.58Z" fill="url(#paint103_linear_17_969)"/>
<path d="M11.02 13.56C13.0579 13.56 14.71 11.9393 14.71 9.94001C14.71 7.94074 13.0579 6.32001 11.02 6.32001C8.98209 6.32001 7.33002 7.94074 7.33002 9.94001C7.33002 11.9393 8.98209 13.56 11.02 13.56Z" fill="url(#paint104_linear_17_969)"/>
<path d="M11 13.54C13.0379 13.54 14.69 11.9193 14.69 9.92C14.69 7.92073 13.0379 6.3 11 6.3C8.96207 6.3 7.31 7.92073 7.31 9.92C7.31 11.9193 8.96207 13.54 11 13.54Z" fill="url(#paint105_linear_17_969)"/>
<path d="M10.98 13.52C13.018 13.52 14.67 11.8993 14.67 9.90001C14.67 7.90074 13.018 6.28001 10.98 6.28001C8.94211 6.28001 7.29004 7.90074 7.29004 9.90001C7.29004 11.8993 8.94211 13.52 10.98 13.52Z" fill="url(#paint106_linear_17_969)"/>
<path d="M10.96 13.5C12.998 13.5 14.65 11.8793 14.65 9.88001C14.65 7.88074 12.998 6.26001 10.96 6.26001C8.92209 6.26001 7.27002 7.88074 7.27002 9.88001C7.27002 11.8793 8.92209 13.5 10.96 13.5Z" fill="url(#paint107_linear_17_969)"/>
<path d="M10.94 13.48C12.9779 13.48 14.63 11.8593 14.63 9.86001C14.63 7.86073 12.9779 6.24001 10.94 6.24001C8.90207 6.24001 7.25 7.86073 7.25 9.86001C7.25 11.8593 8.90207 13.48 10.94 13.48Z" fill="url(#paint108_linear_17_969)"/>
<path d="M10.92 13.46C12.958 13.46 14.61 11.8393 14.61 9.84C14.61 7.84073 12.958 6.22 10.92 6.22C8.88211 6.22 7.23004 7.84073 7.23004 9.84C7.23004 11.8393 8.88211 13.46 10.92 13.46Z" fill="url(#paint109_linear_17_969)"/>
<path d="M10.9 13.43C12.938 13.43 14.59 11.8093 14.59 9.81C14.59 7.81073 12.938 6.19 10.9 6.19C8.86209 6.19 7.21002 7.81073 7.21002 9.81C7.21002 11.8093 8.86209 13.43 10.9 13.43Z" fill="url(#paint110_linear_17_969)"/>
<path d="M10.87 13.41C12.9079 13.41 14.56 11.7893 14.56 9.79001C14.56 7.79074 12.9079 6.17001 10.87 6.17001C8.83206 6.17001 7.17999 7.79074 7.17999 9.79001C7.17999 11.7893 8.83206 13.41 10.87 13.41Z" fill="url(#paint111_linear_17_969)"/>
<path d="M10.85 13.39C12.888 13.39 14.54 11.7693 14.54 9.77001C14.54 7.77074 12.888 6.15001 10.85 6.15001C8.8121 6.15001 7.16003 7.77074 7.16003 9.77001C7.16003 11.7693 8.8121 13.39 10.85 13.39Z" fill="url(#paint112_linear_17_969)"/>
<path d="M10.83 13.37C12.8679 13.37 14.52 11.7493 14.52 9.75C14.52 7.75073 12.8679 6.13 10.83 6.13C8.79208 6.13 7.14001 7.75073 7.14001 9.75C7.14001 11.7493 8.79208 13.37 10.83 13.37Z" fill="url(#paint113_linear_17_969)"/>
<path d="M10.81 13.35C12.8479 13.35 14.5 11.7293 14.5 9.73C14.5 7.73073 12.8479 6.11 10.81 6.11C8.77206 6.11 7.12 7.73073 7.12 9.73C7.12 11.7293 8.77206 13.35 10.81 13.35Z" fill="url(#paint114_linear_17_969)"/>
<path d="M10.79 13.33C12.828 13.33 14.48 11.7093 14.48 9.71001C14.48 7.71074 12.828 6.09001 10.79 6.09001C8.75211 6.09001 7.10004 7.71074 7.10004 9.71001C7.10004 11.7093 8.75211 13.33 10.79 13.33Z" fill="url(#paint115_linear_17_969)"/>
<path d="M10.77 13.31C12.8079 13.31 14.46 11.6893 14.46 9.69001C14.46 7.69074 12.8079 6.07001 10.77 6.07001C8.73209 6.07001 7.08002 7.69074 7.08002 9.69001C7.08002 11.6893 8.73209 13.31 10.77 13.31Z" fill="url(#paint116_linear_17_969)"/>
<path d="M10.75 13.29C12.7879 13.29 14.44 11.6693 14.44 9.67C14.44 7.67073 12.7879 6.05 10.75 6.05C8.71207 6.05 7.06 7.67073 7.06 9.67C7.06 11.6693 8.71207 13.29 10.75 13.29Z" fill="url(#paint117_linear_17_969)"/>
<path d="M10.73 13.27C12.768 13.27 14.42 11.6493 14.42 9.65001C14.42 7.65074 12.768 6.03001 10.73 6.03001C8.69211 6.03001 7.04004 7.65074 7.04004 9.65001C7.04004 11.6493 8.69211 13.27 10.73 13.27Z" fill="url(#paint118_linear_17_969)"/>
<path d="M10.71 13.25C12.748 13.25 14.4 11.6293 14.4 9.63001C14.4 7.63074 12.748 6.01001 10.71 6.01001C8.67209 6.01001 7.02002 7.63074 7.02002 9.63001C7.02002 11.6293 8.67209 13.25 10.71 13.25Z" fill="url(#paint119_linear_17_969)"/>
<path d="M10.69 13.23C12.7279 13.23 14.38 11.6093 14.38 9.61001C14.38 7.61073 12.7279 5.99001 10.69 5.99001C8.65207 5.99001 7 7.61073 7 9.61001C7 11.6093 8.65207 13.23 10.69 13.23Z" fill="url(#paint120_linear_17_969)"/>
<path d="M10.66 13.21C12.698 13.21 14.35 11.5893 14.35 9.59C14.35 7.59073 12.698 5.97 10.66 5.97C8.6221 5.97 6.97003 7.59073 6.97003 9.59C6.97003 11.5893 8.6221 13.21 10.66 13.21Z" fill="url(#paint121_linear_17_969)"/>
<path d="M10.64 13.19C12.6779 13.19 14.33 11.5693 14.33 9.57001C14.33 7.57074 12.6779 5.95001 10.64 5.95001C8.60208 5.95001 6.95001 7.57074 6.95001 9.57001C6.95001 11.5693 8.60208 13.19 10.64 13.19Z" fill="url(#paint122_linear_17_969)"/>
<path d="M10.62 13.17C12.6579 13.17 14.31 11.5493 14.31 9.55001C14.31 7.55074 12.6579 5.93001 10.62 5.93001C8.58206 5.93001 6.92999 7.55074 6.92999 9.55001C6.92999 11.5493 8.58206 13.17 10.62 13.17Z" fill="url(#paint123_linear_17_969)"/>
<path d="M10.6 13.15C12.638 13.15 14.29 11.5293 14.29 9.53C14.29 7.53073 12.638 5.91 10.6 5.91C8.5621 5.91 6.91003 7.53073 6.91003 9.53C6.91003 11.5293 8.5621 13.15 10.6 13.15Z" fill="url(#paint124_linear_17_969)"/>
<path d="M10.58 13.13C12.6179 13.13 14.27 11.5093 14.27 9.51002C14.27 7.51074 12.6179 5.89001 10.58 5.89001C8.54208 5.89001 6.89001 7.51074 6.89001 9.51002C6.89001 11.5093 8.54208 13.13 10.58 13.13Z" fill="url(#paint125_linear_17_969)"/>
<path d="M10.56 13.11C12.5979 13.11 14.25 11.4893 14.25 9.49001C14.25 7.49074 12.5979 5.87001 10.56 5.87001C8.52206 5.87001 6.87 7.49074 6.87 9.49001C6.87 11.4893 8.52206 13.11 10.56 13.11Z" fill="url(#paint126_linear_17_969)"/>
<path d="M10.54 13.09C12.578 13.09 14.23 11.4693 14.23 9.47001C14.23 7.47074 12.578 5.85001 10.54 5.85001C8.50211 5.85001 6.85004 7.47074 6.85004 9.47001C6.85004 11.4693 8.50211 13.09 10.54 13.09Z" fill="url(#paint127_linear_17_969)"/>
<path d="M10.52 13.06C12.5579 13.06 14.21 11.4393 14.21 9.44001C14.21 7.44074 12.5579 5.82001 10.52 5.82001C8.48209 5.82001 6.83002 7.44074 6.83002 9.44001C6.83002 11.4393 8.48209 13.06 10.52 13.06Z" fill="url(#paint128_linear_17_969)"/>
<path style="mix-blend-mode:multiply" d="M10.86 13.54C12.8979 13.54 14.55 11.9193 14.55 9.92C14.55 7.92073 12.8979 6.3 10.86 6.3C8.82205 6.3 7.16998 7.92073 7.16998 9.92C7.16998 11.9193 8.82205 13.54 10.86 13.54Z" fill="url(#paint129_linear_17_969)"/>
<g opacity="0.5">
<path d="M5.44 19.53C10.07 19.44 14.7 19.37 19.32 19.34L33.2 19.28L47.08 19.34C51.71 19.37 56.34 19.44 60.96 19.53C56.33 19.62 51.7 19.69 47.08 19.72L33.2 19.78L19.32 19.72C14.69 19.69 10.06 19.62 5.44 19.53Z" fill="url(#paint130_linear_17_969)"/>
</g>
<path d="M61.65 26.76H6.56003C4.05818 26.76 2.03003 28.7881 2.03003 31.29V41.35C2.03003 43.8518 4.05818 45.88 6.56003 45.88H61.65C64.1519 45.88 66.18 43.8518 66.18 41.35V31.29C66.18 28.7881 64.1519 26.76 61.65 26.76Z" fill="url(#paint131_linear_17_969)"/>
<g opacity="0.5">
<path d="M5.44 44.81C10.07 44.72 14.7 44.65 19.32 44.62L33.2 44.56L47.08 44.62C51.71 44.65 56.34 44.72 60.96 44.81C56.33 44.9 51.7 44.97 47.08 45L33.2 45.06L19.32 45C14.69 44.97 10.06 44.9 5.44 44.81Z" fill="url(#paint132_linear_17_969)"/>
</g>
<path d="M61.65 52.03H6.56003C4.05818 52.03 2.03003 54.0582 2.03003 56.56V66.62C2.03003 69.1219 4.05818 71.15 6.56003 71.15H61.65C64.1519 71.15 66.18 69.1219 66.18 66.62V56.56C66.18 54.0582 64.1519 52.03 61.65 52.03Z" fill="url(#paint133_linear_17_969)"/>
<g opacity="0.5">
<path d="M5.44 70.08C10.07 69.99 14.7 69.92 19.32 69.89L33.2 69.83L47.08 69.89C51.71 69.92 56.34 69.99 60.96 70.08C56.33 70.17 51.7 70.24 47.08 70.27L33.2 70.33L19.32 70.27C14.69 70.24 10.06 70.17 5.44 70.08Z" fill="url(#paint134_linear_17_969)"/>
</g>
<path d="M11.17 38.97C13.208 38.97 14.86 37.3493 14.86 35.35C14.86 33.3507 13.208 31.73 11.17 31.73C9.13211 31.73 7.48004 33.3507 7.48004 35.35C7.48004 37.3493 9.13211 38.97 11.17 38.97Z" fill="url(#paint135_linear_17_969)"/>
<path d="M11.15 38.95C13.188 38.95 14.84 37.3293 14.84 35.33C14.84 33.3307 13.188 31.71 11.15 31.71C9.11209 31.71 7.46002 33.3307 7.46002 35.33C7.46002 37.3293 9.11209 38.95 11.15 38.95Z" fill="url(#paint136_linear_17_969)"/>
<path d="M11.13 38.93C13.1679 38.93 14.82 37.3093 14.82 35.31C14.82 33.3107 13.1679 31.69 11.13 31.69C9.09207 31.69 7.44 33.3107 7.44 35.31C7.44 37.3093 9.09207 38.93 11.13 38.93Z" fill="url(#paint137_linear_17_969)"/>
<path d="M11.11 38.91C13.148 38.91 14.8 37.2893 14.8 35.29C14.8 33.2907 13.148 31.67 11.11 31.67C9.07211 31.67 7.42004 33.2907 7.42004 35.29C7.42004 37.2893 9.07211 38.91 11.11 38.91Z" fill="url(#paint138_linear_17_969)"/>
<path d="M11.08 38.89C13.1179 38.89 14.77 37.2693 14.77 35.27C14.77 33.2707 13.1179 31.65 11.08 31.65C9.04208 31.65 7.39001 33.2707 7.39001 35.27C7.39001 37.2693 9.04208 38.89 11.08 38.89Z" fill="url(#paint139_linear_17_969)"/>
<path d="M11.06 38.87C13.0979 38.87 14.75 37.2493 14.75 35.25C14.75 33.2507 13.0979 31.63 11.06 31.63C9.02206 31.63 7.37 33.2507 7.37 35.25C7.37 37.2493 9.02206 38.87 11.06 38.87Z" fill="url(#paint140_linear_17_969)"/>
<path d="M11.04 38.85C13.078 38.85 14.73 37.2293 14.73 35.23C14.73 33.2307 13.078 31.61 11.04 31.61C9.00211 31.61 7.35004 33.2307 7.35004 35.23C7.35004 37.2293 9.00211 38.85 11.04 38.85Z" fill="url(#paint141_linear_17_969)"/>
<path d="M11.02 38.83C13.0579 38.83 14.71 37.2093 14.71 35.21C14.71 33.2107 13.0579 31.59 11.02 31.59C8.98209 31.59 7.33002 33.2107 7.33002 35.21C7.33002 37.2093 8.98209 38.83 11.02 38.83Z" fill="url(#paint142_linear_17_969)"/>
<path d="M11 38.81C13.0379 38.81 14.69 37.1893 14.69 35.19C14.69 33.1907 13.0379 31.57 11 31.57C8.96207 31.57 7.31 33.1907 7.31 35.19C7.31 37.1893 8.96207 38.81 11 38.81Z" fill="url(#paint143_linear_17_969)"/>
<path d="M10.98 38.79C13.018 38.79 14.67 37.1693 14.67 35.17C14.67 33.1707 13.018 31.55 10.98 31.55C8.94211 31.55 7.29004 33.1707 7.29004 35.17C7.29004 37.1693 8.94211 38.79 10.98 38.79Z" fill="url(#paint144_linear_17_969)"/>
<path d="M10.96 38.77C12.998 38.77 14.65 37.1493 14.65 35.15C14.65 33.1507 12.998 31.53 10.96 31.53C8.92209 31.53 7.27002 33.1507 7.27002 35.15C7.27002 37.1493 8.92209 38.77 10.96 38.77Z" fill="url(#paint145_linear_17_969)"/>
<path d="M10.94 38.74C12.9779 38.74 14.63 37.1193 14.63 35.12C14.63 33.1207 12.9779 31.5 10.94 31.5C8.90207 31.5 7.25 33.1207 7.25 35.12C7.25 37.1193 8.90207 38.74 10.94 38.74Z" fill="url(#paint146_linear_17_969)"/>
<path d="M10.92 38.72C12.958 38.72 14.61 37.0993 14.61 35.1C14.61 33.1007 12.958 31.48 10.92 31.48C8.88211 31.48 7.23004 33.1007 7.23004 35.1C7.23004 37.0993 8.88211 38.72 10.92 38.72Z" fill="url(#paint147_linear_17_969)"/>
<path d="M10.9 38.7C12.938 38.7 14.59 37.0793 14.59 35.08C14.59 33.0807 12.938 31.46 10.9 31.46C8.86209 31.46 7.21002 33.0807 7.21002 35.08C7.21002 37.0793 8.86209 38.7 10.9 38.7Z" fill="url(#paint148_linear_17_969)"/>
<path d="M10.87 38.68C12.9079 38.68 14.56 37.0593 14.56 35.06C14.56 33.0607 12.9079 31.44 10.87 31.44C8.83206 31.44 7.17999 33.0607 7.17999 35.06C7.17999 37.0593 8.83206 38.68 10.87 38.68Z" fill="url(#paint149_linear_17_969)"/>
<path d="M10.85 38.66C12.888 38.66 14.54 37.0393 14.54 35.04C14.54 33.0407 12.888 31.42 10.85 31.42C8.8121 31.42 7.16003 33.0407 7.16003 35.04C7.16003 37.0393 8.8121 38.66 10.85 38.66Z" fill="url(#paint150_linear_17_969)"/>
<path d="M10.83 38.64C12.8679 38.64 14.52 37.0193 14.52 35.02C14.52 33.0207 12.8679 31.4 10.83 31.4C8.79208 31.4 7.14001 33.0207 7.14001 35.02C7.14001 37.0193 8.79208 38.64 10.83 38.64Z" fill="url(#paint151_linear_17_969)"/>
<path d="M10.81 38.62C12.8479 38.62 14.5 36.9993 14.5 35C14.5 33.0007 12.8479 31.38 10.81 31.38C8.77206 31.38 7.12 33.0007 7.12 35C7.12 36.9993 8.77206 38.62 10.81 38.62Z" fill="url(#paint152_linear_17_969)"/>
<path d="M10.79 38.6C12.828 38.6 14.48 36.9793 14.48 34.98C14.48 32.9807 12.828 31.36 10.79 31.36C8.75211 31.36 7.10004 32.9807 7.10004 34.98C7.10004 36.9793 8.75211 38.6 10.79 38.6Z" fill="url(#paint153_linear_17_969)"/>
<path d="M10.77 38.58C12.8079 38.58 14.46 36.9593 14.46 34.96C14.46 32.9607 12.8079 31.34 10.77 31.34C8.73209 31.34 7.08002 32.9607 7.08002 34.96C7.08002 36.9593 8.73209 38.58 10.77 38.58Z" fill="url(#paint154_linear_17_969)"/>
<path d="M10.75 38.56C12.7879 38.56 14.44 36.9393 14.44 34.94C14.44 32.9407 12.7879 31.32 10.75 31.32C8.71207 31.32 7.06 32.9407 7.06 34.94C7.06 36.9393 8.71207 38.56 10.75 38.56Z" fill="url(#paint155_linear_17_969)"/>
<path d="M10.73 38.54C12.768 38.54 14.42 36.9193 14.42 34.92C14.42 32.9207 12.768 31.3 10.73 31.3C8.69211 31.3 7.04004 32.9207 7.04004 34.92C7.04004 36.9193 8.69211 38.54 10.73 38.54Z" fill="url(#paint156_linear_17_969)"/>
<path d="M10.71 38.52C12.748 38.52 14.4 36.8993 14.4 34.9C14.4 32.9007 12.748 31.28 10.71 31.28C8.67209 31.28 7.02002 32.9007 7.02002 34.9C7.02002 36.8993 8.67209 38.52 10.71 38.52Z" fill="url(#paint157_linear_17_969)"/>
<path d="M10.69 38.5C12.7279 38.5 14.38 36.8793 14.38 34.88C14.38 32.8807 12.7279 31.26 10.69 31.26C8.65207 31.26 7 32.8807 7 34.88C7 36.8793 8.65207 38.5 10.69 38.5Z" fill="url(#paint158_linear_17_969)"/>
<path d="M10.66 38.48C12.698 38.48 14.35 36.8593 14.35 34.86C14.35 32.8607 12.698 31.24 10.66 31.24C8.6221 31.24 6.97003 32.8607 6.97003 34.86C6.97003 36.8593 8.6221 38.48 10.66 38.48Z" fill="url(#paint159_linear_17_969)"/>
<path d="M10.64 38.46C12.6779 38.46 14.33 36.8393 14.33 34.84C14.33 32.8407 12.6779 31.22 10.64 31.22C8.60208 31.22 6.95001 32.8407 6.95001 34.84C6.95001 36.8393 8.60208 38.46 10.64 38.46Z" fill="url(#paint160_linear_17_969)"/>
<path d="M10.62 38.44C12.6579 38.44 14.31 36.8193 14.31 34.82C14.31 32.8207 12.6579 31.2 10.62 31.2C8.58206 31.2 6.92999 32.8207 6.92999 34.82C6.92999 36.8193 8.58206 38.44 10.62 38.44Z" fill="url(#paint161_linear_17_969)"/>
<path d="M10.6 38.42C12.638 38.42 14.29 36.7993 14.29 34.8C14.29 32.8007 12.638 31.18 10.6 31.18C8.5621 31.18 6.91003 32.8007 6.91003 34.8C6.91003 36.7993 8.5621 38.42 10.6 38.42Z" fill="url(#paint162_linear_17_969)"/>
<path d="M10.58 38.4C12.6179 38.4 14.27 36.7793 14.27 34.78C14.27 32.7807 12.6179 31.16 10.58 31.16C8.54208 31.16 6.89001 32.7807 6.89001 34.78C6.89001 36.7793 8.54208 38.4 10.58 38.4Z" fill="url(#paint163_linear_17_969)"/>
<path d="M10.56 38.37C12.5979 38.37 14.25 36.7493 14.25 34.75C14.25 32.7507 12.5979 31.13 10.56 31.13C8.52206 31.13 6.87 32.7507 6.87 34.75C6.87 36.7493 8.52206 38.37 10.56 38.37Z" fill="url(#paint164_linear_17_969)"/>
<path d="M10.54 38.35C12.578 38.35 14.23 36.7293 14.23 34.73C14.23 32.7307 12.578 31.11 10.54 31.11C8.50211 31.11 6.85004 32.7307 6.85004 34.73C6.85004 36.7293 8.50211 38.35 10.54 38.35Z" fill="url(#paint165_linear_17_969)"/>
<path d="M10.52 38.33C12.5579 38.33 14.21 36.7093 14.21 34.71C14.21 32.7107 12.5579 31.09 10.52 31.09C8.48209 31.09 6.83002 32.7107 6.83002 34.71C6.83002 36.7093 8.48209 38.33 10.52 38.33Z" fill="url(#paint166_linear_17_969)"/>
<path style="mix-blend-mode:multiply" d="M10.86 38.81C12.8979 38.81 14.55 37.1893 14.55 35.19C14.55 33.1907 12.8979 31.57 10.86 31.57C8.82205 31.57 7.16998 33.1907 7.16998 35.19C7.16998 37.1893 8.82205 38.81 10.86 38.81Z" fill="url(#paint167_linear_17_969)"/>
<path d="M11.17 64.24C13.208 64.24 14.86 62.6193 14.86 60.62C14.86 58.6207 13.208 57 11.17 57C9.13211 57 7.48004 58.6207 7.48004 60.62C7.48004 62.6193 9.13211 64.24 11.17 64.24Z" fill="url(#paint168_linear_17_969)"/>
<path d="M11.15 64.22C13.188 64.22 14.84 62.5993 14.84 60.6C14.84 58.6007 13.188 56.98 11.15 56.98C9.11209 56.98 7.46002 58.6007 7.46002 60.6C7.46002 62.5993 9.11209 64.22 11.15 64.22Z" fill="url(#paint169_linear_17_969)"/>
<path d="M11.13 64.2C13.1679 64.2 14.82 62.5793 14.82 60.58C14.82 58.5807 13.1679 56.96 11.13 56.96C9.09207 56.96 7.44 58.5807 7.44 60.58C7.44 62.5793 9.09207 64.2 11.13 64.2Z" fill="url(#paint170_linear_17_969)"/>
<path d="M11.11 64.18C13.148 64.18 14.8 62.5593 14.8 60.56C14.8 58.5607 13.148 56.94 11.11 56.94C9.07211 56.94 7.42004 58.5607 7.42004 60.56C7.42004 62.5593 9.07211 64.18 11.11 64.18Z" fill="url(#paint171_linear_17_969)"/>
<path d="M11.08 64.16C13.1179 64.16 14.77 62.5393 14.77 60.54C14.77 58.5407 13.1179 56.92 11.08 56.92C9.04208 56.92 7.39001 58.5407 7.39001 60.54C7.39001 62.5393 9.04208 64.16 11.08 64.16Z" fill="url(#paint172_linear_17_969)"/>
<path d="M11.06 64.14C13.0979 64.14 14.75 62.5193 14.75 60.52C14.75 58.5207 13.0979 56.9 11.06 56.9C9.02206 56.9 7.37 58.5207 7.37 60.52C7.37 62.5193 9.02206 64.14 11.06 64.14Z" fill="url(#paint173_linear_17_969)"/>
<path d="M11.04 64.12C13.078 64.12 14.73 62.4993 14.73 60.5C14.73 58.5007 13.078 56.88 11.04 56.88C9.00211 56.88 7.35004 58.5007 7.35004 60.5C7.35004 62.4993 9.00211 64.12 11.04 64.12Z" fill="url(#paint174_linear_17_969)"/>
<path d="M11.02 64.1C13.0579 64.1 14.71 62.4793 14.71 60.48C14.71 58.4807 13.0579 56.86 11.02 56.86C8.98209 56.86 7.33002 58.4807 7.33002 60.48C7.33002 62.4793 8.98209 64.1 11.02 64.1Z" fill="url(#paint175_linear_17_969)"/>
<path d="M11 64.08C13.0379 64.08 14.69 62.4593 14.69 60.46C14.69 58.4607 13.0379 56.84 11 56.84C8.96207 56.84 7.31 58.4607 7.31 60.46C7.31 62.4593 8.96207 64.08 11 64.08Z" fill="url(#paint176_linear_17_969)"/>
<path d="M10.98 64.05C13.018 64.05 14.67 62.4293 14.67 60.43C14.67 58.4307 13.018 56.81 10.98 56.81C8.94211 56.81 7.29004 58.4307 7.29004 60.43C7.29004 62.4293 8.94211 64.05 10.98 64.05Z" fill="url(#paint177_linear_17_969)"/>
<path d="M10.96 64.03C12.998 64.03 14.65 62.4093 14.65 60.41C14.65 58.4107 12.998 56.79 10.96 56.79C8.92209 56.79 7.27002 58.4107 7.27002 60.41C7.27002 62.4093 8.92209 64.03 10.96 64.03Z" fill="url(#paint178_linear_17_969)"/>
<path d="M10.94 64.01C12.9779 64.01 14.63 62.3893 14.63 60.39C14.63 58.3907 12.9779 56.77 10.94 56.77C8.90207 56.77 7.25 58.3907 7.25 60.39C7.25 62.3893 8.90207 64.01 10.94 64.01Z" fill="url(#paint179_linear_17_969)"/>
<path d="M10.92 63.99C12.958 63.99 14.61 62.3693 14.61 60.37C14.61 58.3707 12.958 56.75 10.92 56.75C8.88211 56.75 7.23004 58.3707 7.23004 60.37C7.23004 62.3693 8.88211 63.99 10.92 63.99Z" fill="url(#paint180_linear_17_969)"/>
<path d="M10.9 63.97C12.938 63.97 14.59 62.3493 14.59 60.35C14.59 58.3507 12.938 56.73 10.9 56.73C8.86209 56.73 7.21002 58.3507 7.21002 60.35C7.21002 62.3493 8.86209 63.97 10.9 63.97Z" fill="url(#paint181_linear_17_969)"/>
<path d="M10.87 63.95C12.9079 63.95 14.56 62.3293 14.56 60.33C14.56 58.3307 12.9079 56.71 10.87 56.71C8.83206 56.71 7.17999 58.3307 7.17999 60.33C7.17999 62.3293 8.83206 63.95 10.87 63.95Z" fill="url(#paint182_linear_17_969)"/>
<path d="M10.85 63.93C12.888 63.93 14.54 62.3093 14.54 60.31C14.54 58.3107 12.888 56.69 10.85 56.69C8.8121 56.69 7.16003 58.3107 7.16003 60.31C7.16003 62.3093 8.8121 63.93 10.85 63.93Z" fill="url(#paint183_linear_17_969)"/>
<path d="M10.83 63.91C12.8679 63.91 14.52 62.2893 14.52 60.29C14.52 58.2907 12.8679 56.67 10.83 56.67C8.79208 56.67 7.14001 58.2907 7.14001 60.29C7.14001 62.2893 8.79208 63.91 10.83 63.91Z" fill="url(#paint184_linear_17_969)"/>
<path d="M10.81 63.89C12.8479 63.89 14.5 62.2693 14.5 60.27C14.5 58.2707 12.8479 56.65 10.81 56.65C8.77206 56.65 7.12 58.2707 7.12 60.27C7.12 62.2693 8.77206 63.89 10.81 63.89Z" fill="url(#paint185_linear_17_969)"/>
<path d="M10.79 63.87C12.828 63.87 14.48 62.2493 14.48 60.25C14.48 58.2507 12.828 56.63 10.79 56.63C8.75211 56.63 7.10004 58.2507 7.10004 60.25C7.10004 62.2493 8.75211 63.87 10.79 63.87Z" fill="url(#paint186_linear_17_969)"/>
<path d="M10.77 63.85C12.8079 63.85 14.46 62.2293 14.46 60.23C14.46 58.2307 12.8079 56.61 10.77 56.61C8.73209 56.61 7.08002 58.2307 7.08002 60.23C7.08002 62.2293 8.73209 63.85 10.77 63.85Z" fill="url(#paint187_linear_17_969)"/>
<path d="M10.75 63.83C12.7879 63.83 14.44 62.2093 14.44 60.21C14.44 58.2107 12.7879 56.59 10.75 56.59C8.71207 56.59 7.06 58.2107 7.06 60.21C7.06 62.2093 8.71207 63.83 10.75 63.83Z" fill="url(#paint188_linear_17_969)"/>
<path d="M10.73 63.81C12.768 63.81 14.42 62.1893 14.42 60.19C14.42 58.1907 12.768 56.57 10.73 56.57C8.69211 56.57 7.04004 58.1907 7.04004 60.19C7.04004 62.1893 8.69211 63.81 10.73 63.81Z" fill="url(#paint189_linear_17_969)"/>
<path d="M10.71 63.79C12.748 63.79 14.4 62.1693 14.4 60.17C14.4 58.1707 12.748 56.55 10.71 56.55C8.67209 56.55 7.02002 58.1707 7.02002 60.17C7.02002 62.1693 8.67209 63.79 10.71 63.79Z" fill="url(#paint190_linear_17_969)"/>
<path d="M10.69 63.77C12.7279 63.77 14.38 62.1493 14.38 60.15C14.38 58.1507 12.7279 56.53 10.69 56.53C8.65207 56.53 7 58.1507 7 60.15C7 62.1493 8.65207 63.77 10.69 63.77Z" fill="url(#paint191_linear_17_969)"/>
<path d="M10.66 63.75C12.698 63.75 14.35 62.1293 14.35 60.13C14.35 58.1307 12.698 56.51 10.66 56.51C8.6221 56.51 6.97003 58.1307 6.97003 60.13C6.97003 62.1293 8.6221 63.75 10.66 63.75Z" fill="url(#paint192_linear_17_969)"/>
<path d="M10.64 63.73C12.6779 63.73 14.33 62.1093 14.33 60.11C14.33 58.1107 12.6779 56.49 10.64 56.49C8.60208 56.49 6.95001 58.1107 6.95001 60.11C6.95001 62.1093 8.60208 63.73 10.64 63.73Z" fill="url(#paint193_linear_17_969)"/>
<path d="M10.62 63.71C12.6579 63.71 14.31 62.0893 14.31 60.09C14.31 58.0907 12.6579 56.47 10.62 56.47C8.58206 56.47 6.92999 58.0907 6.92999 60.09C6.92999 62.0893 8.58206 63.71 10.62 63.71Z" fill="url(#paint194_linear_17_969)"/>
<path d="M10.6 63.68C12.638 63.68 14.29 62.0593 14.29 60.06C14.29 58.0607 12.638 56.44 10.6 56.44C8.5621 56.44 6.91003 58.0607 6.91003 60.06C6.91003 62.0593 8.5621 63.68 10.6 63.68Z" fill="url(#paint195_linear_17_969)"/>
<path d="M10.58 63.66C12.6179 63.66 14.27 62.0393 14.27 60.04C14.27 58.0407 12.6179 56.42 10.58 56.42C8.54208 56.42 6.89001 58.0407 6.89001 60.04C6.89001 62.0393 8.54208 63.66 10.58 63.66Z" fill="url(#paint196_linear_17_969)"/>
<path d="M10.56 63.64C12.5979 63.64 14.25 62.0193 14.25 60.02C14.25 58.0207 12.5979 56.4 10.56 56.4C8.52206 56.4 6.87 58.0207 6.87 60.02C6.87 62.0193 8.52206 63.64 10.56 63.64Z" fill="url(#paint197_linear_17_969)"/>
<path d="M10.54 63.62C12.578 63.62 14.23 61.9993 14.23 60C14.23 58.0007 12.578 56.38 10.54 56.38C8.50211 56.38 6.85004 58.0007 6.85004 60C6.85004 61.9993 8.50211 63.62 10.54 63.62Z" fill="url(#paint198_linear_17_969)"/>
<path d="M10.52 63.6C12.5579 63.6 14.21 61.9793 14.21 59.98C14.21 57.9807 12.5579 56.36 10.52 56.36C8.48209 56.36 6.83002 57.9807 6.83002 59.98C6.83002 61.9793 8.48209 63.6 10.52 63.6Z" fill="url(#paint199_linear_17_969)"/>
<path style="mix-blend-mode:multiply" d="M10.86 64.08C12.8979 64.08 14.55 62.4593 14.55 60.46C14.55 58.4607 12.8979 56.84 10.86 56.84C8.82205 56.84 7.16998 58.4607 7.16998 60.46C7.16998 62.4593 8.82205 64.08 10.86 64.08Z" fill="url(#paint200_linear_17_969)"/>
</g>
<defs>
<linearGradient id="paint0_linear_17_969" x1="35.91" y1="6.97999" x2="35.91" y2="22.23" gradientUnits="userSpaceOnUse">
<stop stop-color="#9E9E9E"/>
<stop offset="1" stop-color="#777777"/>
</linearGradient>
<linearGradient id="paint1_linear_17_969" x1="35.81" y1="6.87" x2="35.81" y2="22.13" gradientUnits="userSpaceOnUse">
<stop stop-color="#9F9F9F"/>
<stop offset="1" stop-color="#767676"/>
</linearGradient>
<linearGradient id="paint2_linear_17_969" x1="35.7" y1="6.77" x2="35.7" y2="22.03" gradientUnits="userSpaceOnUse">
<stop stop-color="#A0A0A0"/>
<stop offset="1" stop-color="#767676"/>
</linearGradient>
<linearGradient id="paint3_linear_17_969" x1="35.6" y1="6.67001" x2="35.6" y2="21.93" gradientUnits="userSpaceOnUse">
<stop stop-color="#A1A1A1"/>
<stop offset="1" stop-color="#757575"/>
</linearGradient>
<linearGradient id="paint4_linear_17_969" x1="35.5" y1="6.57" x2="35.5" y2="21.83" gradientUnits="userSpaceOnUse">
<stop stop-color="#A2A2A2"/>
<stop offset="1" stop-color="#757575"/>
</linearGradient>
<linearGradient id="paint5_linear_17_969" x1="35.4" y1="6.46999" x2="35.4" y2="21.72" gradientUnits="userSpaceOnUse">
<stop stop-color="#A3A3A3"/>
<stop offset="1" stop-color="#747474"/>
</linearGradient>
<linearGradient id="paint6_linear_17_969" x1="35.3" y1="6.35999" x2="35.3" y2="21.62" gradientUnits="userSpaceOnUse">
<stop stop-color="#A3A3A3"/>
<stop offset="1" stop-color="#747474"/>
</linearGradient>
<linearGradient id="paint7_linear_17_969" x1="35.2" y1="6.26" x2="35.2" y2="21.52" gradientUnits="userSpaceOnUse">
<stop stop-color="#A4A4A4"/>
<stop offset="1" stop-color="#737373"/>
</linearGradient>
<linearGradient id="paint8_linear_17_969" x1="35.09" y1="6.16" x2="35.09" y2="21.42" gradientUnits="userSpaceOnUse">
<stop stop-color="#A5A5A5"/>
<stop offset="1" stop-color="#737373"/>
</linearGradient>
<linearGradient id="paint9_linear_17_969" x1="34.99" y1="6.06001" x2="34.99" y2="21.32" gradientUnits="userSpaceOnUse">
<stop stop-color="#A6A6A6"/>
<stop offset="1" stop-color="#727272"/>
</linearGradient>
<linearGradient id="paint10_linear_17_969" x1="34.89" y1="5.96" x2="34.89" y2="21.21" gradientUnits="userSpaceOnUse">
<stop stop-color="#A7A7A7"/>
<stop offset="1" stop-color="#727272"/>
</linearGradient>
<linearGradient id="paint11_linear_17_969" x1="34.79" y1="5.85999" x2="34.79" y2="21.11" gradientUnits="userSpaceOnUse">
<stop stop-color="#A8A8A8"/>
<stop offset="1" stop-color="#717171"/>
</linearGradient>
<linearGradient id="paint12_linear_17_969" x1="34.69" y1="5.74999" x2="34.69" y2="21.01" gradientUnits="userSpaceOnUse">
<stop stop-color="#A9A9A9"/>
<stop offset="1" stop-color="#707070"/>
</linearGradient>
<linearGradient id="paint13_linear_17_969" x1="34.58" y1="5.65" x2="34.58" y2="20.91" gradientUnits="userSpaceOnUse">
<stop stop-color="#AAAAAA"/>
<stop offset="1" stop-color="#707070"/>
</linearGradient>
<linearGradient id="paint14_linear_17_969" x1="34.48" y1="5.55" x2="34.48" y2="20.81" gradientUnits="userSpaceOnUse">
<stop stop-color="#ABABAB"/>
<stop offset="1" stop-color="#6F6F6F"/>
</linearGradient>
<linearGradient id="paint15_linear_17_969" x1="34.38" y1="5.45" x2="34.38" y2="20.71" gradientUnits="userSpaceOnUse">
<stop stop-color="#ACACAC"/>
<stop offset="1" stop-color="#6F6F6F"/>
</linearGradient>
<linearGradient id="paint16_linear_17_969" x1="34.28" y1="5.35" x2="34.28" y2="20.6" gradientUnits="userSpaceOnUse">
<stop stop-color="#ACACAC"/>
<stop offset="1" stop-color="#6E6E6E"/>
</linearGradient>
<linearGradient id="paint17_linear_17_969" x1="34.18" y1="5.25" x2="34.18" y2="20.5" gradientUnits="userSpaceOnUse">
<stop stop-color="#ADADAD"/>
<stop offset="1" stop-color="#6E6E6E"/>
</linearGradient>
<linearGradient id="paint18_linear_17_969" x1="34.08" y1="5.14001" x2="34.08" y2="20.4" gradientUnits="userSpaceOnUse">
<stop stop-color="#AEAEAE"/>
<stop offset="1" stop-color="#6D6D6D"/>
</linearGradient>
<linearGradient id="paint19_linear_17_969" x1="33.97" y1="5.04" x2="33.97" y2="20.3" gradientUnits="userSpaceOnUse">
<stop stop-color="#AFAFAF"/>
<stop offset="1" stop-color="#6D6D6D"/>
</linearGradient>
<linearGradient id="paint20_linear_17_969" x1="33.87" y1="4.93999" x2="33.87" y2="20.2" gradientUnits="userSpaceOnUse">
<stop stop-color="#B0B0B0"/>
<stop offset="1" stop-color="#6C6C6C"/>
</linearGradient>
<linearGradient id="paint21_linear_17_969" x1="33.77" y1="4.84" x2="33.77" y2="20.1" gradientUnits="userSpaceOnUse">
<stop stop-color="#B1B1B1"/>
<stop offset="1" stop-color="#6B6B6B"/>
</linearGradient>
<linearGradient id="paint22_linear_17_969" x1="33.67" y1="4.74" x2="33.67" y2="19.99" gradientUnits="userSpaceOnUse">
<stop stop-color="#B2B2B2"/>
<stop offset="1" stop-color="#6B6B6B"/>
</linearGradient>
<linearGradient id="paint23_linear_17_969" x1="33.57" y1="4.63" x2="33.57" y2="19.89" gradientUnits="userSpaceOnUse">
<stop stop-color="#B3B3B3"/>
<stop offset="1" stop-color="#6A6A6A"/>
</linearGradient>
<linearGradient id="paint24_linear_17_969" x1="33.47" y1="4.53001" x2="33.47" y2="19.79" gradientUnits="userSpaceOnUse">
<stop stop-color="#B4B4B4"/>
<stop offset="1" stop-color="#6A6A6A"/>
</linearGradient>
<linearGradient id="paint25_linear_17_969" x1="33.36" y1="4.43" x2="33.36" y2="19.69" gradientUnits="userSpaceOnUse">
<stop stop-color="#B5B5B5"/>
<stop offset="1" stop-color="#696969"/>
</linearGradient>
<linearGradient id="paint26_linear_17_969" x1="33.26" y1="4.32999" x2="33.26" y2="19.59" gradientUnits="userSpaceOnUse">
<stop stop-color="#B5B5B5"/>
<stop offset="1" stop-color="#696969"/>
</linearGradient>
<linearGradient id="paint27_linear_17_969" x1="33.16" y1="4.23" x2="33.16" y2="19.48" gradientUnits="userSpaceOnUse">
<stop stop-color="#B6B6B6"/>
<stop offset="1" stop-color="#686868"/>
</linearGradient>
<linearGradient id="paint28_linear_17_969" x1="33.06" y1="4.13" x2="33.06" y2="19.38" gradientUnits="userSpaceOnUse">
<stop stop-color="#B7B7B7"/>
<stop offset="1" stop-color="#686868"/>
</linearGradient>
<linearGradient id="paint29_linear_17_969" x1="32.96" y1="4.02" x2="32.96" y2="19.28" gradientUnits="userSpaceOnUse">
<stop stop-color="#B8B8B8"/>
<stop offset="1" stop-color="#676767"/>
</linearGradient>
<linearGradient id="paint30_linear_17_969" x1="32.85" y1="3.92001" x2="32.85" y2="19.18" gradientUnits="userSpaceOnUse">
<stop stop-color="#B9B9B9"/>
<stop offset="1" stop-color="#676767"/>
</linearGradient>
<linearGradient id="paint31_linear_17_969" x1="32.75" y1="3.82" x2="32.75" y2="19.08" gradientUnits="userSpaceOnUse">
<stop stop-color="#BABABA"/>
<stop offset="1" stop-color="#666666"/>
</linearGradient>
<linearGradient id="paint32_linear_17_969" x1="28.4" y1="-1.81" x2="36.86" y2="17.24" gradientUnits="userSpaceOnUse">
<stop offset="0.05" stop-color="#575757"/>
<stop offset="0.33" stop-color="#575757" stop-opacity="0.93"/>
<stop offset="0.67" stop-color="#585858" stop-opacity="0.75"/>
<stop offset="1" stop-color="#595959" stop-opacity="0.5"/>
</linearGradient>
<linearGradient id="paint33_linear_17_969" x1="35.91" y1="32.24" x2="35.91" y2="47.5" gradientUnits="userSpaceOnUse">
<stop stop-color="#9E9E9E"/>
<stop offset="1" stop-color="#777777"/>
</linearGradient>
<linearGradient id="paint34_linear_17_969" x1="35.81" y1="32.14" x2="35.81" y2="47.4" gradientUnits="userSpaceOnUse">
<stop stop-color="#9F9F9F"/>
<stop offset="1" stop-color="#767676"/>
</linearGradient>
<linearGradient id="paint35_linear_17_969" x1="35.7" y1="32.04" x2="35.7" y2="47.3" gradientUnits="userSpaceOnUse">
<stop stop-color="#A0A0A0"/>
<stop offset="1" stop-color="#767676"/>
</linearGradient>
<linearGradient id="paint36_linear_17_969" x1="35.6" y1="31.94" x2="35.6" y2="47.2" gradientUnits="userSpaceOnUse">
<stop stop-color="#A1A1A1"/>
<stop offset="1" stop-color="#757575"/>
</linearGradient>
<linearGradient id="paint37_linear_17_969" x1="35.5" y1="31.84" x2="35.5" y2="47.09" gradientUnits="userSpaceOnUse">
<stop stop-color="#A2A2A2"/>
<stop offset="1" stop-color="#757575"/>
</linearGradient>
<linearGradient id="paint38_linear_17_969" x1="35.4" y1="31.74" x2="35.4" y2="46.99" gradientUnits="userSpaceOnUse">
<stop stop-color="#A3A3A3"/>
<stop offset="1" stop-color="#747474"/>
</linearGradient>
<linearGradient id="paint39_linear_17_969" x1="-2.21596e-05" y1="31.63" x2="0.999978" y2="46.89" gradientUnits="userSpaceOnUse">
<stop stop-color="#A3A3A3"/>
<stop offset="1" stop-color="#747474"/>
</linearGradient>
<linearGradient id="paint40_linear_17_969" x1="35.2" y1="31.53" x2="35.2" y2="46.79" gradientUnits="userSpaceOnUse">
<stop stop-color="#A4A4A4"/>
<stop offset="1" stop-color="#737373"/>
</linearGradient>
<linearGradient id="paint41_linear_17_969" x1="35.09" y1="31.43" x2="35.09" y2="46.69" gradientUnits="userSpaceOnUse">
<stop stop-color="#A5A5A5"/>
<stop offset="1" stop-color="#737373"/>
</linearGradient>
<linearGradient id="paint42_linear_17_969" x1="34.99" y1="31.33" x2="34.99" y2="46.59" gradientUnits="userSpaceOnUse">
<stop stop-color="#A6A6A6"/>
<stop offset="1" stop-color="#727272"/>
</linearGradient>
<linearGradient id="paint43_linear_17_969" x1="1.46329e-05" y1="31.23" x2="1.00001" y2="46.48" gradientUnits="userSpaceOnUse">
<stop stop-color="#A7A7A7"/>
<stop offset="1" stop-color="#727272"/>
</linearGradient>
<linearGradient id="paint44_linear_17_969" x1="-2.18449e-05" y1="31.12" x2="0.999978" y2="46.38" gradientUnits="userSpaceOnUse">
<stop stop-color="#A8A8A8"/>
<stop offset="1" stop-color="#717171"/>
</linearGradient>
<linearGradient id="paint45_linear_17_969" x1="-7.26855e-06" y1="31.02" x2="0.999993" y2="46.28" gradientUnits="userSpaceOnUse">
<stop stop-color="#A9A9A9"/>
<stop offset="1" stop-color="#707070"/>
</linearGradient>
<linearGradient id="paint46_linear_17_969" x1="1.75215e-05" y1="30.92" x2="1.00002" y2="46.18" gradientUnits="userSpaceOnUse">
<stop stop-color="#AAAAAA"/>
<stop offset="1" stop-color="#707070"/>
</linearGradient>
<linearGradient id="paint47_linear_17_969" x1="-1.94181e-05" y1="30.82" x2="0.999981" y2="46.08" gradientUnits="userSpaceOnUse">
<stop stop-color="#ABABAB"/>
<stop offset="1" stop-color="#6F6F6F"/>
</linearGradient>
<linearGradient id="paint48_linear_17_969" x1="34.38" y1="30.72" x2="34.38" y2="45.97" gradientUnits="userSpaceOnUse">
<stop stop-color="#ACACAC"/>
<stop offset="1" stop-color="#6F6F6F"/>
</linearGradient>
<linearGradient id="paint49_linear_17_969" x1="34.28" y1="30.62" x2="34.28" y2="45.87" gradientUnits="userSpaceOnUse">
<stop stop-color="#ACACAC"/>
<stop offset="1" stop-color="#6E6E6E"/>
</linearGradient>
<linearGradient id="paint50_linear_17_969" x1="-1.69395e-05" y1="30.51" x2="0.999983" y2="45.77" gradientUnits="userSpaceOnUse">
<stop stop-color="#ADADAD"/>
<stop offset="1" stop-color="#6E6E6E"/>
</linearGradient>
<linearGradient id="paint51_linear_17_969" x1="7.16771e-06" y1="30.41" x2="1.00001" y2="45.67" gradientUnits="userSpaceOnUse">
<stop stop-color="#AEAEAE"/>
<stop offset="1" stop-color="#6D6D6D"/>
</linearGradient>
<linearGradient id="paint52_linear_17_969" x1="33.97" y1="30.31" x2="33.97" y2="45.57" gradientUnits="userSpaceOnUse">
<stop stop-color="#AFAFAF"/>
<stop offset="1" stop-color="#6D6D6D"/>
</linearGradient>
<linearGradient id="paint53_linear_17_969" x1="-4.5981e-06" y1="30.21" x2="0.999995" y2="45.47" gradientUnits="userSpaceOnUse">
<stop stop-color="#B0B0B0"/>
<stop offset="1" stop-color="#6C6C6C"/>
</linearGradient>
<linearGradient id="paint54_linear_17_969" x1="1.97377e-05" y1="30.11" x2="1.00002" y2="45.36" gradientUnits="userSpaceOnUse">
<stop stop-color="#B1B1B1"/>
<stop offset="1" stop-color="#6B6B6B"/>
</linearGradient>
<linearGradient id="paint55_linear_17_969" x1="-1.70396e-05" y1="30.01" x2="0.999983" y2="45.26" gradientUnits="userSpaceOnUse">
<stop stop-color="#B2B2B2"/>
<stop offset="1" stop-color="#6B6B6B"/>
</linearGradient>
<linearGradient id="paint56_linear_17_969" x1="33.57" y1="29.9" x2="33.57" y2="45.16" gradientUnits="userSpaceOnUse">
<stop stop-color="#B3B3B3"/>
<stop offset="1" stop-color="#6A6A6A"/>
</linearGradient>
<linearGradient id="paint57_linear_17_969" x1="2.20588e-05" y1="29.8" x2="1.00002" y2="45.06" gradientUnits="userSpaceOnUse">
<stop stop-color="#B4B4B4"/>
<stop offset="1" stop-color="#6A6A6A"/>
</linearGradient>
<linearGradient id="paint58_linear_17_969" x1="33.36" y1="29.7" x2="33.36" y2="44.96" gradientUnits="userSpaceOnUse">
<stop stop-color="#B5B5B5"/>
<stop offset="1" stop-color="#696969"/>
</linearGradient>
<linearGradient id="paint59_linear_17_969" x1="33.26" y1="29.6" x2="33.26" y2="44.86" gradientUnits="userSpaceOnUse">
<stop stop-color="#B5B5B5"/>
<stop offset="1" stop-color="#696969"/>
</linearGradient>
<linearGradient id="paint60_linear_17_969" x1="-2.69372e-05" y1="29.5" x2="0.999973" y2="44.75" gradientUnits="userSpaceOnUse">
<stop stop-color="#B6B6B6"/>
<stop offset="1" stop-color="#686868"/>
</linearGradient>
<linearGradient id="paint61_linear_17_969" x1="33.06" y1="29.39" x2="33.06" y2="44.65" gradientUnits="userSpaceOnUse">
<stop stop-color="#B7B7B7"/>
<stop offset="1" stop-color="#686868"/>
</linearGradient>
<linearGradient id="paint62_linear_17_969" x1="32.96" y1="29.29" x2="32.96" y2="44.55" gradientUnits="userSpaceOnUse">
<stop stop-color="#B8B8B8"/>
<stop offset="1" stop-color="#676767"/>
</linearGradient>
<linearGradient id="paint63_linear_17_969" x1="32.85" y1="29.19" x2="32.85" y2="44.45" gradientUnits="userSpaceOnUse">
<stop stop-color="#B9B9B9"/>
<stop offset="1" stop-color="#676767"/>
</linearGradient>
<linearGradient id="paint64_linear_17_969" x1="32.75" y1="29.09" x2="32.75" y2="44.35" gradientUnits="userSpaceOnUse">
<stop stop-color="#BABABA"/>
<stop offset="1" stop-color="#666666"/>
</linearGradient>
<linearGradient id="paint65_linear_17_969" x1="2.44393e-05" y1="57.51" x2="1.00002" y2="72.77" gradientUnits="userSpaceOnUse">
<stop stop-color="#9E9E9E"/>
<stop offset="1" stop-color="#777777"/>
</linearGradient>
<linearGradient id="paint66_linear_17_969" x1="-1.16637e-05" y1="57.41" x2="0.999989" y2="72.67" gradientUnits="userSpaceOnUse">
<stop stop-color="#9F9F9F"/>
<stop offset="1" stop-color="#767676"/>
</linearGradient>
<linearGradient id="paint67_linear_17_969" x1="1.20883e-05" y1="57.31" x2="1.00001" y2="72.57" gradientUnits="userSpaceOnUse">
<stop stop-color="#A0A0A0"/>
<stop offset="1" stop-color="#767676"/>
</linearGradient>
<linearGradient id="paint68_linear_17_969" x1="-2.45336e-05" y1="57.21" x2="0.999975" y2="72.46" gradientUnits="userSpaceOnUse">
<stop stop-color="#A1A1A1"/>
<stop offset="1" stop-color="#757575"/>
</linearGradient>
<linearGradient id="paint69_linear_17_969" x1="35.5" y1="57.11" x2="35.5" y2="72.36" gradientUnits="userSpaceOnUse">
<stop stop-color="#A2A2A2"/>
<stop offset="1" stop-color="#757575"/>
</linearGradient>
<linearGradient id="paint70_linear_17_969" x1="2.42992e-05" y1="57" x2="1.00002" y2="72.26" gradientUnits="userSpaceOnUse">
<stop stop-color="#A3A3A3"/>
<stop offset="1" stop-color="#747474"/>
</linearGradient>
<linearGradient id="paint71_linear_17_969" x1="35.3" y1="56.9" x2="35.3" y2="72.16" gradientUnits="userSpaceOnUse">
<stop stop-color="#A3A3A3"/>
<stop offset="1" stop-color="#747474"/>
</linearGradient>
<linearGradient id="paint72_linear_17_969" x1="35.2" y1="56.8" x2="35.2" y2="72.06" gradientUnits="userSpaceOnUse">
<stop stop-color="#A4A4A4"/>
<stop offset="1" stop-color="#737373"/>
</linearGradient>
<linearGradient id="paint73_linear_17_969" x1="35.09" y1="56.7" x2="35.09" y2="71.96" gradientUnits="userSpaceOnUse">
<stop stop-color="#A5A5A5"/>
<stop offset="1" stop-color="#737373"/>
</linearGradient>
<linearGradient id="paint74_linear_17_969" x1="34.99" y1="56.6" x2="34.99" y2="71.85" gradientUnits="userSpaceOnUse">
<stop stop-color="#A6A6A6"/>
<stop offset="1" stop-color="#727272"/>
</linearGradient>
<linearGradient id="paint75_linear_17_969" x1="34.89" y1="56.49" x2="34.89" y2="71.75" gradientUnits="userSpaceOnUse">
<stop stop-color="#A7A7A7"/>
<stop offset="1" stop-color="#727272"/>
</linearGradient>
<linearGradient id="paint76_linear_17_969" x1="34.79" y1="56.39" x2="34.79" y2="71.65" gradientUnits="userSpaceOnUse">
<stop stop-color="#A8A8A8"/>
<stop offset="1" stop-color="#717171"/>
</linearGradient>
<linearGradient id="paint77_linear_17_969" x1="34.69" y1="56.29" x2="34.69" y2="71.55" gradientUnits="userSpaceOnUse">
<stop stop-color="#A9A9A9"/>
<stop offset="1" stop-color="#707070"/>
</linearGradient>
<linearGradient id="paint78_linear_17_969" x1="34.58" y1="56.19" x2="34.58" y2="71.45" gradientUnits="userSpaceOnUse">
<stop stop-color="#AAAAAA"/>
<stop offset="1" stop-color="#707070"/>
</linearGradient>
<linearGradient id="paint79_linear_17_969" x1="34.48" y1="56.09" x2="34.48" y2="71.35" gradientUnits="userSpaceOnUse">
<stop stop-color="#ABABAB"/>
<stop offset="1" stop-color="#6F6F6F"/>
</linearGradient>
<linearGradient id="paint80_linear_17_969" x1="4.98555e-06" y1="55.99" x2="1" y2="71.24" gradientUnits="userSpaceOnUse">
<stop stop-color="#ACACAC"/>
<stop offset="1" stop-color="#6F6F6F"/>
</linearGradient>
<linearGradient id="paint81_linear_17_969" x1="2.95044e-05" y1="55.88" x2="1.00003" y2="71.14" gradientUnits="userSpaceOnUse">
<stop stop-color="#ACACAC"/>
<stop offset="1" stop-color="#6E6E6E"/>
</linearGradient>
<linearGradient id="paint82_linear_17_969" x1="-1.69395e-05" y1="55.78" x2="0.999983" y2="71.04" gradientUnits="userSpaceOnUse">
<stop stop-color="#ADADAD"/>
<stop offset="1" stop-color="#6E6E6E"/>
</linearGradient>
<linearGradient id="paint83_linear_17_969" x1="7.16771e-06" y1="55.68" x2="1.00001" y2="70.94" gradientUnits="userSpaceOnUse">
<stop stop-color="#AEAEAE"/>
<stop offset="1" stop-color="#6D6D6D"/>
</linearGradient>
<linearGradient id="paint84_linear_17_969" x1="33.97" y1="55.58" x2="33.97" y2="70.84" gradientUnits="userSpaceOnUse">
<stop stop-color="#AFAFAF"/>
<stop offset="1" stop-color="#6D6D6D"/>
</linearGradient>
<linearGradient id="paint85_linear_17_969" x1="-4.53133e-06" y1="55.48" x2="0.999996" y2="70.73" gradientUnits="userSpaceOnUse">
<stop stop-color="#B0B0B0"/>
<stop offset="1" stop-color="#6C6C6C"/>
</linearGradient>
<linearGradient id="paint86_linear_17_969" x1="33.77" y1="55.38" x2="33.77" y2="70.63" gradientUnits="userSpaceOnUse">
<stop stop-color="#B1B1B1"/>
<stop offset="1" stop-color="#6B6B6B"/>
</linearGradient>
<linearGradient id="paint87_linear_17_969" x1="33.67" y1="55.27" x2="33.67" y2="70.53" gradientUnits="userSpaceOnUse">
<stop stop-color="#B2B2B2"/>
<stop offset="1" stop-color="#6B6B6B"/>
</linearGradient>
<linearGradient id="paint88_linear_17_969" x1="-2.50324e-06" y1="55.17" x2="0.999997" y2="70.43" gradientUnits="userSpaceOnUse">
<stop stop-color="#B3B3B3"/>
<stop offset="1" stop-color="#6A6A6A"/>
</linearGradient>
<linearGradient id="paint89_linear_17_969" x1="33.47" y1="55.07" x2="33.47" y2="70.33" gradientUnits="userSpaceOnUse">
<stop stop-color="#B4B4B4"/>
<stop offset="1" stop-color="#6A6A6A"/>
</linearGradient>
<linearGradient id="paint90_linear_17_969" x1="-1.44144e-05" y1="54.97" x2="0.999985" y2="70.23" gradientUnits="userSpaceOnUse">
<stop stop-color="#B5B5B5"/>
<stop offset="1" stop-color="#696969"/>
</linearGradient>
<linearGradient id="paint91_linear_17_969" x1="9.69525e-06" y1="54.87" x2="1.00001" y2="70.12" gradientUnits="userSpaceOnUse">
<stop stop-color="#B5B5B5"/>
<stop offset="1" stop-color="#696969"/>
</linearGradient>
<linearGradient id="paint92_linear_17_969" x1="-2.66541e-05" y1="54.77" x2="0.999974" y2="70.02" gradientUnits="userSpaceOnUse">
<stop stop-color="#B6B6B6"/>
<stop offset="1" stop-color="#686868"/>
</linearGradient>
<linearGradient id="paint93_linear_17_969" x1="-2.65821e-06" y1="54.66" x2="0.999998" y2="69.92" gradientUnits="userSpaceOnUse">
<stop stop-color="#B7B7B7"/>
<stop offset="1" stop-color="#686868"/>
</linearGradient>
<linearGradient id="paint94_linear_17_969" x1="1.23878e-05" y1="54.56" x2="1.00001" y2="69.82" gradientUnits="userSpaceOnUse">
<stop stop-color="#B8B8B8"/>
<stop offset="1" stop-color="#676767"/>
</linearGradient>
<linearGradient id="paint95_linear_17_969" x1="-2.45401e-05" y1="54.46" x2="0.999975" y2="69.72" gradientUnits="userSpaceOnUse">
<stop stop-color="#B9B9B9"/>
<stop offset="1" stop-color="#676767"/>
</linearGradient>
<linearGradient id="paint96_linear_17_969" x1="2.187e-08" y1="54.36" x2="1" y2="69.62" gradientUnits="userSpaceOnUse">
<stop stop-color="#BABABA"/>
<stop offset="1" stop-color="#666666"/>
</linearGradient>
<linearGradient id="paint97_linear_17_969" x1="10.16" y1="6.99001" x2="12.15" y2="13.08" gradientUnits="userSpaceOnUse">
<stop stop-color="#C7C7C7"/>
<stop offset="1" stop-color="#8F8F8F"/>
</linearGradient>
<linearGradient id="paint98_linear_17_969" x1="10.14" y1="6.97" x2="12.12" y2="13.06" gradientUnits="userSpaceOnUse">
<stop stop-color="#C9C9C9"/>
<stop offset="1" stop-color="#909090"/>
</linearGradient>
<linearGradient id="paint99_linear_17_969" x1="10.12" y1="6.95001" x2="12.1" y2="13.04" gradientUnits="userSpaceOnUse">
<stop stop-color="#CBCBCB"/>
<stop offset="1" stop-color="#929292"/>
</linearGradient>
<linearGradient id="paint100_linear_17_969" x1="10.1" y1="6.93001" x2="12.08" y2="13.01" gradientUnits="userSpaceOnUse">
<stop stop-color="#CCCCCC"/>
<stop offset="1" stop-color="#939393"/>
</linearGradient>
<linearGradient id="paint101_linear_17_969" x1="10.07" y1="6.9" x2="12.06" y2="12.99" gradientUnits="userSpaceOnUse">
<stop stop-color="#CECECE"/>
<stop offset="1" stop-color="#949494"/>
</linearGradient>
<linearGradient id="paint102_linear_17_969" x1="10.05" y1="6.88" x2="12.04" y2="12.97" gradientUnits="userSpaceOnUse">
<stop stop-color="#D0D0D0"/>
<stop offset="1" stop-color="#959595"/>
</linearGradient>
<linearGradient id="paint103_linear_17_969" x1="10.03" y1="6.86001" x2="12.02" y2="12.95" gradientUnits="userSpaceOnUse">
<stop stop-color="#D2D2D2"/>
<stop offset="1" stop-color="#979797"/>
</linearGradient>
<linearGradient id="paint104_linear_17_969" x1="10.01" y1="6.84001" x2="12" y2="12.93" gradientUnits="userSpaceOnUse">
<stop stop-color="#D4D4D4"/>
<stop offset="1" stop-color="#989898"/>
</linearGradient>
<linearGradient id="paint105_linear_17_969" x1="9.99" y1="6.82" x2="11.98" y2="12.91" gradientUnits="userSpaceOnUse">
<stop stop-color="#D5D5D5"/>
<stop offset="1" stop-color="#999999"/>
</linearGradient>
<linearGradient id="paint106_linear_17_969" x1="9.97004" y1="6.80001" x2="11.96" y2="12.89" gradientUnits="userSpaceOnUse">
<stop stop-color="#D7D7D7"/>
<stop offset="1" stop-color="#9B9B9B"/>
</linearGradient>
<linearGradient id="paint107_linear_17_969" x1="9.95002" y1="6.78001" x2="11.94" y2="12.87" gradientUnits="userSpaceOnUse">
<stop stop-color="#D9D9D9"/>
<stop offset="1" stop-color="#9C9C9C"/>
</linearGradient>
<linearGradient id="paint108_linear_17_969" x1="9.93" y1="6.76001" x2="11.91" y2="12.85" gradientUnits="userSpaceOnUse">
<stop stop-color="#DBDBDB"/>
<stop offset="1" stop-color="#9D9D9D"/>
</linearGradient>
<linearGradient id="paint109_linear_17_969" x1="9.91004" y1="6.74" x2="11.89" y2="12.83" gradientUnits="userSpaceOnUse">
<stop stop-color="#DDDDDD"/>
<stop offset="1" stop-color="#9E9E9E"/>
</linearGradient>
<linearGradient id="paint110_linear_17_969" x1="9.89002" y1="6.72" x2="11.87" y2="12.81" gradientUnits="userSpaceOnUse">
<stop stop-color="#DEDEDE"/>
<stop offset="1" stop-color="#A0A0A0"/>
</linearGradient>
<linearGradient id="paint111_linear_17_969" x1="9.85999" y1="6.70001" x2="11.85" y2="12.79" gradientUnits="userSpaceOnUse">
<stop stop-color="#E0E0E0"/>
<stop offset="1" stop-color="#A1A1A1"/>
</linearGradient>
<linearGradient id="paint112_linear_17_969" x1="9.84003" y1="6.68001" x2="11.83" y2="12.77" gradientUnits="userSpaceOnUse">
<stop stop-color="#E2E2E2"/>
<stop offset="1" stop-color="#A2A2A2"/>
</linearGradient>
<linearGradient id="paint113_linear_17_969" x1="9.82001" y1="6.66" x2="11.81" y2="12.75" gradientUnits="userSpaceOnUse">
<stop stop-color="#E4E4E4"/>
<stop offset="1" stop-color="#A4A4A4"/>
</linearGradient>
<linearGradient id="paint114_linear_17_969" x1="9.8" y1="6.64" x2="11.79" y2="12.73" gradientUnits="userSpaceOnUse">
<stop stop-color="#E6E6E6"/>
<stop offset="1" stop-color="#A5A5A5"/>
</linearGradient>
<linearGradient id="paint115_linear_17_969" x1="9.78004" y1="6.62001" x2="11.77" y2="12.71" gradientUnits="userSpaceOnUse">
<stop stop-color="#E8E8E8"/>
<stop offset="1" stop-color="#A6A6A6"/>
</linearGradient>
<linearGradient id="paint116_linear_17_969" x1="9.76002" y1="6.60001" x2="11.75" y2="12.69" gradientUnits="userSpaceOnUse">
<stop stop-color="#E9E9E9"/>
<stop offset="1" stop-color="#A8A8A8"/>
</linearGradient>
<linearGradient id="paint117_linear_17_969" x1="9.74" y1="6.58" x2="11.73" y2="12.66" gradientUnits="userSpaceOnUse">
<stop stop-color="#EBEBEB"/>
<stop offset="1" stop-color="#A9A9A9"/>
</linearGradient>
<linearGradient id="paint118_linear_17_969" x1="9.72004" y1="6.55001" x2="11.7" y2="12.64" gradientUnits="userSpaceOnUse">
<stop stop-color="#EDEDED"/>
<stop offset="1" stop-color="#AAAAAA"/>
</linearGradient>
<linearGradient id="paint119_linear_17_969" x1="9.70002" y1="6.53001" x2="11.68" y2="12.62" gradientUnits="userSpaceOnUse">
<stop stop-color="#EFEFEF"/>
<stop offset="1" stop-color="#ABABAB"/>
</linearGradient>
<linearGradient id="paint120_linear_17_969" x1="9.68" y1="6.51001" x2="11.66" y2="12.6" gradientUnits="userSpaceOnUse">
<stop stop-color="#F1F1F1"/>
<stop offset="1" stop-color="#ADADAD"/>
</linearGradient>
<linearGradient id="paint121_linear_17_969" x1="9.65003" y1="6.49" x2="11.64" y2="12.58" gradientUnits="userSpaceOnUse">
<stop stop-color="#F2F2F2"/>
<stop offset="1" stop-color="#AEAEAE"/>
</linearGradient>
<linearGradient id="paint122_linear_17_969" x1="9.63001" y1="6.47001" x2="11.62" y2="12.56" gradientUnits="userSpaceOnUse">
<stop stop-color="#F4F4F4"/>
<stop offset="1" stop-color="#AFAFAF"/>
</linearGradient>
<linearGradient id="paint123_linear_17_969" x1="9.60999" y1="6.45001" x2="11.6" y2="12.54" gradientUnits="userSpaceOnUse">
<stop stop-color="#F6F6F6"/>
<stop offset="1" stop-color="#B1B1B1"/>
</linearGradient>
<linearGradient id="paint124_linear_17_969" x1="9.59003" y1="6.43" x2="11.58" y2="12.52" gradientUnits="userSpaceOnUse">
<stop stop-color="#F8F8F8"/>
<stop offset="1" stop-color="#B2B2B2"/>
</linearGradient>
<linearGradient id="paint125_linear_17_969" x1="9.57002" y1="6.41001" x2="11.56" y2="12.5" gradientUnits="userSpaceOnUse">
<stop stop-color="#FAFAFA"/>
<stop offset="1" stop-color="#B3B3B3"/>
</linearGradient>
<linearGradient id="paint126_linear_17_969" x1="9.55" y1="6.39001" x2="11.54" y2="12.48" gradientUnits="userSpaceOnUse">
<stop stop-color="#FBFBFB"/>
<stop offset="1" stop-color="#B4B4B4"/>
</linearGradient>
<linearGradient id="paint127_linear_17_969" x1="9.53004" y1="6.37001" x2="11.52" y2="12.46" gradientUnits="userSpaceOnUse">
<stop stop-color="#FDFDFD"/>
<stop offset="1" stop-color="#B6B6B6"/>
</linearGradient>
<linearGradient id="paint128_linear_17_969" x1="9.51002" y1="6.35001" x2="11.49" y2="12.44" gradientUnits="userSpaceOnUse">
<stop stop-color="white"/>
<stop offset="1" stop-color="#B7B7B7"/>
</linearGradient>
<linearGradient id="paint129_linear_17_969" x1="9.84998" y1="6.83" x2="11.84" y2="12.92" gradientUnits="userSpaceOnUse">
<stop offset="0.05" stop-color="#C9C9C9" stop-opacity="0.5"/>
<stop offset="0.41" stop-color="#D4D4D4" stop-opacity="0.5"/>
<stop offset="0.87" stop-color="#F3F3F3" stop-opacity="0.5"/>
<stop offset="1" stop-color="white" stop-opacity="0.5"/>
</linearGradient>
<linearGradient id="paint130_linear_17_969" x1="18.52" y1="5.54" x2="47.89" y2="33.51" gradientUnits="userSpaceOnUse">
<stop stop-color="#EEFFF3" stop-opacity="0"/>
<stop offset="0.6" stop-color="white"/>
<stop offset="0.64" stop-color="#FEFFFE" stop-opacity="0.98"/>
<stop offset="0.69" stop-color="#FDFFFE" stop-opacity="0.92"/>
<stop offset="0.74" stop-color="#FCFFFC" stop-opacity="0.82"/>
<stop offset="0.8" stop-color="#F9FFFB" stop-opacity="0.69"/>
<stop offset="0.86" stop-color="#F6FFF9" stop-opacity="0.51"/>
<stop offset="0.92" stop-color="#F3FFF6" stop-opacity="0.3"/>
<stop offset="0.99" stop-color="#EEFFF3" stop-opacity="0.05"/>
<stop offset="1" stop-color="#EEFFF3" stop-opacity="0"/>
</linearGradient>
<linearGradient id="paint131_linear_17_969" x1="28.4" y1="23.47" x2="36.86" y2="42.52" gradientUnits="userSpaceOnUse">
<stop offset="0.05" stop-color="#575757"/>
<stop offset="0.33" stop-color="#575757" stop-opacity="0.93"/>
<stop offset="0.67" stop-color="#585858" stop-opacity="0.75"/>
<stop offset="1" stop-color="#595959" stop-opacity="0.5"/>
</linearGradient>
<linearGradient id="paint132_linear_17_969" x1="18.52" y1="30.82" x2="47.89" y2="58.8" gradientUnits="userSpaceOnUse">
<stop stop-color="#EEFFF3" stop-opacity="0"/>
<stop offset="0.6" stop-color="white"/>
<stop offset="0.64" stop-color="#FEFFFE" stop-opacity="0.98"/>
<stop offset="0.69" stop-color="#FDFFFE" stop-opacity="0.92"/>
<stop offset="0.74" stop-color="#FCFFFC" stop-opacity="0.82"/>
<stop offset="0.8" stop-color="#F9FFFB" stop-opacity="0.69"/>
<stop offset="0.86" stop-color="#F6FFF9" stop-opacity="0.51"/>
<stop offset="0.92" stop-color="#F3FFF6" stop-opacity="0.3"/>
<stop offset="0.99" stop-color="#EEFFF3" stop-opacity="0.05"/>
<stop offset="1" stop-color="#EEFFF3" stop-opacity="0"/>
</linearGradient>
<linearGradient id="paint133_linear_17_969" x1="2.93381e-05" y1="48.74" x2="1.00003" y2="67.79" gradientUnits="userSpaceOnUse">
<stop offset="0.05" stop-color="#575757"/>
<stop offset="0.33" stop-color="#575757" stop-opacity="0.93"/>
<stop offset="0.67" stop-color="#585858" stop-opacity="0.75"/>
<stop offset="1" stop-color="#595959" stop-opacity="0.5"/>
</linearGradient>
<linearGradient id="paint134_linear_17_969" x1="18.52" y1="56.09" x2="47.89" y2="84.07" gradientUnits="userSpaceOnUse">
<stop stop-color="#EEFFF3" stop-opacity="0"/>
<stop offset="0.6" stop-color="white"/>
<stop offset="0.64" stop-color="#FEFFFE" stop-opacity="0.98"/>
<stop offset="0.69" stop-color="#FDFFFE" stop-opacity="0.92"/>
<stop offset="0.74" stop-color="#FCFFFC" stop-opacity="0.82"/>
<stop offset="0.8" stop-color="#F9FFFB" stop-opacity="0.69"/>
<stop offset="0.86" stop-color="#F6FFF9" stop-opacity="0.51"/>
<stop offset="0.92" stop-color="#F3FFF6" stop-opacity="0.3"/>
<stop offset="0.99" stop-color="#EEFFF3" stop-opacity="0.05"/>
<stop offset="1" stop-color="#EEFFF3" stop-opacity="0"/>
</linearGradient>
<linearGradient id="paint135_linear_17_969" x1="4.1838e-05" y1="32.26" x2="12.15" y2="38.35" gradientUnits="userSpaceOnUse">
<stop stop-color="#C7C7C7"/>
<stop offset="1" stop-color="#8F8F8F"/>
</linearGradient>
<linearGradient id="paint136_linear_17_969" x1="2.18398e-05" y1="32.24" x2="12.12" y2="38.32" gradientUnits="userSpaceOnUse">
<stop stop-color="#C9C9C9"/>
<stop offset="1" stop-color="#909090"/>
</linearGradient>
<linearGradient id="paint137_linear_17_969" x1="2.71957e-06" y1="32.21" x2="12.1" y2="38.3" gradientUnits="userSpaceOnUse">
<stop stop-color="#CBCBCB"/>
<stop offset="1" stop-color="#929292"/>
</linearGradient>
<linearGradient id="paint138_linear_17_969" x1="10.1" y1="32.19" x2="12.08" y2="38.28" gradientUnits="userSpaceOnUse">
<stop stop-color="#CCCCCC"/>
<stop offset="1" stop-color="#939393"/>
</linearGradient>
<linearGradient id="paint139_linear_17_969" x1="1.41546e-05" y1="32.17" x2="12.06" y2="38.26" gradientUnits="userSpaceOnUse">
<stop stop-color="#CECECE"/>
<stop offset="1" stop-color="#949494"/>
</linearGradient>
<linearGradient id="paint140_linear_17_969" x1="10.05" y1="32.15" x2="12.04" y2="38.24" gradientUnits="userSpaceOnUse">
<stop stop-color="#D0D0D0"/>
<stop offset="1" stop-color="#959595"/>
</linearGradient>
<linearGradient id="paint141_linear_17_969" x1="3.71253e-05" y1="32.13" x2="12.02" y2="38.22" gradientUnits="userSpaceOnUse">
<stop stop-color="#D2D2D2"/>
<stop offset="1" stop-color="#979797"/>
</linearGradient>
<linearGradient id="paint142_linear_17_969" x1="1.72661e-05" y1="32.11" x2="12" y2="38.2" gradientUnits="userSpaceOnUse">
<stop stop-color="#D4D4D4"/>
<stop offset="1" stop-color="#989898"/>
</linearGradient>
<linearGradient id="paint143_linear_17_969" x1="9.99" y1="32.09" x2="11.98" y2="38.18" gradientUnits="userSpaceOnUse">
<stop stop-color="#D5D5D5"/>
<stop offset="1" stop-color="#999999"/>
</linearGradient>
<linearGradient id="paint144_linear_17_969" x1="9.97004" y1="32.07" x2="11.96" y2="38.16" gradientUnits="userSpaceOnUse">
<stop stop-color="#D7D7D7"/>
<stop offset="1" stop-color="#9B9B9B"/>
</linearGradient>
<linearGradient id="paint145_linear_17_969" x1="1.98198e-05" y1="32.05" x2="11.94" y2="38.14" gradientUnits="userSpaceOnUse">
<stop stop-color="#D9D9D9"/>
<stop offset="1" stop-color="#9C9C9C"/>
</linearGradient>
<linearGradient id="paint146_linear_17_969" x1="-6.28215e-08" y1="32.03" x2="11.91" y2="38.12" gradientUnits="userSpaceOnUse">
<stop stop-color="#DBDBDB"/>
<stop offset="1" stop-color="#9D9D9D"/>
</linearGradient>
<linearGradient id="paint147_linear_17_969" x1="9.91004" y1="32.01" x2="11.89" y2="38.1" gradientUnits="userSpaceOnUse">
<stop stop-color="#DDDDDD"/>
<stop offset="1" stop-color="#9E9E9E"/>
</linearGradient>
<linearGradient id="paint148_linear_17_969" x1="9.89002" y1="31.99" x2="11.87" y2="38.08" gradientUnits="userSpaceOnUse">
<stop stop-color="#DEDEDE"/>
<stop offset="1" stop-color="#A0A0A0"/>
</linearGradient>
<linearGradient id="paint149_linear_17_969" x1="9.85999" y1="31.97" x2="11.85" y2="38.06" gradientUnits="userSpaceOnUse">
<stop stop-color="#E0E0E0"/>
<stop offset="1" stop-color="#A1A1A1"/>
</linearGradient>
<linearGradient id="paint150_linear_17_969" x1="9.84003" y1="31.95" x2="11.83" y2="38.04" gradientUnits="userSpaceOnUse">
<stop stop-color="#E2E2E2"/>
<stop offset="1" stop-color="#A2A2A2"/>
</linearGradient>
<linearGradient id="paint151_linear_17_969" x1="9.82001" y1="31.93" x2="11.81" y2="38.02" gradientUnits="userSpaceOnUse">
<stop stop-color="#E4E4E4"/>
<stop offset="1" stop-color="#A4A4A4"/>
</linearGradient>
<linearGradient id="paint152_linear_17_969" x1="9.8" y1="31.91" x2="11.79" y2="38" gradientUnits="userSpaceOnUse">
<stop stop-color="#E6E6E6"/>
<stop offset="1" stop-color="#A5A5A5"/>
</linearGradient>
<linearGradient id="paint153_linear_17_969" x1="9.78004" y1="31.89" x2="11.77" y2="37.97" gradientUnits="userSpaceOnUse">
<stop stop-color="#E8E8E8"/>
<stop offset="1" stop-color="#A6A6A6"/>
</linearGradient>
<linearGradient id="paint154_linear_17_969" x1="9.76002" y1="31.86" x2="11.75" y2="37.95" gradientUnits="userSpaceOnUse">
<stop stop-color="#E9E9E9"/>
<stop offset="1" stop-color="#A8A8A8"/>
</linearGradient>
<linearGradient id="paint155_linear_17_969" x1="9.74" y1="31.84" x2="11.73" y2="37.93" gradientUnits="userSpaceOnUse">
<stop stop-color="#EBEBEB"/>
<stop offset="1" stop-color="#A9A9A9"/>
</linearGradient>
<linearGradient id="paint156_linear_17_969" x1="3.90524e-05" y1="31.82" x2="11.7" y2="37.91" gradientUnits="userSpaceOnUse">
<stop stop-color="#EDEDED"/>
<stop offset="1" stop-color="#AAAAAA"/>
</linearGradient>
<linearGradient id="paint157_linear_17_969" x1="9.70002" y1="31.8" x2="11.68" y2="37.89" gradientUnits="userSpaceOnUse">
<stop stop-color="#EFEFEF"/>
<stop offset="1" stop-color="#ABABAB"/>
</linearGradient>
<linearGradient id="paint158_linear_17_969" x1="-9.38574e-08" y1="31.78" x2="11.66" y2="37.87" gradientUnits="userSpaceOnUse">
<stop stop-color="#F1F1F1"/>
<stop offset="1" stop-color="#ADADAD"/>
</linearGradient>
<linearGradient id="paint159_linear_17_969" x1="3.13695e-05" y1="31.76" x2="11.64" y2="37.85" gradientUnits="userSpaceOnUse">
<stop stop-color="#F2F2F2"/>
<stop offset="1" stop-color="#AEAEAE"/>
</linearGradient>
<linearGradient id="paint160_linear_17_969" x1="1.20515e-05" y1="31.74" x2="11.62" y2="37.83" gradientUnits="userSpaceOnUse">
<stop stop-color="#F4F4F4"/>
<stop offset="1" stop-color="#AFAFAF"/>
</linearGradient>
<linearGradient id="paint161_linear_17_969" x1="9.60999" y1="31.72" x2="11.6" y2="37.81" gradientUnits="userSpaceOnUse">
<stop stop-color="#F6F6F6"/>
<stop offset="1" stop-color="#B1B1B1"/>
</linearGradient>
<linearGradient id="paint162_linear_17_969" x1="3.4169e-05" y1="31.7" x2="11.58" y2="37.79" gradientUnits="userSpaceOnUse">
<stop stop-color="#F8F8F8"/>
<stop offset="1" stop-color="#B2B2B2"/>
</linearGradient>
<linearGradient id="paint163_linear_17_969" x1="9.57002" y1="31.68" x2="11.56" y2="37.77" gradientUnits="userSpaceOnUse">
<stop stop-color="#FAFAFA"/>
<stop offset="1" stop-color="#B3B3B3"/>
</linearGradient>
<linearGradient id="paint164_linear_17_969" x1="-5.28323e-06" y1="31.66" x2="11.54" y2="37.75" gradientUnits="userSpaceOnUse">
<stop stop-color="#FBFBFB"/>
<stop offset="1" stop-color="#B4B4B4"/>
</linearGradient>
<linearGradient id="paint165_linear_17_969" x1="9.53004" y1="31.64" x2="11.52" y2="37.73" gradientUnits="userSpaceOnUse">
<stop stop-color="#FDFDFD"/>
<stop offset="1" stop-color="#B6B6B6"/>
</linearGradient>
<linearGradient id="paint166_linear_17_969" x1="9.51002" y1="31.62" x2="11.49" y2="37.71" gradientUnits="userSpaceOnUse">
<stop stop-color="white"/>
<stop offset="1" stop-color="#B7B7B7"/>
</linearGradient>
<linearGradient id="paint167_linear_17_969" x1="-1.71991e-05" y1="32.1" x2="11.84" y2="38.19" gradientUnits="userSpaceOnUse">
<stop offset="0.05" stop-color="#C9C9C9" stop-opacity="0.5"/>
<stop offset="0.41" stop-color="#D4D4D4" stop-opacity="0.5"/>
<stop offset="0.87" stop-color="#F3F3F3" stop-opacity="0.5"/>
<stop offset="1" stop-color="white" stop-opacity="0.5"/>
</linearGradient>
<linearGradient id="paint168_linear_17_969" x1="4.18375e-05" y1="57.52" x2="12.15" y2="63.61" gradientUnits="userSpaceOnUse">
<stop stop-color="#C7C7C7"/>
<stop offset="1" stop-color="#8F8F8F"/>
</linearGradient>
<linearGradient id="paint169_linear_17_969" x1="10.14" y1="57.5" x2="12.12" y2="63.59" gradientUnits="userSpaceOnUse">
<stop stop-color="#C9C9C9"/>
<stop offset="1" stop-color="#909090"/>
</linearGradient>
<linearGradient id="paint170_linear_17_969" x1="10.12" y1="57.48" x2="12.1" y2="63.57" gradientUnits="userSpaceOnUse">
<stop stop-color="#CBCBCB"/>
<stop offset="1" stop-color="#929292"/>
</linearGradient>
<linearGradient id="paint171_linear_17_969" x1="10.1" y1="57.46" x2="12.08" y2="63.55" gradientUnits="userSpaceOnUse">
<stop stop-color="#CCCCCC"/>
<stop offset="1" stop-color="#939393"/>
</linearGradient>
<linearGradient id="paint172_linear_17_969" x1="10.07" y1="57.44" x2="12.06" y2="63.53" gradientUnits="userSpaceOnUse">
<stop stop-color="#CECECE"/>
<stop offset="1" stop-color="#949494"/>
</linearGradient>
<linearGradient id="paint173_linear_17_969" x1="10.05" y1="57.42" x2="12.04" y2="63.51" gradientUnits="userSpaceOnUse">
<stop stop-color="#D0D0D0"/>
<stop offset="1" stop-color="#959595"/>
</linearGradient>
<linearGradient id="paint174_linear_17_969" x1="3.71253e-05" y1="57.4" x2="12.02" y2="63.49" gradientUnits="userSpaceOnUse">
<stop stop-color="#D2D2D2"/>
<stop offset="1" stop-color="#979797"/>
</linearGradient>
<linearGradient id="paint175_linear_17_969" x1="1.72661e-05" y1="57.38" x2="12" y2="63.47" gradientUnits="userSpaceOnUse">
<stop stop-color="#D4D4D4"/>
<stop offset="1" stop-color="#989898"/>
</linearGradient>
<linearGradient id="paint176_linear_17_969" x1="9.99" y1="57.36" x2="11.98" y2="63.45" gradientUnits="userSpaceOnUse">
<stop stop-color="#D5D5D5"/>
<stop offset="1" stop-color="#999999"/>
</linearGradient>
<linearGradient id="paint177_linear_17_969" x1="9.97004" y1="57.34" x2="11.96" y2="63.43" gradientUnits="userSpaceOnUse">
<stop stop-color="#D7D7D7"/>
<stop offset="1" stop-color="#9B9B9B"/>
</linearGradient>
<linearGradient id="paint178_linear_17_969" x1="9.95002" y1="57.32" x2="11.94" y2="63.41" gradientUnits="userSpaceOnUse">
<stop stop-color="#D9D9D9"/>
<stop offset="1" stop-color="#9C9C9C"/>
</linearGradient>
<linearGradient id="paint179_linear_17_969" x1="-6.28215e-08" y1="57.3" x2="11.91" y2="63.39" gradientUnits="userSpaceOnUse">
<stop stop-color="#DBDBDB"/>
<stop offset="1" stop-color="#9D9D9D"/>
</linearGradient>
<linearGradient id="paint180_linear_17_969" x1="9.91004" y1="57.28" x2="11.89" y2="63.37" gradientUnits="userSpaceOnUse">
<stop stop-color="#DDDDDD"/>
<stop offset="1" stop-color="#9E9E9E"/>
</linearGradient>
<linearGradient id="paint181_linear_17_969" x1="9.89002" y1="57.26" x2="11.87" y2="63.35" gradientUnits="userSpaceOnUse">
<stop stop-color="#DEDEDE"/>
<stop offset="1" stop-color="#A0A0A0"/>
</linearGradient>
<linearGradient id="paint182_linear_17_969" x1="-7.69754e-06" y1="57.24" x2="11.85" y2="63.33" gradientUnits="userSpaceOnUse">
<stop stop-color="#E0E0E0"/>
<stop offset="1" stop-color="#A1A1A1"/>
</linearGradient>
<linearGradient id="paint183_linear_17_969" x1="9.84003" y1="57.22" x2="11.83" y2="63.31" gradientUnits="userSpaceOnUse">
<stop stop-color="#E2E2E2"/>
<stop offset="1" stop-color="#A2A2A2"/>
</linearGradient>
<linearGradient id="paint184_linear_17_969" x1="9.82001" y1="57.2" x2="11.81" y2="63.28" gradientUnits="userSpaceOnUse">
<stop stop-color="#E4E4E4"/>
<stop offset="1" stop-color="#A4A4A4"/>
</linearGradient>
<linearGradient id="paint185_linear_17_969" x1="9.8" y1="57.17" x2="11.79" y2="63.26" gradientUnits="userSpaceOnUse">
<stop stop-color="#E6E6E6"/>
<stop offset="1" stop-color="#A5A5A5"/>
</linearGradient>
<linearGradient id="paint186_linear_17_969" x1="9.78004" y1="57.15" x2="11.77" y2="63.24" gradientUnits="userSpaceOnUse">
<stop stop-color="#E8E8E8"/>
<stop offset="1" stop-color="#A6A6A6"/>
</linearGradient>
<linearGradient id="paint187_linear_17_969" x1="9.76002" y1="57.13" x2="11.75" y2="63.22" gradientUnits="userSpaceOnUse">
<stop stop-color="#E9E9E9"/>
<stop offset="1" stop-color="#A8A8A8"/>
</linearGradient>
<linearGradient id="paint188_linear_17_969" x1="9.74" y1="57.11" x2="11.73" y2="63.2" gradientUnits="userSpaceOnUse">
<stop stop-color="#EBEBEB"/>
<stop offset="1" stop-color="#A9A9A9"/>
</linearGradient>
<linearGradient id="paint189_linear_17_969" x1="9.72004" y1="57.09" x2="11.7" y2="63.18" gradientUnits="userSpaceOnUse">
<stop stop-color="#EDEDED"/>
<stop offset="1" stop-color="#AAAAAA"/>
</linearGradient>
<linearGradient id="paint190_linear_17_969" x1="9.70002" y1="57.07" x2="11.68" y2="63.16" gradientUnits="userSpaceOnUse">
<stop stop-color="#EFEFEF"/>
<stop offset="1" stop-color="#ABABAB"/>
</linearGradient>
<linearGradient id="paint191_linear_17_969" x1="-9.38574e-08" y1="57.05" x2="11.66" y2="63.14" gradientUnits="userSpaceOnUse">
<stop stop-color="#F1F1F1"/>
<stop offset="1" stop-color="#ADADAD"/>
</linearGradient>
<linearGradient id="paint192_linear_17_969" x1="9.65003" y1="57.03" x2="11.64" y2="63.12" gradientUnits="userSpaceOnUse">
<stop stop-color="#F2F2F2"/>
<stop offset="1" stop-color="#AEAEAE"/>
</linearGradient>
<linearGradient id="paint193_linear_17_969" x1="9.63001" y1="57.01" x2="11.62" y2="63.1" gradientUnits="userSpaceOnUse">
<stop stop-color="#F4F4F4"/>
<stop offset="1" stop-color="#AFAFAF"/>
</linearGradient>
<linearGradient id="paint194_linear_17_969" x1="9.60999" y1="56.99" x2="11.6" y2="63.08" gradientUnits="userSpaceOnUse">
<stop stop-color="#F6F6F6"/>
<stop offset="1" stop-color="#B1B1B1"/>
</linearGradient>
<linearGradient id="paint195_linear_17_969" x1="3.41584e-05" y1="56.97" x2="11.58" y2="63.06" gradientUnits="userSpaceOnUse">
<stop stop-color="#F8F8F8"/>
<stop offset="1" stop-color="#B2B2B2"/>
</linearGradient>
<linearGradient id="paint196_linear_17_969" x1="1.39904e-05" y1="56.95" x2="11.56" y2="63.04" gradientUnits="userSpaceOnUse">
<stop stop-color="#FAFAFA"/>
<stop offset="1" stop-color="#B3B3B3"/>
</linearGradient>
<linearGradient id="paint197_linear_17_969" x1="9.55" y1="56.93" x2="11.54" y2="63.02" gradientUnits="userSpaceOnUse">
<stop stop-color="#FBFBFB"/>
<stop offset="1" stop-color="#B4B4B4"/>
</linearGradient>
<linearGradient id="paint198_linear_17_969" x1="9.53004" y1="56.91" x2="11.52" y2="63" gradientUnits="userSpaceOnUse">
<stop stop-color="#FDFDFD"/>
<stop offset="1" stop-color="#B6B6B6"/>
</linearGradient>
<linearGradient id="paint199_linear_17_969" x1="9.51002" y1="56.89" x2="11.49" y2="62.98" gradientUnits="userSpaceOnUse">
<stop stop-color="white"/>
<stop offset="1" stop-color="#B7B7B7"/>
</linearGradient>
<linearGradient id="paint200_linear_17_969" x1="9.84998" y1="57.37" x2="11.84" y2="63.46" gradientUnits="userSpaceOnUse">
<stop offset="0.05" stop-color="#C9C9C9" stop-opacity="0.5"/>
<stop offset="0.41" stop-color="#D4D4D4" stop-opacity="0.5"/>
<stop offset="0.87" stop-color="#F3F3F3" stop-opacity="0.5"/>
<stop offset="1" stop-color="white" stop-opacity="0.5"/>
</linearGradient>
<clipPath id="clip0_17_969">
<rect width="68.66" height="73.22" fill="white"/>
</clipPath>
</defs>
</svg>
