<svg width="91" height="57" viewBox="0 0 91 57" fill="none" xmlns="http://www.w3.org/2000/svg">
<path d="M10.94 27.93L28.1 17.98C28.47 17.77 28.6 17.3 28.41 16.93L25.41 11.13C25.2 10.73 24.7 10.58 24.3 10.81L0.709998 24.47C0.459998 24.61 0.309998 24.87 0.309998 25.16V32.48H0.329998L0.309998 32.52L24.3 46.42C24.69 46.65 25.2 46.5 25.41 46.1L28.41 40.3C28.6 39.92 28.47 39.46 28.1 39.25L10.94 29.3C10.41 28.99 10.41 28.23 10.94 27.92V27.93Z" fill="url(#paint0_linear_17_450)"/>
<path d="M50.02 1.16L31.64 55.57C31.46 56.09 31.85 56.62 32.4 56.62L40.46 56.56C40.8 56.56 41.1 56.34 41.21 56.02L59.59 1.61C59.77 1.09 59.38 0.559998 58.83 0.559998L50.77 0.619998C50.43 0.619998 50.13 0.839998 50.02 1.16Z" fill="url(#paint1_linear_17_450)"/>
<path d="M90.04 24.47L66.45 10.8C66.06 10.57 65.55 10.72 65.34 11.12L62.34 16.92C62.15 17.3 62.28 17.76 62.65 17.97L79.81 27.92C80.34 28.23 80.34 28.99 79.81 29.3L62.65 39.25C62.28 39.46 62.15 39.93 62.34 40.3L65.34 46.1C65.55 46.5 66.05 46.65 66.45 46.42L90.44 32.52L90.42 32.48H90.44V25.16C90.44 24.88 90.29 24.61 90.04 24.47Z" fill="url(#paint2_linear_17_450)"/>
<defs>
<linearGradient id="paint0_linear_17_450" x1="11.67" y1="13.83" x2="21.55" y2="53.65" gradientUnits="userSpaceOnUse">
<stop offset="0.05" stop-color="#575757"/>
<stop offset="0.33" stop-color="#575757" stop-opacity="0.93"/>
<stop offset="0.67" stop-color="#585858" stop-opacity="0.75"/>
<stop offset="1" stop-color="#595959" stop-opacity="0.5"/>
</linearGradient>
<linearGradient id="paint1_linear_17_450" x1="40.45" y1="7.81" x2="50.33" y2="47.62" gradientUnits="userSpaceOnUse">
<stop offset="0.05" stop-color="#575757"/>
<stop offset="0.33" stop-color="#575757" stop-opacity="0.93"/>
<stop offset="0.67" stop-color="#585858" stop-opacity="0.75"/>
<stop offset="1" stop-color="#595959" stop-opacity="0.5"/>
</linearGradient>
<linearGradient id="paint2_linear_17_450" x1="68.71" y1="1.80001" x2="78.6" y2="41.61" gradientUnits="userSpaceOnUse">
<stop offset="0.05" stop-color="#575757"/>
<stop offset="0.33" stop-color="#575757" stop-opacity="0.93"/>
<stop offset="0.67" stop-color="#585858" stop-opacity="0.75"/>
<stop offset="1" stop-color="#595959" stop-opacity="0.5"/>
</linearGradient>
</defs>
</svg>
