<svg width="69" height="85" viewBox="0 0 69 85" fill="none" xmlns="http://www.w3.org/2000/svg">
<g clip-path="url(#clip0_17_503)">
<path d="M2.68994 7.42V79.43C2.68994 82.04 4.79994 84.15 7.40994 84.15H63.6199C66.2299 84.15 68.3399 82.04 68.3399 79.43V31.28L39.7499 2.69H7.41994C4.80994 2.69 2.69994 4.8 2.69994 7.41L2.68994 7.42Z" fill="url(#paint0_linear_17_503)"/>
<path d="M2.60999 7.33V79.34C2.60999 81.95 4.71999 84.06 7.32999 84.06H63.53C66.14 84.06 68.25 81.95 68.25 79.34V31.2L39.66 2.61H7.32999C4.71999 2.61 2.60999 4.72 2.60999 7.33Z" fill="url(#paint1_linear_17_503)"/>
<path d="M2.52002 7.24V79.25C2.52002 81.86 4.63002 83.97 7.24002 83.97H63.44C66.05 83.97 68.16 81.86 68.16 79.25V31.11L39.58 2.52H7.24002C4.63002 2.52 2.52002 4.63 2.52002 7.24Z" fill="url(#paint2_linear_17_503)"/>
<path d="M2.43005 7.15999V79.16C2.43005 81.77 4.54005 83.88 7.15005 83.88H63.3601C65.9701 83.88 68.0801 81.77 68.0801 79.16V31.02L39.4901 2.42999H7.16005C4.55005 2.42999 2.44005 4.53999 2.44005 7.14999L2.43005 7.15999Z" fill="url(#paint3_linear_17_503)"/>
<path d="M2.34998 7.07001V79.08C2.34998 81.69 4.45998 83.8 7.06998 83.8H63.27C65.88 83.8 67.99 81.69 67.99 79.08V30.94L39.4 2.35001H7.06998C4.45998 2.35001 2.34998 4.46001 2.34998 7.07001Z" fill="url(#paint4_linear_17_503)"/>
<path d="M2.26001 6.97999V78.99C2.26001 81.6 4.37001 83.71 6.98001 83.71H63.18C65.79 83.71 67.9 81.6 67.9 78.99V30.85L39.32 2.25999H6.98001C4.37001 2.25999 2.26001 4.36999 2.26001 6.97999Z" fill="url(#paint5_linear_17_503)"/>
<path d="M2.17004 6.89V78.9C2.17004 81.51 4.28004 83.62 6.89004 83.62H63.1C65.71 83.62 67.82 81.51 67.82 78.9V30.76L39.23 2.17H6.89004C4.28004 2.17 2.17004 4.28 2.17004 6.89Z" fill="url(#paint6_linear_17_503)"/>
<path d="M2.08997 6.81V78.82C2.08997 81.43 4.19997 83.54 6.80997 83.54H63.01C65.62 83.54 67.73 81.43 67.73 78.82V30.68L39.14 2.09H6.80997C4.19997 2.09 2.08997 4.2 2.08997 6.81Z" fill="url(#paint7_linear_17_503)"/>
<path d="M2 6.72V78.73C2 81.34 4.11 83.45 6.72 83.45H62.92C65.53 83.45 67.64 81.34 67.64 78.73V30.59L39.06 2H6.72C4.11 2 2 4.11 2 6.72Z" fill="url(#paint8_linear_17_503)"/>
<path d="M1.91003 6.63V78.64C1.91003 81.25 4.02003 83.36 6.63003 83.36H62.84C65.45 83.36 67.56 81.25 67.56 78.64V30.5L38.97 1.91H6.63003C4.03003 1.91 1.91003 4.03 1.91003 6.63Z" fill="url(#paint9_linear_17_503)"/>
<path d="M1.81995 6.55001V78.56C1.81995 81.17 3.92995 83.28 6.53995 83.28H62.7499C65.3599 83.28 67.4699 81.17 67.4699 78.56V30.41L38.8799 1.82001H6.54995C3.93995 1.82001 1.81995 3.94001 1.81995 6.55001Z" fill="url(#paint10_linear_17_503)"/>
<path d="M1.73999 6.46001V78.47C1.73999 81.08 3.84999 83.19 6.45999 83.19H62.66C65.27 83.19 67.38 81.08 67.38 78.47V30.33L38.8 1.74001H6.45999C3.84999 1.74001 1.73999 3.85001 1.73999 6.46001Z" fill="url(#paint11_linear_17_503)"/>
<path d="M1.65002 6.36999V78.38C1.65002 80.99 3.76002 83.1 6.37002 83.1H62.58C65.19 83.1 67.3 80.99 67.3 78.38V30.24L38.71 1.64999H6.37002C3.77002 1.64999 1.65002 3.76999 1.65002 6.36999Z" fill="url(#paint12_linear_17_503)"/>
<path d="M1.56006 6.29V78.3C1.56006 80.91 3.67006 83.02 6.28006 83.02H62.4901C65.1001 83.02 67.2101 80.91 67.2101 78.3V30.15L38.6201 1.56H6.29006C3.68006 1.56 1.56006 3.68 1.56006 6.29Z" fill="url(#paint13_linear_17_503)"/>
<path d="M1.47998 6.2V78.21C1.47998 80.82 3.58998 82.93 6.19998 82.93H62.4C65.01 82.93 67.12 80.82 67.12 78.21V30.07L38.53 1.48H6.19998C3.58998 1.48 1.47998 3.59 1.47998 6.2Z" fill="url(#paint14_linear_17_503)"/>
<path d="M1.39001 6.11V78.12C1.39001 80.73 3.50002 82.84 6.11001 82.84H62.31C64.92 82.84 67.03 80.73 67.03 78.12V29.98L38.45 1.39H6.11001C3.50002 1.39 1.39001 3.5 1.39001 6.11Z" fill="url(#paint15_linear_17_503)"/>
<path d="M1.30005 6.03V78.03C1.30005 80.64 3.41005 82.75 6.02005 82.75H62.23C64.84 82.75 66.95 80.64 66.95 78.03V29.89L38.3601 1.3H6.03005C3.42005 1.3 1.30005 3.42 1.30005 6.03Z" fill="url(#paint16_linear_17_503)"/>
<path d="M1.21997 5.94V77.95C1.21997 80.56 3.32997 82.67 5.93997 82.67H62.14C64.75 82.67 66.86 80.56 66.86 77.95V29.81L38.27 1.22H5.93997C3.32997 1.22 1.21997 3.33 1.21997 5.94Z" fill="url(#paint17_linear_17_503)"/>
<path d="M1.13 5.85V77.86C1.13 80.47 3.24 82.58 5.85 82.58H62.05C64.66 82.58 66.77 80.47 66.77 77.86V29.72L38.19 1.13H5.85C3.24 1.13 1.13 3.24 1.13 5.85Z" fill="url(#paint18_linear_17_503)"/>
<path d="M1.04004 5.76999V77.77C1.04004 80.38 3.15004 82.49 5.76004 82.49H61.97C64.58 82.49 66.69 80.38 66.69 77.77V29.63L38.1 1.03999H5.77004C3.16004 1.03999 1.04004 3.15999 1.04004 5.76999Z" fill="url(#paint19_linear_17_503)"/>
<path d="M0.959961 5.68001V77.69C0.959961 80.3 3.06996 82.41 5.67996 82.41H61.88C64.49 82.41 66.6 80.3 66.6 77.69V29.55L38.01 0.960007H5.67996C3.06996 0.960007 0.959961 3.07001 0.959961 5.68001Z" fill="url(#paint20_linear_17_503)"/>
<path d="M0.869995 5.59V77.6C0.869995 80.21 2.98 82.32 5.59 82.32H61.79C64.4 82.32 66.51 80.21 66.51 77.6V29.46L37.93 0.869995H5.59C2.98 0.869995 0.869995 2.98 0.869995 5.59Z" fill="url(#paint21_linear_17_503)"/>
<path d="M0.780029 5.5V77.51C0.780029 80.12 2.89003 82.23 5.50003 82.23H61.71C64.32 82.23 66.43 80.12 66.43 77.51V29.37L37.84 0.779999H5.50003C2.90003 0.779999 0.780029 2.9 0.780029 5.5Z" fill="url(#paint22_linear_17_503)"/>
<path d="M0.699951 5.42V77.43C0.699951 80.04 2.80995 82.15 5.41995 82.15H61.6199C64.2299 82.15 66.34 80.04 66.34 77.43V29.28L37.75 0.699997H5.41995C2.80995 0.699997 0.699951 2.81 0.699951 5.42Z" fill="url(#paint23_linear_17_503)"/>
<path d="M0.609985 5.33V77.34C0.609985 79.95 2.71999 82.06 5.32999 82.06H61.53C64.14 82.06 66.25 79.95 66.25 77.34V29.2L37.67 0.610001H5.32999C2.71999 0.610001 0.609985 2.72 0.609985 5.33Z" fill="url(#paint24_linear_17_503)"/>
<path d="M0.52002 5.24V77.25C0.52002 79.86 2.63002 81.97 5.24002 81.97H61.45C64.06 81.97 66.17 79.86 66.17 77.25V29.11L37.58 0.520004H5.24002C2.64002 0.520004 0.52002 2.64 0.52002 5.24Z" fill="url(#paint25_linear_17_503)"/>
<path d="M0.430054 5.15999V77.17C0.430054 79.78 2.54005 81.89 5.15005 81.89H61.3601C63.9701 81.89 66.0801 79.78 66.0801 77.17V29.02L37.4901 0.429993H5.16005C2.55005 0.429993 0.430054 2.54999 0.430054 5.15999Z" fill="url(#paint26_linear_17_503)"/>
<path d="M0.349976 5.07001V77.08C0.349976 79.69 2.45998 81.8 5.06998 81.8H61.27C63.88 81.8 65.99 79.69 65.99 77.08V28.94L37.4 0.350006H5.06998C2.45998 0.350006 0.349976 2.46001 0.349976 5.07001Z" fill="url(#paint27_linear_17_503)"/>
<path d="M0.26001 4.97999V76.99C0.26001 79.6 2.37001 81.71 4.98001 81.71H61.19C63.8 81.71 65.91 79.6 65.91 76.99V28.85L37.32 0.259995H4.98001C2.37001 0.259995 0.26001 2.36999 0.26001 4.97999Z" fill="url(#paint28_linear_17_503)"/>
<path d="M0.170044 4.9V76.9C0.170044 79.51 2.28004 81.62 4.89004 81.62H61.1C63.71 81.62 65.82 79.51 65.82 76.9V28.76L37.23 0.169998H4.90004C2.29004 0.169998 0.170044 2.29 0.170044 4.9Z" fill="url(#paint29_linear_17_503)"/>
<path d="M0.0899658 4.81V76.82C0.0899658 79.43 2.19997 81.54 4.80997 81.54H61.01C63.62 81.54 65.73 79.43 65.73 76.82V28.68L37.14 0.0899963H4.80997C2.19997 0.0899963 0.0899658 2.2 0.0899658 4.81Z" fill="url(#paint30_linear_17_503)"/>
<path d="M0 4.72V76.73C0 79.34 2.11 81.45 4.72 81.45H60.92C63.53 81.45 65.64 79.34 65.64 76.73V28.59L37.06 0H4.72C2.11 0 0 2.11 0 4.72Z" fill="url(#paint31_linear_17_503)"/>
<path d="M2.97998 6.74V79.91C2.97998 81.75 4.46998 83.24 6.30998 83.24H63.91C65.75 83.24 67.24 81.75 67.24 79.91V31.43L39.23 3.41H6.31998C4.47998 3.41 2.98998 4.9 2.98998 6.74H2.97998Z" fill="url(#paint32_linear_17_503)"/>
<path style="mix-blend-mode:multiply" d="M37.0601 3.41V27.68C37.0601 30.07 39.0001 32 41.3801 32H67.2501V31.43L39.2301 3.41H37.0601Z" fill="url(#paint33_linear_17_503)"/>
<path d="M37.0601 0V24.27C37.0601 26.66 39.0001 28.59 41.3801 28.59H65.6501L37.0601 0Z" fill="url(#paint34_linear_17_503)"/>
<g opacity="0.5">
<path d="M58.4699 81.45C54.1999 81.54 49.9199 81.61 45.6499 81.64L32.8299 81.7L20.0099 81.64C15.7399 81.61 11.4599 81.54 7.18994 81.45C11.4599 81.36 15.7399 81.29 20.0099 81.26L32.8299 81.2L45.6499 81.26C49.9199 81.29 54.1999 81.36 58.4699 81.45Z" fill="url(#paint35_linear_17_503)"/>
</g>
<g opacity="0.5">
<path d="M37.0601 1.45C37.2701 5.06 37.2801 8.66 37.3101 12.27C37.2801 15.88 37.2701 19.48 37.0601 23.09C36.8501 19.48 36.8401 15.88 36.8101 12.27C36.8401 8.66 36.8501 5.06 37.0601 1.45Z" fill="url(#paint36_linear_17_503)"/>
</g>
</g>
<defs>
<linearGradient id="paint0_linear_17_503" x1="11.4499" y1="32.76" x2="34.1499" y2="54.38" gradientUnits="userSpaceOnUse">
<stop stop-color="#979797"/>
<stop offset="1" stop-color="#7B7B7B"/>
</linearGradient>
<linearGradient id="paint1_linear_17_503" x1="11.36" y1="32.67" x2="34.06" y2="54.3" gradientUnits="userSpaceOnUse">
<stop stop-color="#989898"/>
<stop offset="1" stop-color="#7A7A7A"/>
</linearGradient>
<linearGradient id="paint2_linear_17_503" x1="11.27" y1="32.59" x2="33.98" y2="54.21" gradientUnits="userSpaceOnUse">
<stop stop-color="#999999"/>
<stop offset="1" stop-color="#7A7A7A"/>
</linearGradient>
<linearGradient id="paint3_linear_17_503" x1="11.1901" y1="32.5" x2="33.8901" y2="54.12" gradientUnits="userSpaceOnUse">
<stop stop-color="#9A9A9A"/>
<stop offset="1" stop-color="#797979"/>
</linearGradient>
<linearGradient id="paint4_linear_17_503" x1="11.1" y1="32.41" x2="33.8" y2="54.04" gradientUnits="userSpaceOnUse">
<stop stop-color="#9C9C9C"/>
<stop offset="1" stop-color="#787878"/>
</linearGradient>
<linearGradient id="paint5_linear_17_503" x1="11.01" y1="32.33" x2="33.72" y2="53.95" gradientUnits="userSpaceOnUse">
<stop stop-color="#9D9D9D"/>
<stop offset="1" stop-color="#787878"/>
</linearGradient>
<linearGradient id="paint6_linear_17_503" x1="10.93" y1="32.24" x2="33.63" y2="53.86" gradientUnits="userSpaceOnUse">
<stop stop-color="#9E9E9E"/>
<stop offset="1" stop-color="#777777"/>
</linearGradient>
<linearGradient id="paint7_linear_17_503" x1="10.84" y1="32.15" x2="33.54" y2="53.78" gradientUnits="userSpaceOnUse">
<stop stop-color="#9F9F9F"/>
<stop offset="1" stop-color="#767676"/>
</linearGradient>
<linearGradient id="paint8_linear_17_503" x1="10.75" y1="32.07" x2="33.46" y2="53.69" gradientUnits="userSpaceOnUse">
<stop stop-color="#A0A0A0"/>
<stop offset="1" stop-color="#767676"/>
</linearGradient>
<linearGradient id="paint9_linear_17_503" x1="10.66" y1="31.98" x2="33.37" y2="53.6" gradientUnits="userSpaceOnUse">
<stop stop-color="#A1A1A1"/>
<stop offset="1" stop-color="#757575"/>
</linearGradient>
<linearGradient id="paint10_linear_17_503" x1="10.5799" y1="31.89" x2="33.2799" y2="53.52" gradientUnits="userSpaceOnUse">
<stop stop-color="#A2A2A2"/>
<stop offset="1" stop-color="#747474"/>
</linearGradient>
<linearGradient id="paint11_linear_17_503" x1="10.49" y1="31.81" x2="33.2" y2="53.43" gradientUnits="userSpaceOnUse">
<stop stop-color="#A3A3A3"/>
<stop offset="1" stop-color="#747474"/>
</linearGradient>
<linearGradient id="paint12_linear_17_503" x1="10.4" y1="31.72" x2="33.11" y2="53.34" gradientUnits="userSpaceOnUse">
<stop stop-color="#A5A5A5"/>
<stop offset="1" stop-color="#737373"/>
</linearGradient>
<linearGradient id="paint13_linear_17_503" x1="10.3201" y1="31.63" x2="33.0201" y2="53.26" gradientUnits="userSpaceOnUse">
<stop stop-color="#A6A6A6"/>
<stop offset="1" stop-color="#727272"/>
</linearGradient>
<linearGradient id="paint14_linear_17_503" x1="10.23" y1="31.54" x2="32.94" y2="53.17" gradientUnits="userSpaceOnUse">
<stop stop-color="#A7A7A7"/>
<stop offset="1" stop-color="#727272"/>
</linearGradient>
<linearGradient id="paint15_linear_17_503" x1="10.14" y1="31.46" x2="32.85" y2="53.08" gradientUnits="userSpaceOnUse">
<stop stop-color="#A8A8A8"/>
<stop offset="1" stop-color="#717171"/>
</linearGradient>
<linearGradient id="paint16_linear_17_503" x1="10.06" y1="31.37" x2="32.76" y2="52.99" gradientUnits="userSpaceOnUse">
<stop stop-color="#A9A9A9"/>
<stop offset="1" stop-color="#707070"/>
</linearGradient>
<linearGradient id="paint17_linear_17_503" x1="9.96997" y1="31.28" x2="32.67" y2="52.91" gradientUnits="userSpaceOnUse">
<stop stop-color="#AAAAAA"/>
<stop offset="1" stop-color="#6F6F6F"/>
</linearGradient>
<linearGradient id="paint18_linear_17_503" x1="9.88" y1="31.2" x2="32.59" y2="52.82" gradientUnits="userSpaceOnUse">
<stop stop-color="#ABABAB"/>
<stop offset="1" stop-color="#6F6F6F"/>
</linearGradient>
<linearGradient id="paint19_linear_17_503" x1="9.80004" y1="31.11" x2="32.5" y2="52.73" gradientUnits="userSpaceOnUse">
<stop stop-color="#ACACAC"/>
<stop offset="1" stop-color="#6E6E6E"/>
</linearGradient>
<linearGradient id="paint20_linear_17_503" x1="9.70996" y1="31.02" x2="32.41" y2="52.65" gradientUnits="userSpaceOnUse">
<stop stop-color="#AEAEAE"/>
<stop offset="1" stop-color="#6D6D6D"/>
</linearGradient>
<linearGradient id="paint21_linear_17_503" x1="9.61999" y1="30.94" x2="32.33" y2="52.56" gradientUnits="userSpaceOnUse">
<stop stop-color="#AFAFAF"/>
<stop offset="1" stop-color="#6D6D6D"/>
</linearGradient>
<linearGradient id="paint22_linear_17_503" x1="9.53003" y1="30.85" x2="32.24" y2="52.47" gradientUnits="userSpaceOnUse">
<stop stop-color="#B0B0B0"/>
<stop offset="1" stop-color="#6C6C6C"/>
</linearGradient>
<linearGradient id="paint23_linear_17_503" x1="9.44995" y1="30.76" x2="32.15" y2="52.39" gradientUnits="userSpaceOnUse">
<stop stop-color="#B1B1B1"/>
<stop offset="1" stop-color="#6B6B6B"/>
</linearGradient>
<linearGradient id="paint24_linear_17_503" x1="9.35998" y1="30.68" x2="32.07" y2="52.3" gradientUnits="userSpaceOnUse">
<stop stop-color="#B2B2B2"/>
<stop offset="1" stop-color="#6B6B6B"/>
</linearGradient>
<linearGradient id="paint25_linear_17_503" x1="9.27002" y1="30.59" x2="31.98" y2="52.21" gradientUnits="userSpaceOnUse">
<stop stop-color="#B3B3B3"/>
<stop offset="1" stop-color="#6A6A6A"/>
</linearGradient>
<linearGradient id="paint26_linear_17_503" x1="9.19005" y1="30.5" x2="31.8901" y2="52.13" gradientUnits="userSpaceOnUse">
<stop stop-color="#B4B4B4"/>
<stop offset="1" stop-color="#696969"/>
</linearGradient>
<linearGradient id="paint27_linear_17_503" x1="9.09998" y1="30.41" x2="31.81" y2="52.04" gradientUnits="userSpaceOnUse">
<stop stop-color="#B5B5B5"/>
<stop offset="1" stop-color="#696969"/>
</linearGradient>
<linearGradient id="paint28_linear_17_503" x1="9.01001" y1="30.33" x2="31.72" y2="51.95" gradientUnits="userSpaceOnUse">
<stop stop-color="#B7B7B7"/>
<stop offset="1" stop-color="#686868"/>
</linearGradient>
<linearGradient id="paint29_linear_17_503" x1="8.93004" y1="30.24" x2="31.63" y2="51.86" gradientUnits="userSpaceOnUse">
<stop stop-color="#B8B8B8"/>
<stop offset="1" stop-color="#676767"/>
</linearGradient>
<linearGradient id="paint30_linear_17_503" x1="8.83997" y1="30.15" x2="31.54" y2="51.78" gradientUnits="userSpaceOnUse">
<stop stop-color="#B9B9B9"/>
<stop offset="1" stop-color="#676767"/>
</linearGradient>
<linearGradient id="paint31_linear_17_503" x1="8.75" y1="30.07" x2="31.46" y2="51.69" gradientUnits="userSpaceOnUse">
<stop stop-color="#BABABA"/>
<stop offset="1" stop-color="#666666"/>
</linearGradient>
<linearGradient id="paint32_linear_17_503" x1="5.91998" y1="12.17" x2="69.53" y2="108.05" gradientUnits="userSpaceOnUse">
<stop offset="0.05" stop-color="#575757"/>
<stop offset="0.33" stop-color="#575757" stop-opacity="0.93"/>
<stop offset="0.67" stop-color="#585858" stop-opacity="0.75"/>
<stop offset="1" stop-color="#595959" stop-opacity="0.5"/>
</linearGradient>
<linearGradient id="paint33_linear_17_503" x1="52.1501" y1="32.35" x2="52.1501" y2="17.95" gradientUnits="userSpaceOnUse">
<stop offset="0.05" stop-color="#C9C9C9"/>
<stop offset="0.2" stop-color="#CDCDCD" stop-opacity="0.96"/>
<stop offset="0.4" stop-color="#D8D8D8" stop-opacity="0.85"/>
<stop offset="0.62" stop-color="#EBEBEB" stop-opacity="0.68"/>
<stop offset="0.79" stop-color="white" stop-opacity="0.5"/>
</linearGradient>
<linearGradient id="paint34_linear_17_503" x1="40.9501" y1="7.97" x2="55.0601" y2="33.76" gradientUnits="userSpaceOnUse">
<stop stop-color="#BABABA"/>
<stop offset="1" stop-color="#666666"/>
</linearGradient>
<linearGradient id="paint35_linear_17_503" x1="19.2499" y1="68.53" x2="46.3899" y2="94.38" gradientUnits="userSpaceOnUse">
<stop stop-color="white"/>
<stop offset="0.1" stop-color="#FEFFFE" stop-opacity="0.98"/>
<stop offset="0.23" stop-color="#FDFFFE" stop-opacity="0.92"/>
<stop offset="0.36" stop-color="#FCFFFC" stop-opacity="0.82"/>
<stop offset="0.5" stop-color="#F9FFFB" stop-opacity="0.69"/>
<stop offset="0.65" stop-color="#F6FFF9" stop-opacity="0.51"/>
<stop offset="0.81" stop-color="#F3FFF6" stop-opacity="0.3"/>
<stop offset="0.97" stop-color="#EEFFF3" stop-opacity="0.05"/>
<stop offset="1" stop-color="#EEFFF3" stop-opacity="0"/>
</linearGradient>
<linearGradient id="paint36_linear_17_503" x1="31.5201" y1="7" x2="42.5901" y2="17.54" gradientUnits="userSpaceOnUse">
<stop stop-color="white"/>
<stop offset="0.1" stop-color="#FEFFFE" stop-opacity="0.98"/>
<stop offset="0.23" stop-color="#FDFFFE" stop-opacity="0.92"/>
<stop offset="0.36" stop-color="#FCFFFC" stop-opacity="0.82"/>
<stop offset="0.5" stop-color="#F9FFFB" stop-opacity="0.69"/>
<stop offset="0.65" stop-color="#F6FFF9" stop-opacity="0.51"/>
<stop offset="0.81" stop-color="#F3FFF6" stop-opacity="0.3"/>
<stop offset="0.97" stop-color="#EEFFF3" stop-opacity="0.05"/>
<stop offset="1" stop-color="#EEFFF3" stop-opacity="0"/>
</linearGradient>
<clipPath id="clip0_17_503">
<rect width="68.34" height="84.15" fill="white"/>
</clipPath>
</defs>
</svg>
