<svg width="50" height="33" viewBox="0 0 50 33" fill="none" xmlns="http://www.w3.org/2000/svg">
<g clip-path="url(#clip0)">
<path d="M45.5256 0.369629C44.4039 0.736894 43.2662 1.08819 42.1124 1.40755C30.5427 4.48939 18.8448 3.89857 8.28466 0.369629L6.23352 13.4315L10.3839 14.5493L14.2137 7.55526C15.2393 7.76284 16.2649 7.93849 17.3065 8.09817L18.4923 15.9704L22.7708 16.3377L25.3187 8.7848C26.3603 8.81674 27.4179 8.81674 28.4595 8.7848L31.0074 16.3377L35.286 15.9704L36.4718 8.0822C37.4973 7.92252 38.5229 7.74688 39.5645 7.53929L43.3944 14.5493L47.5447 13.4475L45.5256 0.369629Z" fill="white"/>
<path d="M37.1928 16.3695L33.363 23.3795C32.3374 23.1719 31.3118 22.9962 30.2702 22.8365L29.0844 14.9483L24.7898 14.5811L22.2419 22.1339C21.1843 22.102 20.1427 22.102 19.1011 22.1339L16.5533 14.5811L12.2747 14.9483L11.0889 22.8206C10.0473 22.9803 9.02173 23.1559 7.99616 23.3635L4.16631 16.3695L0.0159607 17.4872L2.0671 30.5331C12.6272 27.0042 24.3251 26.4134 35.8948 29.5112C37.0486 29.8146 38.1863 30.1659 39.308 30.5491L41.3592 17.4872L37.1928 16.3695Z" fill="white"/>
</g>
<defs>
<clipPath id="clip0">
<rect width="50" height="32" fill="white" transform="translate(0 0.369629)"/>
</clipPath>
</defs>
</svg>
