<svg width="50" height="32" viewBox="0 0 50 32" fill="none" xmlns="http://www.w3.org/2000/svg">
<g clip-path="url(#clip0)">
<path d="M45.3652 0C44.2475 0.367265 43.1137 0.718563 41.964 1.03792C30.4351 4.11976 18.7784 3.52894 8.25546 0L6.21155 13.0619L10.3473 14.1796L14.1636 7.18563C15.1856 7.39321 16.2076 7.56886 17.2455 7.72854L18.4271 15.6008L22.6906 15.9681L25.2295 8.41517C26.2674 8.44711 27.3213 8.44711 28.3593 8.41517L30.8982 15.9681L35.1616 15.6008L36.3433 7.71258C37.3652 7.55289 38.3872 7.37725 39.4251 7.16966L43.2415 14.1796L47.3772 13.0778L45.3652 0Z" fill="black"/>
<path d="M37.0619 16.0001L33.2455 23.0101C32.2236 22.8025 31.2016 22.6268 30.1637 22.4672L28.982 14.5789L24.7026 14.2117L22.1637 21.7646C21.1098 21.7326 20.0719 21.7326 19.0339 21.7646L16.495 14.2117L12.2316 14.5789L11.0499 22.4512C10.012 22.6109 8.99004 22.7865 7.96808 22.9941L4.15172 16.0001L0.0159912 17.1179L2.0599 30.1638C12.5829 26.6348 24.2395 26.044 35.7685 29.1418C36.9182 29.4452 38.0519 29.7965 39.1697 30.1797L41.2136 17.1179L37.0619 16.0001Z" fill="black"/>
</g>
<defs>
<clipPath id="clip0">
<rect width="50" height="32" fill="white"/>
</clipPath>
</defs>
</svg>
